<svg width="20" height="20" viewBox="0 0 20 20" fill="none" xmlns="http://www.w3.org/2000/svg">
<rect width="20" height="20" rx="10" fill="#FF0083"/>
<path fill-rule="evenodd" clip-rule="evenodd" d="M14.2874 6.2565C14.1115 6.24478 13.9355 6.31799 13.7975 6.46051C11.9175 8.3368 10.1892 10.2011 8.35928 12.0516L6.51807 9.82827C6.39268 9.6764 6.22072 9.59483 6.04034 9.60062C5.85997 9.6064 5.68586 9.69941 5.55609 9.85911C5.28583 10.1921 5.27914 10.7182 5.54069 11.0337L7.81251 13.7788C8.05451 14.071 8.44665 14.0839 8.72036 13.8077C10.7645 11.7672 12.6223 9.73892 14.6352 7.73031C14.8615 7.51285 14.9594 7.15298 14.8822 6.8256C14.805 6.49822 14.5681 6.27176 14.2874 6.2565Z" fill="white"/>
</svg>
