<?xml version="1.0" encoding="UTF-8"?>
<svg width="277px" height="218px" viewBox="0 0 277 218" version="1.1" xmlns="http://www.w3.org/2000/svg" xmlns:xlink="http://www.w3.org/1999/xlink">
    <!-- Generator: Sketch 60 (88103) - https://sketch.com -->
    <title>404@1x</title>
    <desc>Created with Sketch.</desc>
    <defs>
        <linearGradient x1="-0.43891059%" y1="42.4517754%" x2="100%" y2="57.7256703%" id="linearGradient-1">
            <stop stop-color="#D831B4" offset="0%"></stop>
            <stop stop-color="#6241E9" offset="100%"></stop>
        </linearGradient>
        <linearGradient x1="21.0657627%" y1="0%" x2="78.6824566%" y2="101.175413%" id="linearGradient-2">
            <stop stop-color="#D831B4" offset="0%"></stop>
            <stop stop-color="#6241E9" offset="100%"></stop>
        </linearGradient>
    </defs>
    <g id="Page-1" stroke="none" stroke-width="1" fill="none" fill-rule="evenodd">
        <g id="4.1--Dashboard--dropdown-Copy" transform="translate(-712.000000, -276.000000)">
            <g id="Group" transform="translate(300.000000, 197.000000)">
                <g id="Group-2" transform="translate(368.000000, 79.000000)">
                    <g id="404" transform="translate(44.000000, 0.000000)">
                        <g id="Group-89" transform="translate(0.000000, 93.236455)" fill-rule="nonzero">
                            <path d="M130.052232,62.4072575 L42.857136,62.4072575 L4.66213849,24.6042821 C2.20953401,22.1769209 2.49456507,18.1351637 5.26379643,16.0759188 L7.203345,14.6335447 L84.4773544,15.7811916 L130.052232,62.4072575" id="Fill-64" fill="#FCE7F9"></path>
                            <path d="M43.4631405,63.3952537 L36.2596284,68.7514971 L3.30184658,24.4304215 C1.4783165,21.9779842 1.98786176,18.5124746 4.4401319,16.6882758 L7.203345,14.6335447 L43.4631405,63.3952537" id="Fill-65" fill="#F5C3F5"></path>
                            <path d="M4.7597679,68.7514971 L219.083898,68.7514971 C221.711868,68.7514971 223.843331,66.6200332 223.843331,63.9920636 C223.843331,61.3624222 221.711868,59.2309583 219.083898,59.2309583 L4.7597679,59.2309583 C2.13096239,59.2309583 0,61.3624222 0,63.9920636 C0,66.6200332 2.13096239,68.7514971 4.7597679,68.7514971" id="Fill-66" fill="#F5C3F5"></path>
                            <polygon id="Fill-67" fill="#F5C3F5" points="36.2596284 112.124698 39.6848491 112.124698 39.6848491 68.7514971 36.2596284 68.7514971"></polygon>
                            <polygon id="Fill-69" fill="#F5C3F5" points="211.790112 112.124698 215.2155 112.124698 215.2155 68.7514971 211.790112 68.7514971"></polygon>
                            <g id="Group-90" transform="translate(209.635745, 108.161346)">
                                <path d="M1.13686838e-13,3.88344368 C1.13686838e-13,1.73860586 1.7402776,-3.12638804e-13 3.88511541,-3.12638804e-13 C6.02995322,-3.12638804e-13 7.76855909,1.73860586 7.76855909,3.88344368 C7.76855909,6.02828149 6.02995322,7.76855909 3.88511541,7.76855909 C1.7402776,7.76855909 1.13686838e-13,6.02828149 1.13686838e-13,3.88344368" id="Fill-77" fill="#2B478B"></path>
                                <path d="M1.71854503,3.88344368 C1.71854503,2.68815215 2.68815215,1.71854503 3.88511541,1.71854503 C5.08040695,1.71854503 6.05001406,2.68815215 6.05001406,3.88344368 C6.05001406,5.08040695 5.08040695,6.05001406 3.88511541,6.05001406 C2.68815215,6.05001406 1.71854503,5.08040695 1.71854503,3.88344368" id="Fill-78" fill="#FCE7F9"></path>
                            </g>
                            <polygon id="Fill-70" fill="#F5C3F5" points="96.6526106 112.124698 100.077999 112.124698 100.077999 68.7514971 96.6526106 68.7514971"></polygon>
                            <polygon id="Fill-71" fill="#F5C3F5" points="36.2596284 100.05309 194.678219 100.05309 194.678219 96.4287651 36.2596284 96.4287651"></polygon>
                            <polygon id="Fill-72" fill="#F5C3F5" points="191.252831 100.05309 214.792737 100.05309 214.792737 96.4287651 191.252831 96.4287651"></polygon>
                            <path d="M34.0880427,112.124698 C34.0880427,109.979861 35.8271501,108.241255 37.9723223,108.241255 C40.1174944,108.241255 41.8564347,109.979861 41.8564347,112.124698 C41.8564347,114.269536 40.1174944,116.009814 37.9723223,116.009814 C35.8271501,116.009814 34.0880427,114.269536 34.0880427,112.124698" id="Fill-73" fill="#2B478B"></path>
                            <path d="M35.8065878,112.124698 C35.8065878,110.929406 36.7761949,109.9598 37.9723223,109.9598 C39.1684496,109.9598 40.1378896,110.929406 40.1378896,112.124698 C40.1378896,113.321662 39.1684496,114.291268 37.9723223,114.291268 C36.7761949,114.291268 35.8065878,113.321662 35.8065878,112.124698" id="Fill-74" fill="#FCE7F9"></path>
                            <path d="M94.481025,112.124698 C94.481025,109.979861 96.2196309,108.241255 98.3644687,108.241255 C100.510978,108.241255 102.249584,109.979861 102.249584,112.124698 C102.249584,114.269536 100.510978,116.009814 98.3644687,116.009814 C96.2196309,116.009814 94.481025,114.269536 94.481025,112.124698" id="Fill-75" fill="#2B478B"></path>
                            <path d="M96.1995701,112.124698 C96.1995701,110.929406 97.1691772,109.9598 98.3644687,109.9598 C99.561432,109.9598 100.531039,110.929406 100.531039,112.124698 C100.531039,113.321662 99.561432,114.291268 98.3644687,114.291268 C97.1691772,114.291268 96.1995701,113.321662 96.1995701,112.124698" id="Fill-76" fill="#FCE7F9"></path>
                            <polyline id="Fill-79" fill="#F5C3F5" points="7.8350942 22.0716015 7.8350942 61.3139419 12.6438439 61.3139419 12.6438439 27.4445622 7.8350942 22.0716015"></polyline>
                            <polyline id="Fill-80" fill="#F3A58C" points="80.0706572 24.3418195 98.3276905 31.2477626 88.5095826 32.8158513 81.7474088 28.2586979 80.0706572 24.3418195"></polyline>
                            <path d="M112.768149,59.7893182 C113.476966,60.0601395 124.279726,44.4879149 122.93565,40.1397286 C122.870453,39.9290897 99.6634079,35.4388057 95.8133989,34.3505053 C87.3176345,31.9432049 77.725211,23.355495 72.9256558,22.5463746 C62.9855111,20.8729665 46.5088771,30.7830199 49.1309956,39.3322798 C53.0821446,52.2180241 60.5614933,59.7928074 73.1028598,59.6756401 C73.5492135,59.6722968 111.985777,59.5067948 112.768149,59.7893182" id="Fill-81" fill="#8DD6D7"></path>
                            <path d="M64.1156049,30.1260274 C65.5215352,29.4422872 66.937496,28.3924368 67.5292906,26.9313392 C68.0893224,25.5471414 67.2384085,24.1596002 65.8575543,23.8954658 C65.2624161,23.7817877 64.0270028,22.499566 63.4418951,21.9211452 C61.3254768,19.8298029 59.9964464,18.801685 59.9964464,18.801685 L50.6253608,18.9972782 C51.7781903,19.2881603 54.4579837,25.1643138 54.9996263,28.4977562 C55.4727277,31.409921 61.4307962,31.4299818 64.1156049,30.1260274" id="Fill-82" fill="#F3A58C"></path>
                            <path d="M63.4418951,21.9211452 C62.0309496,19.5840576 61.1282119,18.2088873 61.1282119,18.2088873 L52.5856389,20.9883162 C54.944459,22.6968308 58.109056,23.8269247 63.4418951,21.9211452" id="Fill-83" fill="#DF8D72"></path>
                            <path d="M63.9166683,19.8548789 C63.9166683,19.8548789 53.6588937,25.1024596 50.4881112,18.6629309 C47.3181647,12.2244053 43.8591749,8.56514148 50.2751321,4.94198717 C56.6914235,1.31900002 59.1823107,3.14470335 60.7637734,5.03660745 C62.3452361,6.92851155 66.5045162,18.3235684 63.9166683,19.8548789" id="Fill-84" fill="#F3A58C"></path>
                            <path d="M51.9169443,16.2888981 C51.9169443,16.2888981 50.0158457,15.2935462 50.5524731,14.1146376 C51.0891005,12.9358964 52.0122333,14.1778293 52.6525083,13.9260658 C53.2927834,13.6744694 53.8578303,11.3820173 53.3914159,9.61081261 C52.9233296,7.83977505 60.0599724,8.49743615 62.3251752,6.86448403 C64.5887063,5.23153191 65.7288306,1.14647683 61.1967532,0.583268833 C58.533677,0.252265024 45.1698163,-1.56424376 42.5443541,5.43197311 C39.1975379,14.3501853 49.0775,19.4319297 50.440634,20.2460653 C51.8032663,21.0602009 52.2696807,20.5436344 52.2696807,20.5436344 C52.2696807,20.5436344 53.276066,17.5863327 51.9169443,16.2888981" id="Fill-85" fill="#2C3A64"></path>
                            <path d="M70.4280816,22.3624836 C70.4280816,22.3624836 75.4750538,21.5550349 84.2148917,24.7948601 C84.2148917,24.7948601 83.6130667,27.3141668 80.8998385,28.8053557 C78.188282,30.2948728 70.4280816,22.3624836 70.4280816,22.3624836" id="Fill-86" fill="#8AD5D6"></path>
                            <path d="M191.169244,42.4066031 C191.169244,42.4066031 146.281449,42.9382153 125.456629,36.6157082 C104.631808,30.2948728 87.7038057,30.7077918 87.7038057,30.7077918 C87.7038057,30.7077918 74.0590931,44.8724143 70.7423681,57.8450888 C70.533401,58.6675832 70.4280816,59.5118101 70.4280816,60.3593804 L70.4280816,75.4969536 C70.4280816,75.4969536 95.6813318,69.2998267 125.902982,75.4969536 C149.140119,80.2630741 189.500851,75.4969536 189.500851,75.4969536 L191.169244,42.4066031" id="Fill-87" fill="url(#linearGradient-1)"></path>
                            <path d="M54.0751561,47.6307794 C54.0751561,47.6307794 80.0037878,57.0175793 85.2697574,56.0596743 C90.5357271,55.1034411 104.412811,40.174835 104.412811,40.174835 L101.768124,38.2807576 L83.838751,48.0737896 C83.838751,48.0737896 67.3855214,39.3473255 60.3207632,34.8988349 C56.5158912,32.5032366 51.9854856,46.7664917 54.0751561,47.6307794" id="Fill-88" fill="#F3A58C"></path>
                            <path d="M71.6217014,41.3617678 C70.2659231,46.1830557 67.7666772,50.4292661 61.7935631,53.8462954 C60.817269,54.4046553 60.0365681,55.2388517 59.2458368,54.4848986 C56.4189305,51.7850444 50.5827315,45.88883 49.1309956,39.3322798 C48.9947491,38.7170808 49.6930334,37.4967133 50.1454053,37.0537031 C51.8584336,35.3752797 56.3871675,32.0418373 60.1218267,32.9780098 C63.4418951,33.8105345 68.6677431,36.8731556 71.452856,38.601731 C72.3773262,39.1751366 71.9393313,40.2300023 71.6217014,41.3617678" id="Fill-89" fill="#ABDDDA"></path>
                            <path d="M101.768124,38.2807576 C101.768124,38.2807576 102.851409,35.5207208 103.133932,34.8152481 C103.416456,34.1081036 105.564637,32.3126586 105.648224,32.8158513 C105.733483,33.3173722 104.914332,34.4274052 105.225275,34.4658552 C105.536217,34.5043051 106.835157,32.1304394 107.711147,32.1588589 C108.587137,32.1872784 108.107348,35.2315105 107.796406,36.6157082 C107.485463,38.0015777 104.412811,40.174835 104.412811,40.174835 L101.768124,38.2807576" id="Fill-90" fill="#F3A58C"></path>
                            <path d="M237.091832,68.7514971 L185.157318,68.7514971 C184.522493,68.7514971 184.00251,68.1578093 184.00251,67.4330001 L184.00251,42.4374054 C184.00251,41.7113822 184.522493,41.1176943 185.157318,41.1176943 L237.091832,41.1176943 C237.726658,41.1176943 238.246642,41.7113822 238.246642,42.4374054 L238.246642,67.4330001 C238.246642,68.1578093 237.726658,68.7514971 237.091832,68.7514971" id="Fill-91" fill="#FCE7F9"></path>
                        </g>
                        <g id="Group-93" transform="translate(143.286385, 58.338028)" fill-rule="nonzero">
                            <path d="M35.9095565,4.55230541 C35.9229303,4.18335319 36.2071256,0.207629662 42.2638265,-2.27373675e-13 C42.2638265,-2.27373675e-13 39.2847922,0.355076813 38.7715692,1.66404642 C38.7715692,1.66404642 40.7993854,0.0464742722 42.4493892,0.566718642 C44.1010648,1.08713019 45.070672,3.98007004 45.080864,4.93162241 C45.0907328,5.8830076 44.1729495,8.95047672 43.1247708,9.21126761 C42.7285693,9.31006723 42.2705135,9.28348661 41.8559228,9.21277216 C42.1351028,9.64809233 42.4075959,10.1285494 42.6683867,10.6646752 C45.0857176,15.6250515 42.5931586,20.4725856 40.548625,19.9369613 C39.2363119,19.5934194 38.8651865,21.8322088 38.8651865,21.8322088 L26.1181963,11.5132486 C26.1181963,11.5132486 30.80073,1.8258705 35.9095565,4.55230541" id="Fill-146" fill="#2C3A64"></path>
                            <g id="Group-92" transform="translate(0.000000, 33.350276)" fill="#F3A58C">
                                <path d="M1.17087392,33.2212777 C2.23577001,34.1641371 5.06267628,30.9276554 5.45219086,30.4963474 C5.47225169,30.4562257 5.49398426,30.4361649 5.49398426,30.4361649 L4.63304002,28.0388949 C4.63304002,28.0388949 0.925128665,27.8951256 0.309929667,28.5086528 C-0.305269331,29.1238519 0.00233016793,32.2182359 1.17087392,33.2212777" id="Fill-147"></path>
                                <path d="M4.63304002,28.0388949 L5.00249377,30.51808 C5.00249377,30.51808 5.16632393,30.51808 5.45219086,30.4963474 C6.35325678,30.4344931 8.54490321,30.3124564 11.02576,30.0466504 C13.3895953,29.8126072 16.0376258,29.4632143 18.1055637,28.9616934 C19.2975118,28.672483 20.2988819,28.3314488 20.9425004,27.9352473 C23.6256373,26.2969456 28.0306628,21.276554 30.8993625,16.2564967 C30.9829493,16.1337913 31.0431317,16.0107515 31.104986,15.8878788 C32.069578,14.1676621 32.8486071,12.4563055 33.2999759,10.891393 C33.5507364,10.0329564 33.6978491,9.21982381 33.7279404,8.47172177 C33.7881229,7.1814756 33.6460253,6.07378306 33.3785475,5.11052854 C33.0308264,3.84017604 32.4574208,2.83730137 31.8622826,2.07816587 C31.7803675,1.95546042 31.7001242,1.83258779 31.5764157,1.73128057 C30.5917629,0.562235297 29.6288428,0.0707447932 29.6288428,0.0707447932 C29.2359847,-0.0919151593 28.8197224,0.0307902931 28.3867427,0.388709058 C28.3382622,0.426657475 28.2914537,0.469955448 28.2429733,0.513420594 C28.2413016,0.51509233 28.2396298,0.518770151 28.2362863,0.520609061 C28.1744321,0.57845114 28.1125779,0.639803867 28.0507236,0.706673323 L28.0507236,0.726566986 C27.8919087,0.892904759 27.7297502,1.0898353 27.5625766,1.31384799 C27.5609048,1.31568689 27.5592331,1.3175258 27.5592331,1.31936472 C27.2549771,1.73128057 26.9423624,2.23547627 26.6381063,2.81740771 C26.6180455,2.83730137 26.596313,2.85719504 26.596313,2.87892761 C26.4960087,3.06315296 26.3923611,3.26727198 26.2686526,3.49329074 C26.2285309,3.53307807 26.2084701,3.59443079 26.1884093,3.63605703 C25.9627248,4.10765387 25.7370404,4.59914437 25.5096843,5.11052854 C22.9920493,10.6023499 20.3072406,18.9202415 18.0738007,21.3995938 C17.5538907,21.9760085 16.0275954,22.8506609 14.1803266,23.7793105 L14.1803266,23.7809823 C14.1452202,23.7976996 14.1101138,23.8160888 14.0733355,23.8344778 C14.069992,23.8361496 14.0666486,23.8378213 14.0633051,23.8394931 C12.5236359,24.6101635 10.7716561,25.4142688 9.20189562,26.1130546 C6.68258886,27.2180723 4.63304002,28.0388949 4.63304002,28.0388949" id="Fill-148"></path>
                            </g>
                            <path d="M14.0900528,57.2215311 C14.2087462,57.4940242 14.7470453,58.7795895 15.6163482,60.0868873 C16.321821,61.1467682 17.247963,62.220023 18.344622,62.7733677 C19.1871772,62.3671358 20.7051138,61.7686542 21.3487323,61.3724527 C23.6757894,59.9514767 26.995858,55.9189141 29.7057427,51.5964725 C30.1203333,50.9369725 30.5198783,50.2719557 30.8993625,49.6067718 C30.9829493,49.4840664 31.0431317,49.3610265 31.104986,49.238154 C32.069578,47.5179371 32.8486071,45.8065806 33.2999759,44.2416682 L28.3867427,33.7389842 L28.3750405,33.7137409 C28.3566514,33.7317957 28.3115145,33.7841211 28.2429733,33.8636957 C28.2413016,33.8653674 28.2396298,33.8690453 28.2362863,33.8708841 C28.0975322,34.0317052 27.8651609,34.3063715 27.5625766,34.6641231 C27.5609048,34.665962 27.5592331,34.6678009 27.5592331,34.6696398 C27.2549771,35.0815556 26.9423624,35.5857514 26.6381063,36.1676828 C26.6180455,36.1875765 26.596313,36.2074702 26.596313,36.2292027 C26.4960087,36.4134281 26.3923611,36.6175471 26.2686526,36.8435658 C26.2285309,36.8833532 26.2084701,36.9447059 26.1884093,36.9863322 C25.9627248,37.457929 25.7370404,37.9494195 25.5096843,38.4608036 C22.9920493,43.9526249 20.3072406,52.2705166 18.0738007,54.7498688 C17.5538907,55.3262836 16.0275954,56.2009361 14.1803266,57.1295856 L14.1803266,57.1312573 C14.1402049,57.1914399 14.1101138,57.2215311 14.0900528,57.2215311" id="Fill-149" stroke="#262433" stroke-width="0.511737089" fill="#FFFFFE" stroke-linejoin="round"></path>
                            <path d="M15.6163482,60.0868873 C16.321821,61.1467682 17.247963,62.220023 18.344622,62.7733677 C19.1871772,62.3671358 20.7051138,61.7686542 21.3487323,61.3724527 C23.6757894,59.9514767 26.995858,55.9189141 29.7057427,51.5964725 C29.6054385,50.237518 22.4922,57.2165159 21.5894624,58.4820204 C20.907394,59.4349101 17.3883888,59.9096833 15.6163482,60.0868873" id="Fill-150" fill="#FCE7F9"></path>
                            <path d="M31.4710963,150.681627 L34.1776376,151.689684 C34.1776376,151.689684 45.9383032,135.380223 47.3860269,121.030038 C47.6434743,118.468937 47.5582158,115.98641 46.9981841,113.694459 C46.9981841,113.694459 47.1135338,113.037466 47.3141422,111.877282 C47.4077594,111.335639 47.5231093,110.683661 47.6535047,109.936395 C48.0363323,107.74642 48.5612576,104.748997 49.1630827,101.335311 C50.5456088,93.4814939 52.3393818,83.4427167 53.7319383,76.0620005 L53.0030612,75.8279573 L45.1091219,73.2819028 L43.4775072,68.09952 L37.5996819,66.5531638 C37.5996819,66.5531638 36.2873689,69.1209509 35.1138099,81.2544137 C34.8964842,82.8459068 34.700891,84.60123 34.5521065,86.503666 C34.0940507,92.3129501 34.060616,99.518134 35.1104664,107.756451 C35.3812877,109.866183 35.7206503,112.042784 36.1435995,114.279566 C36.4528708,115.91954 36.4996794,118.154651 36.369284,120.720767 C35.7774893,132.451341 31.4710963,150.681627 31.4710963,150.681627" id="Fill-151" fill="#232543"></path>
                            <path d="M34.5521065,86.503666 L47.3141422,111.877282 C47.4077594,111.335639 47.5231093,110.683661 47.6535047,109.936395 C48.0363323,107.74642 48.5612576,104.748997 49.1630827,101.335311 C50.5456088,93.4814939 52.3393818,83.4427167 53.7319383,76.0620005 L53.0030612,75.8279573 L45.1091219,73.2819028 L43.4775072,68.09952 L37.5996819,66.5531638 C37.5996819,66.5531638 36.2873689,69.1209509 35.1138099,81.2544137 C34.8964842,82.8459068 34.700891,84.60123 34.5521065,86.503666" id="Fill-152" fill="#000000"></path>
                            <path d="M40.1674691,69.8097063 L40.4616947,67.2753539 C45.4117062,68.5893387 58.6368129,63.6008773 58.6368129,63.6008773 C58.6368129,63.6008773 63.4330247,67.8169965 62.80278,77.9209713 C62.4951806,82.8525937 61.9351488,103.80781 61.3483694,110.009952 C61.1360589,112.256765 60.9504962,113.856617 60.8752679,114.49522 C60.8735962,114.498564 60.8735962,114.500235 60.8735962,114.501908 C60.8501919,114.697501 60.9187332,114.881391 61.0173656,115.050237 C61.8799815,116.516349 62.5954848,118.040974 63.1805925,119.602375 C68.9347092,134.935542 62.2945722,153.819476 62.2945722,153.819476 L60.571012,153.124034 C60.571012,153.124034 56.7928877,132.110307 53.7219078,122.825483 C53.2003262,121.250708 52.7021487,120.013622 52.2440929,119.273043 C50.9083755,117.119847 49.6696188,113.59917 48.5445402,109.41147 C46.4197633,101.494126 44.7095769,91.1962302 43.5711244,83.2471235 C43.4139812,83.2538105 40.1674691,69.8097063 40.1674691,69.8097063" id="Fill-153" fill="#232543"></path>
                            <path d="M36.4110774,40.4128903 C44.9202157,40.8791375 43.0512144,28.1938345 42.5313043,28.257862 C41.4898126,27.7140462 39.6208113,25.0727027 38.5391979,20.6541361 L38.1730875,20.8243189 L32.0327997,23.7110734 C32.0327997,23.7110734 32.6847769,25.7092998 33.166237,27.6212647 C33.5423777,29.1176361 33.8115272,30.5633536 33.5858429,30.9677467 C33.102711,31.1645101 32.8118289,31.2883858 32.8118289,31.2883858 C32.8118289,31.2883858 32.8118289,31.2905591 32.8101571,31.2949056 C32.748303,31.4518816 34.1408593,40.2890146 36.4110774,40.4128903" id="Fill-154" fill="#F3A58C"></path>
                            <path d="M32.0327997,23.7124107 C32.0327997,23.7124107 32.6847769,25.7086312 33.166237,27.622435 C36.7554551,26.6210649 37.8454272,22.8482902 38.1730875,20.8256563 L32.0327997,23.7124107" id="Fill-155" fill="#DF8D72"></path>
                            <path d="M31.2755032,25.8261543 C31.2755032,25.8261543 39.8632131,23.838794 38.5425413,18.5101342 C37.2235412,13.1816415 37.4425387,9.33648066 31.9040761,10.3799785 C26.3656133,11.4236436 25.8089251,13.7197735 25.8154958,15.6054922 C25.8239707,17.4912109 29.0086286,26.2058056 31.2755032,25.8261543" id="Fill-156" fill="#F3A58C"></path>
                            <path d="M25.3341519,12.580318 C26.2569504,10.6489609 27.3435791,10.7519399 28.0223041,11.0943115 C32.0578758,7.36115692 36.0148759,10.4110729 36.0148759,10.4110729 C37.5378278,14.090899 40.8395071,15.5944588 40.8395071,15.5944588 C40.8395071,15.5944588 39.5205072,16.9452218 35.697246,16.915632 C34.5287022,16.9066047 33.3551432,16.3703116 32.2869037,15.6314041 C34.3481546,17.7071992 36.7638137,18.9708648 36.7638137,18.9708648 C31.9776324,18.0549204 28.7678985,12.51395 28.4402382,11.9254988 C28.0340063,12.5241477 27.2583205,13.7986795 27.1931229,14.8749434 C27.1045208,16.3377128 27.6077134,19.1778257 26.7701735,19.2854856 C26.7701735,19.2854856 23.9499542,15.4766013 25.3341519,12.580318" id="Fill-157" fill="#2C3A64"></path>
                            <path d="M52.2758559,155.227078 L65.9122097,155.227078 C65.9122097,155.227078 66.2398701,153.149109 65.5277104,151.572662 C64.8439702,150.059741 63.7757306,149.370985 64.0315063,147.540434 C63.1655469,148.433141 61.7529296,149.43284 59.7819524,149.167033 C59.5395506,149.558219 58.2222223,151.654577 57.4164453,152.23467 C56.5237381,152.874945 52.5500207,152.645917 52.2758559,155.227078" id="Fill-158" stroke="#262433" stroke-width="0.511737089" fill="#D831B4"></path>
                            <path d="M22.9970644,155.227078 L36.6334183,155.227078 C36.6334183,155.227078 37.1432979,153.052149 36.2489189,151.572662 C35.4565159,150.262021 35.7591001,149.516427 36.3475514,148.433141 C35.729009,148.685574 34.9299189,148.916273 34.0505855,148.866121 C33.3701889,148.827671 32.6530139,148.5184 32.0227693,148.152289 C31.4359898,148.820984 28.9216983,151.669623 28.1376539,152.23467 C27.2466184,152.874945 23.2729009,152.645917 22.9970644,155.227078" id="Fill-159" stroke="#262433" stroke-width="0.511737089" fill="#D831B4"></path>
                            <path d="M28.3750405,33.7137409 L31.9776324,82.1287319 C34.0806768,82.7823809 36.083417,83.2939322 37.9825096,83.6867902 C38.1078899,82.1454492 38.6060673,80.301524 38.6060673,80.301524 C38.5843347,81.2677876 39.7161002,83.1183998 40.3864666,84.1247851 C57.8477533,86.9232719 66.0342465,79.3068408 66.0342465,79.3068408 C65.3538498,72.5647279 62.4132655,58.9267023 58.8909169,47.492694 C58.1570246,45.1144817 57.399728,42.8322272 56.632401,40.7268424 C54.8854364,35.9399924 53.7770752,33.4407464 52.8358876,31.5035382 C51.0437861,27.8208702 43.0395123,28.0520712 43.0395123,28.0520712 C41.4981713,33.6089231 37.2603195,37.0729281 37.2603195,37.0729281 C35.0018036,35.7465724 33.318365,31.0825951 33.318365,31.0825951 L28.3750405,33.7137409" id="Fill-160" stroke="#262433" stroke-width="0.511737089" fill="#FFFFFE" stroke-linejoin="round"></path>
                            <path d="M41.2741586,27.0252907 C41.2741586,27.0252907 42.7268975,27.1230874 43.0378405,28.0519041 C43.0378405,28.0519041 41.1420915,35.6828793 37.2603195,37.0722594 L41.2741586,27.0252907" id="Fill-161" stroke="#262433" stroke-width="0.511737089" fill="#FFFFFE" stroke-linejoin="round"></path>
                            <path d="M37.2603195,37.0722594 C37.2603195,37.0722594 33.6376667,31.0461512 33.6527123,30.1415746 C33.6527123,30.1415746 32.1565082,30.7235061 32.2484537,31.6518213 C32.2484537,31.6518213 35.3729291,36.6551612 37.2603195,37.0722594" id="Fill-162" stroke="#262433" stroke-width="0.511737089" fill="#FFFFFE" stroke-linejoin="round"></path>
                            <path d="M47.2038076,34.3570252 C47.10016,34.7182874 34.0271812,55.5900836 33.7413144,59.7458531 C33.4554474,63.9017899 39.2379837,61.5530002 39.3299292,61.0113576 C39.4202029,60.469715 47.2038076,34.3570252 47.2038076,34.3570252" id="Fill-163" fill="#FCE7F9"></path>
                            <path d="M30.610152,63.7413031 L31.9776324,82.1287319 C50.6793477,76.7423972 51.7074655,37.2790532 51.7074655,37.2790532 L40.14908,58.1460014 L30.7104563,63.6008773 C30.7104563,63.6008773 30.6753498,63.6493577 30.610152,63.7413031" id="Fill-164" fill="#FCE7F9"></path>
                            <path d="M22.2932634,65.4264134 L23.0104383,68.0476961 C23.0104383,68.0476961 23.913176,67.883866 25.3475259,67.6180598 C25.7771621,67.534473 26.0229074,67.4742906 26.0229074,67.4742906 C27.1713902,67.2486061 28.5422141,66.9426783 30.0384182,66.6133462 L30.0601508,66.6133462 C32.6212509,65.9981473 35.4882788,65.2609115 37.9072815,64.4417607 C38.1246072,64.3648608 38.3369177,64.2896327 38.5442131,64.2127328 C39.9735477,63.6861358 41.2106326,63.1311194 42.0866225,62.5761028 C42.1902701,62.5142486 42.2705135,62.4540661 42.3741611,62.372151 C44.7697594,60.6302017 47.6183983,55.5088372 49.8317773,50.017016 C50.1393768,49.2598865 50.4269154,48.5009182 50.7111107,47.7636824 C51.7358851,45.0186913 52.5567076,42.3134874 53.0481981,39.9769014 C53.3557976,38.5838434 53.5597494,37.3133238 53.6015429,36.2688228 C53.6216037,35.900205 53.6433362,35.5514808 53.6216037,35.224322 C53.5814821,29.2826364 49.3804085,28.6682733 48.8270637,29.3441563 C48.1316214,30.1843711 47.3943856,31.5560308 46.6354173,33.2167337 C45.4685452,35.8587459 44.2381472,39.2812919 43.0913361,42.6821053 C42.4560762,44.5470944 41.8408772,46.4119164 41.2256783,48.1323003 C40.877957,49.1768012 40.5285641,50.1597822 40.2025755,51.0615168 C39.565644,52.7837396 38.9922384,54.1769648 38.4823588,55.057134 C38.1530267,55.6317098 37.2118391,56.4302983 35.9613803,57.3318657 C35.6303765,57.5725958 35.2742966,57.8200128 34.9014994,58.0741168 C32.8285463,59.4833905 30.1905462,61.0514793 27.8467717,62.372151 C26.6999606,63.0274717 25.6133319,63.6226099 24.712266,64.1141004 C23.2578553,64.9131903 22.2932634,65.4264134 22.2932634,65.4264134" id="Fill-165" fill="#F3A58C"></path>
                            <path d="M34.9014994,58.0741168 C34.9014994,58.0741168 34.7510432,63.0291435 39.3901116,65.4381156 C44.7496986,63.5039165 47.6183983,55.5088372 49.8317773,50.017016 C50.1393768,49.2598865 50.4269154,48.5009182 50.7111107,47.7636824 C51.7358851,45.0186913 52.5567076,42.3134874 53.0481981,39.9769014 C53.3557976,38.5838434 53.5597494,37.3133238 53.6015429,36.2688228 C53.6216037,35.900205 53.6433362,35.5514808 53.6216037,35.224322 C53.5814821,29.2826364 49.3804085,28.6682733 48.8270637,29.3441563 C48.1316214,30.1843711 47.3943856,31.5560308 46.6354173,33.2167337 C45.4685452,35.8587459 44.2381472,39.2812919 43.0913361,42.6821053 C42.4560762,44.5470944 41.8408772,46.4119164 41.2256783,48.1323003 C40.877957,49.1768012 40.5285641,50.1597822 40.2025755,51.0615168 C39.565644,52.7837396 38.9922384,54.1769648 38.4823588,55.057134 C38.1530267,55.6317098 37.2118391,56.4302983 35.9613803,57.3318657 C35.6303765,57.5725958 35.2742966,57.8200128 34.9014994,58.0741168" id="Fill-166" stroke="#262433" stroke-width="0.511737089" fill="#FFFFFE" stroke-linejoin="round"></path>
                            <path d="M14.0633051,57.1897681 C14.0683203,57.2115007 14.076679,57.2215311 14.0900528,57.2215311 C14.0816942,57.2064856 14.076679,57.1931116 14.0733355,57.1847529 C14.0566181,57.1513183 14.0532747,57.1513183 14.0633051,57.1897681" id="Fill-167" fill="#ABDDDA"></path>
                            <path d="M14.3608741,65.1656226 C15.4892963,65.1589356 17.2696955,65.0820357 18.2994852,64.6875059 C18.2994852,64.6875059 15.0111796,64.6406973 15.7099654,63.6008773 C15.8370174,63.4119711 17.4719756,63.5557404 19.29584,63.5557404 C20.0447779,63.5557404 21.8937184,64.5805148 21.7984295,64.6289952 C23.120773,64.4534628 24.3227515,64.1976872 24.712266,64.1141004 C24.8142419,64.0940395 24.8560354,64.0723069 24.8560354,64.0723069 L26.0229074,67.4742906 C26.0229074,67.4742906 25.7771621,67.5361447 25.3475259,67.6180598 C24.2608972,67.883866 22.0274573,68.4572715 19.917726,69.2764224 C16.9671112,70.4449661 14.7971974,68.9922272 13.8125446,67.965781 C13.1873153,67.3138039 12.6958247,66.4495161 12.7292594,65.822615 C12.7677094,65.137203 13.6721188,65.1672943 14.3608741,65.1656226" id="Fill-176" fill="#F3A58C"></path>
                        </g>
                        <g id="Group-88" transform="translate(215.953052, 58.338028)" fill-rule="nonzero">
                            <polygon id="Fill-68" fill="#AEC3FF" points="37.8648296 155.498412 41.2902175 155.498412 41.2902175 112.125211 37.8648296 112.125211"></polygon>
                            <path d="M28.5983947,24.2799767 C28.5983947,24.2799767 21.5503541,25.5175632 19.9555175,29.6775121 C18.3623527,33.8376281 9.36005215,101.034912 9.36005215,101.034912 C9.36005215,101.034912 13.8185732,104.567291 23.3875924,103.300115 C32.9566116,102.031267 28.5983947,24.2799767 28.5983947,24.2799767" id="Fill-122" stroke="#262433" stroke-width="0.511737089" fill="#FFFFFE" stroke-linejoin="round"></path>
                            <path d="M18.1065771,156.591728 C18.0831728,157.795378 17.9310447,158.93383 17.4947215,159.383527 L-1.13686838e-13,159.383527 C0.222340942,158.74994 0.852585568,157.798722 2.64803047,157.506168 C4.68922062,157.176835 7.87053501,156.193855 9.72783415,154.229564 C10.3898417,153.53245 10.883004,152.709956 11.098658,151.747036 C11.9211523,148.08259 17.9042969,152.870443 17.9042969,152.870443 C17.9042969,152.870443 18.1450269,154.799626 18.1065771,156.591728" id="Fill-123" fill="#262433"></path>
                            <path d="M45.080044,156.591728 C45.0549679,157.795378 44.9045117,158.93383 44.4681885,159.383527 L26.9717952,159.383527 C27.1941361,158.74994 27.8243808,157.798722 29.6214974,157.506168 C31.6610158,157.176835 34.8423302,156.193855 36.6996293,154.229564 C37.361637,153.53245 37.8547992,152.709956 38.0704532,151.747036 C38.8946192,148.08259 44.8760922,152.870443 44.8760922,152.870443 C44.8760922,152.870443 45.1184939,154.799626 45.080044,156.591728" id="Fill-124" fill="#262433"></path>
                            <path d="M10.5720611,154.809657 C12.5279927,155.433215 16.2643235,157.337322 18.6381892,156.441272 C20.1728432,155.862851 28.7471793,131.059298 29.3038675,120.209729 C29.3439892,119.420669 29.4994606,118.320667 29.7418624,116.978262 C30.2500703,114.178104 31.1394341,110.329766 32.1625368,106.085227 C34.9058562,94.7090614 38.6171111,80.4758976 38.5368677,75.9271028 C38.4131592,68.86736 17.4963932,74.4476161 17.4963932,74.4476161 C17.4963932,74.4476161 16.0586999,80.2401828 15.7711613,88.6239409 C15.2027709,105.267749 13.641369,133.38134 9.39515861,152.905549 C9.21461108,153.734731 9.76126888,154.552209 10.5720611,154.809657" id="Fill-125" fill="#232543"></path>
                            <path d="M25.08942,75.9521789 L35.1816927,154.48534 C35.1816927,154.48534 41.6747169,155.354643 45.4511694,154.416799 C45.4511694,154.416799 48.0156131,113.703331 47.7464636,103.398747 C47.4756423,93.0958357 50.0701772,75.8284704 47.1546688,73.9226909 C44.2391605,72.0185831 25.08942,75.9521789 25.08942,75.9521789" id="Fill-126" fill="#232543"></path>
                            <path d="M48.5522405,27.9509427 C48.5522405,27.9509427 36.9320007,20.4374906 28.5983947,24.2799767 C27.2693642,24.8923338 25.7547711,26.6010155 24.6698141,27.7961399 C21.6573452,31.1157069 15.7711613,83.8494617 15.7711613,83.8494617 C15.7711613,83.8494617 32.4818384,89.5082894 48.5522405,81.9286366 L48.5522405,27.9509427" id="Fill-127" fill="#8DD6D7"></path>
                            <path d="M27.9363871,24.0893987 C27.9363871,24.0893987 16.172378,28.9103523 14.5792132,32.6145858 C12.9860484,36.3188193 7.80868076,59.0659695 7.80868076,61.7340607 C7.80868076,64.4004803 16.8243552,62.3291989 18.2754224,58.0274868 C19.4807444,54.4551532 23.5464073,43.4803709 25.6912451,36.538987 L27.9363871,24.0893987" id="Fill-128" stroke="#262433" stroke-width="0.511737089" fill="#FFFFFE" stroke-linejoin="round"></path>
                            <path d="M30.3804658,27.7628723 C32.9482529,28.2665665 36.7196902,27.7297719 39.4813988,25.9092511 C38.2342834,22.9310527 37.7244038,20.5794211 37.5421845,19.0578066 C37.5304824,18.9767273 37.5237954,18.8983229 37.5154367,18.8225933 C37.4335216,18.0340352 37.4452238,17.4989123 37.4836737,17.2531671 L30.8435368,17.2531671 C30.8435368,17.2531671 29.0297027,18.0831842 29.0297027,18.656757 C29.0297027,18.9635206 29.0263593,19.2569104 29.0213441,19.5370934 C29.0079701,20.3005754 28.9778788,20.9670967 28.9377572,21.5393321 C28.8107053,23.4023151 28.5983947,24.2799767 28.5983947,24.2799767 C28.5983947,24.2799767 27.7859308,27.2543301 30.3804658,27.7628723" id="Fill-129" fill="#F3A58C"></path>
                            <path d="M28.9377572,21.5393321 C33.968012,22.5112797 36.8868638,19.7627778 37.5421845,19.0578066 C37.63413,18.9568337 37.6826104,18.8969855 37.6826104,18.8969855 C37.6291148,18.8704049 37.5739475,18.8464991 37.5154367,18.8225933 C35.6430919,18.0644608 31.393538,18.6672889 29.0213441,19.5370934 C29.0079701,20.3005754 28.9778788,20.9670967 28.9377572,21.5393321" id="Fill-130" fill="#DF8D72"></path>
                            <path d="M39.1855014,16.1618576 C38.2861072,20.9993612 32.0438434,20.8405463 29.3473327,20.5362902 C28.5883643,20.4518675 28.1102477,20.355074 28.1102477,20.355074 C27.2543187,20.1263804 26.7762021,18.7782922 26.5538611,17.0122699 C26.1141944,13.5173378 26.6708827,8.38711306 27.2610056,7.07496715 C28.1503694,5.10064645 29.8237775,2.96517036 36.1095064,4.50600981 C42.3952353,6.0478523 40.3389995,9.96406201 39.1855014,16.1618576" id="Fill-131" fill="#F3A58C"></path>
                            <path d="M27.0269625,4.37661741 C27.886235,3.18734413 29.7067559,1.7339365 31.361775,0.838888827 C34.9158866,-1.08394238 39.4646813,0.899405685 39.4847423,0.907764368 C44.6186447,3.16511004 45.9593774,7.09318907 43.2377904,13.2122459 C40.3590603,19.6827016 37.6190843,18.9544933 37.6190843,18.9544933 C37.6190843,18.9544933 38.1991769,18.5925623 38.1473531,16.5759467 C38.1440096,16.4612656 38.1406661,16.3656423 38.1339791,16.2832257 C38.1072314,15.8699724 38.2543442,15.455549 38.5619438,15.1798796 C39.200547,14.6106533 39.51149,12.8892664 38.9765343,12.4099796 C38.3329158,11.831726 37.4285064,12.5340224 37.139296,13.0743276 C36.8868638,13.4556506 36.4338232,13.5893895 36.0125457,13.3229148 C34.4143657,12.3126845 35.452514,10.2922239 33.9245469,9.05597479 C32.3982516,7.81989289 29.2988523,8.85770685 27.0085734,7.87255259 C24.0094783,6.75549832 26.3800005,5.27300247 27.0269625,4.37661741" id="Fill-132" fill="#233862"></path>
                            <path d="M26.3114593,105.973221 C27.3228598,106.232341 28.32423,106.446322 29.3205849,106.611824 C30.2015899,106.762281 31.0775798,106.872616 31.9552414,106.947843 C36.9269855,107.380823 41.9221339,106.680365 47.7615092,105.005286 C49.075494,104.629145 50.4346156,104.20118 51.8438894,103.728079 C51.9943458,103.676256 51.4610619,88.2377698 50.8441911,72.3144805 C50.7823369,70.6694918 50.7171391,69.019488 50.6536131,67.3811864 C50.6251936,66.6857439 50.5984458,65.9953169 50.5700263,65.3065614 C50.0116664,51.2228509 49.4583216,38.5036117 49.3413001,37.8185341 C49.0738223,36.2688344 48.8247335,34.9476611 48.5522405,33.8031903 C47.7564939,30.4664044 46.7684978,28.6365219 44.6153012,27.0630835 C44.4063342,26.903767 42.6844456,26.0354671 41.1648373,25.2798423 C39.9060198,24.6544457 38.7876281,24.1086238 38.7876281,24.1086238 C38.7859564,24.1086238 38.7859564,24.1086238 38.7859564,24.1086238 C38.2861072,24.354369 37.6842821,25.5015145 37.0557092,27.1122326 C35.8988676,30.0812364 34.6500805,34.6276908 33.7824493,38.0229874 C33.7791058,38.0323491 33.7774341,38.0375315 33.7774341,38.0402063 C33.7774341,38.0415437 33.7774341,38.0415437 33.7774341,38.0415437 C33.2190742,40.2336916 32.8178575,41.9413703 32.7041794,42.4313563 C32.5102579,43.2585315 32.2528106,44.8598878 31.951898,47.0308047 C31.5439943,49.9852644 31.0541755,53.9952586 30.537609,58.5457251 C30.4841134,59.0131425 30.4322896,59.4870799 30.378794,59.9651964 C30.3169398,60.5108512 30.2550855,61.0631929 30.1949029,61.6210514 C30.1748421,61.8009302 30.1547813,61.979806 30.1363923,62.1586817 C29.9374556,63.9608136 29.7351754,65.8214562 29.5362389,67.7121901 C29.370737,69.2752637 27.0002147,70.4036857 26.8380562,71.993507 C26.7427673,72.926336 26.5455024,81.5391219 26.2930702,84.2874566 C26.1108509,86.2500751 26.2395746,105.050422 26.3114593,105.973221" id="Fill-133" stroke="#262433" stroke-width="0.511737089" fill="#FFFFFE" stroke-linejoin="round"></path>
                            <path d="M43.4618031,43.4962524 C43.4684901,43.5285169 43.8646916,57.7384435 33.175609,59.4646786 C22.4865264,61.1907464 29.5880627,61.6471304 29.5880627,61.6471304 C29.5880627,61.6471304 49.6990517,60.7923717 50.0317272,60.2612609 C50.362731,59.7301503 43.4618031,43.4962524 43.4618031,43.4962524" id="Fill-134" fill="#FCE7F9"></path>
                            <path d="M34.4294113,65.5640089 C34.4294113,65.5640089 34.6300197,65.7061064 35.0161908,65.9551951 C35.021206,65.9568669 35.0278929,65.9635538 35.0362517,65.9668973 C36.6661947,67.0083891 41.5058715,69.8453258 48.5522405,71.7477618 C49.2928198,71.9483702 50.0568032,72.1389481 50.8441911,72.3144805 C50.7823369,70.6694918 50.7171391,69.019488 50.6536131,67.3811864 C51.5847703,67.3076299 52.4758058,67.1906084 53.3016437,67.015076 C53.2748959,66.7977503 53.2448046,66.5820963 53.2163851,66.3647706 C52.3203344,65.9969886 51.4292989,65.6425805 50.5700263,65.3065614 C49.8712405,65.0340684 49.1941872,64.7732775 48.5522405,64.5308758 C45.6584648,63.4325449 43.5119552,62.6869505 43.5119552,62.6869505 L34.9443061,65.4018504 L34.4294113,65.5640089" id="Fill-135" fill="#FCE7F9"></path>
                            <path d="M32.1625368,65.3266222 C32.1625368,65.3266222 33.2625393,65.6024587 35.0161908,65.9551951 C35.021206,65.9551951 35.0278929,65.9568669 35.0345799,65.9585386 C38.2660464,66.6088441 43.6991897,67.5199404 48.5522405,67.4697883 C49.2677436,67.4614297 49.9715446,67.4346819 50.6536131,67.3811864 C51.5847703,67.3076299 52.4758058,67.1906084 53.3016437,67.015076 C55.0753559,66.6406071 56.5615296,66.007019 57.5344802,65.0156793 C64.753038,57.6627139 53.5941975,31.2710112 51.2487513,28.7028898 C48.5087753,25.7047977 43.5102835,24.6531083 40.7485749,24.2920133 C40.6332251,24.277302 40.5228905,24.2627579 40.4158994,24.2495512 C39.4446205,24.1340342 38.8227346,24.1101283 38.7876281,24.1086238 C38.7859564,24.1086238 38.7859564,24.1086238 38.7859564,24.1086238 C38.7859564,24.1086238 39.0032821,24.8045676 39.3660489,25.9849807 C39.5064748,26.4416991 39.670305,26.9714724 39.8491807,27.5624312 C41.5443215,33.1152709 44.8159096,44.0287005 46.2586182,50.183198 C46.7868868,52.4350269 47.0694103,54.0497571 46.9406866,54.5317188 C46.3773114,56.6337602 40.544623,57.7145377 36.8484139,58.1924872 C35.307073,58.3917581 34.1385292,58.486044 33.8760666,58.5059377 C33.8576774,58.5059377 33.8409601,58.5072751 33.822571,58.5099499 L33.6085887,59.3862741 L32.1625368,65.3266222" id="Fill-136" stroke="#262433" stroke-width="0.511737089" fill="#FFFFFE" stroke-linejoin="round"></path>
                            <polyline id="Fill-137" fill="#233862" points="12.0264717 77.9766517 36.8199944 76.9334881 31.7897396 46.0334467 6.99621687 47.0781148 12.0264717 77.9766517"></polyline>
                            <path d="M33.8208993,58.5101171 C33.8208993,58.5101171 28.9945963,58.1735965 28.7521945,59.2985079 C28.1888194,61.9212952 32.903116,64.0744917 34.4294113,63.9273789 C35.9557067,63.7802661 34.932604,58.3349191 33.8208993,58.5101171" id="Fill-138" fill="#F3A58C"></path>
                            <path d="M8.35199509,53.3528102 C8.35199509,53.3528102 12.969331,51.9089315 13.4658368,52.9474141 C14.6210066,55.3682556 10.5336111,58.553415 9.01400271,58.7635523 C7.49439432,58.9735224 7.23025996,53.4394062 8.35199509,53.3528102" id="Fill-139" fill="#F3A58C"></path>
                            <path d="M38.2861072,22.5570852 C38.2861072,22.5570852 40.5763861,22.954457 41.5944736,24.4148858 C41.5944736,24.4148858 33.7439993,38.1632461 33.7774341,38.0397048 C33.8125406,37.9163306 36.3435496,24.2450374 38.2861072,22.5570852" id="Fill-140" stroke="#262433" stroke-width="0.511737089" fill="#FFFFFE" stroke-linejoin="round"></path>
                            <path d="M28.8324378,22.7429822 C28.1637432,22.9952473 26.8815215,24.3085635 26.592311,25.0347657 L25.6912451,36.538987 C25.6912451,36.538987 27.6170855,28.0962166 28.5983947,24.2799767 C28.8474834,23.3098681 28.8006748,23.015141 28.8324378,22.7429822" id="Fill-141" stroke="#262433" stroke-width="0.511737089" fill="#FFFFFE" stroke-linejoin="round"></path>
                            <path d="M23.5714834,46.3798305 C23.5714834,46.3798305 23.3758902,45.5223969 22.2474681,45.6220324 C21.1173743,45.7216679 14.7781499,46.0334467 14.7781499,46.0334467 C14.7781499,46.0334467 13.5544388,46.0133859 13.6681168,46.7969288 L23.5714834,46.3798305" id="Fill-142" fill="#C65447"></path>
                        </g>
                        <g id="Group-91" transform="translate(81.877934, 0.000000)">
                            <g id="Group" transform="translate(23.291003, 4.322367)" fill-rule="nonzero">
                                <polyline id="Fill-143" fill="#FCE7F9" points="11.5071189 35.5931256 12.2596735 40.7104965 13.9989106 40.7104965 14.5775415 35.5931256 11.5071189 35.5931256"></polyline>
                                <path d="M12.3969058,36.8450704 L13.1899487,36.8450704 C20.0093691,36.8450704 25.5868545,32.6767581 25.5868545,27.5822785 L25.5868545,3.07042254 L0,3.07042254 L0,27.5822785 C0,32.6767581 5.57748538,36.8450704 12.3969058,36.8450704" id="Fill-169" fill="#FCE7F9"></path>
                                <polygon id="Fill-172" fill="#FCE7F9" points="11.258216 4.09389671 14.3286385 4.09389671 14.3286385 0 11.258216 0"></polygon>
                                <path d="M12.7934272,35.5931256 C19.2937928,35.5931256 24.3844073,30.6577918 24.8122833,19.7292758 C25.2401592,8.80075996 18.8892032,4.09389671 12.3888376,4.09389671 C5.88847203,4.09389671 0.975353141,9.97771319 0.975353141,19.7292758 C0.975353141,29.4808385 6.29306166,35.5931256 12.7934272,35.5931256 Z" id="Oval" fill="url(#linearGradient-2)"></path>
                            </g>
                            <path d="M8.29641486,141.244976 L8.29641486,141.244976 C8.07240219,140.857133 8.2061411,140.355612 8.59398394,140.1316 L10.033349,139.300746 C10.4211919,139.076734 10.9227127,139.212144 11.1467254,139.598315 C11.3690664,139.98783 11.2353275,140.487679 10.8474846,140.711692 L9.40811958,141.542545 C9.02027673,141.766558 8.52042754,141.632819 8.29641486,141.244976" id="Fill-145" fill="#FFFFFF" fill-rule="nonzero"></path>
                            <polygon id="Fill-168" fill="#FCE7F9" fill-rule="nonzero" points="56.854785 214.204452 60.425614 214.204452 60.425614 0.298349224 56.854785 0.298349224"></polygon>
                            <polygon id="Fill-171" fill="#FCE7F9" fill-rule="nonzero" points="19.4866468 4.39224594 60.425614 4.39224594 60.425614 0.298349224 19.4866468 0.298349224"></polygon>
                            <polygon id="Fill-173" fill="#FCE7F9" fill-rule="nonzero" points="48.9926087 215.011902 69.0985825 215.011902 69.0985825 211.126785 48.9926087 211.126785"></polygon>
                            <polygon id="Fill-174" fill="#FCE7F9" fill-rule="nonzero" points="56.8736757 129.227082 71.2023142 129.227082 71.2023142 122.07205 56.8736757 122.07205"></polygon>
                            <polygon id="Fill-175" fill="#AEC3FF" fill-rule="nonzero" points="58.9206241 127.529934 68.1318917 127.529934 68.1318917 123.888893 58.9206241 123.888893"></polygon>
                            <path d="M9.72098776,140.46676 C8.19700325,155.157959 13.2258873,161.624246 24.8076401,159.865621 C42.1802691,157.227683 38.3802817,153.651819 49.6384977,141.651167 C56.5095896,134.326952 35.5726933,141.45598 35.5726933,129.227082 C35.5726933,116.133346 41.4222487,76.5108852 36.3333333,44.3873544" id="Path" stroke="#FCE7F9" stroke-width="1.02347418"></path>
                            <path d="M16.6621596,38.8920188 L16.6621596,32.5055399 L20.7560563,32.5055399 L20.7560563,29.0666667 L16.6621596,29.0666667 L16.6621596,9.90723005 L11.9132394,9.90723005 L0.368450704,28.4935211 L0.368450704,32.5055399 L12.7320188,32.5055399 L12.7320188,38.8920188 L16.6621596,38.8920188 Z M12.7320188,29.0666667 L3.80732394,29.0666667 L12.6501408,14.5742723 L12.7320188,14.5742723 L12.7320188,29.0666667 Z M66.7864657,38.8920188 L66.7864657,32.5055399 L70.8803624,32.5055399 L70.8803624,29.0666667 L66.7864657,29.0666667 L66.7864657,9.90723005 L62.0375455,9.90723005 L50.4927568,28.4935211 L50.4927568,32.5055399 L62.8563248,32.5055399 L62.8563248,38.8920188 L66.7864657,38.8920188 Z M62.8563248,29.0666667 L53.93163,29.0666667 L62.7744469,14.5742723 L62.8563248,14.5742723 L62.8563248,29.0666667 Z" id="44" fill="#8A3CD8" fill-rule="nonzero"></path>
                        </g>
                    </g>
                </g>
            </g>
        </g>
    </g>
</svg>