<svg width="24" height="24" viewBox="0 0 24 24" fill="none" xmlns="http://www.w3.org/2000/svg">
<path fill-rule="evenodd" clip-rule="evenodd" d="M0 12C0 18.6248 5.37098 24 12.0023 24C18.6275 24 24 18.6263 24 12C24 5.37365 18.629 0 12.0023 0C5.37248 0 0 5.37516 0 12Z" fill="#17174A"/>
<path fill-rule="evenodd" clip-rule="evenodd" d="M8.65712 11.6398L10.482 13.4946L16.0603 7.47916C16.562 6.92992 17.3805 6.91765 17.8851 7.45001L17.974 7.54666C18.4786 8.07748 18.4786 8.95196 17.9784 9.49659L11.4248 16.5292C10.9349 17.0647 10.1268 17.08 9.62062 16.5645L9.58214 16.5246L9.52886 16.4709L6.74047 13.6373C6.22985 13.1157 6.22245 12.2642 6.72715 11.7395L6.81891 11.6444C7.3236 11.1197 8.14946 11.1182 8.65712 11.6398Z" fill="white"/>
</svg>
