<?xml version="1.0" encoding="UTF-8"?>
<svg width="317px" height="180px" viewBox="0 0 317 180" version="1.1" xmlns="http://www.w3.org/2000/svg" xmlns:xlink="http://www.w3.org/1999/xlink">
    <!-- Generator: sketchtool 60 (101010) - https://sketch.com -->
    <title>B8189BFC-1CAD-406B-BC1E-A15AE0C053A9@1x</title>
    <desc>Created with sketchtool.</desc>
    <defs>
        <path d="M188.727058,0.033330866 C180.600699,0.0426868986 172.391057,1.7813886 164.673538,4.91437306 L164.673538,4.91437306 C143.24556,13.6129104 126.246563,30.7279008 102.295428,30.0057321 L102.295428,30.0057321 C89.2521589,29.6125448 77.0603485,23.2690377 64.1407801,22.2104027 L64.1407801,22.2104027 C60.1607079,21.8843449 56.4502835,22.2522709 52.9880749,23.2291577 L52.9880749,23.2291577 C40.0096849,26.8913427 28.6741084,40.1799497 24.5240939,54.8387476 L24.5240939,54.8387476 C21.1600767,66.7214937 25.7876533,78.3536151 20.4195061,90.0154419 L20.4195061,90.0154419 C14.6978465,102.445516 3.23647314,111.172121 0.49747991,125.474688 L0.49747991,125.474688 C-2.78977788,142.64102 10.7569111,157.366012 25.1175521,157.653827 L25.1175521,157.653827 C34.2583233,157.836971 51.1763675,156.095112 58.8660488,150.081873 L58.8660488,150.081873 C68.2291774,142.759725 77.5127512,142.170879 88.534884,142.310401 L88.534884,142.310401 C109.510808,142.575996 130.540196,147.268631 151.282581,150.53833 L151.282581,150.53833 C169.05616,153.340111 186.592822,157.597925 204.57513,157.943396 L204.57513,157.943396 C206.117889,157.972984 207.635954,158 209.120473,158 L209.120473,158 L209.154135,158 C220.362284,157.998012 229.8059,156.463623 235.944902,143.108471 L235.944902,143.108471 C244.261704,125.015541 267.836963,92.7802665 253.195493,71.8825152 L253.195493,71.8825152 C246.214933,61.9191591 231.615627,56.7155677 231.053152,41.6612435 L231.053152,41.6612435 C230.687759,31.8790437 234.85408,26.5232998 227.980098,18.2544382 L227.980098,18.2544382 C217.380317,5.50450481 203.262767,0.0519259808 188.867415,0.033330866 L188.867415,0.033330866 L188.727058,0.033330866 Z" id="path-1"></path>
        <linearGradient x1="-5.07527695%" y1="78.3437688%" x2="97.8286808%" y2="32.7186261%" id="linearGradient-3">
            <stop stop-color="#DAE2FD" offset="0%"></stop>
            <stop stop-color="#E8EFFD" offset="100%"></stop>
        </linearGradient>
        <path d="M0.155003155,0.131467213 C0.10481388,0.162013661 0.0887066246,0.227688525 0.119053628,0.27820765 L0.119053628,0.27820765 C2.53304101,4.30046995 5.21384858,8.14368306 8.00122082,11.9051257 L8.00122082,11.9051257 C8.70176972,12.8426667 9.39543218,13.785612 10.1214259,14.7036503 L10.1214259,14.7036503 L11.1987445,16.0896366 L11.7374038,16.7826885 L12.2896025,17.4648142 L14.5022492,20.1903798 L16.7681199,22.8713005 C19.8259306,26.4130437 22.9601924,29.8933415 26.2619464,33.2095109 L26.2619464,33.2095109 L27.4911167,34.4621503 C27.6968927,34.6699836 27.8984669,34.8820464 28.1079779,35.0861202 L28.1079779,35.0861202 L28.7395457,35.6950519 L31.2664006,38.1305437 C32.0982587,38.953888 32.9778549,39.7251858 33.8407603,40.514929 L33.8407603,40.514929 L36.4386972,42.8744071 L36.4403312,42.8758169 C36.5548328,42.9781475 36.7299117,42.9676913 36.8315741,42.8524372 L36.8315741,42.8524372 C36.9332366,42.737418 36.9228486,42.561071 36.808347,42.4587404 L36.808347,42.4587404 L36.8020442,42.4531011 L34.1933691,40.1207623 C33.326612,39.3401831 32.443164,38.5775792 31.6072208,37.7631639 L31.6072208,37.7631639 L29.0677603,35.3536366 L28.4328076,34.7512842 C28.2222461,34.5493251 28.0196215,34.339377 27.8126782,34.1336585 L27.8126782,34.1336585 L26.5766215,32.8937077 C23.2561924,29.6109044 20.1012713,26.1622104 17.0207003,22.6504262 L17.0207003,22.6504262 L14.7386057,19.990888 L12.5188391,17.2782459 L11.9646562,16.5992923 L11.4241293,15.9094126 L10.342959,14.529653 C9.6145142,13.6158443 8.91816719,12.6770109 8.21505047,11.7434645 L8.21505047,11.7434645 C5.41787382,8.00023224 2.7228265,4.16771038 0.302419558,0.170472678 L0.302419558,0.170472678 L0.300785489,0.167770492 C0.280826498,0.134404372 0.245810726,0.116076503 0.209861199,0.116076503 L0.209861199,0.116076503 C0.191069401,0.116076503 0.172160883,0.121010929 0.155003155,0.131467213" id="path-4"></path>
        <linearGradient x1="-0.000142190285%" y1="50.0000108%" x2="100.000015%" y2="50.0000108%" id="linearGradient-6">
            <stop stop-color="#DAE2FD" offset="0%"></stop>
            <stop stop-color="#E8EFFD" offset="100%"></stop>
        </linearGradient>
        <path d="M1.72075,0.0131034483 C1.651875,0.0172413793 1.59975,0.071954023 1.604125,0.135287356 L1.604125,0.135287356 C1.609,0.205287356 2.072375,7.16264368 0.12525,9.75586207 L0.12525,9.75586207 C0.086,9.80827586 0.100375,9.87977011 0.157125,9.91586207 L0.157125,9.91586207 C0.178875,9.92954023 0.203625,9.9362069 0.228,9.9362069 L0.228,9.9362069 C0.26775,9.9362069 0.30675,9.91885057 0.331,9.88655172 L0.331,9.88655172 C2.327375,7.22747126 1.873875,0.409425287 1.853625,0.12045977 L1.853625,0.12045977 C1.84925,0.0586206897 1.793125,0.0131034483 1.72525,0.0131034483 L1.72525,0.0131034483 C1.72375,0.0131034483 1.72225,0.0131034483 1.72075,0.0131034483" id="path-7"></path>
        <linearGradient x1="0.00164159842%" y1="49.9996586%" x2="100.001061%" y2="49.9996586%" id="linearGradient-9">
            <stop stop-color="#DAE2FD" offset="0%"></stop>
            <stop stop-color="#E8EFFD" offset="100%"></stop>
        </linearGradient>
        <path d="M0.0801081081,0.0702105263 C0.0527567568,0.122 0.0736216216,0.185368421 0.126702703,0.212 L0.126702703,0.212 C3.30010811,1.80389474 7.74659459,1.89842105 7.79113514,1.89926316 L7.79113514,1.89926316 L7.79308108,1.89926316 C7.85189189,1.89926316 7.9,1.85326316 7.90109915,1.79578947 L7.90109915,1.79578947 C7.90216216,1.73768421 7.85459459,1.68968421 7.79491892,1.68863158 L7.79491892,1.68863158 C7.75091892,1.688 3.35481081,1.59463158 0.22572973,0.0249473684 L0.22572973,0.0249473684 C0.209837838,0.0169473684 0.192972973,0.0131578947 0.176216216,0.0131578947 L0.176216216,0.0131578947 C0.137081081,0.0131578947 0.0992432432,0.0341052632 0.0801081081,0.0702105263" id="path-10"></path>
        <linearGradient x1="-0.000892742881%" y1="49.9983798%" x2="100.000558%" y2="49.9983798%" id="linearGradient-12">
            <stop stop-color="#DAE2FD" offset="0%"></stop>
            <stop stop-color="#E8EFFD" offset="100%"></stop>
        </linearGradient>
        <path d="M1.39614286,0.096627451 C1.31857143,0.107411765 1.26714286,0.163598039 1.28142857,0.222156863 L1.28142857,0.222156863 C1.29657143,0.283627451 2.74828571,6.41397059 0.0331428571,10.7899216 L0.0331428571,10.7899216 C-0.000285714286,10.8438431 0.0305714286,10.9080098 0.102,10.9332451 L0.102,10.9332451 C0.121571429,10.9402549 0.142142857,10.9434902 0.162571429,10.9434902 L0.162571429,10.9434902 C0.216285714,10.9434902 0.267714286,10.9205196 0.292,10.8812647 L0.292,10.8812647 C3.04628571,6.44222549 1.57771429,0.245235294 1.56257143,0.183117647 L1.56257143,0.183117647 C1.54985714,0.131352941 1.48985714,0.0946862745 1.42285714,0.0946862745 L1.42285714,0.0946862745 C1.414,0.0946862745 1.40514286,0.0953333333 1.39614286,0.096627451" id="path-13"></path>
        <linearGradient x1="0.00267668348%" y1="49.9996683%" x2="99.9974076%" y2="49.9996683%" id="linearGradient-15">
            <stop stop-color="#DAE2FD" offset="0%"></stop>
            <stop stop-color="#E8EFFD" offset="100%"></stop>
        </linearGradient>
        <path d="M0.0928762887,0.145111111 C0.0664536082,0.200777778 0.0911752577,0.266888889 0.147989691,0.292666667 L0.147989691,0.292666667 C3.12468041,1.647 5.76649485,1.99144444 7.68469072,1.99144444 L7.68469072,1.99144444 C9.6526701,1.99144444 10.8590412,1.62866667 10.8825155,1.62133333 L10.8825155,1.62133333 C10.9421649,1.60266667 10.9750515,1.54011111 10.9561134,1.48177778 L10.9561134,1.48177778 C10.9370619,1.42333333 10.8731031,1.391 10.8136804,1.40955556 L10.8136804,1.40955556 C10.7682062,1.42377778 6.18937113,2.79633333 0.243587629,0.0911111111 L0.243587629,0.0911111111 C0.228051546,0.084 0.211721649,0.0805555556 0.195618557,0.0805555556 L0.195618557,0.0805555556 C0.152865979,0.0805555556 0.112041237,0.104444444 0.0928762887,0.145111111" id="path-16"></path>
        <linearGradient x1="0.000137316775%" y1="50.0010943%" x2="99.9999856%" y2="50.0010943%" id="linearGradient-18">
            <stop stop-color="#DAE2FD" offset="0%"></stop>
            <stop stop-color="#E8EFFD" offset="100%"></stop>
        </linearGradient>
        <path d="M0.11176,0.194166667 C0.09042,0.280333333 0.11924,0.3765 0.17611,0.409 L0.17611,0.409 C2.13356,1.5215 4.07264,1.87633333 5.7508,1.87633333 L5.7508,1.87633333 C8.68054,1.87633333 10.813,0.7945 10.84622,0.777166667 L10.84622,0.777166667 C10.90364,0.747166667 10.93422,0.652333333 10.91453,0.565333333 L10.91453,0.565333333 C10.89473,0.478333333 10.83236,0.432 10.77472,0.461833333 L10.77472,0.461833333 C10.72313,0.488666667 5.55478,3.11083333 0.25333,0.0966666667 L0.25333,0.0966666667 C0.24068,0.0896666667 0.22781,0.0863333333 0.21505,0.0863333333 L0.21505,0.0863333333 C0.17039,0.0863333333 0.12837,0.127166667 0.11176,0.194166667" id="path-19"></path>
        <linearGradient x1="-1.80714991e-05%" y1="49.996595%" x2="99.9998228%" y2="49.996595%" id="linearGradient-21">
            <stop stop-color="#DAE2FD" offset="0%"></stop>
            <stop stop-color="#E8EFFD" offset="100%"></stop>
        </linearGradient>
        <path d="M36.7101861,0.108204918 L36.7082019,0.111259563 C34.287795,4.10849727 31.5928644,7.94101913 28.7956877,11.6842514 L28.7956877,11.6842514 C28.092571,12.6177978 27.396224,13.5566311 26.6677792,14.4705574 L26.6677792,14.4705574 L25.5866088,15.8501995 L25.046082,16.5400792 L24.4918991,17.2190328 L22.2721325,19.9317923 L19.9899211,22.5912131 C16.9094669,26.1029973 13.7543123,29.5518087 10.434,32.8344945 L10.434,32.8344945 L9.19817666,34.0744454 C8.99111672,34.2801639 8.78837539,34.4902295 8.57781388,34.692071 L8.57781388,34.692071 L7.94297792,35.2944235 L5.40351735,37.7039508 C4.56757413,38.5184836 3.68400946,39.2809699 2.81736909,40.0616667 L2.81736909,40.0616667 L0.208577287,42.393888 L0.202274448,42.3995273 L0.200757098,42.4010546 C0.0870725552,42.5043251 0.0780851735,42.6805546 0.180564669,42.7949863 L0.180564669,42.7949863 C0.283160883,42.909418 0.458356467,42.9184645 0.572041009,42.815194 L0.572041009,42.815194 L3.1698612,40.4557158 C4.03288328,39.6659727 4.9124795,38.8946749 5.74433754,38.0713306 L5.74433754,38.0713306 L8.27107571,35.6358388 L8.90276025,35.0270246 C9.11227129,34.8228333 9.31372871,34.6107705 9.51973817,34.4030546 L9.51973817,34.4030546 L10.7486751,33.1502978 C14.0505457,29.8341284 17.1846909,26.3538306 20.2426183,22.8120874 L20.2426183,22.8120874 L22.5086057,20.1311667 L24.7210189,17.4056011 L25.2733344,16.7234754 L25.8119937,16.030541 L26.8893123,14.6445546 C27.6151893,13.7263989 28.3089685,12.783571 29.0094006,11.8459126 L29.0094006,11.8459126 C31.7968896,8.08446995 34.4776972,4.24125683 36.8916845,0.219112022 L36.8916845,0.219112022 C36.922265,0.168710383 36.9061577,0.103270492 36.8562019,0.072489071 L36.8562019,0.072489071 C36.8388107,0.0619153005 36.8197855,0.056863388 36.800877,0.056863388 L36.800877,0.056863388 C36.7651609,0.056863388 36.7301451,0.0750737705 36.7101861,0.108204918" id="path-22"></path>
        <linearGradient x1="-9.2465875e-05%" y1="50.0000084%" x2="100.000012%" y2="50.0000084%" id="linearGradient-24">
            <stop stop-color="#DAE2FD" offset="0%"></stop>
            <stop stop-color="#E8EFFD" offset="100%"></stop>
        </linearGradient>
        <path d="M0.157875,0.177586207 C0.137625,0.466551724 -0.315875,7.28448276 1.680375,9.94356322 L1.680375,9.94356322 C1.70475,9.97597701 1.743625,9.99321839 1.7835,9.99321839 L1.7835,9.99321839 C1.808,9.99321839 1.832625,9.98655172 1.854375,9.97287356 L1.854375,9.97287356 C1.911125,9.93678161 1.925375,9.86528736 1.886125,9.81287356 L1.886125,9.81287356 C-0.06075,7.21965517 0.40225,0.262413793 0.407375,0.192413793 L0.407375,0.192413793 C0.41175,0.12908046 0.359625,0.0744827586 0.290625,0.0702298851 L0.290625,0.0702298851 C0.289125,0.0702298851 0.287625,0.0702298851 0.286125,0.0702298851 L0.286125,0.0702298851 C0.219,0.0702298851 0.162125,0.115747126 0.157875,0.177586207" id="path-25"></path>
        <linearGradient x1="-0.00224686142%" y1="49.9997891%" x2="100.001629%" y2="49.9997891%" id="linearGradient-27">
            <stop stop-color="#DAE2FD" offset="0%"></stop>
            <stop stop-color="#E8EFFD" offset="100%"></stop>
        </linearGradient>
        <path d="M7.78126027,0.0771578947 C4.61030137,1.64621053 0.152986301,1.74021053 0.108383562,1.74084211 L0.108383562,1.74084211 C0.047890411,1.74189474 -0.000328767123,1.78989474 0.000642669386,1.848 L0.000642669386,1.848 C0.00175342466,1.90547368 0.050630137,1.95147368 0.110246575,1.95147368 L0.110246575,1.95147368 L0.112109589,1.95147368 C0.157369863,1.95063158 4.66476712,1.85610526 7.88164384,0.264210526 L7.88164384,0.264210526 C7.93545205,0.237578947 7.95660274,0.174210526 7.92887671,0.122421053 L7.92887671,0.122421053 C7.90947945,0.0862105263 7.87134247,0.0652631579 7.83167123,0.0652631579 L7.83167123,0.0652631579 C7.81468493,0.0652631579 7.79747945,0.0690526316 7.78126027,0.0771578947" id="path-28"></path>
        <linearGradient x1="0.00033004925%" y1="49.9967548%" x2="100.00057%" y2="49.9967548%" id="linearGradient-30">
            <stop stop-color="#DAE2FD" offset="0%"></stop>
            <stop stop-color="#E8EFFD" offset="100%"></stop>
        </linearGradient>
        <path d="M0.450571429,0.130148515 C0.435428571,0.192881188 -1.03328571,6.45111881 1.72114286,10.9342178 L1.72114286,10.9342178 C1.74542857,10.9737525 1.79671429,10.9969505 1.85042857,10.9969505 L1.85042857,10.9969505 C1.87071429,10.9969505 1.89142857,10.9936832 1.911,10.986604 L1.911,10.986604 C1.98242857,10.9611188 2.01328571,10.8963168 1.98,10.8418614 L1.98,10.8418614 C-0.735285714,6.42258416 0.716428571,0.231653465 0.731571429,0.169683168 L0.731571429,0.169683168 C0.745714286,0.110435644 0.694428571,0.0536930693 0.617,0.0428019802 L0.617,0.0428019802 C0.608,0.0414950495 0.599142857,0.0408415842 0.590428571,0.0408415842 L0.590428571,0.0408415842 C0.523142857,0.0408415842 0.463142857,0.0777623762 0.450571429,0.130148515" id="path-31"></path>
        <linearGradient x1="0.00171358588%" y1="49.9999924%" x2="99.9963825%" y2="49.9999924%" id="linearGradient-33">
            <stop stop-color="#DAE2FD" offset="0%"></stop>
            <stop stop-color="#E8EFFD" offset="100%"></stop>
        </linearGradient>
        <path d="M10.7668454,0.0351111111 C4.82094845,2.74011111 0.242226804,1.36766667 0.196752577,1.35355556 L0.196752577,1.35355556 C0.137329897,1.335 0.073257732,1.36722222 0.0542061856,1.42588889 L0.0542061856,1.42588889 C0.0353814433,1.48411111 0.0682680412,1.54666667 0.127917526,1.56533333 L0.127917526,1.56533333 C0.151391753,1.57266667 1.35719588,1.93544444 3.32574227,1.93544444 L3.32574227,1.93544444 C5.24382474,1.93544444 7.88609278,1.59077778 10.8624433,0.236666667 L10.8624433,0.236666667 C10.9191443,0.210888889 10.943866,0.144777778 10.9174433,0.0891111111 L10.9174433,0.0891111111 C10.8982784,0.0485555556 10.8574536,0.0246666667 10.8145876,0.0246666667 L10.8145876,0.0246666667 C10.7985979,0.0246666667 10.7823814,0.028 10.7668454,0.0351111111" id="path-34"></path>
        <linearGradient x1="0.000401914808%" y1="50.0005071%" x2="100.000672%" y2="50.0005071%" id="linearGradient-36">
            <stop stop-color="#DAE2FD" offset="0%"></stop>
            <stop stop-color="#E8EFFD" offset="100%"></stop>
        </linearGradient>
        <path d="M10.75679,0.0141818182 C5.45831,3.3 0.28699,0.441818182 0.2354,0.412181818 L0.2354,0.412181818 C0.17776,0.380363636 0.11539,0.430363636 0.09559,0.525454545 L0.09559,0.525454545 C0.0759,0.620363636 0.10648,0.723818182 0.1639,0.756363636 L0.1639,0.756363636 C0.19723,0.775272727 2.32914,1.95527273 5.2591,1.95527273 L5.2591,1.95527273 C6.93715,1.95527273 8.87689,1.56818182 10.8339,0.354727273 L10.8339,0.354727273 C10.89077,0.319272727 10.91959,0.214545455 10.89836,0.120545455 L10.89836,0.120545455 C10.88175,0.0472727273 10.83984,0.00272727273 10.79529,0.00272727273 L10.79529,0.00272727273 C10.78253,0.00272727273 10.76944,0.00636363636 10.75679,0.0141818182" id="path-37"></path>
        <linearGradient x1="1.68817291e-06%" y1="49.9950852%" x2="100.000383%" y2="49.9950852%" id="linearGradient-39">
            <stop stop-color="#DAE2FD" offset="0%"></stop>
            <stop stop-color="#E8EFFD" offset="100%"></stop>
        </linearGradient>
        <path d="M0.552533333,0.169489796 C-1.156,6.58013265 1.6508,10.8096327 1.6792,10.8516122 L1.6792,10.8516122 C1.704,10.8877551 1.74893333,10.9080714 1.7952,10.9080714 L1.7952,10.9080714 C1.8176,10.9080714 1.8404,10.9033571 1.86133333,10.8932551 L1.86133333,10.8932551 C1.9252,10.8625 1.94733333,10.7938061 1.9108,10.7400408 L1.9108,10.7400408 C1.88266667,10.6988469 -0.873333333,6.54533673 0.8128,0.218540816 L0.8128,0.218540816 C0.829066667,0.158040816 0.783733333,0.0982142857 0.711866667,0.0845204082 L0.711866667,0.0845204082 C0.702266667,0.0827244898 0.692666667,0.0819387755 0.6832,0.0819387755 L0.6832,0.0819387755 C0.622266667,0.0819387755 0.566533333,0.117183673 0.552533333,0.169489796" id="path-40"></path>
        <linearGradient x1="0.00303256176%" y1="49.999705%" x2="99.9987764%" y2="49.999705%" id="linearGradient-42">
            <stop stop-color="#DAE2FD" offset="0%"></stop>
            <stop stop-color="#E8EFFD" offset="100%"></stop>
        </linearGradient>
        <path d="M176.621426,0.039998968 L5.93190536,4.45387926 C2.10024606,4.19289474 0.00828706625,7.654613 0.00828706625,9.42844479 L0.00828706625,9.42844479 L1.2640694,96.1170537 L1.46132492,109.705508 C1.46132492,111.47934 2.91716404,112.93108 4.69258044,112.93108 L4.69258044,112.93108 L179.344369,112.93108 C181.119785,112.93108 182.575741,111.47934 182.575741,109.705508 L182.575741,109.705508 L182.898003,96.1170537 L184.973621,8.35698555 C185.026262,6.13325284 184.162189,3.98462023 182.584028,2.41358204 L182.584028,2.41358204 C181.054073,0.887557276 178.980905,0.0374334365 176.825334,0.0374334365 L176.825334,0.0374334365 C176.757521,0.0374334365 176.689473,0.0374334365 176.621426,0.039998968" id="path-43"></path>
        <linearGradient x1="48.4607215%" y1="79.3280491%" x2="46.6938386%" y2="131.044798%" id="linearGradient-45">
            <stop stop-color="#3F42E2" offset="0%"></stop>
            <stop stop-color="#4F52FF" offset="100%"></stop>
        </linearGradient>
        <path d="M167.969578,0.0735558011 L5.70398412,4.20954696 C2.06121509,3.96580552 0.0736148246,7.21022541 0.0736148246,8.87214144 L0.0736148246,8.87214144 L1.45517406,102.863571 C1.45517406,104.52537 2.83684977,105.885215 4.52556453,105.885215 L4.52556453,105.885215 L170.55821,105.885215 C172.247042,105.885215 173.628601,104.52537 173.628601,102.863571 L173.628601,102.863571 L175.908797,7.86906519 C175.958883,5.78373481 175.137821,3.76950055 173.637453,2.29615912 L173.637453,2.29615912 C172.184259,0.869434254 170.217276,0.0709790055 168.170155,0.0709790055 L168.170155,0.0709790055 C168.103412,0.0709790055 168.036437,0.0709790055 167.969578,0.0735558011" id="path-46"></path>
        <linearGradient x1="-6.82298329e-06%" y1="50.0000122%" x2="99.9999727%" y2="50.0000122%" id="linearGradient-48">
            <stop stop-color="#D831B3" offset="0%"></stop>
            <stop stop-color="#6241E8" offset="100%"></stop>
        </linearGradient>
        <path d="M3.41013636,0.0106785714 C1.57810331,0.0106785714 0.0928719008,1.46495918 0.0928719008,3.25907653 L0.0928719008,3.25907653 L0.0928719008,19.6421173 C0.0928719008,21.4361173 1.57810331,22.890398 3.41013636,22.890398 L3.41013636,22.890398 L25.5741653,22.890398 C27.4061983,22.890398 28.8914298,21.4361173 28.8914298,19.6421173 L28.8914298,19.6421173 L28.8914298,3.25907653 C28.8914298,1.46495918 27.4061983,0.0106785714 25.5741653,0.0106785714 L25.5741653,0.0106785714 L3.41013636,0.0106785714 Z" id="path-49"></path>
        <linearGradient x1="273.690897%" y1="-16.2227207%" x2="18.2950391%" y2="59.3863068%" id="linearGradient-51">
            <stop stop-color="#FD7062" offset="0%"></stop>
            <stop stop-color="#FF918E" offset="100%"></stop>
        </linearGradient>
        <path d="M0.000579150579,15.0018533 C0.000579150579,23.2796525 6.71108108,29.9903861 14.989112,29.9903861 L14.989112,29.9903861 C23.267027,29.9903861 29.9776448,23.2796525 29.9776448,15.0018533 L29.9776448,15.0018533 C29.9776448,6.72382239 23.267027,0.0132046332 14.989112,0.0132046332 L14.989112,0.0132046332 C6.71108108,0.0132046332 0.000579150579,6.72382239 0.000579150579,15.0018533" id="path-52"></path>
    </defs>
    <g id="Page-1" stroke="none" stroke-width="1" fill="none" fill-rule="evenodd">
        <g id="Banking---nurses---debit-card-empty" transform="translate(-782.000000, -346.000000)">
            <g id="Group-23" transform="translate(491.000000, 272.000000)">
                <g id="debit_card_illustration" transform="translate(291.000000, 75.000000)">
                    <g id="Group-3" transform="translate(25.000000, 21.000000)">
                        <g id="Fill-1-Clipped">
                            <mask id="mask-2" fill="white">
                                <use xlink:href="#path-1"></use>
                            </mask>
                            <g id="path-1"></g>
                            <path d="M188.727058,0.033330866 C180.600699,0.0426868986 172.391057,1.7813886 164.673538,4.91437306 L164.673538,4.91437306 C143.24556,13.6129104 126.246563,30.7279008 102.295428,30.0057321 L102.295428,30.0057321 C89.2521589,29.6125448 77.0603485,23.2690377 64.1407801,22.2104027 L64.1407801,22.2104027 C60.1607079,21.8843449 56.4502835,22.2522709 52.9880749,23.2291577 L52.9880749,23.2291577 C40.0096849,26.8913427 28.6741084,40.1799497 24.5240939,54.8387476 L24.5240939,54.8387476 C21.1600767,66.7214937 25.7876533,78.3536151 20.4195061,90.0154419 L20.4195061,90.0154419 C14.6978465,102.445516 3.23647314,111.172121 0.49747991,125.474688 L0.49747991,125.474688 C-2.78977788,142.64102 10.7569111,157.366012 25.1175521,157.653827 L25.1175521,157.653827 C34.2583233,157.836971 51.1763675,156.095112 58.8660488,150.081873 L58.8660488,150.081873 C68.2291774,142.759725 77.5127512,142.170879 88.534884,142.310401 L88.534884,142.310401 C109.510808,142.575996 130.540196,147.268631 151.282581,150.53833 L151.282581,150.53833 C169.05616,153.340111 186.592822,157.597925 204.57513,157.943396 L204.57513,157.943396 C206.117889,157.972984 207.635954,158 209.120473,158 L209.120473,158 L209.154135,158 C220.362284,157.998012 229.8059,156.463623 235.944902,143.108471 L235.944902,143.108471 C244.261704,125.015541 267.836963,92.7802665 253.195493,71.8825152 L253.195493,71.8825152 C246.214933,61.9191591 231.615627,56.7155677 231.053152,41.6612435 L231.053152,41.6612435 C230.687759,31.8790437 234.85408,26.5232998 227.980098,18.2544382 L227.980098,18.2544382 C217.380317,5.50450481 203.262767,0.0519259808 188.867415,0.033330866 L188.867415,0.033330866 L188.727058,0.033330866 Z" id="Fill-1" fill="url(#linearGradient-3)" fill-rule="nonzero" mask="url(#mask-2)"></path>
                        </g>
                    </g>
                    <circle id="Oval" fill="#E1E8FD" fill-rule="nonzero" cx="31.5" cy="29.5" r="6.5"></circle>
                    <circle id="Oval-Copy" fill="#E1E8FD" fill-rule="nonzero" cx="4" cy="80" r="4"></circle>
                    <circle id="Oval-Copy-2" stroke="#E1E9FD" cx="138" cy="34" r="4"></circle>
                    <circle id="Oval-Copy-2" stroke="#E1E9FD" cx="308" cy="4" r="4"></circle>
                    <circle id="Oval-Copy-2" stroke="#E1E9FD" cx="18" cy="114" r="4"></circle>
                    <circle id="Oval-Copy-3" fill="#E1E8FD" fill-rule="nonzero" cx="273" cy="48" r="4"></circle>
                    <circle id="Oval-Copy-4" fill="#E1E8FD" fill-rule="nonzero" cx="310.5" cy="75.5" r="6.5"></circle>
                    <g id="Group-22" transform="translate(25.000000, 103.000000)" fill-rule="nonzero">
                        <path d="M35.1636675,2.56174439 C31.8980379,-0.796078673 26.5677827,-0.832084992 23.2583671,2.48108088 C19.948721,5.79424676 19.913116,11.201975 23.1788609,14.5597981 C23.1790914,14.5600319 23.1793218,14.5602657 23.1795523,14.5604995 C24.9950584,16.426866 25.9325399,18.9943036 25.7560132,21.6103731 C25.5532148,24.6176022 26.5738897,27.6949735 28.8248362,30.0094316 L28.8252971,30.0098992 C31.0226634,32.2688281 32.0573959,35.4369166 31.6299062,38.5805722 C31.1298239,42.2575422 32.2597333,46.1208566 35.0280461,48.9672262 C39.7575111,53.8301836 47.4772148,53.8824395 52.2702848,49.084013 C57.06347,44.2857033 57.1149761,36.4536275 52.3853959,31.5906701 C52.1325893,31.3307934 51.8711407,31.0844774 51.601972,30.8519561 C48.9665152,28.5753747 47.3731654,25.297163 47.1957169,21.7899371 C47.0656263,19.2166543 46.0403424,16.6803131 44.1158321,14.7016022 C43.2703012,13.8321899 42.3163424,13.1375485 41.2973959,12.617678 C39.2517827,11.5739624 37.8350749,9.58496398 37.4959638,7.28757378 C37.2410831,5.56160853 36.4644576,3.89900506 35.1636675,2.56174439" id="Fill-4" fill="#91B3FA"></path>
                        <path d="M29.7155704,8.33169858 C31.6464181,11.4140967 33.3614469,14.6188929 34.9845251,17.871152 C35.3871259,18.6856196 35.7957185,19.4973984 36.1761959,20.3229719 L36.7569366,21.5564221 L37.047307,22.1730888 L37.3255786,22.7956006 L38.4355539,25.286934 L39.491949,27.8021156 C40.864986,31.1699924 42.1695786,34.5697839 43.3039819,38.0297807 L43.7387309,39.3240209 C43.810056,39.5400588 43.8859901,39.7546938 43.953628,39.9719008 L44.1530848,40.6249245 L44.9511424,43.2371362 C45.2286074,44.1044442 45.4539901,44.9873005 45.6976938,45.8647791 L46.4191259,48.5001378 C46.4497761,48.6116638 46.3852494,48.7272815 46.2753235,48.758261 C46.1653975,48.7892404 46.0514387,48.7238913 46.0209037,48.6122483 L46.0206733,48.6115469 L46.0190601,48.6052341 L45.3105333,45.9742009 C45.0712082,45.0981251 44.8500889,44.2165548 44.5770025,43.3504158 L43.7918502,40.7413605 L43.5956198,40.0891551 C43.5290189,39.872182 43.4541218,39.6577807 43.383949,39.4419766 L42.9556527,38.1491393 C41.8384181,34.6924158 40.550879,31.2946117 39.1947802,27.9275532 L38.1509449,25.4129561 L37.0536444,22.9219735 L36.7785992,22.2993447 L36.4913399,21.682678 L35.9168214,20.4491109 C35.5404922,19.6234205 35.136163,18.8116417 34.7377103,17.9969403 C33.1324922,14.7456164 31.430484,11.5341567 29.5230272,8.46017567 L29.5208379,8.45666856 C29.4869613,8.40219147 29.5031196,8.32982812 29.5570189,8.29545845 C29.6108296,8.26108878 29.6816938,8.27737588 29.7155704,8.33169858" id="Fill-6" fill="#BDD0FB"></path>
                        <path d="M32.933358,15.4560866 C30.353786,15.4560866 26.2716626,13.0712524 26.0877613,12.9629997 C26.0327984,12.9305005 26.0140165,12.8589555 26.0460494,12.8031924 C26.0779671,12.7475463 26.1484856,12.7283741 26.2034486,12.7606395 C26.2508066,12.7885795 30.9690947,15.5454009 33.400716,15.1905984 C33.4639753,15.1817137 33.5221646,15.2257864 33.5311523,15.2896158 C33.5402551,15.3535621 33.4965844,15.4128322 33.4335556,15.4220676 C33.2747737,15.4452145 33.107465,15.4560866 32.933358,15.4560866" id="Fill-8" fill="#BDD0FB"></path>
                        <path d="M33.5348626,15.3052692 C33.51827,15.3052692 33.5014469,15.3016452 33.4854305,15.2939295 C33.4280477,15.2662234 33.4035045,15.1964319 33.4308132,15.1382139 C33.446484,15.1046626 35.0005416,11.7505804 34.9585992,8.78754092 C34.9576774,8.72289321 35.0086074,8.66981896 35.0722123,8.66884103 C35.1322453,8.66713017 35.18813,8.71961991 35.1890519,8.78415071 C35.2318008,11.8024856 33.6549284,15.2046152 33.6390272,15.2386341 C33.6192082,15.2806025 33.5779572,15.3052692 33.5348626,15.3052692" id="Fill-10" fill="#BDD0FB"></path>
                        <path d="M38.8626173,27.0661839 L38.8598519,27.0661839 C34.765284,26.9691539 30.5430453,23.7904272 30.5009877,23.7582787 C30.4500576,23.7195836 30.4396872,23.646285 30.4779424,23.5947305 C30.5160823,23.5429422 30.588214,23.5327716 30.6392593,23.5712329 C30.680856,23.6029137 34.8453663,26.7372171 38.8652675,26.8323766 C38.9288724,26.8338964 38.9792263,26.8875551 38.977761,26.951969 C38.9762305,27.0155646 38.92507,27.0661839 38.8626173,27.0661839" id="Fill-12" fill="#BDD0FB"></path>
                        <path d="M38.9753086,27.074297 C38.9465021,27.074297 38.9175802,27.0633081 38.8952263,27.0413302 C38.8494815,26.9964392 38.8483292,26.9224392 38.8925761,26.8761453 C38.9188477,26.8484392 41.5230782,24.0574818 41.661465,18.7962338 C41.6630782,18.731703 41.7118189,18.6780442 41.7796872,18.6824866 C41.8432922,18.6841232 41.8935309,18.7378989 41.8918025,18.8024297 C41.7509959,24.1598894 39.0850041,27.0105845 39.0580412,27.0387583 C39.0354568,27.0623728 39.0053827,27.074297 38.9753086,27.074297" id="Fill-14" fill="#FFFFFF"></path>
                        <path d="M44.4997547,41.8447905 C44.4700263,41.8447905 44.4402979,41.8331002 44.4178288,41.8099532 C44.3730058,41.764127 44.3735819,41.690127 44.4187506,41.6446515 C44.4504379,41.6129706 47.592084,38.4165915 48.0642815,33.7569295 C48.0707342,33.6927494 48.1273103,33.6473908 48.1905695,33.6526515 C48.253944,33.6591981 48.2999193,33.7167147 48.2934667,33.7808948 C47.8126272,38.526364 44.612907,41.7788569 44.5806436,41.8111223 C44.5581745,41.8335678 44.5290222,41.8447905 44.4997547,41.8447905" id="Fill-16" fill="#FFFFFF"></path>
                        <path d="M44.2318881,41.9156926 C43.505386,41.9156926 40.010456,41.7482866 36.3500609,38.7324066 C36.3006288,38.6916073 36.2931391,38.617958 36.3332379,38.5678063 C36.3734519,38.5178885 36.4460444,38.5102897 36.4953613,38.5508553 C40.5156082,41.8633197 44.3178469,41.6818853 44.3557564,41.6796641 C44.4193613,41.6775599 44.4738634,41.7251397 44.4774354,41.7896705 C44.4812379,41.8540844 44.4327276,41.9092629 44.3692379,41.9131207 C44.3650897,41.9132376 44.3178469,41.9156926 44.2318881,41.9156926" id="Fill-18" fill="#FFFFFF"></path>
                        <path d="M0.587446914,26.6131823 C-1.34697284,20.8965946 1.65259918,14.6713592 7.2872823,12.708781 C12.9218502,10.7460859 19.0577679,13.7894382 20.9921877,19.5060259 L20.9925333,19.507078 C22.0675951,22.6851033 24.4364181,25.2409675 27.4955621,26.5278427 C31.0120395,28.0070243 33.9100971,30.9506578 35.2434963,34.8910117 C36.5439407,38.7343355 39.5353317,41.7502155 43.33227,43.0438711 C47.7775868,44.5583577 51.5038914,48.0778585 53.1442535,52.9255014 C55.9458667,61.2047336 51.6016033,70.2206926 43.4411588,73.0629706 C35.2805992,75.9053656 26.3941136,71.4978648 23.5925004,63.2186325 C23.4427062,62.7759185 23.3134222,62.3311002 23.2039572,61.8852297 C22.1326979,57.5187621 19.3343111,53.7942123 15.4692741,51.5871886 C12.6334387,49.9677226 10.3497679,47.327454 9.20983374,43.958642 C8.70894486,42.478642 8.46754568,40.9717542 8.46086255,39.4892992 C8.44726584,36.5126989 7.00624527,33.7289896 4.6014716,32.0237163 C2.79506831,30.7426863 1.35796543,28.8902313 0.587446914,26.6131823" id="Fill-20" fill="#BDD0FB"></path>
                    </g>
                    <g id="Group-25" transform="translate(36.000000, 126.000000)">
                        <g id="Fill-23-Clipped">
                            <mask id="mask-5" fill="white">
                                <use xlink:href="#path-4"></use>
                            </mask>
                            <g id="path-4"></g>
                            <path d="M0.155003155,0.131467213 C0.10481388,0.162013661 0.0887066246,0.227688525 0.119053628,0.27820765 L0.119053628,0.27820765 C2.53304101,4.30046995 5.21384858,8.14368306 8.00122082,11.9051257 L8.00122082,11.9051257 C8.70176972,12.8426667 9.39543218,13.785612 10.1214259,14.7036503 L10.1214259,14.7036503 L11.1987445,16.0896366 L11.7374038,16.7826885 L12.2896025,17.4648142 L14.5022492,20.1903798 L16.7681199,22.8713005 C19.8259306,26.4130437 22.9601924,29.8933415 26.2619464,33.2095109 L26.2619464,33.2095109 L27.4911167,34.4621503 C27.6968927,34.6699836 27.8984669,34.8820464 28.1079779,35.0861202 L28.1079779,35.0861202 L28.7395457,35.6950519 L31.2664006,38.1305437 C32.0982587,38.953888 32.9778549,39.7251858 33.8407603,40.514929 L33.8407603,40.514929 L36.4386972,42.8744071 L36.4403312,42.8758169 C36.5548328,42.9781475 36.7299117,42.9676913 36.8315741,42.8524372 L36.8315741,42.8524372 C36.9332366,42.737418 36.9228486,42.561071 36.808347,42.4587404 L36.808347,42.4587404 L36.8020442,42.4531011 L34.1933691,40.1207623 C33.326612,39.3401831 32.443164,38.5775792 31.6072208,37.7631639 L31.6072208,37.7631639 L29.0677603,35.3536366 L28.4328076,34.7512842 C28.2222461,34.5493251 28.0196215,34.339377 27.8126782,34.1336585 L27.8126782,34.1336585 L26.5766215,32.8937077 C23.2561924,29.6109044 20.1012713,26.1622104 17.0207003,22.6504262 L17.0207003,22.6504262 L14.7386057,19.990888 L12.5188391,17.2782459 L11.9646562,16.5992923 L11.4241293,15.9094126 L10.342959,14.529653 C9.6145142,13.6158443 8.91816719,12.6770109 8.21505047,11.7434645 L8.21505047,11.7434645 C5.41787382,8.00023224 2.7228265,4.16771038 0.302419558,0.170472678 L0.302419558,0.170472678 L0.300785489,0.167770492 C0.280826498,0.134404372 0.245810726,0.116076503 0.209861199,0.116076503 L0.209861199,0.116076503 C0.191069401,0.116076503 0.172160883,0.121010929 0.155003155,0.131467213" id="Fill-23" fill="url(#linearGradient-6)" fill-rule="nonzero" mask="url(#mask-5)"></path>
                        </g>
                    </g>
                    <g id="Group-28" transform="translate(41.000000, 124.000000)">
                        <g id="Fill-26-Clipped">
                            <mask id="mask-8" fill="white">
                                <use xlink:href="#path-7"></use>
                            </mask>
                            <g id="path-7"></g>
                            <path d="M1.72075,0.0131034483 C1.651875,0.0172413793 1.59975,0.071954023 1.604125,0.135287356 L1.604125,0.135287356 C1.609,0.205287356 2.072375,7.16264368 0.12525,9.75586207 L0.12525,9.75586207 C0.086,9.80827586 0.100375,9.87977011 0.157125,9.91586207 L0.157125,9.91586207 C0.178875,9.92954023 0.203625,9.9362069 0.228,9.9362069 L0.228,9.9362069 C0.26775,9.9362069 0.30675,9.91885057 0.331,9.88655172 L0.331,9.88655172 C2.327375,7.22747126 1.873875,0.409425287 1.853625,0.12045977 L1.853625,0.12045977 C1.84925,0.0586206897 1.793125,0.0131034483 1.72525,0.0131034483 L1.72525,0.0131034483 C1.72375,0.0131034483 1.72225,0.0131034483 1.72075,0.0131034483" id="Fill-26" fill="url(#linearGradient-9)" fill-rule="nonzero" mask="url(#mask-8)"></path>
                        </g>
                    </g>
                    <g id="Group-31" transform="translate(32.000000, 133.000000)">
                        <g id="Fill-29-Clipped">
                            <mask id="mask-11" fill="white">
                                <use xlink:href="#path-10"></use>
                            </mask>
                            <g id="path-10"></g>
                            <path d="M0.0801081081,0.0702105263 C0.0527567568,0.122 0.0736216216,0.185368421 0.126702703,0.212 L0.126702703,0.212 C3.30010811,1.80389474 7.74659459,1.89842105 7.79113514,1.89926316 L7.79113514,1.89926316 L7.79308108,1.89926316 C7.85189189,1.89926316 7.9,1.85326316 7.90109915,1.79578947 L7.90109915,1.79578947 C7.90216216,1.73768421 7.85459459,1.68968421 7.79491892,1.68863158 L7.79491892,1.68863158 C7.75091892,1.688 3.35481081,1.59463158 0.22572973,0.0249473684 L0.22572973,0.0249473684 C0.209837838,0.0169473684 0.192972973,0.0131578947 0.176216216,0.0131578947 L0.176216216,0.0131578947 C0.137081081,0.0131578947 0.0992432432,0.0341052632 0.0801081081,0.0702105263" id="Fill-29" fill="url(#linearGradient-12)" fill-rule="nonzero" mask="url(#mask-11)"></path>
                        </g>
                    </g>
                    <g id="Group-34" transform="translate(51.000000, 136.000000)">
                        <g id="Fill-32-Clipped">
                            <mask id="mask-14" fill="white">
                                <use xlink:href="#path-13"></use>
                            </mask>
                            <g id="path-13"></g>
                            <path d="M1.39614286,0.096627451 C1.31857143,0.107411765 1.26714286,0.163598039 1.28142857,0.222156863 L1.28142857,0.222156863 C1.29657143,0.283627451 2.74828571,6.41397059 0.0331428571,10.7899216 L0.0331428571,10.7899216 C-0.000285714286,10.8438431 0.0305714286,10.9080098 0.102,10.9332451 L0.102,10.9332451 C0.121571429,10.9402549 0.142142857,10.9434902 0.162571429,10.9434902 L0.162571429,10.9434902 C0.216285714,10.9434902 0.267714286,10.9205196 0.292,10.8812647 L0.292,10.8812647 C3.04628571,6.44222549 1.57771429,0.245235294 1.56257143,0.183117647 L1.56257143,0.183117647 C1.54985714,0.131352941 1.48985714,0.0946862745 1.42285714,0.0946862745 L1.42285714,0.0946862745 C1.414,0.0946862745 1.40514286,0.0953333333 1.39614286,0.096627451" id="Fill-32" fill="url(#linearGradient-15)" fill-rule="nonzero" mask="url(#mask-14)"></path>
                        </g>
                    </g>
                    <g id="Group-37" transform="translate(41.000000, 146.000000)">
                        <g id="Fill-35-Clipped">
                            <mask id="mask-17" fill="white">
                                <use xlink:href="#path-16"></use>
                            </mask>
                            <g id="path-16"></g>
                            <path d="M0.0928762887,0.145111111 C0.0664536082,0.200777778 0.0911752577,0.266888889 0.147989691,0.292666667 L0.147989691,0.292666667 C3.12468041,1.647 5.76649485,1.99144444 7.68469072,1.99144444 L7.68469072,1.99144444 C9.6526701,1.99144444 10.8590412,1.62866667 10.8825155,1.62133333 L10.8825155,1.62133333 C10.9421649,1.60266667 10.9750515,1.54011111 10.9561134,1.48177778 L10.9561134,1.48177778 C10.9370619,1.42333333 10.8731031,1.391 10.8136804,1.40955556 L10.8136804,1.40955556 C10.7682062,1.42377778 6.18937113,2.79633333 0.243587629,0.0911111111 L0.243587629,0.0911111111 C0.228051546,0.084 0.211721649,0.0805555556 0.195618557,0.0805555556 L0.195618557,0.0805555556 C0.152865979,0.0805555556 0.112041237,0.104444444 0.0928762887,0.145111111" id="Fill-35" fill="url(#linearGradient-18)" fill-rule="nonzero" mask="url(#mask-17)"></path>
                        </g>
                    </g>
                    <g id="Group-40" transform="translate(54.000000, 162.000000)">
                        <g id="Fill-38-Clipped">
                            <mask id="mask-20" fill="white">
                                <use xlink:href="#path-19"></use>
                            </mask>
                            <g id="path-19"></g>
                            <path d="M0.11176,0.194166667 C0.09042,0.280333333 0.11924,0.3765 0.17611,0.409 L0.17611,0.409 C2.13356,1.5215 4.07264,1.87633333 5.7508,1.87633333 L5.7508,1.87633333 C8.68054,1.87633333 10.813,0.7945 10.84622,0.777166667 L10.84622,0.777166667 C10.90364,0.747166667 10.93422,0.652333333 10.91453,0.565333333 L10.91453,0.565333333 C10.89473,0.478333333 10.83236,0.432 10.77472,0.461833333 L10.77472,0.461833333 C10.72313,0.488666667 5.55478,3.11083333 0.25333,0.0966666667 L0.25333,0.0966666667 C0.24068,0.0896666667 0.22781,0.0863333333 0.21505,0.0863333333 L0.21505,0.0863333333 C0.17039,0.0863333333 0.12837,0.127166667 0.11176,0.194166667" id="Fill-38" fill="url(#linearGradient-21)" fill-rule="nonzero" mask="url(#mask-20)"></path>
                        </g>
                    </g>
                    <g id="Group-61" transform="translate(65.000000, 101.000000)" fill-rule="nonzero">
                        <path d="M0.189549206,60.9868487 C0.169993651,60.9868487 0.150088889,60.9818218 0.131813757,60.9714174 C0.0760571429,60.9393858 0.0566179894,60.8678408 0.0885121693,60.8119608 C0.113073016,60.7689403 2.51782434,56.4369592 1.0470836,49.8537649 C1.03299894,49.7907539 1.07245926,49.7282104 1.1352,49.7140651 C1.19770794,49.6992183 1.26009947,49.7394332 1.27418413,49.8025611 C2.76587725,56.4792784 0.315612698,60.8843242 0.290586243,60.9280461 C0.269168254,60.9656891 0.229940741,60.9868487 0.189549206,60.9868487" id="Fill-41" fill="#FFFFFF"></path>
                        <path d="M184.371745,2.61974028 C187.670814,-0.737965877 193.055343,-0.7740891 196.398644,2.53919368 C199.741946,5.85224265 199.777914,11.2600878 196.478962,14.617794 L196.478263,14.6184954 C194.644232,16.4848619 193.697184,19.0522995 193.875512,21.668369 C194.080263,24.6755981 193.049174,27.7530863 190.775375,30.0674275 L190.774909,30.0678951 C188.555004,32.326824 187.509713,35.4949125 187.941681,38.6385681 C188.446867,42.315655 187.305428,46.1788524 184.508867,49.0252221 C179.731025,53.8881795 171.932666,53.9404354 167.09057,49.1420088 C162.248592,44.3436992 162.196443,36.5116234 166.974285,31.6487829 C167.229671,31.3887893 167.493904,31.1424733 167.765703,30.9100689 C170.428052,28.6333706 172.03766,25.3551589 172.21692,21.8480499 C172.348454,19.2747671 173.384084,16.738309 175.328232,14.7595981 C176.18239,13.8901858 177.1462,13.1955444 178.175544,12.6756739 C180.241914,11.6319583 181.673078,9.64295987 182.015766,7.34556967 C182.273131,5.61972133 183.057798,3.95711785 184.371745,2.61974028" id="Fill-43" fill="#91B3FA"></path>
                        <path d="M190.069989,8.5181248 C188.143069,11.5921058 186.423693,14.8037994 184.802095,18.0548894 C184.399577,18.8695908 183.991005,19.6814866 183.610952,20.5071769 L183.030571,21.7406272 L182.740381,22.3574107 L182.462529,22.9799226 L181.354032,25.4710221 L180.299429,27.9856193 C178.929608,31.3525608 177.628931,34.7504818 176.500413,38.2070885 L176.067746,39.5000427 C175.996741,39.7157299 175.921079,39.9301311 175.853799,40.1472212 L175.655566,40.7994265 L174.862519,43.4083649 C174.586529,44.2746209 174.363153,45.1560742 174.121386,46.0321501 L173.405746,48.6633002 L173.404,48.6694961 C173.373619,48.781139 173.258847,48.8470727 173.147566,48.8164439 C173.036402,48.7859321 172.970868,48.6706651 173.001132,48.5590221 L173.001365,48.5580869 L173.730275,45.9228452 C173.976349,45.0453665 174.204148,44.1625103 174.484444,43.2950853 L175.290529,40.6829905 L175.492138,40.0299668 C175.560466,39.812643 175.637175,39.5981248 175.709344,39.3820869 L176.148413,38.0878468 C177.294392,34.6279668 178.61218,31.2280585 179.999228,27.8600648 L181.066519,25.3448831 L182.18782,22.8536667 L182.468815,22.2311548 L182.762265,21.6143712 L183.349048,20.3810379 C183.733291,19.5553476 184.145937,18.7436856 184.552878,17.9291011 C186.192402,14.6769589 187.924931,11.4721627 189.875481,8.38976461 C189.909937,8.33556406 189.981873,8.31915482 190.036116,8.3538752 C190.09036,8.38847867 190.106307,8.46072512 190.071968,8.51520221 L190.069989,8.5181248 Z" id="Fill-45" fill="#BDD0FB"></path>
                        <path d="M186.624871,15.5140825 C186.448754,15.5140825 186.279971,15.5032104 186.119453,15.4800635 C186.055897,15.4708281 186.011665,15.411558 186.020977,15.3476117 C186.030056,15.2837823 186.088956,15.2384237 186.152628,15.2485943 C188.608596,15.6025785 193.375495,12.8466923 193.423337,12.8186354 C193.479093,12.7862531 193.550215,12.8053084 193.582458,12.8611883 C193.614818,12.9169513 193.595961,12.9884964 193.540204,13.0209956 C193.354543,13.1292483 189.230765,15.5140825 186.624871,15.5140825" id="Fill-47" fill="#BDD0FB"></path>
                        <path d="M186.01717,15.3632651 C185.973636,15.3632651 185.931964,15.3385984 185.912059,15.29663 C185.895879,15.2626111 184.302916,11.8604815 184.346218,8.8421466 C184.346916,8.77820032 184.399065,8.72687962 184.462504,8.72687962 L184.464133,8.72687962 C184.528504,8.72781485 184.579721,8.7808891 184.579022,8.84553681 C184.536419,11.8099791 186.106451,15.1626585 186.122281,15.1960929 C186.149985,15.2544278 186.125308,15.3242193 186.067107,15.3519254 C186.051043,15.3596411 186.034049,15.3632651 186.01717,15.3632651" id="Fill-49" fill="#BDD0FB"></path>
                        <path d="M180.635051,27.1241798 C180.572077,27.1241798 180.520278,27.0735605 180.518732,27.0099649 C180.517252,26.945551 180.56812,26.8918923 180.63249,26.8903725 C184.69504,26.795213 188.900416,23.6610265 188.942321,23.6293457 C188.994003,23.5906506 189.066871,23.6011719 189.1054,23.6527264 C189.144046,23.7043978 189.133569,23.7776964 189.082003,23.8163915 C189.039516,23.8484231 184.77431,27.0271498 180.637844,27.1241798 L180.635051,27.1241798 Z" id="Fill-51" fill="#BDD0FB"></path>
                        <path d="M180.521268,27.1322929 C180.490887,27.1322929 180.460506,27.1203687 180.437575,27.0967542 C180.410453,27.0685804 177.717257,24.2178853 177.575014,18.8604256 C177.573268,18.7958948 177.624019,18.7421191 177.688157,18.7404825 C177.756252,18.742236 177.806072,18.7896989 177.807702,18.8542297 C177.947501,24.1154777 180.578305,26.9064351 180.604961,26.9341412 C180.649543,26.9804351 180.648379,27.0544351 180.602167,27.0993261 C180.579585,27.1213039 180.550485,27.1322929 180.521268,27.1322929" id="Fill-53" fill="#BDD0FB"></path>
                        <path d="M174.94045,41.9027864 C174.910884,41.9027864 174.881317,41.8915637 174.858735,41.8691182 C174.826143,41.8368528 171.593772,38.5843599 171.108026,33.8390076 C171.101508,33.7748275 171.147952,33.7173109 171.211974,33.7107643 C171.275995,33.7046853 171.333032,33.7509791 171.33955,33.8150423 C171.816915,38.4778607 174.990153,41.6709665 175.022164,41.7026474 C175.068026,41.748006 175.068492,41.8221229 175.023328,41.8679491 C175.00063,41.8910961 174.970598,41.9027864 174.94045,41.9027864" id="Fill-55" fill="#BDD0FB"></path>
                        <path d="M175.211108,41.9736885 C175.124039,41.9736885 175.076431,41.9712335 175.072357,41.9711166 C175.008103,41.9672588 174.959214,41.9120803 174.962939,41.8476664 C174.966663,41.7830186 175.023002,41.7333346 175.085976,41.73766 C175.124738,41.7406995 178.965076,41.9215494 183.026579,38.6089681 C183.076399,38.5684025 183.149732,38.5758844 183.190357,38.6259191 C183.230748,38.6760708 183.223182,38.7497201 183.173246,38.7905194 C179.475849,41.8060487 175.945372,41.9736885 175.211108,41.9736885" id="Fill-57" fill="#BDD0FB"></path>
                        <path d="M219.300901,26.6711782 C221.254943,20.9545905 218.224879,14.7293551 212.532699,12.7667769 C206.840636,10.8040818 200.642107,13.8474341 198.687948,19.5640218 C198.687715,19.5643725 198.687599,19.5647232 198.687483,19.5651908 C197.601567,22.7430992 195.208456,25.2989633 192.118096,26.5858385 C188.565737,28.0650202 185.638223,31.0086537 184.291102,34.9490076 C182.977387,38.7923314 179.955472,41.8082114 176.119906,43.101867 C171.629229,44.6163536 167.864784,48.1359712 166.207684,52.9834973 C163.377483,61.2627295 167.766192,70.2786885 176.009906,73.1209665 C184.25362,75.9633615 193.230784,71.5558607 196.061102,63.2766284 C196.212308,62.8339144 196.343028,62.3890961 196.45361,61.9433425 C197.5358,57.5768749 200.362742,53.8522082 204.267102,51.6451845 C207.13199,50.0257185 209.438848,47.3854499 210.590414,44.0167548 C211.096414,42.5366379 211.340276,41.0297501 211.347144,39.5472951 C211.360763,36.5706948 212.816604,33.7869855 215.2458,32.0817122 C217.070752,30.8006821 218.52252,28.9482272 219.300901,26.6711782" id="Fill-59" fill="#BDD0FB"></path>
                    </g>
                    <g id="Group-64" transform="translate(237.000000, 124.000000)">
                        <g id="Fill-62-Clipped">
                            <mask id="mask-23" fill="white">
                                <use xlink:href="#path-22"></use>
                            </mask>
                            <g id="path-22"></g>
                            <path d="M36.7101861,0.108204918 L36.7082019,0.111259563 C34.287795,4.10849727 31.5928644,7.94101913 28.7956877,11.6842514 L28.7956877,11.6842514 C28.092571,12.6177978 27.396224,13.5566311 26.6677792,14.4705574 L26.6677792,14.4705574 L25.5866088,15.8501995 L25.046082,16.5400792 L24.4918991,17.2190328 L22.2721325,19.9317923 L19.9899211,22.5912131 C16.9094669,26.1029973 13.7543123,29.5518087 10.434,32.8344945 L10.434,32.8344945 L9.19817666,34.0744454 C8.99111672,34.2801639 8.78837539,34.4902295 8.57781388,34.692071 L8.57781388,34.692071 L7.94297792,35.2944235 L5.40351735,37.7039508 C4.56757413,38.5184836 3.68400946,39.2809699 2.81736909,40.0616667 L2.81736909,40.0616667 L0.208577287,42.393888 L0.202274448,42.3995273 L0.200757098,42.4010546 C0.0870725552,42.5043251 0.0780851735,42.6805546 0.180564669,42.7949863 L0.180564669,42.7949863 C0.283160883,42.909418 0.458356467,42.9184645 0.572041009,42.815194 L0.572041009,42.815194 L3.1698612,40.4557158 C4.03288328,39.6659727 4.9124795,38.8946749 5.74433754,38.0713306 L5.74433754,38.0713306 L8.27107571,35.6358388 L8.90276025,35.0270246 C9.11227129,34.8228333 9.31372871,34.6107705 9.51973817,34.4030546 L9.51973817,34.4030546 L10.7486751,33.1502978 C14.0505457,29.8341284 17.1846909,26.3538306 20.2426183,22.8120874 L20.2426183,22.8120874 L22.5086057,20.1311667 L24.7210189,17.4056011 L25.2733344,16.7234754 L25.8119937,16.030541 L26.8893123,14.6445546 C27.6151893,13.7263989 28.3089685,12.783571 29.0094006,11.8459126 L29.0094006,11.8459126 C31.7968896,8.08446995 34.4776972,4.24125683 36.8916845,0.219112022 L36.8916845,0.219112022 C36.922265,0.168710383 36.9061577,0.103270492 36.8562019,0.072489071 L36.8562019,0.072489071 C36.8388107,0.0619153005 36.8197855,0.056863388 36.800877,0.056863388 L36.800877,0.056863388 C36.7651609,0.056863388 36.7301451,0.0750737705 36.7101861,0.108204918" id="Fill-62" fill="url(#linearGradient-24)" fill-rule="nonzero" mask="url(#mask-23)"></path>
                        </g>
                    </g>
                    <g id="Group-67" transform="translate(267.000000, 123.000000)">
                        <g id="Fill-65-Clipped">
                            <mask id="mask-26" fill="white">
                                <use xlink:href="#path-25"></use>
                            </mask>
                            <g id="path-25"></g>
                            <path d="M0.157875,0.177586207 C0.137625,0.466551724 -0.315875,7.28448276 1.680375,9.94356322 L1.680375,9.94356322 C1.70475,9.97597701 1.743625,9.99321839 1.7835,9.99321839 L1.7835,9.99321839 C1.808,9.99321839 1.832625,9.98655172 1.854375,9.97287356 L1.854375,9.97287356 C1.911125,9.93678161 1.925375,9.86528736 1.886125,9.81287356 L1.886125,9.81287356 C-0.06075,7.21965517 0.40225,0.262413793 0.407375,0.192413793 L0.407375,0.192413793 C0.41175,0.12908046 0.359625,0.0744827586 0.290625,0.0702298851 L0.290625,0.0702298851 C0.289125,0.0702298851 0.287625,0.0702298851 0.286125,0.0702298851 L0.286125,0.0702298851 C0.219,0.0702298851 0.162125,0.115747126 0.157875,0.177586207" id="Fill-65" fill="url(#linearGradient-27)" fill-rule="nonzero" mask="url(#mask-26)"></path>
                        </g>
                    </g>
                    <g id="Group-70" transform="translate(270.000000, 131.000000)">
                        <g id="Fill-68-Clipped">
                            <mask id="mask-29" fill="white">
                                <use xlink:href="#path-28"></use>
                            </mask>
                            <g id="path-28"></g>
                            <path d="M7.78126027,0.0771578947 C4.61030137,1.64621053 0.152986301,1.74021053 0.108383562,1.74084211 L0.108383562,1.74084211 C0.047890411,1.74189474 -0.000328767123,1.78989474 0.000642669386,1.848 L0.000642669386,1.848 C0.00175342466,1.90547368 0.050630137,1.95147368 0.110246575,1.95147368 L0.110246575,1.95147368 L0.112109589,1.95147368 C0.157369863,1.95063158 4.66476712,1.85610526 7.88164384,0.264210526 L7.88164384,0.264210526 C7.93545205,0.237578947 7.95660274,0.174210526 7.92887671,0.122421053 L7.92887671,0.122421053 C7.90947945,0.0862105263 7.87134247,0.0652631579 7.83167123,0.0652631579 L7.83167123,0.0652631579 C7.81468493,0.0652631579 7.79747945,0.0690526316 7.78126027,0.0771578947" id="Fill-68" fill="url(#linearGradient-30)" fill-rule="nonzero" mask="url(#mask-29)"></path>
                        </g>
                    </g>
                    <g id="Group-73" transform="translate(257.000000, 135.000000)">
                        <g id="Fill-71-Clipped">
                            <mask id="mask-32" fill="white">
                                <use xlink:href="#path-31"></use>
                            </mask>
                            <g id="path-31"></g>
                            <path d="M0.450571429,0.130148515 C0.435428571,0.192881188 -1.03328571,6.45111881 1.72114286,10.9342178 L1.72114286,10.9342178 C1.74542857,10.9737525 1.79671429,10.9969505 1.85042857,10.9969505 L1.85042857,10.9969505 C1.87071429,10.9969505 1.89142857,10.9936832 1.911,10.986604 L1.911,10.986604 C1.98242857,10.9611188 2.01328571,10.8963168 1.98,10.8418614 L1.98,10.8418614 C-0.735285714,6.42258416 0.716428571,0.231653465 0.731571429,0.169683168 L0.731571429,0.169683168 C0.745714286,0.110435644 0.694428571,0.0536930693 0.617,0.0428019802 L0.617,0.0428019802 C0.608,0.0414950495 0.599142857,0.0408415842 0.590428571,0.0408415842 L0.590428571,0.0408415842 C0.523142857,0.0408415842 0.463142857,0.0777623762 0.450571429,0.130148515" id="Fill-71" fill="url(#linearGradient-33)" fill-rule="nonzero" mask="url(#mask-32)"></path>
                        </g>
                    </g>
                    <g id="Group-76" transform="translate(258.000000, 145.000000)">
                        <g id="Fill-74-Clipped">
                            <mask id="mask-35" fill="white">
                                <use xlink:href="#path-34"></use>
                            </mask>
                            <g id="path-34"></g>
                            <path d="M10.7668454,0.0351111111 C4.82094845,2.74011111 0.242226804,1.36766667 0.196752577,1.35355556 L0.196752577,1.35355556 C0.137329897,1.335 0.073257732,1.36722222 0.0542061856,1.42588889 L0.0542061856,1.42588889 C0.0353814433,1.48411111 0.0682680412,1.54666667 0.127917526,1.56533333 L0.127917526,1.56533333 C0.151391753,1.57266667 1.35719588,1.93544444 3.32574227,1.93544444 L3.32574227,1.93544444 C5.24382474,1.93544444 7.88609278,1.59077778 10.8624433,0.236666667 L10.8624433,0.236666667 C10.9191443,0.210888889 10.943866,0.144777778 10.9174433,0.0891111111 L10.9174433,0.0891111111 C10.8982784,0.0485555556 10.8574536,0.0246666667 10.8145876,0.0246666667 L10.8145876,0.0246666667 C10.7985979,0.0246666667 10.7823814,0.028 10.7668454,0.0351111111" id="Fill-74" fill="url(#linearGradient-36)" fill-rule="nonzero" mask="url(#mask-35)"></path>
                        </g>
                    </g>
                    <g id="Group-79" transform="translate(245.000000, 161.000000)">
                        <g id="Fill-77-Clipped">
                            <mask id="mask-38" fill="white">
                                <use xlink:href="#path-37"></use>
                            </mask>
                            <g id="path-37"></g>
                            <path d="M10.75679,0.0141818182 C5.45831,3.3 0.28699,0.441818182 0.2354,0.412181818 L0.2354,0.412181818 C0.17776,0.380363636 0.11539,0.430363636 0.09559,0.525454545 L0.09559,0.525454545 C0.0759,0.620363636 0.10648,0.723818182 0.1639,0.756363636 L0.1639,0.756363636 C0.19723,0.775272727 2.32914,1.95527273 5.2591,1.95527273 L5.2591,1.95527273 C6.93715,1.95527273 8.87689,1.56818182 10.8339,0.354727273 L10.8339,0.354727273 C10.89077,0.319272727 10.91959,0.214545455 10.89836,0.120545455 L10.89836,0.120545455 C10.88175,0.0472727273 10.83984,0.00272727273 10.79529,0.00272727273 L10.79529,0.00272727273 C10.78253,0.00272727273 10.76944,0.00636363636 10.75679,0.0141818182" id="Fill-77" fill="url(#linearGradient-39)" fill-rule="nonzero" mask="url(#mask-38)"></path>
                        </g>
                    </g>
                    <g id="Group-82" transform="translate(243.000000, 150.000000)">
                        <g id="Fill-80-Clipped">
                            <mask id="mask-41" fill="white">
                                <use xlink:href="#path-40"></use>
                            </mask>
                            <g id="path-40"></g>
                            <path d="M0.552533333,0.169489796 C-1.156,6.58013265 1.6508,10.8096327 1.6792,10.8516122 L1.6792,10.8516122 C1.704,10.8877551 1.74893333,10.9080714 1.7952,10.9080714 L1.7952,10.9080714 C1.8176,10.9080714 1.8404,10.9033571 1.86133333,10.8932551 L1.86133333,10.8932551 C1.9252,10.8625 1.94733333,10.7938061 1.9108,10.7400408 L1.9108,10.7400408 C1.88266667,10.6988469 -0.873333333,6.54533673 0.8128,0.218540816 L0.8128,0.218540816 C0.829066667,0.158040816 0.783733333,0.0982142857 0.711866667,0.0845204082 L0.711866667,0.0845204082 C0.702266667,0.0827244898 0.692666667,0.0819387755 0.6832,0.0819387755 L0.6832,0.0819387755 C0.622266667,0.0819387755 0.566533333,0.117183673 0.552533333,0.169489796" id="Fill-80" fill="url(#linearGradient-42)" fill-rule="nonzero" mask="url(#mask-41)"></path>
                        </g>
                    </g>
                    <g id="Group-85" transform="translate(63.000000, 65.000000)">
                        <g id="Fill-83-Clipped">
                            <mask id="mask-44" fill="white">
                                <use xlink:href="#path-43"></use>
                            </mask>
                            <g id="path-43"></g>
                            <path d="M176.621426,0.039998968 L5.93190536,4.45387926 C2.10024606,4.19289474 0.00828706625,7.654613 0.00828706625,9.42844479 L0.00828706625,9.42844479 L1.2640694,96.1170537 L1.46132492,109.705508 C1.46132492,111.47934 2.91716404,112.93108 4.69258044,112.93108 L4.69258044,112.93108 L179.344369,112.93108 C181.119785,112.93108 182.575741,111.47934 182.575741,109.705508 L182.575741,109.705508 L182.898003,96.1170537 L184.973621,8.35698555 C185.026262,6.13325284 184.162189,3.98462023 182.584028,2.41358204 L182.584028,2.41358204 C181.054073,0.887557276 178.980905,0.0374334365 176.825334,0.0374334365 L176.825334,0.0374334365 C176.757521,0.0374334365 176.689473,0.0374334365 176.621426,0.039998968" id="Fill-83" fill="url(#linearGradient-45)" fill-rule="nonzero" mask="url(#mask-44)"></path>
                        </g>
                    </g>
                    <g id="Group-88" transform="translate(67.000000, 70.000000)">
                        <g id="Fill-86-Clipped">
                            <mask id="mask-47" fill="white">
                                <use xlink:href="#path-46"></use>
                            </mask>
                            <g id="path-46"></g>
                            <path d="M167.969578,0.0735558011 L5.70398412,4.20954696 C2.06121509,3.96580552 0.0736148246,7.21022541 0.0736148246,8.87214144 L0.0736148246,8.87214144 L1.45517406,102.863571 C1.45517406,104.52537 2.83684977,105.885215 4.52556453,105.885215 L4.52556453,105.885215 L170.55821,105.885215 C172.247042,105.885215 173.628601,104.52537 173.628601,102.863571 L173.628601,102.863571 L175.908797,7.86906519 C175.958883,5.78373481 175.137821,3.76950055 173.637453,2.29615912 L173.637453,2.29615912 C172.184259,0.869434254 170.217276,0.0709790055 168.170155,0.0709790055 L168.170155,0.0709790055 C168.103412,0.0709790055 168.036437,0.0709790055 167.969578,0.0735558011" id="Fill-86" fill="url(#linearGradient-48)" fill-rule="nonzero" mask="url(#mask-47)"></path>
                        </g>
                    </g>
                    <g id="Group-93" transform="translate(68.000000, 74.000000)" fill="#91B3FA" fill-rule="nonzero">
                        <path d="M170.162576,101.908829 L151.639571,101.908829 C151.575342,101.908829 151.523215,101.856781 151.523215,101.79239 C151.523215,101.728 151.575342,101.675952 151.639571,101.675952 L170.162576,101.675952 C172.599545,101.675952 174.737477,99.4753836 174.737477,96.9666027 L174.737477,40.0199795 C174.737477,39.9557055 174.789604,39.9035411 174.853833,39.9035411 C174.918062,39.9035411 174.970189,39.9557055 174.970189,40.0199795 L174.970189,96.9666027 C174.970189,99.5993904 172.72358,101.908829 170.162576,101.908829" id="Fill-89"></path>
                        <path d="M0.21901762,39.6085096 C0.154788896,39.6085096 0.102661237,39.5564616 0.102661237,39.4920712 L0.102661237,6.07531096 C0.102661237,4.44063288 0.690959109,2.92309178 1.75934342,1.80225616 C2.84134142,0.66709863 4.32407081,0.0418246575 5.93467586,0.0418246575 L20.795364,0.0418246575 C20.8595928,0.0418246575 20.9117204,0.0939890411 20.9117204,0.158263014 C20.9117204,0.222653425 20.8595928,0.27470137 20.795364,0.27470137 L5.93467586,0.27470137 C2.74255485,0.27470137 0.335374003,2.76834521 0.335374003,6.07531096 L0.335374003,39.4920712 C0.335374003,39.5564616 0.283246343,39.6085096 0.21901762,39.6085096" id="Fill-91"></path>
                    </g>
                    <g id="Group-96" transform="translate(81.000000, 108.000000)">
                        <g id="Fill-94-Clipped">
                            <mask id="mask-50" fill="white">
                                <use xlink:href="#path-49"></use>
                            </mask>
                            <g id="path-49"></g>
                            <path d="M3.41013636,0.0106785714 C1.57810331,0.0106785714 0.0928719008,1.46495918 0.0928719008,3.25907653 L0.0928719008,3.25907653 L0.0928719008,19.6421173 C0.0928719008,21.4361173 1.57810331,22.890398 3.41013636,22.890398 L3.41013636,22.890398 L25.5741653,22.890398 C27.4061983,22.890398 28.8914298,21.4361173 28.8914298,19.6421173 L28.8914298,19.6421173 L28.8914298,3.25907653 C28.8914298,1.46495918 27.4061983,0.0106785714 25.5741653,0.0106785714 L25.5741653,0.0106785714 L3.41013636,0.0106785714 Z" id="Fill-94" fill="url(#linearGradient-51)" fill-rule="nonzero" mask="url(#mask-50)"></path>
                        </g>
                    </g>
                    <g id="Group-130" transform="translate(78.000000, 82.000000)" fill-rule="nonzero">
                        <path d="M13.9954206,33.5606557 C13.5182009,33.5606557 13.13,33.9518161 13.13,34.4326738 L13.13,39.6588969 C13.13,40.1397547 13.5182009,40.530915 13.9954206,40.530915 L20.506285,40.530915 C20.9835047,40.530915 21.3717056,40.1397547 21.3717056,39.6588969 L21.3717056,34.4326738 C21.3717056,33.9518161 20.9835047,33.5606557 20.506285,33.5606557 L13.9954206,33.5606557 Z M20.506285,40.7663411 L13.9954206,40.7663411 C13.3894626,40.7663411 12.8963551,40.2694744 12.8963551,39.6588969 L12.8963551,34.4326738 C12.8963551,33.8220964 13.3894626,33.3252297 13.9954206,33.3252297 L20.506285,33.3252297 C21.112243,33.3252297 21.6053505,33.8220964 21.6053505,34.4326738 L21.6053505,39.6588969 C21.6053505,40.2694744 21.112243,40.7663411 20.506285,40.7663411 L20.506285,40.7663411 Z" id="Fill-97" fill="#FFFFFF"></path>
                        <path d="M13.0131542,35.4287733 L3.47834112,35.4287733 C3.41385514,35.4287733 3.36151869,35.3761555 3.36151869,35.3110603 C3.36151869,35.2459649 3.41385514,35.1933472 3.47834112,35.1933472 L13.0131542,35.1933472 C13.0776402,35.1933472 13.1299766,35.2459649 13.1299766,35.3110603 C13.1299766,35.3761555 13.0776402,35.4287733 13.0131542,35.4287733" id="Fill-99" fill="#FFFFFF"></path>
                        <path d="M13.0131542,37.5638169 L3.47834112,37.5638169 C3.41385514,37.5638169 3.36151869,37.5111992 3.36151869,37.4461039 C3.36151869,37.3810085 3.41385514,37.3283908 3.47834112,37.3283908 L13.0131542,37.3283908 C13.0776402,37.3283908 13.1299766,37.3810085 13.1299766,37.4461039 C13.1299766,37.5111992 13.0776402,37.5638169 13.0131542,37.5638169" id="Fill-101" fill="#FFFFFF"></path>
                        <path d="M31.5530607,35.4287733 L21.4885748,35.4287733 C21.423972,35.4287733 21.3717523,35.3761555 21.3717523,35.3110603 C21.3717523,35.2459649 21.423972,35.1933472 21.4885748,35.1933472 L31.5530607,35.1933472 C31.6175467,35.1933472 31.6698832,35.2459649 31.6698832,35.3110603 C31.6698832,35.3761555 31.6175467,35.4287733 31.5530607,35.4287733" id="Fill-103" fill="#FFFFFF"></path>
                        <path d="M31.5530607,37.5638169 L21.4885748,37.5638169 C21.423972,37.5638169 21.3717523,37.5111992 21.3717523,37.4461039 C21.3717523,37.3810085 21.423972,37.3283908 21.4885748,37.3283908 L31.5530607,37.3283908 C31.6175467,37.3283908 31.6698832,37.3810085 31.6698832,37.4461039 C31.6698832,37.5111992 31.6175467,37.5638169 31.5530607,37.5638169" id="Fill-105" fill="#FFFFFF"></path>
                        <path d="M14.4839252,33.5450234 C14.4310047,33.5450234 14.3831075,33.5085324 14.3703738,33.4543844 L12.4671028,25.3574936 C12.4522664,25.2942817 12.4910514,25.2308344 12.5539019,25.2158849 C12.616285,25.2004645 12.6796028,25.2398983 12.6945561,25.3032279 L14.5977103,33.4002364 C14.6126636,33.4634483 14.5737617,33.5268956 14.5109112,33.5418452 C14.5019159,33.543964 14.4929206,33.5450234 14.4839252,33.5450234" id="Fill-107" fill="#FFFFFF"></path>
                        <path d="M19.6298131,33.5450234 C19.6205841,33.5450234 19.6112383,33.543964 19.6018925,33.5416097 C19.5391589,33.5261893 19.5008411,33.4623889 19.5162617,33.3992947 L21.4898598,25.3024039 C21.5052804,25.2390743 21.5685981,25.199405 21.631215,25.2161203 C21.6938318,25.2315407 21.7322664,25.2953412 21.7168458,25.3584353 L19.7431308,33.4553261 C19.7300467,33.5090032 19.6823832,33.5450234 19.6298131,33.5450234" id="Fill-109" fill="#FFFFFF"></path>
                        <path d="M12.5809463,48.6736786 C12.5719509,48.6736786 12.5629556,48.6726191 12.5539603,48.6705003 C12.4911098,48.6555508 12.4522079,48.5921034 12.4671612,48.5288915 L14.3703154,40.4317654 C14.3851519,40.3684358 14.4481192,40.329355 14.5109696,40.3444223 C14.5738201,40.3593719 14.6126051,40.4228192 14.5977687,40.4860311 L12.6944977,48.5830395 C12.681764,48.6371875 12.6338668,48.6736786 12.5809463,48.6736786" id="Fill-111" fill="#FFFFFF"></path>
                        <path d="M21.6032477,48.6736786 C21.5506776,48.6736786 21.503014,48.6376584 21.4899299,48.5839812 L19.516215,40.4869728 C19.5007944,40.4238786 19.539229,40.3600781 19.6018458,40.3446577 C19.664229,40.3280602 19.7276636,40.3676118 19.7432009,40.4309414 L21.7167991,48.5279498 C21.7322196,48.591044 21.6939019,48.6548445 21.6311682,48.6702649 C21.6218224,48.6726191 21.6124766,48.6736786 21.6032477,48.6736786" id="Fill-113" fill="#FFFFFF"></path>
                        <path d="M31.8179089,3.95335679 C31.8179089,6.09043684 30.0985164,7.82305492 27.9774883,7.82305492 L3.87561916,7.82305492 C1.75470794,7.82305492 0.0351985981,6.09043684 0.0351985981,3.95335679 C0.0351985981,1.81615902 1.75470794,0.0836586502 3.87561916,0.0836586502 L27.9774883,0.0836586502 C30.0985164,0.0836586502 31.8179089,1.81615902 31.8179089,3.95335679" id="Fill-115" fill="#91B3FA"></path>
                        <path d="M33.9367407,62.0367442 C33.9367407,64.079183 32.2936332,65.7348167 30.2666472,65.7348167 L3.70531542,65.7348167 C1.67844626,65.7348167 0.0352219626,64.079183 0.0352219626,62.0367442 L0.0352219626,61.9603484 C0.0352219626,59.9179097 1.67844626,58.2623936 3.70531542,58.2623936 L30.2666472,58.2623936 C32.2936332,58.2623936 33.9367407,59.9179097 33.9367407,61.9603484 L33.9367407,62.0367442 Z" id="Fill-117" fill="#91B3FA"></path>
                        <path d="M72.6055958,62.0367442 C72.6055958,64.079183 70.9624883,65.7348167 68.9355023,65.7348167 L42.3741706,65.7348167 C40.3473014,65.7348167 38.7041939,64.079183 38.7041939,62.0367442 L38.7041939,61.9603484 C38.7041939,59.9179097 40.3473014,58.2623936 42.3741706,58.2623936 L68.9355023,58.2623936 C70.9624883,58.2623936 72.6055958,59.9179097 72.6055958,61.9603484 L72.6055958,62.0367442 Z" id="Fill-119" fill="#91B3FA"></path>
                        <path d="M111.274509,62.0367442 C111.274509,64.079183 109.631402,65.7348167 107.604416,65.7348167 L81.0430841,65.7348167 C79.0160981,65.7348167 77.3731075,64.079183 77.3731075,62.0367442 L77.3731075,61.9603484 C77.3731075,59.9179097 79.0160981,58.2623936 81.0430841,58.2623936 L107.604416,58.2623936 C109.631402,58.2623936 111.274509,59.9179097 111.274509,61.9603484 L111.274509,62.0367442 Z" id="Fill-121" fill="#91B3FA"></path>
                        <path d="M149.943411,62.0367442 C149.943411,64.079183 148.300304,65.7348167 146.273318,65.7348167 L119.711986,65.7348167 C117.685,65.7348167 116.041893,64.079183 116.041893,62.0367442 L116.041893,61.9603484 C116.041893,59.9179097 117.685,58.2623936 119.711986,58.2623936 L146.273318,58.2623936 C148.300304,58.2623936 149.943411,59.9179097 149.943411,61.9603484 L149.943411,62.0367442 Z" id="Fill-123" fill="#91B3FA"></path>
                        <g id="Group-129" transform="translate(0.205607, 74.512348)" fill="#91B3FA">
                            <path d="M55.4220911,4.03238931 C55.4220911,5.65365087 54.1176519,6.96791685 52.5087734,6.96791685 L2.98073598,6.96791685 C1.37174065,6.96791685 0.0673014019,5.65365087 0.0673014019,4.03238931 C0.0673014019,2.41112776 1.37174065,1.09686178 2.98073598,1.09686178 L52.5087734,1.09686178 C54.1176519,1.09686178 55.4220911,2.41112776 55.4220911,4.03238931" id="Fill-125"></path>
                            <path d="M145.76493,2.96492048 C145.76493,4.58618203 144.460607,5.90044801 142.851612,5.90044801 L121.133388,5.90044801 C119.524393,5.90044801 118.219953,4.58618203 118.219953,2.96492048 C118.219953,1.34365892 119.524393,0.0293929435 121.133388,0.0293929435 L142.851612,0.0293929435 C144.460607,0.0293929435 145.76493,1.34365892 145.76493,2.96492048" id="Fill-127"></path>
                        </g>
                    </g>
                    <g id="Group-133" transform="translate(201.000000, 76.000000)">
                        <g id="Fill-131-Clipped">
                            <mask id="mask-53" fill="white">
                                <use xlink:href="#path-52"></use>
                            </mask>
                            <g id="path-52"></g>
                        </g>
                    </g>
                    <g id="Group-138" transform="translate(63.000000, 22.000000)" fill="#7D97F4" fill-rule="nonzero">
                        <path d="M96.1245126,1.44809732 C96.0697553,1.44809732 96.0210563,1.40953152 96.0103379,1.35383831 C95.9978718,1.29068827 96.0392311,1.22951894 96.1023767,1.21728508 C96.1023767,1.21728508 96.3405126,1.1707964 96.7919689,1.09249966 C96.8553476,1.08178047 96.9156971,1.12407469 96.9266485,1.18745775 C96.9376,1.25084082 96.8951922,1.31107804 96.8318136,1.32214677 C96.3840854,1.39986094 96.1474641,1.44576706 96.146765,1.44588357 C96.1393087,1.44739824 96.1317359,1.44809732 96.1245126,1.44809732" id="Fill-134"></path>
                        <path d="M1.5628466,139.909679 C1.52148738,139.909679 1.48140971,139.887658 1.46032233,139.848743 C1.34836116,139.641932 1.23803107,139.436287 1.12956505,139.231574 C1.09939029,139.174599 1.12106019,139.104108 1.17791456,139.073931 C1.23488544,139.043638 1.30525437,139.065426 1.33542913,139.122284 C1.44366214,139.326532 1.55352621,139.531594 1.66513786,139.737589 C1.69589515,139.794331 1.67480777,139.864938 1.61818641,139.895581 C1.60059417,139.905135 1.58160388,139.909679 1.5628466,139.909679" id="Fill-136"></path>
                    </g>
                </g>
            </g>
        </g>
    </g>
</svg>