<?xml version="1.0" encoding="UTF-8"?>
<svg width="41px" height="47px" viewBox="0 0 41 47" version="1.1" xmlns="http://www.w3.org/2000/svg" xmlns:xlink="http://www.w3.org/1999/xlink">
    <!-- Generator: sketchtool 60 (101010) - https://sketch.com -->
    <title>8C962F94-51D1-4A2B-BCC3-0B50D14062AD@1x</title>
    <desc>Created with sketchtool.</desc>
    <g id="Page-1" stroke="none" stroke-width="1" fill="none" fill-rule="evenodd">
        <g id="Reimbursement-Details" transform="translate(-351.000000, -499.000000)" fill-rule="nonzero">
            <g id="Group-4-Copy" transform="translate(300.000000, 189.000000)">
                <g id="Group-4" transform="translate(31.000000, 298.000000)">
                    <g id="Group-3" transform="translate(20.000000, 12.000000)">
                        <g id="001-pdf">
                            <path d="M8.63945578,0 C7.03061224,0 5.71428571,1.31914286 5.71428571,2.93142857 L5.71428571,43.9714286 C5.71428571,45.5837143 7.03061224,46.9028571 8.63945578,46.9028571 L37.8911565,46.9028571 C39.5,46.9028571 40.8163265,45.5837143 40.8163265,43.9714286 L40.8163265,11.7257143 L29.1156463,0 L8.63945578,0 Z" id="Path" fill="#E2E5E7"></path>
                            <path d="M32.244898,11.52 L40.8163265,11.52 L29.3877551,0 L29.3877551,8.64 C29.3877551,10.224 30.6734694,11.52 32.244898,11.52 Z" id="Path" fill="#B0B7BD"></path>
                            <polygon id="Path" fill="#CAD1D8" points="40.8163265 20.5714286 31.8367347 11.52 40.8163265 11.52"></polygon>
                            <path d="M35.1020408,38.0571429 C35.1020408,38.8491429 34.4438776,39.4971429 33.6394558,39.4971429 L1.46258503,39.4971429 C0.658163265,39.4971429 0,38.8491429 0,38.0571429 L0,23.6571429 C0,22.8651429 0.658163265,22.2171429 1.46258503,22.2171429 L33.6394558,22.2171429 C34.4438776,22.2171429 35.1020408,22.8651429 35.1020408,23.6571429 L35.1020408,38.0571429 Z" id="Path" fill="#82889C"></path>
                            <path d="M33.6326531,39.4971429 L5.71428571,39.4971429 L5.71428571,41.1428571 L33.6326531,41.1428571 C34.4408163,41.1428571 35.1020408,40.4022857 35.1020408,39.4971429 L35.1020408,37.8514286 C35.1020408,38.7565714 34.4408163,39.4971429 33.6326531,39.4971429 Z" id="Path" fill="#CAD1D8"></path>
                        </g>
                    </g>
                </g>
            </g>
        </g>
    </g>
</svg>