<?xml version="1.0" encoding="UTF-8"?>
<svg width="140px" height="140px" viewBox="0 0 140 140" version="1.1" xmlns="http://www.w3.org/2000/svg" xmlns:xlink="http://www.w3.org/1999/xlink">
    <title>Placeholder Facility@3x</title>
    <g id="Page-1" stroke="none" stroke-width="1" fill="none" fill-rule="evenodd">
        <g id="Placeholder-Facility">
            <rect id="Rectangle" x="0" y="0" width="140" height="140"></rect>
            <g id="2891526" transform="translate(16.500000, 16.000000)" fill-rule="nonzero">
                <path d="M58.4103448,7.67090061 L9.14482759,0.0997485052 C6.85862069,-0.262941416 4.52758621,0.371765946 2.77931034,1.86786187 C1.03103448,3.40929403 0,5.6307698 0,7.94291805 L0,103.466376 C0,105.959869 2.01724138,108 4.48275862,108 L19.0517241,108 L19.0517241,84.1984739 C19.0517241,79.8008586 22.5482759,76.2646319 26.8965517,76.2646319 L38.1034483,76.2646319 C42.4517241,76.2646319 45.9482759,79.8008586 45.9482759,84.1984739 L45.9482759,108 L65,108 L65,15.5140701 C65,11.6151535 62.2206897,8.30560797 58.4103448,7.67090061 Z M24.6551724,66.0639779 L17.9310345,66.0639779 C16.0751724,66.0639779 14.5689655,64.5406802 14.5689655,62.6637599 C14.5689655,60.7868395 16.0751724,59.2635419 17.9310345,59.2635419 L24.6551724,59.2635419 C26.5110345,59.2635419 28.0172414,60.7868395 28.0172414,62.6637599 C28.0172414,64.5406802 26.5110345,66.0639779 24.6551724,66.0639779 Z M24.6551724,52.4631058 L17.9310345,52.4631058 C16.0751724,52.4631058 14.5689655,50.9398082 14.5689655,49.0628878 C14.5689655,47.1859675 16.0751724,45.6626698 17.9310345,45.6626698 L24.6551724,45.6626698 C26.5110345,45.6626698 28.0172414,47.1859675 28.0172414,49.0628878 C28.0172414,50.9398082 26.5110345,52.4631058 24.6551724,52.4631058 Z M24.6551724,38.8622338 L17.9310345,38.8622338 C16.0751724,38.8622338 14.5689655,37.3389361 14.5689655,35.4620158 C14.5689655,33.5850955 16.0751724,32.0617978 17.9310345,32.0617978 L24.6551724,32.0617978 C26.5110345,32.0617978 28.0172414,33.5850955 28.0172414,35.4620158 C28.0172414,37.3389361 26.5110345,38.8622338 24.6551724,38.8622338 Z M24.6551724,25.2613618 L17.9310345,25.2613618 C16.0751724,25.2613618 14.5689655,23.7380641 14.5689655,21.8611438 C14.5689655,19.9842234 16.0751724,18.4609258 17.9310345,18.4609258 L24.6551724,18.4609258 C26.5110345,18.4609258 28.0172414,19.9842234 28.0172414,21.8611438 C28.0172414,23.7380641 26.5110345,25.2613618 24.6551724,25.2613618 Z M47.0689655,66.0639779 L40.3448276,66.0639779 C38.4889655,66.0639779 36.9827586,64.5406802 36.9827586,62.6637599 C36.9827586,60.7868395 38.4889655,59.2635419 40.3448276,59.2635419 L47.0689655,59.2635419 C48.9248276,59.2635419 50.4310345,60.7868395 50.4310345,62.6637599 C50.4310345,64.5406802 48.9248276,66.0639779 47.0689655,66.0639779 Z M47.0689655,52.4631058 L40.3448276,52.4631058 C38.4889655,52.4631058 36.9827586,50.9398082 36.9827586,49.0628878 C36.9827586,47.1859675 38.4889655,45.6626698 40.3448276,45.6626698 L47.0689655,45.6626698 C48.9248276,45.6626698 50.4310345,47.1859675 50.4310345,49.0628878 C50.4310345,50.9398082 48.9248276,52.4631058 47.0689655,52.4631058 Z M47.0689655,38.8622338 L40.3448276,38.8622338 C38.4889655,38.8622338 36.9827586,37.3389361 36.9827586,35.4620158 C36.9827586,33.5850955 38.4889655,32.0617978 40.3448276,32.0617978 L47.0689655,32.0617978 C48.9248276,32.0617978 50.4310345,33.5850955 50.4310345,35.4620158 C50.4310345,37.3389361 48.9248276,38.8622338 47.0689655,38.8622338 Z M47.0689655,25.2613618 L40.3448276,25.2613618 C38.4889655,25.2613618 36.9827586,23.7380641 36.9827586,21.8611438 C36.9827586,19.9842234 38.4889655,18.4609258 40.3448276,18.4609258 L47.0689655,18.4609258 C48.9248276,18.4609258 50.4310345,19.9842234 50.4310345,21.8611438 C50.4310345,23.7380641 48.9248276,25.2613618 47.0689655,25.2613618 Z" id="Shape" fill="#82889C"></path>
                <path d="M100.830588,48.7175916 L69,42 L69,108 L99.1764706,108 C103.490588,108 107,104.46324 107,100.115503 L107,56.4218718 C107,52.7003891 104.483059,49.5330739 100.830588,48.7175916 Z M90.2352941,94.483719 L83.5294118,94.483719 C81.6785882,94.483719 80.1764706,92.9698956 80.1764706,91.1046488 C80.1764706,89.239402 81.6785882,87.7255785 83.5294118,87.7255785 L90.2352941,87.7255785 C92.0861176,87.7255785 93.5882353,89.239402 93.5882353,91.1046488 C93.5882353,92.9698956 92.0861176,94.483719 90.2352941,94.483719 Z M90.2352941,80.9674381 L83.5294118,80.9674381 C81.6785882,80.9674381 80.1764706,79.4536146 80.1764706,77.5883678 C80.1764706,75.723121 81.6785882,74.2092976 83.5294118,74.2092976 L90.2352941,74.2092976 C92.0861176,74.2092976 93.5882353,75.723121 93.5882353,77.5883678 C93.5882353,79.4536146 92.0861176,80.9674381 90.2352941,80.9674381 Z M90.2352941,67.4511571 L83.5294118,67.4511571 C81.6785882,67.4511571 80.1764706,65.9373336 80.1764706,64.0720868 C80.1764706,62.2068401 81.6785882,60.6930166 83.5294118,60.6930166 L90.2352941,60.6930166 C92.0861176,60.6930166 93.5882353,62.2068401 93.5882353,64.0720868 C93.5882353,65.9373336 92.0861176,67.4511571 90.2352941,67.4511571 Z" id="Shape" fill="#AFB6CE"></path>
            </g>
        </g>
    </g>
</svg>