<?xml version="1.0" encoding="UTF-8"?>
<svg width="32px" height="32px" viewBox="0 0 32 32" version="1.1" xmlns="http://www.w3.org/2000/svg" xmlns:xlink="http://www.w3.org/1999/xlink">
    <!-- Generator: sketchtool 60 (101010) - https://sketch.com -->
    <title>35B016C9-06D6-4558-9614-404E0FB48767@1x</title>
    <desc>Created with sketchtool.</desc>
    <g id="Page-1" stroke="none" stroke-width="1" fill="none" fill-rule="evenodd">
        <g id="Banking---nurses---debit-card" transform="translate(-526.000000, -701.000000)">
            <g id="Group-23" transform="translate(491.000000, 272.000000)">
                <g id="Group-4" transform="translate(36.000000, 430.000000)">
                    <g id="Group-6">
                        <rect id="Rectangle" stroke="#050D33" x="0" y="0" width="30" height="30" rx="15"></rect>
                        <g id="Group" transform="translate(7.000000, 6.000000)">
                            <polygon id="Path" points="0 0 16 0 16 16 0 16"></polygon>
                            <path d="M12.6666667,6.66666667 L13.3333333,6.66666667 C13.7015232,6.66666667 14,6.9651435 14,7.33333326 L14,14 C14,14.3681898 13.7015232,14.6666667 13.3333333,14.6666667 L2.66666667,14.6666667 C2.29847683,14.6666667 2,14.3681898 2,14 L2,7.33333326 C2,6.9651435 2.29847683,6.66666667 2.66666667,6.66666667 L3.33333333,6.66666667 L3.33333333,6 C3.33333331,4.33276056 4.22279494,2.79216778 5.66666665,1.95854806 C7.11053835,1.12492833 8.88946165,1.12492833 10.3333334,1.95854806 C11.7772051,2.79216778 12.6666667,4.33276056 12.6666667,6 L12.6666667,6.66666667 Z M3.33333333,8 L3.33333333,13.3333333 L12.6666667,13.3333333 L12.6666667,8 L3.33333333,8 Z M7.33333333,9.33333333 L8.66666667,9.33333333 L8.66666667,12 L7.33333333,12 L7.33333333,9.33333333 Z M11.3333333,6.66666667 L11.3333333,6 C11.3333333,4.15905083 9.84094917,2.66666667 8,2.66666667 C6.15905083,2.66666667 4.66666667,4.15905083 4.66666667,6 L4.66666667,6.66666667 L11.3333333,6.66666667 Z" id="Shape" fill="#050D33" fill-rule="nonzero"></path>
                        </g>
                    </g>
                </g>
            </g>
        </g>
    </g>
</svg>