<?xml version="1.0" encoding="UTF-8"?>
<svg width="32px" height="32px" viewBox="0 0 32 32" version="1.1" xmlns="http://www.w3.org/2000/svg" xmlns:xlink="http://www.w3.org/1999/xlink">
    <!-- Generator: sketchtool 60 (101010) - https://sketch.com -->
    <title>5BBEE35E-9626-4A0B-8557-C18D4BB4EDC2@1x</title>
    <desc>Created with sketchtool.</desc>
    <g id="Page-1" stroke="none" stroke-width="1" fill="none" fill-rule="evenodd">
        <g id="Banking---nurses---debit-card" transform="translate(-1211.000000, -702.000000)">
            <g id="Group-23" transform="translate(491.000000, 272.000000)">
                <g id="Group-8" transform="translate(721.000000, 431.000000)">
                    <g id="Group-8-Copy">
                        <rect id="Rectangle-Copy-3" stroke="#050D33" x="0" y="0" width="30" height="30" rx="15"></rect>
                        <g id="Group" transform="translate(4.000000, 4.000000)">
                            <polygon id="Path" points="0 0 22 0 22 22 0 22"></polygon>
                            <path d="M5.00775,4.06358333 C6.67109584,2.62227203 8.79907106,1.8302629 11,1.83332444 C16.06275,1.83332444 20.1666667,5.93725 20.1666667,11 C20.1666667,12.958 19.5525,14.773 18.5075,16.2616667 L15.5833333,11 L18.3333333,11 C18.3335747,8.06110669 16.5792429,5.40592652 13.875748,4.25344699 C11.1722531,3.10096746 8.04183683,3.67381636 5.92166667,5.709 L5.00775,4.06358333 Z M16.99225,17.9364167 C15.3289042,19.377728 13.2009289,20.1697371 11,20.1666756 C5.93725,20.1666756 1.83333333,16.06275 1.83333333,11 C1.83333333,9.042 2.4475,7.227 3.4925,5.73833333 L6.41666667,11 L3.66666667,11 C3.6664253,13.9388933 5.42075705,16.5940735 8.124252,17.746553 C10.8277469,18.8990325 13.9581632,18.3261836 16.0783333,16.291 L16.99225,17.9364167 L16.99225,17.9364167 Z" id="Shape" fill="#000000" fill-rule="nonzero"></path>
                        </g>
                    </g>
                </g>
            </g>
        </g>
    </g>
</svg>