<?xml version="1.0" encoding="UTF-8"?>
<svg width="32px" height="32px" viewBox="0 0 32 32" version="1.1" xmlns="http://www.w3.org/2000/svg" xmlns:xlink="http://www.w3.org/1999/xlink">
    <!-- Generator: sketchtool 60 (101010) - https://sketch.com -->
    <title>5FAE03CE-48CA-47F4-AB12-5E4685283312@1x</title>
    <desc>Created with sketchtool.</desc>
    <g id="Page-1" stroke="none" stroke-width="1" fill="none" fill-rule="evenodd">
        <g id="Banking---nurses---debit-card" transform="translate(-869.000000, -701.000000)">
            <g id="Group-23" transform="translate(491.000000, 272.000000)">
                <g id="Group-3" transform="translate(379.000000, 430.000000)">
                    <g id="Group-7">
                        <rect id="Rectangle-Copy-2" stroke="#050D33" x="0" y="0" width="30" height="30" rx="15"></rect>
                        <g id="Group" transform="translate(3.000000, 3.000000)">
                            <path d="M12,0 C18.627417,-1.21743675e-15 24,5.372583 24,12 C24,18.627417 18.627417,24 12,24 C5.372583,24 8.11624501e-16,18.627417 0,12 C-8.11624501e-16,5.372583 5.372583,1.21743675e-15 12,0 Z" id="Path" fill="#F11D2D"></path>
                            <polygon id="Path" fill="#FFFFFF" fill-rule="nonzero" points="12 10.586 16.95 5.636 18.364 7.05 13.414 12 18.364 16.95 16.95 18.364 12 13.414 7.05 18.364 5.636 16.95 10.586 12 5.636 7.05 7.05 5.636"></polygon>
                        </g>
                    </g>
                </g>
            </g>
        </g>
    </g>
</svg>