<?xml version="1.0" encoding="UTF-8"?>
<svg width="50px" height="20px" viewBox="0 0 50 20" version="1.1" xmlns="http://www.w3.org/2000/svg" xmlns:xlink="http://www.w3.org/1999/xlink">
    <!-- Generator: Sketch 60 (88103) - https://sketch.com -->
    <title>Group 29</title>
    <desc>Created with Sketch.</desc>
    <g id="Page-1" stroke="none" stroke-width="1" fill="none" fill-rule="evenodd">
        <g id="W-9.1.0---Facility-Managers" transform="translate(-706.000000, -1152.000000)">
            <g id="Group-23" transform="translate(300.000000, 989.000000)">
                <g id="Group-20" transform="translate(406.000000, 163.000000)">
                    <g id="Group-29">
                        <rect id="Rectangle" fill="#FF0040" x="0" y="0" width="50" height="20" rx="10"></rect>
                        <path d="M9.4135,14 L9.992,12.213 L13.244,12.213 L13.83,14 L15.0235,14 L12.4495,6.08 L10.794,6.08 L8.22,14 L9.4135,14 Z M12.89,11.135 L10.342,11.135 L11.608,7.228 L12.89,11.135 Z M18.3711335,14.165 C18.9394669,14.165 19.4161335,14.0265833 19.8011335,13.74975 C19.9111335,13.6706548 20.0135009,13.5835527 20.1082356,13.4884439 L20.142,13.452 L20.1421335,14 L21.1651335,14 L21.1651335,6.08 L20.0101335,6.08 L20.01,8.468 L19.9678733,8.42793878 L19.9678733,8.42793878 L19.8093835,8.30475 C19.4262169,8.03158333 18.9541335,7.895 18.3931335,7.895 C17.8358002,7.895 17.3545502,8.03158333 16.9493835,8.30475 C16.5442169,8.57791667 16.2316335,8.95008333 16.0116335,9.42125 C15.7916335,9.89241667 15.6816335,10.4268333 15.6816335,11.0245 C15.6816335,11.6185 15.7907169,12.1529167 16.0088835,12.62775 C16.2270502,13.1025833 16.5368835,13.4775 16.9383835,13.7525 C17.3398835,14.0275 17.8174669,14.165 18.3711335,14.165 Z M18.5306335,13.1255 C18.1639669,13.1255 17.8605502,13.032 17.6203835,12.845 C17.3802169,12.658 17.2005502,12.4059167 17.0813835,12.08875 C16.9622169,11.7715833 16.9026335,11.4168333 16.9026335,11.0245 C16.9026335,10.6358333 16.9622169,10.2838333 17.0813835,9.9685 C17.2005502,9.65316667 17.3829669,9.402 17.6286335,9.215 C17.8743002,9.028 18.1878002,8.9345 18.5691335,8.9345 C18.9284669,8.9345 19.2245502,9.0225 19.4573835,9.1985 C19.6902169,9.3745 19.8625502,9.62016667 19.9743835,9.9355 C20.0862169,10.2508333 20.1421335,10.6138333 20.1421335,11.0245 C20.1421335,11.4351667 20.0871335,11.7981667 19.9771335,12.1135 C19.8671335,12.4288333 19.6929669,12.6763333 19.4546335,12.856 C19.2163002,13.0356667 18.9083002,13.1255 18.5306335,13.1255 Z M23.8564449,14 L23.8564449,10.2875 C23.8564449,9.88416667 23.9673616,9.55783333 24.1891949,9.3085 C24.4110283,9.05916667 24.7034449,8.9345 25.0664449,8.9345 C25.4331116,8.9345 25.7255283,9.05733333 25.9436949,9.303 C26.1618616,9.54866667 26.2709449,9.88783333 26.2709449,10.3205 L26.2709449,10.3205 L26.2654449,14 L27.4149449,14 L27.4204449,10.2875 C27.4204449,9.98683333 27.4763616,9.73658333 27.5881949,9.53675 C27.7000283,9.33691667 27.8466949,9.18658333 28.0281949,9.08575 C28.2096949,8.98491667 28.4104449,8.9345 28.6304449,8.9345 C28.9897783,8.9345 29.2794449,9.05458333 29.4994449,9.29475 C29.7194449,9.53491667 29.8294449,9.8695 29.8294449,10.2985 L29.8294449,10.2985 L29.8239449,14 L30.9734449,14 L30.9789449,10.0235 C30.9789449,9.3855 30.8029449,8.874 30.4509449,8.489 C30.0989449,8.104 29.6021116,7.9115 28.9604449,7.9115 C28.5644449,7.9115 28.2069449,7.99858333 27.8879449,8.17275 C27.5689449,8.34691667 27.3168616,8.59166667 27.1316949,8.907 L27.156,8.869 L27.1028963,8.76988194 C26.9833223,8.57290046 26.8323778,8.40728935 26.650063,8.27304861 L26.5074449,8.17825 C26.2104449,8.00041667 25.8511116,7.9115 25.4294449,7.9115 C25.0261116,7.9115 24.6649449,7.9995 24.3459449,8.1755 C24.1332783,8.29283333 23.9499449,8.43868519 23.7959449,8.61305556 L23.724,8.702 L23.7244449,8.06 L22.7014449,8.06 L22.7014449,14 L23.8564449,14 Z M33.6683993,7.0865 L33.6683993,5.97 L32.5188993,5.97 L32.5188993,7.0865 L33.6683993,7.0865 Z M33.6683993,14 L33.6683993,8.06 L32.5188993,8.06 L32.5188993,14 L33.6683993,14 Z M36.4806906,14 L36.4806906,10.909 C36.4806906,10.557 36.5201072,10.2581667 36.5989406,10.0125 C36.6777739,9.76683333 36.7859406,9.56883333 36.9234406,9.4185 C37.0609406,9.26816667 37.2213572,9.15908333 37.4046906,9.09125 C37.5880239,9.02341667 37.7823572,8.9895 37.9876906,8.9895 C38.3030239,8.9895 38.5587739,9.05366667 38.7549406,9.182 C38.9511072,9.31033333 39.1032739,9.479 39.2114406,9.688 C39.3196072,9.897 39.3929406,10.1234167 39.4314406,10.36725 C39.4699406,10.6110833 39.4891906,10.8485 39.4891906,11.0795 L39.4891906,11.0795 L39.4891906,14 L40.6551906,14 L40.6551906,10.7 C40.6551906,10.5166667 40.6386906,10.304 40.6056906,10.062 C40.5726906,9.82 40.5103572,9.5725 40.4186906,9.3195 C40.3270239,9.0665 40.1941072,8.83275 40.0199406,8.61825 C39.8457739,8.40375 39.6193572,8.2305 39.3406906,8.0985 C39.0620239,7.9665 38.7173572,7.9005 38.3066906,7.9005 C37.7713572,7.9005 37.3148572,8.016 36.9371906,8.247 C36.721381,8.379 36.5343062,8.54063265 36.3759661,8.73189796 L36.343,8.774 L36.3431906,8.06 L35.3146906,8.06 L35.3146906,14 L36.4806906,14 Z" id="Admin" fill="#FFFFFF" fill-rule="nonzero"></path>
                    </g>
                </g>
            </g>
        </g>
    </g>
</svg>