<?xml version="1.0" encoding="UTF-8"?>
<svg width="16px" height="16px" viewBox="0 0 16 16" version="1.1" xmlns="http://www.w3.org/2000/svg" xmlns:xlink="http://www.w3.org/1999/xlink">
    <!-- Generator: Sketch 60 (88103) - https://sketch.com -->
    <title>cross copy@1x</title>
    <desc>Created with Sketch.</desc>
    <g id="Page-1" stroke="none" stroke-width="1" fill="none" fill-rule="evenodd">
        <g id="cross-copy">
            <g id="Group-3">
                <circle id="Oval" fill="#E3F8FA" cx="8" cy="8" r="8"></circle>
                <path d="M7.10218437,11.2 C6.98828259,11.2 6.88149966,11.1594999 6.80319219,11.0852498 L4.9380505,9.26274609 C4.76007896,9.10749577 4.7529601,8.84424524 4.92381277,8.6754949 C5.08754659,8.50674456 5.36518218,8.49999455 5.54315372,8.66199487 L6.90997511,9.58674674 C6.98828259,9.65424688 7.10930323,9.64074685 7.17337298,9.55974669 L10.4124549,5.76623902 C10.5548322,5.58398865 10.8324678,5.54348857 11.024677,5.68523886 C11.2168863,5.82023913 11.2595994,6.08348966 11.1101033,6.26574003 L7.45100858,11.0312497 C7.3727011,11.1257498 7.25879932,11.1865 7.13777868,11.19325 C7.12354095,11.2 7.11642209,11.2 7.10218437,11.2 Z" id="Path" fill="#00D498" fill-rule="nonzero"></path>
            </g>
        </g>
    </g>
</svg>