<svg width="26" height="26" viewBox="0 0 26 26" fill="none" xmlns="http://www.w3.org/2000/svg">
<path d="M0.5 4C0.5 2.067 2.067 0.5 4 0.5H22C23.933 0.5 25.5 2.067 25.5 4V22C25.5 23.933 23.933 25.5 22 25.5H4C2.067 25.5 0.5 23.933 0.5 22V4Z" fill="white"/>
<path d="M0.5 4C0.5 2.067 2.067 0.5 4 0.5H22C23.933 0.5 25.5 2.067 25.5 4V22C25.5 23.933 23.933 25.5 22 25.5H4C2.067 25.5 0.5 23.933 0.5 22V4Z" stroke="#E4E4E7"/>
<g clip-path="url(#clip0_37185_15128)">
<path d="M11.8335 8.91667C11.8335 8.60725 11.9564 8.3105 12.1752 8.09171C12.394 7.87292 12.6907 7.75 13.0002 7.75C13.3096 7.75 13.6063 7.87292 13.8251 8.09171C14.0439 8.3105 14.1668 8.60725 14.1668 8.91667C14.8367 9.23343 15.4078 9.72652 15.8189 10.3431C16.2299 10.9597 16.4654 11.6765 16.5002 12.4167V14.1667C16.5441 14.5293 16.6725 14.8766 16.8751 15.1806C17.0778 15.4845 17.3489 15.7367 17.6668 15.9167H8.3335C8.65138 15.7367 8.92255 15.4845 9.12519 15.1806C9.32783 14.8766 9.45626 14.5293 9.50016 14.1667V12.4167C9.53491 11.6765 9.77042 10.9597 10.1815 10.3431C10.5925 9.72652 11.1636 9.23343 11.8335 8.91667" stroke="#020826" stroke-width="1.2" stroke-linecap="round" stroke-linejoin="round"/>
<path d="M11.25 15.9167V16.5001C11.25 16.9642 11.4344 17.4093 11.7626 17.7375C12.0908 18.0657 12.5359 18.2501 13 18.2501C13.4641 18.2501 13.9092 18.0657 14.2374 17.7375C14.5656 17.4093 14.75 16.9642 14.75 16.5001V15.9167" stroke="#020826" stroke-width="1.2" stroke-linecap="round" stroke-linejoin="round"/>
</g>
<defs>
<clipPath id="clip0_37185_15128">
<rect width="14" height="14" fill="white" transform="translate(6 6)"/>
</clipPath>
</defs>
</svg>
