<svg width="24" height="25" viewBox="0 0 24 25" fill="none" xmlns="http://www.w3.org/2000/svg">
<path fill-rule="evenodd" clip-rule="evenodd" d="M17 3.47729H21C21.5523 3.47729 22 3.92501 22 4.47729V20.4773C22 21.0296 21.5523 21.4773 21 21.4773H3C2.44772 21.4773 2 21.0296 2 20.4773V4.47729C2 3.92501 2.44772 3.47729 3 3.47729H7V2.4773C7 1.92501 7.44772 1.47729 8 1.47729C8.55229 1.47729 9 1.92501 9 2.4773V3.47729H15V2.4773C15 1.92501 15.4477 1.47729 16 1.47729C16.5523 1.47729 17 1.92501 17 2.4773V3.47729ZM14.9999 5.47732H8.99989V6.47732C8.99989 7.02961 8.55217 7.47732 7.99989 7.47732C7.4476 7.47732 6.99989 7.02961 6.99989 6.47732V5.47732H3.99989V9.47732H19.9999V5.47732H16.9999V6.47732C16.9999 7.02961 16.5522 7.47732 15.9999 7.47732C15.4476 7.47732 14.9999 7.02961 14.9999 6.47732V5.47732ZM3.99989 11.4773H19.9999V19.4773H3.99989V11.4773Z" fill="#020826"/>
</svg>
