<?xml version="1.0" encoding="UTF-8"?>
<svg width="24px" height="24px" viewBox="0 0 24 24" version="1.1" xmlns="http://www.w3.org/2000/svg" xmlns:xlink="http://www.w3.org/1999/xlink">
    <!-- Generator: Sketch 60 (88103) - https://sketch.com -->
    <title>Group 28@1x</title>
    <desc>Created with Sketch.</desc>
    <g id="Page-1" stroke="none" stroke-width="1" fill="none" fill-rule="evenodd">
        <g id="W2-Form-for-the-year-2020–21" transform="translate(-1212.000000, -86.000000)">
            <g id="Popup-Copy-3" transform="translate(181.000000, 62.000000)">
                <g id="Popup-Copy">
                    <g id="Group-28" transform="translate(1031.000000, 24.000000)">
                        <path d="M12,0 C5.38666667,0 0,5.38666667 0,12 C0,18.6133333 5.38666667,24 12,24 C18.6133333,24 24,18.6133333 24,12 C24,5.38666667 18.6133333,0 12,0 Z" id="Shape" fill="#434966" fill-rule="nonzero"></path>
                        <g id="Path-2" transform="translate(6.000000, 6.000000)" fill="#FFFFFF">
                            <path d="M11.4857143,9.04761905 C12.1714286,9.73333333 12.1714286,10.8 11.4857143,11.4857143 C10.8,12.1714286 9.73333333,12.1714286 9.04761905,11.4857143 L6,8.43809524 L2.95238095,11.4857143 C2.26666667,12.1714286 1.2,12.1714286 0.514285714,11.4857143 C-0.171428571,10.8 -0.171428571,9.73333333 0.514285714,9.04761905 L3.56190476,6 L0.514285714,2.95238095 C-0.171428571,2.26666667 -0.171428571,1.2 0.514285714,0.514285714 C1.2,-0.171428571 2.26666667,-0.171428571 2.95238095,0.514285714 L6,3.56190476 L9.04761905,0.514285714 C9.73333333,-0.171428571 10.8,-0.171428571 11.4857143,0.514285714 C12.1714286,1.2 12.1714286,2.26666667 11.4857143,2.95238095 L8.43809524,6 L11.4857143,9.04761905 Z" id="Path"></path>
                        </g>
                    </g>
                </g>
            </g>
        </g>
    </g>
</svg>