<svg xmlns="http://www.w3.org/2000/svg" width="26" height="24" viewBox="0 0 26 24">
    <g fill="none" fill-rule="evenodd">
        <g fill-rule="nonzero">
            <g>
                <g transform="translate(-276 -7752) translate(0 7554) translate(276 198)">
                    <path fill="#F5F6FA" d="M20.382 6.567c-.903-4.42-5.19-7.265-9.577-6.356-3.757.78-6.458 4.102-6.475 7.966 0 .184.008.373.024.572-2.672.285-4.61 2.699-4.327 5.391.263 2.495 2.353 4.389 4.844 4.386h.567c-.013-.18-.027-.36-.027-.545 0-3.91 3.147-7.08 7.028-7.08 3.882 0 7.028 3.17 7.028 7.08 0 .184-.014.364-.027.545h.568c3.28.01 5.947-2.663 5.956-5.968.009-3.172-2.44-5.8-5.582-5.99z"/>
                    <ellipse cx="12.439" cy="17.981" fill="#4CAF50" rx="5.947" ry="5.991"/>
                    <g fill="#FAFAFA">
                        <path d="M2.708 7.65c-.298 0-.54-.244-.54-.545V.569c0-.301.242-.545.54-.545.299 0 .54.244.54.545v6.536c0 .3-.241.545-.54.545z" transform="translate(9.731 14.145)"/>
                        <path d="M2.708 7.65c-.143 0-.281-.057-.383-.16L.163 5.312c-.207-.217-.202-.561.013-.77.21-.204.542-.204.751 0l1.781 1.793 1.78-1.793c.215-.21.557-.203.764.013.203.211.203.546 0 .757L3.09 7.49c-.102.102-.239.16-.382.16z" transform="translate(9.731 14.145)"/>
                    </g>
                </g>
            </g>
        </g>
    </g>
</svg>
