<svg width="25" height="24" viewBox="0 0 25 24" fill="none" xmlns="http://www.w3.org/2000/svg">
<circle cx="12.5" cy="12" r="12" fill="#F3F4F7"/>
<path d="M15.3052 9.33589L15.8837 9.91443L16.4623 9.33589L15.8837 8.75735L15.3052 9.33589ZM12.7634 11.8777L12.1848 11.2991L11.6063 11.8777L12.1848 12.4562L12.7634 11.8777ZM14.9195 8.9502L15.498 8.37165L14.9195 7.79311L14.3409 8.37165L14.9195 8.9502ZM12.3777 11.492L11.7991 12.0705L12.3777 12.6491L12.9562 12.0705L12.3777 11.492ZM9.83589 8.9502L10.4144 8.37165L9.83589 7.79311L9.25735 8.37165L9.83589 8.9502ZM9.4502 9.33589L8.87165 8.75735L8.29311 9.33589L8.87165 9.91443L9.4502 9.33589ZM11.992 11.8777L12.5705 12.4562L13.1491 11.8777L12.5705 11.2991L11.992 11.8777ZM9.4502 14.4195L8.87165 13.8409L8.29311 14.4195L8.87165 14.998L9.4502 14.4195ZM9.83589 14.8052L9.25735 15.3837L9.83589 15.9623L10.4144 15.3837L9.83589 14.8052ZM12.3777 12.2634L12.9562 11.6848L12.3777 11.1063L11.7991 11.6848L12.3777 12.2634ZM14.9195 14.8052L14.3409 15.3837L14.9195 15.9623L15.498 15.3837L14.9195 14.8052ZM15.3052 14.4195L15.8837 14.998L16.4623 14.4195L15.8837 13.8409L15.3052 14.4195ZM14.7266 8.75735L12.1848 11.2991L13.3419 12.4562L15.8837 9.91443L14.7266 8.75735ZM14.3409 9.52874L14.7266 9.91443L15.8837 8.75735L15.498 8.37165L14.3409 9.52874ZM12.9562 12.0705L15.498 9.52874L14.3409 8.37165L11.7991 10.9134L12.9562 12.0705ZM9.25735 9.52874L11.7991 12.0705L12.9562 10.9134L10.4144 8.37165L9.25735 9.52874ZM10.0287 9.91443L10.4144 9.52874L9.25735 8.37165L8.87165 8.75735L10.0287 9.91443ZM12.5705 11.2991L10.0287 8.75735L8.87165 9.91443L11.4134 12.4562L12.5705 11.2991ZM10.0287 14.998L12.5705 12.4562L11.4134 11.2991L8.87165 13.8409L10.0287 14.998ZM10.4144 14.2266L10.0287 13.8409L8.87165 14.998L9.25735 15.3837L10.4144 14.2266ZM11.7991 11.6848L9.25735 14.2266L10.4144 15.3837L12.9562 12.8419L11.7991 11.6848ZM15.498 14.2266L12.9562 11.6848L11.7991 12.8419L14.3409 15.3837L15.498 14.2266ZM14.7266 13.8409L14.3409 14.2266L15.498 15.3837L15.8837 14.998L14.7266 13.8409ZM12.1848 12.4562L14.7266 14.998L15.8837 13.8409L13.3419 11.2991L12.1848 12.4562Z" fill="#82889C"/>
</svg>
