<svg xmlns="http://www.w3.org/2000/svg" xmlns:xlink="http://www.w3.org/1999/xlink" width="54" height="54" viewBox="0 0 54 54">
    <defs>
        <linearGradient id="eqh7ivm5cb" x1="0%" x2="100%" y1="0%" y2="100%">
            <stop offset="0%" stop-color="#1E89EE"/>
            <stop offset="100%" stop-color="#005AFE"/>
        </linearGradient>
        <rect id="7be6lsxt3a" width="54" height="54" x="0" y="0" rx="10"/>
    </defs>
    <g fill="none" fill-rule="evenodd">
        <g>
            <g>
                <g>
                    <g transform="translate(-821 -7230) translate(0 6947) translate(821 283)">
                        <use fill="url(#eqh7ivm5cb)" xlink:href="#7be6lsxt3a"/>
                    </g>
                    <g fill="#FFF" fill-rule="nonzero">
                        <g>
                            <path d="M4.774 15.366h-.682V18h.682c.127 0 .228-.096.228-.22v-2.195c0-.123-.1-.219-.228-.219zM9.32 15.366h-.453c-.127 0-.228.096-.228.22v2.194c0 .123.1.22.228.22h.454c.127 0 .228-.096.228-.22v-2.195c0-.123-.1-.219-.228-.219z" transform="translate(-821 -7230) translate(0 6947) translate(821 283) translate(14 16) translate(4.087 .084)"/>
                            <path d="M12.731 9.658c-2.51 0-4.546-1.966-4.546-4.39 0-1.738 1.064-3.283 2.646-3.987.255-.474.563-.904.937-1.281H2.5C1.12 0 0 1.08 0 2.414v16.243c0 1.336 1.119 2.416 2.5 2.416h13.187c1.382 0 2.5-1.08 2.5-2.414v-9h-5.456v-.001zM6.366 17.78c0 .843-.719 1.537-1.592 1.537H3.41c-.372 0-.682-.299-.682-.658v-3.952c0-.36.31-.658.682-.658h1.364c.873 0 1.592.694 1.592 1.537v2.194zm4.547 0c0 .843-.72 1.537-1.592 1.537h-.454c-.873 0-1.592-.694-1.592-1.537v-2.195c0-.843.719-1.537 1.592-1.537h.454c.873 0 1.592.694 1.592 1.537v2.195zm2.5.22h1.364c.377 0 .682.295.682.659 0 .363-.305.658-.682.658h-1.364c-.877 0-1.592-.689-1.592-1.537v-2.195c0-.847.714-1.537 1.592-1.537h1.364c.377 0 .682.295.682.658 0 .364-.305.659-.682.659h-1.364c-.125 0-.228.098-.228.22v2.195c.002.121.104.22.228.22z" transform="translate(-821 -7230) translate(0 6947) translate(821 283) translate(14 16) translate(4.087 .084)"/>
                        </g>
                        <path fill-opacity=".7" d="M22.73 7.987h-5.91c-1.505 0-2.728-1.182-2.728-2.635 0-1.28.949-2.35 2.204-2.585.472-1.56 1.98-2.683 3.706-2.683 1.363 0 2.625.701 3.313 1.811 1.485.262 2.598 1.521 2.598 3.019 0 1.694-1.429 3.073-3.183 3.073z" transform="translate(-821 -7230) translate(0 6947) translate(821 283) translate(14 16)"/>
                    </g>
                </g>
            </g>
        </g>
    </g>
</svg>
