<svg width="16" height="16" viewBox="0 0 16 16" fill="none" xmlns="http://www.w3.org/2000/svg">
<circle cx="8" cy="8" r="8" fill="#FFE3F2"/>
<g clip-path="url(#clip0_37185_15596)">
<path d="M11.0404 7.62142L8.3782 4.95924C8.16823 4.74927 7.82769 4.74927 7.61772 4.95924C7.40775 5.1692 7.40775 5.50974 7.61772 5.71971L9.89941 8.00139L7.61772 10.2831C7.40775 10.493 7.40775 10.8336 7.61772 11.0435C7.82769 11.2535 8.16823 11.2535 8.3782 11.0435L11.0404 8.38137C11.2503 8.17192 11.2503 7.83139 11.0404 7.62142ZM7.83941 7.46021L5.72587 5.23263C5.5135 5.00907 5.16951 5.00907 4.95713 5.23263C4.74476 5.45618 4.74476 5.81884 4.95713 6.04266L6.68645 7.86523L4.95713 9.6878C4.74476 9.91137 4.74476 10.2743 4.95713 10.4978C5.16951 10.7214 5.5135 10.7214 5.72587 10.4978L7.83941 8.27025C8.05179 8.04669 8.05179 7.68404 7.83941 7.46021Z" fill="#FF0083"/>
</g>
<defs>
<clipPath id="clip0_37185_15596">
<rect width="6.4" height="6.4" fill="white" transform="translate(4.80078 4.80078)"/>
</clipPath>
</defs>
</svg>
