<svg xmlns="http://www.w3.org/2000/svg" width="30" height="30" viewBox="0 0 30 30">
    <g fill="none" fill-rule="evenodd">
        <g>
            <g>
                <g transform="translate(-138 -9482) translate(138 9482)">
                    <rect width="30" height="30" fill="#2E2E55" rx="4"/>
                    <g fill="#FFF" fill-rule="nonzero">
                        <path d="M6.823 2.81c-1.026 0-1.86.835-1.86 1.862 0 1.026.834 1.86 1.86 1.86 1.027 0 1.861-.834 1.861-1.86 0-1.027-.834-1.861-1.86-1.861z" transform="translate(8 11)"/>
                        <path d="M6.823.02C3.722.02 1.073 1.947 0 4.671c1.073 2.723 3.722 4.652 6.823 4.652 3.105 0 5.75-1.93 6.823-4.652C12.573 1.948 9.928.019 6.823.019zm0 7.753c-1.712 0-3.101-1.39-3.101-3.102 0-1.711 1.39-3.1 3.101-3.1 1.712 0 3.102 1.389 3.102 3.1 0 1.713-1.39 3.102-3.102 3.102z" transform="translate(8 11)"/>
                    </g>
                </g>
            </g>
        </g>
    </g>
</svg>
