<svg xmlns="http://www.w3.org/2000/svg" width="50" height="50" viewBox="0 0 50 50">
    <g fill="none" fill-rule="evenodd">
        <g>
            <g>
                <g>
                    <path fill="#E3F8FA" fill-rule="nonzero" d="M40.625 50H9.375C4.197 50 0 45.803 0 40.625V9.375C0 4.197 4.197 0 9.375 0h31.25C45.803 0 50 4.197 50 9.375v31.25C50 45.803 45.803 50 40.625 50z" transform="translate(-303 -9552) translate(0 6947) translate(303 2605)"/>
                    <g>
                        <g>
                            <path stroke="#8CE1EB" stroke-linejoin="round" stroke-width="1.316" d="M10.141 14.481L10.141 2.372 0.584 2.372 0.584 14.481z" transform="translate(-303 -9552) translate(0 6947) translate(303 2605) translate(14 13) translate(7.28)"/>
                            <path fill="#8CE1EB" fill-rule="nonzero" d="M7.715 1.54v1.282H2.738V1.54c0-.283.223-.512.497-.513h.772C4.125.429 4.634 0 5.227 0c.591 0 1.1.43 1.219 1.027h.771c.275 0 .497.23.498.513zm-2.489.256c.275 0 .498-.23.498-.513 0-.283-.223-.512-.498-.512s-.497.23-.497.512c0 .284.222.513.497.513zM6.719 5.128L6.719 6.154 5.724 6.154 5.724 7.179 4.729 7.179 4.729 6.154 3.733 6.154 3.733 5.128 4.729 5.128 4.729 4.103 5.724 4.103 5.724 5.128zM2.053 8.333L3.049 8.333 3.049 8.846 2.053 8.846zM4.542 8.333L8.275 8.333 8.275 8.846 4.542 8.846zM4.542 9.936L8.275 9.936 8.275 10.449 4.542 10.449zM4.542 11.538L8.275 11.538 8.275 12.051 4.542 12.051zM2.053 9.872L3.049 9.872 3.049 10.385 2.053 10.385zM2.053 11.41L3.049 11.41 3.049 11.923 2.053 11.923z" transform="translate(-303 -9552) translate(0 6947) translate(303 2605) translate(14 13) translate(7.28)"/>
                        </g>
                        <g fill="#26C6DA" fill-rule="nonzero">
                            <g>
                                <path d="M19.514 3.132c-1.243.708-2.952 1.364-4.655 1.643-1.515.248-4.364-.336-4.363-1.033 0-.264 2.499.645 4.011.227 1.16-.321.998-1.438.368-1.584C14.248 2.24 10.578.86 9.009.817c-.74-.021-2.565.27-3.448.42-.303.051-.492.046-.512.344-.09 1.386-.27 4.22-.367 5.7-.002.032.04.452.377.156.37-.325.887-.685 1.366-.574.75.173 7.241 1.385 8.138 1.169 1.282-.31 4.914-2.532 5.61-3.221 1.08-1.07.245-2.194-.659-1.679z" transform="translate(-303 -9552) translate(0 6947) translate(303 2605) translate(14 13) translate(0 14.423) translate(0 .192) rotate(-4 12.683 4.437)"/>
                                <path d="M3.968 1.733L.98 1.795c-.262-.013-.53.191-.596.453L.341 8.937c-.065.262.097.485.36.496l3.13-.889c.262.01.494-.202.514-.472l.064-5.824c.02-.27-.179-.502-.441-.515zm-1.589 6.03c-.52 0-.94-.433-.94-.969 0-.535.42-.969.94-.969s.94.434.94.97c0 .535-.42.968-.94.968z" transform="translate(-303 -9552) translate(0 6947) translate(303 2605) translate(14 13) translate(0 14.423) translate(0 .192)"/>
                            </g>
                        </g>
                    </g>
                </g>
            </g>
        </g>
    </g>
</svg>
