<svg width="12" height="10" viewBox="0 0 12 10" fill="none" xmlns="http://www.w3.org/2000/svg">
<path d="M0.5 1.0834C0.5 0.589258 0.901758 0.1875 1.3959 0.1875H10.6041C11.0982 0.1875 11.5 0.589258 11.5 1.0834C11.5 1.28965 11.4291 1.48945 11.298 1.64844L7.71875 6.04199V9.11856C7.71875 9.50098 7.40723 9.8125 7.02481 9.8125C6.86797 9.8125 6.71543 9.75879 6.59297 9.66211L4.60566 8.08516C4.39941 7.92188 4.28125 7.6748 4.28125 7.41269V6.04199L0.701953 1.64844C0.570898 1.48945 0.5 1.28965 0.5 1.0834ZM1.68164 1.21875L5.19648 5.53281C5.27168 5.6252 5.3125 5.73906 5.3125 5.85938V7.32891L6.6875 8.42031V5.85938C6.6875 5.74121 6.72832 5.6252 6.80352 5.53281L10.3184 1.21875H1.68164Z" fill="#41415A"/>
</svg>
