<svg width="25" height="24" viewBox="0 0 25 24" fill="none" xmlns="http://www.w3.org/2000/svg">
<path fill-rule="evenodd" clip-rule="evenodd" d="M2.25 12.2856C2.25 17.9641 6.85369 22.5714 12.5377 22.5714C18.2164 22.5714 22.8214 17.9654 22.8214 12.2856C22.8214 6.60591 18.2177 1.99992 12.5377 1.99992C6.85499 1.99992 2.25 6.6072 2.25 12.2856Z" fill="#929AB3"/>
<path d="M12.3595 19.9999C11.7467 19.9999 11.25 19.5032 11.25 18.8904V18.8575C11.25 18.2427 11.7484 17.7444 12.3631 17.7444C13.075 17.7444 13.6039 18.4034 13.4498 19.0984L13.4427 19.1305C13.3301 19.6384 12.8798 19.9999 12.3595 19.9999ZM12.5 16.9999C11.8096 16.9999 11.25 16.4403 11.25 15.7499V6.24992C11.25 5.55957 11.8096 4.99992 12.5 4.99992C13.1904 4.99992 13.75 5.55957 13.75 6.24992V15.7499C13.75 16.4403 13.1904 16.9999 12.5 16.9999Z" fill="white"/>
</svg>
