<?xml version="1.0" encoding="UTF-8"?>
<svg width="48px" height="48px" viewBox="0 0 48 48" version="1.1" xmlns="http://www.w3.org/2000/svg" xmlns:xlink="http://www.w3.org/1999/xlink">
    <!-- Generator: sketchtool 60 (101010) - https://sketch.com -->
    <title>22336F75-517A-43F8-87A9-5C11FBDE4C77@1x</title>
    <desc>Created with sketchtool.</desc>
    <g id="ver-2" stroke="none" stroke-width="1" fill="none" fill-rule="evenodd">
        <g id="collapsed-menu" transform="translate(-30.000000, -18.000000)">
            <g id="Shift-Management-Copy-3">
                <g id="Dashboard">
                    <g id="Group-7-Copy-2" transform="translate(30.000000, 18.000000)">
                        <path d="M10,0 L38,0 C43.5228475,-2.79088747e-15 48,4.4771525 48,10 L48,38 C48,43.5228475 43.5228475,48 38,48 L10,48 C4.4771525,48 -1.10000309e-15,43.5228475 0,38 L0,10 C-2.45271059e-15,4.4771525 4.4771525,-7.61826213e-16 10,0 Z" id="Rectangle-Copy" fill="#2E2E55"></path>
                        <g id="Group-18" transform="translate(12.000000, 14.400000)" fill="#FFFFFF">
                            <path d="M1.38,1.36424205e-12 L22.62,1.36424205e-12 C23.382153,1.36499023e-12 24,0.617847045 24,1.38 C24,2.14215295 23.382153,2.76 22.62,2.76 L1.38,2.76 C0.617847045,2.76 9.33368177e-17,2.14215295 0,1.38 C-9.33368177e-17,0.617847045 0.617847045,1.36438206e-12 1.38,1.36424205e-12 Z" id="Rectangle-Copy"></path>
                            <path d="M1.38,8.76 L22.62,8.76 C23.382153,8.76 24,9.37784705 24,10.14 C24,10.902153 23.382153,11.52 22.62,11.52 L1.38,11.52 C0.617847045,11.52 9.33368177e-17,10.902153 0,10.14 C-9.33368177e-17,9.37784705 0.617847045,8.76 1.38,8.76 Z" id="Rectangle-Copy-3"></path>
                            <path d="M1.38,17.52 L22.62,17.52 C23.382153,17.52 24,18.137847 24,18.9 C24,19.662153 23.382153,20.28 22.62,20.28 L1.38,20.28 C0.617847045,20.28 9.33368177e-17,19.662153 0,18.9 C-9.33368177e-17,18.137847 0.617847045,17.52 1.38,17.52 Z" id="Rectangle-Copy-4"></path>
                        </g>
                    </g>
                </g>
            </g>
        </g>
    </g>
</svg>