<svg xmlns="http://www.w3.org/2000/svg" width="50" height="50" viewBox="0 0 50 50">
    <g fill="none" fill-rule="evenodd">
        <g fill-rule="nonzero">
            <g>
                <g>
                    <path fill="#E3F8FB" d="M40.625 50H9.375C4.197 50 0 45.803 0 40.625V9.375C0 4.197 4.197 0 9.375 0h31.25C45.803 0 50 4.197 50 9.375v31.25C50 45.803 45.803 50 40.625 50z" transform="translate(-373 -9552) translate(0 6947) translate(373 2605)"/>
                    <g>
                        <path fill="#27C6DA" d="M13.537 1.812L2.119.062C1.59-.022 1.05.125.644.471.24.827 0 1.34 0 1.875v22.077C0 24.528.468 25 1.039 25h3.376v-5.501c0-1.016.81-1.834 1.818-1.834h2.598c1.007 0 1.818.818 1.818 1.834V25h4.415V3.625c0-.901-.644-1.666-1.527-1.813zM5.714 15.308H4.156c-.43 0-.78-.352-.78-.786 0-.434.35-.786.78-.786h1.558c.43 0 .78.352.78.786 0 .434-.35.786-.78.786zm0-3.144H4.156c-.43 0-.78-.352-.78-.785 0-.434.35-.786.78-.786h1.558c.43 0 .78.352.78.786 0 .433-.35.785-.78.785zm0-3.143H4.156c-.43 0-.78-.352-.78-.786 0-.434.35-.786.78-.786h1.558c.43 0 .78.352.78.786 0 .434-.35.786-.78.786zm0-3.143H4.156c-.43 0-.78-.353-.78-.786 0-.434.35-.786.78-.786h1.558c.43 0 .78.352.78.786 0 .433-.35.786-.78.786zm5.194 9.43H9.35c-.43 0-.78-.352-.78-.786 0-.434.35-.786.78-.786h1.558c.43 0 .78.352.78.786 0 .434-.35.786-.78.786zm0-3.144H9.35c-.43 0-.78-.352-.78-.785 0-.434.35-.786.78-.786h1.558c.43 0 .78.352.78.786 0 .433-.35.785-.78.785zm0-3.143H9.35c-.43 0-.78-.352-.78-.786 0-.434.35-.786.78-.786h1.558c.43 0 .78.352.78.786 0 .434-.35.786-.78.786zm0-3.143H9.35c-.43 0-.78-.353-.78-.786 0-.434.35-.786.78-.786h1.558c.43 0 .78.352.78.786 0 .433-.35.786-.78.786z" transform="translate(-373 -9552) translate(0 6947) translate(373 2605) translate(13 13)"/>
                        <path fill="#8CE1EB" d="M23.5 11.213l-7.397-1.562V25h7.012c1.003 0 1.819-.823 1.819-1.834V13.005c0-.866-.585-1.602-1.434-1.792zm-2.462 10.644h-1.559c-.43 0-.779-.352-.779-.786 0-.434.35-.786.78-.786h1.558c.43 0 .779.352.779.786 0 .434-.35.786-.78.786zm0-3.144h-1.559c-.43 0-.779-.352-.779-.786 0-.433.35-.786.78-.786h1.558c.43 0 .779.353.779.786 0 .434-.35.786-.78.786zm0-3.143h-1.559c-.43 0-.779-.352-.779-.786 0-.434.35-.786.78-.786h1.558c.43 0 .779.352.779.786 0 .434-.35.786-.78.786z" transform="translate(-373 -9552) translate(0 6947) translate(373 2605) translate(13 13)"/>
                    </g>
                </g>
            </g>
        </g>
    </g>
</svg>
