<svg width="18" height="18" viewBox="0 0 18 18" fill="none" xmlns="http://www.w3.org/2000/svg">
<path d="M3.16699 8.99996C3.16699 8.77894 3.07919 8.56698 2.92291 8.4107C2.76663 8.25442 2.55467 8.16663 2.33366 8.16663H1.50033C1.27931 8.16663 1.06735 8.25442 0.91107 8.4107C0.75479 8.56698 0.666992 8.77894 0.666992 8.99996C0.666992 9.22097 0.75479 9.43293 0.91107 9.58921C1.06735 9.74549 1.27931 9.83329 1.50033 9.83329H2.33366C2.55467 9.83329 2.76663 9.74549 2.92291 9.58921C3.07919 9.43293 3.16699 9.22097 3.16699 8.99996ZM3.70033 13.1666L3.10866 13.7583C2.95345 13.9144 2.86633 14.1256 2.86633 14.3458C2.86633 14.5659 2.95345 14.7772 3.10866 14.9333C3.26479 15.0885 3.476 15.1756 3.69616 15.1756C3.91631 15.1756 4.12752 15.0885 4.28366 14.9333L4.87533 14.3416C5.01185 14.1822 5.08319 13.9771 5.07509 13.7674C5.06698 13.5577 4.98004 13.3587 4.83163 13.2103C4.68322 13.0619 4.48427 12.975 4.27454 12.9669C4.06481 12.9588 3.85974 13.0301 3.70033 13.1666ZM9.00033 3.16663C9.22134 3.16663 9.4333 3.07883 9.58958 2.92255C9.74586 2.76627 9.83366 2.55431 9.83366 2.33329V1.49996C9.83366 1.27895 9.74586 1.06698 9.58958 0.910704C9.4333 0.754423 9.22134 0.666626 9.00033 0.666626C8.77931 0.666626 8.56735 0.754423 8.41107 0.910704C8.25479 1.06698 8.16699 1.27895 8.16699 1.49996V2.33329C8.16699 2.55431 8.25479 2.76627 8.41107 2.92255C8.56735 3.07883 8.77931 3.16663 9.00033 3.16663ZM13.717 5.11663C13.9356 5.11571 14.1451 5.02891 14.3003 4.87496L14.892 4.28329C14.9792 4.20859 15.0501 4.11666 15.1001 4.01327C15.1501 3.90988 15.1782 3.79727 15.1827 3.6825C15.1871 3.56774 15.1678 3.45329 15.1259 3.34636C15.084 3.23942 15.0204 3.1423 14.9392 3.06108C14.858 2.97987 14.7609 2.91632 14.6539 2.87443C14.547 2.83253 14.4325 2.81319 14.3178 2.81763C14.203 2.82206 14.0904 2.85017 13.987 2.90019C13.8836 2.95021 13.7917 3.02106 13.717 3.10829L13.167 3.69996C13.0118 3.85609 12.9247 4.0673 12.9247 4.28746C12.9247 4.50761 13.0118 4.71882 13.167 4.87496C13.3139 5.02109 13.51 5.10725 13.717 5.11663ZM3.71699 4.87496C3.87221 5.02891 4.08171 5.11571 4.30033 5.11663C4.41 5.11726 4.51872 5.09624 4.62025 5.05477C4.72178 5.0133 4.81413 4.95219 4.89199 4.87496C5.0472 4.71882 5.13432 4.50761 5.13432 4.28746C5.13432 4.0673 5.0472 3.85609 4.89199 3.69996L4.30033 3.10829C4.22317 3.03005 4.13137 2.96776 4.03014 2.925C3.92892 2.88223 3.82027 2.85982 3.71038 2.85905C3.6005 2.85828 3.49154 2.87915 3.38973 2.92049C3.28791 2.96182 3.19524 3.02281 3.11699 3.09996C3.03875 3.17711 2.97646 3.26892 2.9337 3.37014C2.89093 3.47136 2.86852 3.58002 2.86775 3.6899C2.86619 3.91182 2.95284 4.12527 3.10866 4.28329L3.71699 4.87496ZM16.5003 8.16663H15.667C15.446 8.16663 15.234 8.25442 15.0777 8.4107C14.9215 8.56698 14.8337 8.77894 14.8337 8.99996C14.8337 9.22097 14.9215 9.43293 15.0777 9.58921C15.234 9.74549 15.446 9.83329 15.667 9.83329H16.5003C16.7213 9.83329 16.9333 9.74549 17.0896 9.58921C17.2459 9.43293 17.3337 9.22097 17.3337 8.99996C17.3337 8.77894 17.2459 8.56698 17.0896 8.4107C16.9333 8.25442 16.7213 8.16663 16.5003 8.16663ZM14.3003 13.1666C14.142 13.0786 13.9593 13.0445 13.7799 13.0696C13.6005 13.0947 13.4341 13.1775 13.306 13.3056C13.1779 13.4337 13.095 13.6001 13.0699 13.7795C13.0449 13.9589 13.0789 14.1416 13.167 14.3L13.7587 14.8916C13.9148 15.0468 14.126 15.134 14.3462 15.134C14.5663 15.134 14.7775 15.0468 14.9337 14.8916C15.0889 14.7355 15.176 14.5243 15.176 14.3041C15.176 14.084 15.0889 13.8728 14.9337 13.7166L14.3003 13.1666ZM9.00033 4.41663C8.09383 4.41663 7.20769 4.68543 6.45396 5.18906C5.70024 5.69268 5.11278 6.4085 4.76588 7.24599C4.41898 8.08349 4.32821 9.00504 4.50506 9.89412C4.68191 10.7832 5.11843 11.5999 5.75942 12.2409C6.40041 12.8819 7.21708 13.3184 8.10616 13.4952C8.99524 13.6721 9.9168 13.5813 10.7543 13.2344C11.5918 12.8875 12.3076 12.3 12.8112 11.5463C13.3148 10.7926 13.5837 9.90646 13.5837 8.99996C13.5815 7.78506 13.0979 6.62055 12.2388 5.76149C11.3797 4.90242 10.2152 4.41883 9.00033 4.41663ZM9.00033 11.9166C8.42346 11.9166 7.85956 11.7456 7.37991 11.4251C6.90027 11.1046 6.52643 10.6491 6.30568 10.1161C6.08492 9.58317 6.02716 8.99672 6.1397 8.43095C6.25224 7.86517 6.53003 7.34547 6.93793 6.93756C7.34583 6.52966 7.86553 6.25188 8.43131 6.13934C8.99709 6.02679 9.58353 6.08455 10.1165 6.30531C10.6494 6.52607 11.105 6.8999 11.4254 7.37955C11.7459 7.85919 11.917 8.4231 11.917 8.99996C11.917 9.77351 11.6097 10.5154 11.0627 11.0624C10.5157 11.6093 9.77387 11.9166 9.00033 11.9166ZM9.00033 14.8333C8.77931 14.8333 8.56735 14.9211 8.41107 15.0774C8.25479 15.2336 8.16699 15.4456 8.16699 15.6666V16.5C8.16699 16.721 8.25479 16.9329 8.41107 17.0892C8.56735 17.2455 8.77931 17.3333 9.00033 17.3333C9.22134 17.3333 9.4333 17.2455 9.58958 17.0892C9.74586 16.9329 9.83366 16.721 9.83366 16.5V15.6666C9.83366 15.4456 9.74586 15.2336 9.58958 15.0774C9.4333 14.9211 9.22134 14.8333 9.00033 14.8333Z" fill="#434966"/>
</svg>
