<?xml version="1.0" encoding="UTF-8"?>
<svg width="40px" height="20px" viewBox="0 0 40 20" version="1.1" xmlns="http://www.w3.org/2000/svg" xmlns:xlink="http://www.w3.org/1999/xlink">
    <!-- Generator: Sketch 60 (88103) - https://sketch.com -->
    <title>New</title>
    <desc>Created with Sketch.</desc>
    <g id="Page-1" stroke="none" stroke-width="1" fill="none" fill-rule="evenodd">
        <g id="Web-Styleguide" transform="translate(-749.000000, -6462.000000)">
            <g id="Components" transform="translate(40.000000, 6313.000000)">
                <g id="Group-15" transform="translate(0.000000, 138.000000)">
                    <g id="New" transform="translate(709.000000, 11.000000)">
                        <g id="Group-38">
                            <rect id="New-BG" fill="#F11D2D" x="0" y="0" width="40" height="20" rx="10"></rect>
                            <path d="M9.74,13.2 L9.74,7.295 L13.705,13.2 L14.445,13.2 L14.445,6 L13.705,6 L13.705,11.9 L9.74,6 L9,6 L9,13.2 L9.74,13.2 Z M20.3433197,13.2 L20.3433197,12.495 L16.5783197,12.495 L16.5783197,9.9 L19.7433197,9.9 L19.7433197,9.195 L16.5783197,9.195 L16.5783197,6.705 L20.3433197,6.705 L20.3433197,6 L15.8433197,6 L15.8433197,13.2 L20.3433197,13.2 Z M23.8283136,13.2 L25.5183136,7.295 L27.2183136,13.2 L27.9583136,13.2 L30.0333136,6 L29.2633136,6 L27.5883136,11.945 L25.9033136,6 L25.1333136,6.005 L23.4583136,11.945 L21.7733136,6 L21.0083136,6 L23.0883136,13.2 L23.8283136,13.2 Z" id="NEW" fill="#FFFFFF" fill-rule="nonzero"></path>
                        </g>
                    </g>
                </g>
            </g>
        </g>
    </g>
</svg>