<svg width="18" height="18" viewBox="0 0 18 18" fill="none" xmlns="http://www.w3.org/2000/svg">
<path d="M17.033 9.83336C16.9127 9.73393 16.7669 9.67028 16.6122 9.64965C16.4575 9.62902 16.3001 9.65225 16.158 9.71669C15.2768 10.1199 14.3187 10.3275 13.3496 10.325C11.557 10.3229 9.83793 9.61206 8.56724 8.34761C7.29655 7.08316 6.57729 5.36761 6.56629 3.57502C6.57009 3.01322 6.64002 2.45381 6.77462 1.90836C6.80319 1.76297 6.79248 1.6126 6.74359 1.47274C6.6947 1.33287 6.60941 1.20857 6.49649 1.11263C6.38358 1.0167 6.24713 0.952606 6.10121 0.926953C5.95528 0.9013 5.80515 0.915017 5.66629 0.966691C4.3599 1.55411 3.22427 2.46399 2.36609 3.61084C1.50791 4.7577 0.955358 6.10388 0.760332 7.52293C0.565306 8.94198 0.734213 10.3873 1.25118 11.7232C1.76815 13.059 2.61622 14.2415 3.71571 15.1596C4.8152 16.0777 6.13002 16.7012 7.53666 16.9715C8.9433 17.2419 10.3956 17.1503 11.7571 16.7052C13.1186 16.2602 14.3446 15.4763 15.32 14.4273C16.2953 13.3783 16.988 12.0986 17.333 10.7084C17.375 10.5492 17.3689 10.3811 17.3155 10.2254C17.2621 10.0697 17.1638 9.93327 17.033 9.83336ZM9.11629 15.4084C7.71776 15.3985 6.35646 14.9566 5.21878 14.1431C4.08111 13.3297 3.22268 12.1845 2.76103 10.8643C2.29937 9.54412 2.25707 8.11351 2.63991 6.76836C3.02274 5.42321 3.81201 4.22927 4.89962 3.35002V3.57502C4.90183 5.81543 5.7928 7.96344 7.37701 9.54764C8.96121 11.1318 11.1092 12.0228 13.3496 12.025C13.9379 12.0272 14.5246 11.9657 15.0996 11.8417C14.5245 12.9296 13.6633 13.8399 12.6089 14.4743C11.5545 15.1087 10.3469 15.4432 9.11629 15.4417V15.4084Z" fill="#434966"/>
</svg>
