<svg width="245" height="169" viewBox="0 0 245 169" fill="none" xmlns="http://www.w3.org/2000/svg">
<path d="M130.068 69.7961L139.823 86.6951C145.402 83.1852 150.111 78.4537 153.595 72.8581L136.746 63.1279C134.981 65.7686 132.711 68.0347 130.068 69.7961Z" fill="#FFE3F2"/>
<path d="M118.247 3.12755V25.6999C121.419 25.9075 124.518 26.7399 127.367 28.1494L138.646 8.62696C132.356 5.25807 125.377 3.37872 118.247 3.12755Z" fill="#E9EDED"/>
<path d="M85.717 51.2998C85.9224 55.6919 87.0572 59.9906 89.0464 63.9118L95.0835 60.427C93.6699 57.5766 92.8342 54.4746 92.6245 51.2998H85.717Z" fill="#EDECF5"/>
<path d="M115.138 12.4409C109.639 12.6601 104.256 14.0932 99.3765 16.6376L106.01 28.1396C108.861 26.725 111.963 25.8882 115.138 25.6775V12.4409Z" fill="#82889C"/>
<path d="M75.539 27.7861C72.1779 34.08 70.3041 41.0605 70.0615 48.1915H92.6493C92.8554 45.021 93.6857 41.9224 95.0927 39.0737L75.539 27.7827V27.7861Z" fill="#82889C"/>
<path d="M96.6378 63.1191L77.1152 74.3942C80.8796 80.4524 85.982 85.5677 92.0307 89.3472L103.312 69.8059C100.669 68.0396 98.4004 65.7651 96.6378 63.1191Z" fill="#FFE3F2"/>
<path d="M127.374 71.3569C124.523 72.7694 121.421 73.6038 118.247 73.8125V96.3506C125.377 96.1229 132.361 94.2642 138.661 90.9168L127.374 71.3569Z" fill="#FF0083"/>
<path d="M93.6125 12.8921C88.0351 16.3845 83.3223 21.0962 79.8286 26.6729L96.6311 36.372C98.3956 33.7291 100.665 31.461 103.309 29.6977L93.6125 12.8921Z" fill="#FFE3F2"/>
<path d="M157.863 27.7764L138.3 39.0735C139.712 41.9213 140.546 45.0198 140.756 48.1912H163.297C163.07 41.0605 161.211 34.0767 157.863 27.7764Z" fill="#434966"/>
<path d="M140.735 51.2998C140.528 54.4716 139.697 57.5711 138.288 60.4206L149.703 67.014C152.23 62.1458 153.652 56.7805 153.869 51.2998H140.735Z" fill="#DDDFE6"/>
<path d="M135.083 21.0181L130.072 29.6911C132.715 31.4574 134.984 33.7289 136.746 36.3748L145.419 31.3638C142.759 27.2099 139.235 23.6806 135.083 21.0181Z" fill="#929AB3"/>
<path d="M106.01 71.3447C108.862 72.7496 111.964 73.5767 115.137 73.7787V83.8975C110.199 83.6493 105.373 82.3332 100.993 80.0397L106.01 71.3447Z" fill="#EDECF5"/>
<path d="M114.581 34.1956C113.079 34.1956 111.932 34.9945 111.223 36.0981C110.474 37.1551 110.076 38.526 109.681 39.9405C108.929 42.7663 108.354 45.8128 107.163 47.05L106.458 47.7557L107.341 48.3277C109.019 49.3443 110.698 50.0966 112.417 50.5784C112.815 50.7121 112.859 50.9328 112.905 51.2872C112.862 52.6115 112.33 53.628 111.447 54.5979C110.521 55.5679 109.284 56.4538 107.959 57.3367C106.635 58.2196 105.224 59.146 104.16 60.2496C103.057 61.3531 102.264 62.7676 102.264 64.4463V65.2825H131.094V64.4432C131.094 62.7645 130.255 61.3967 129.198 60.29C128.091 59.1864 126.767 58.26 125.443 57.3336C124.118 56.4507 122.837 55.5648 121.911 54.5948C121.028 53.6218 120.497 52.6053 120.497 51.3245C120.497 50.796 120.717 50.6188 120.895 50.5318C122.635 50.0402 124.288 49.2797 125.794 48.278L126.633 47.7495L125.928 47.0438C124.647 45.7195 124.031 42.6699 123.145 39.8472C122.704 38.4328 122.219 37.0649 121.379 36.0049C120.963 35.437 120.418 34.9766 119.788 34.662C119.158 34.3473 118.462 34.1874 117.758 34.1956H114.581Z" fill="#82889C"/>
<path d="M44.5386 136.864V126.784H46.0226L50.9856 134.274V126.784H52.4696V136.864H50.9856L46.0226 129.367V136.864H44.5386ZM57.7064 137.074C56.9504 137.074 56.2947 136.904 55.7394 136.563C55.184 136.223 54.7547 135.754 54.4514 135.156C54.1527 134.554 54.0034 133.861 54.0034 133.077C54.0034 132.289 54.1574 131.596 54.4654 130.998C54.7734 130.396 55.205 129.93 55.7604 129.598C56.3157 129.262 56.9644 129.094 57.7064 129.094C58.4624 129.094 59.118 129.265 59.6734 129.605C60.2287 129.946 60.658 130.415 60.9614 131.012C61.2647 131.61 61.4164 132.298 61.4164 133.077C61.4164 133.866 61.2624 134.561 60.9544 135.163C60.651 135.761 60.2217 136.23 59.6664 136.57C59.111 136.906 58.4577 137.074 57.7064 137.074ZM57.7064 135.695C58.4297 135.695 58.9687 135.453 59.3234 134.967C59.6827 134.477 59.8624 133.847 59.8624 133.077C59.8624 132.289 59.6804 131.659 59.3164 131.187C58.957 130.711 58.4204 130.473 57.7064 130.473C57.2164 130.473 56.8127 130.585 56.4954 130.809C56.178 131.029 55.9424 131.334 55.7884 131.726C55.6344 132.114 55.5574 132.564 55.5574 133.077C55.5574 133.871 55.7394 134.505 56.1034 134.981C56.4674 135.457 57.0017 135.695 57.7064 135.695ZM65.7573 136.864V129.304H67.0593V131.138L66.8773 130.9C66.9707 130.658 67.092 130.436 67.2413 130.235C67.3907 130.03 67.5633 129.862 67.7593 129.731C67.9507 129.591 68.163 129.484 68.3963 129.409C68.6343 129.33 68.877 129.283 69.1243 129.269C69.3717 129.251 69.6097 129.262 69.8383 129.304V130.676C69.591 130.611 69.3157 130.592 69.0123 130.62C68.7137 130.648 68.4383 130.744 68.1863 130.907C67.9483 131.061 67.7593 131.248 67.6193 131.467C67.484 131.687 67.386 131.932 67.3253 132.202C67.2647 132.468 67.2343 132.751 67.2343 133.049V136.864H65.7573ZM74.3877 137.074C73.6364 137.074 72.976 136.911 72.4067 136.584C71.842 136.253 71.401 135.793 71.0837 135.205C70.771 134.613 70.6147 133.927 70.6147 133.147C70.6147 132.321 70.7687 131.605 71.0767 130.998C71.3894 130.392 71.8234 129.923 72.3787 129.591C72.934 129.26 73.5804 129.094 74.3177 129.094C75.0877 129.094 75.7434 129.274 76.2847 129.633C76.826 129.988 77.2297 130.494 77.4957 131.152C77.7664 131.81 77.8737 132.592 77.8177 133.497H76.3547V132.965C76.3454 132.088 76.1774 131.439 75.8507 131.019C75.5287 130.599 75.0364 130.389 74.3737 130.389C73.641 130.389 73.0904 130.62 72.7217 131.082C72.353 131.544 72.1687 132.212 72.1687 133.084C72.1687 133.915 72.353 134.559 72.7217 135.016C73.0904 135.469 73.6224 135.695 74.3177 135.695C74.775 135.695 75.1694 135.593 75.5007 135.387C75.8367 135.177 76.098 134.879 76.2847 134.491L77.7197 134.946C77.4257 135.623 76.98 136.148 76.3827 136.521C75.7854 136.89 75.1204 137.074 74.3877 137.074ZM71.6927 133.497V132.356H77.0897V133.497H71.6927ZM82.6222 137.074C81.8475 137.074 81.1895 136.902 80.6482 136.556C80.1069 136.211 79.6915 135.737 79.4022 135.135C79.1175 134.533 78.9729 133.85 78.9682 133.084C78.9729 132.305 79.1222 131.617 79.4162 131.019C79.7102 130.417 80.1302 129.946 80.6762 129.605C81.2222 129.265 81.8779 129.094 82.6432 129.094C83.4692 129.094 84.1739 129.3 84.7572 129.71C85.3452 130.121 85.7325 130.683 85.9192 131.397L84.4632 131.817C84.3185 131.393 84.0805 131.064 83.7492 130.83C83.4225 130.592 83.0469 130.473 82.6222 130.473C82.1415 130.473 81.7472 130.588 81.4392 130.816C81.1312 131.04 80.9025 131.348 80.7532 131.74C80.6039 132.132 80.5269 132.58 80.5222 133.084C80.5269 133.864 80.7042 134.494 81.0542 134.974C81.4089 135.455 81.9315 135.695 82.6222 135.695C83.0935 135.695 83.4739 135.588 83.7632 135.373C84.0572 135.154 84.2812 134.841 84.4352 134.435L85.9192 134.785C85.6719 135.523 85.2635 136.09 84.6942 136.486C84.1249 136.878 83.4342 137.074 82.6222 137.074ZM87.2802 128.065V126.644H88.7432V128.065H87.2802ZM87.2802 136.864V129.304H88.7432V136.864H87.2802ZM94.3942 137.074C93.6709 137.074 93.0642 136.899 92.5742 136.549C92.0842 136.195 91.7132 135.716 91.4612 135.114C91.2092 134.512 91.0832 133.833 91.0832 133.077C91.0832 132.321 91.2069 131.642 91.4542 131.04C91.7062 130.438 92.0749 129.965 92.5602 129.619C93.0502 129.269 93.6522 129.094 94.3662 129.094C95.0756 129.094 95.6869 129.269 96.2002 129.619C96.7182 129.965 97.1172 130.438 97.3972 131.04C97.6772 131.638 97.8172 132.317 97.8172 133.077C97.8172 133.833 97.6772 134.515 97.3972 135.121C97.1219 135.723 96.7276 136.199 96.2142 136.549C95.7056 136.899 95.0989 137.074 94.3942 137.074ZM90.8382 140.224V129.304H92.1402V134.743H92.3082V140.224H90.8382ZM94.1912 135.751C94.6579 135.751 95.0429 135.632 95.3462 135.394C95.6542 135.156 95.8829 134.837 96.0322 134.435C96.1862 134.029 96.2632 133.577 96.2632 133.077C96.2632 132.583 96.1862 132.135 96.0322 131.733C95.8829 131.332 95.6519 131.012 95.3392 130.774C95.0266 130.536 94.6276 130.417 94.1422 130.417C93.6849 130.417 93.3069 130.529 93.0082 130.753C92.7142 130.977 92.4949 131.29 92.3502 131.691C92.2102 132.093 92.1402 132.555 92.1402 133.077C92.1402 133.6 92.2102 134.062 92.3502 134.463C92.4902 134.865 92.7119 135.18 93.0152 135.408C93.3186 135.637 93.7106 135.751 94.1912 135.751ZM99.5028 128.065V126.644H100.966V128.065H99.5028ZM99.5028 136.864V129.304H100.966V136.864H99.5028ZM106.421 137.074C105.67 137.074 105.009 136.911 104.44 136.584C103.875 136.253 103.434 135.793 103.117 135.205C102.804 134.613 102.648 133.927 102.648 133.147C102.648 132.321 102.802 131.605 103.11 130.998C103.423 130.392 103.857 129.923 104.412 129.591C104.967 129.26 105.614 129.094 106.351 129.094C107.121 129.094 107.777 129.274 108.318 129.633C108.859 129.988 109.263 130.494 109.529 131.152C109.8 131.81 109.907 132.592 109.851 133.497H108.388V132.965C108.379 132.088 108.211 131.439 107.884 131.019C107.562 130.599 107.07 130.389 106.407 130.389C105.674 130.389 105.124 130.62 104.755 131.082C104.386 131.544 104.202 132.212 104.202 133.084C104.202 133.915 104.386 134.559 104.755 135.016C105.124 135.469 105.656 135.695 106.351 135.695C106.808 135.695 107.203 135.593 107.534 135.387C107.87 135.177 108.131 134.879 108.318 134.491L109.753 134.946C109.459 135.623 109.013 136.148 108.416 136.521C107.819 136.89 107.154 137.074 106.421 137.074ZM103.726 133.497V132.356H109.123V133.497H103.726ZM116.522 136.864V133.147C116.522 132.853 116.497 132.552 116.445 132.244C116.399 131.932 116.305 131.642 116.165 131.376C116.03 131.11 115.836 130.896 115.584 130.732C115.337 130.569 115.013 130.487 114.611 130.487C114.35 130.487 114.103 130.532 113.869 130.62C113.636 130.704 113.431 130.842 113.253 131.033C113.081 131.225 112.943 131.477 112.84 131.789C112.742 132.102 112.693 132.482 112.693 132.93L111.783 132.587C111.783 131.901 111.912 131.297 112.168 130.774C112.425 130.247 112.794 129.836 113.274 129.542C113.755 129.248 114.336 129.101 115.017 129.101C115.54 129.101 115.979 129.185 116.333 129.353C116.688 129.521 116.975 129.743 117.194 130.018C117.418 130.289 117.589 130.585 117.705 130.907C117.822 131.229 117.901 131.544 117.943 131.852C117.985 132.16 118.006 132.431 118.006 132.664V136.864H116.522ZM111.209 136.864V129.304H112.518V131.488H112.693V136.864H111.209ZM124.156 136.864C123.68 136.958 123.213 136.997 122.756 136.983C122.298 136.969 121.89 136.881 121.531 136.717C121.171 136.554 120.901 136.297 120.719 135.947C120.555 135.635 120.467 135.317 120.453 134.995C120.443 134.669 120.439 134.3 120.439 133.889V127.204H121.909V133.819C121.909 134.123 121.911 134.386 121.916 134.61C121.925 134.834 121.974 135.023 122.063 135.177C122.231 135.467 122.497 135.632 122.861 135.674C123.229 135.712 123.661 135.695 124.156 135.625V136.864ZM118.99 130.48V129.304H124.156V130.48H118.99ZM128.641 137.067C127.721 137.067 126.972 136.864 126.394 136.458C125.815 136.052 125.46 135.481 125.33 134.743L126.828 134.512C126.921 134.904 127.136 135.215 127.472 135.443C127.812 135.667 128.235 135.779 128.739 135.779C129.196 135.779 129.553 135.686 129.81 135.499C130.071 135.313 130.202 135.056 130.202 134.729C130.202 134.538 130.155 134.384 130.062 134.267C129.973 134.146 129.784 134.032 129.495 133.924C129.205 133.817 128.764 133.684 128.172 133.525C127.523 133.357 127.007 133.178 126.625 132.986C126.247 132.79 125.976 132.564 125.813 132.307C125.654 132.046 125.575 131.731 125.575 131.362C125.575 130.905 125.696 130.506 125.939 130.165C126.181 129.825 126.522 129.561 126.961 129.374C127.404 129.188 127.922 129.094 128.515 129.094C129.093 129.094 129.609 129.185 130.062 129.367C130.514 129.549 130.881 129.808 131.161 130.144C131.441 130.476 131.609 130.865 131.665 131.313L130.167 131.586C130.115 131.222 129.945 130.935 129.656 130.725C129.366 130.515 128.991 130.401 128.529 130.382C128.085 130.364 127.726 130.438 127.451 130.606C127.175 130.77 127.038 130.996 127.038 131.285C127.038 131.453 127.089 131.596 127.192 131.712C127.299 131.829 127.504 131.941 127.808 132.048C128.111 132.156 128.559 132.284 129.152 132.433C129.786 132.597 130.29 132.779 130.664 132.979C131.037 133.175 131.303 133.411 131.462 133.686C131.625 133.957 131.707 134.286 131.707 134.673C131.707 135.42 131.434 136.006 130.888 136.43C130.346 136.855 129.597 137.067 128.641 137.067ZM138.193 137.074C137.633 137.074 137.164 136.972 136.786 136.766C136.408 136.556 136.121 136.281 135.925 135.94C135.734 135.595 135.638 135.217 135.638 134.806C135.638 134.424 135.706 134.088 135.841 133.798C135.976 133.509 136.177 133.264 136.443 133.063C136.709 132.858 137.036 132.692 137.423 132.566C137.759 132.468 138.139 132.382 138.564 132.307C138.989 132.233 139.434 132.163 139.901 132.097C140.372 132.032 140.839 131.967 141.301 131.901L140.769 132.195C140.778 131.603 140.652 131.164 140.391 130.879C140.134 130.59 139.691 130.445 139.061 130.445C138.664 130.445 138.3 130.539 137.969 130.725C137.638 130.907 137.407 131.211 137.276 131.635L135.911 131.215C136.098 130.567 136.452 130.051 136.975 129.668C137.502 129.286 138.202 129.094 139.075 129.094C139.752 129.094 140.34 129.211 140.839 129.444C141.343 129.673 141.712 130.037 141.945 130.536C142.066 130.784 142.141 131.045 142.169 131.32C142.197 131.596 142.211 131.892 142.211 132.209V136.864H140.916V135.135L141.168 135.359C140.855 135.938 140.456 136.37 139.971 136.654C139.49 136.934 138.898 137.074 138.193 137.074ZM138.452 135.877C138.867 135.877 139.224 135.805 139.523 135.66C139.822 135.511 140.062 135.322 140.244 135.093C140.426 134.865 140.545 134.627 140.601 134.379C140.68 134.155 140.725 133.903 140.734 133.623C140.748 133.343 140.755 133.119 140.755 132.951L141.231 133.126C140.769 133.196 140.349 133.259 139.971 133.315C139.593 133.371 139.25 133.427 138.942 133.483C138.639 133.535 138.368 133.598 138.13 133.672C137.929 133.742 137.75 133.826 137.591 133.924C137.437 134.022 137.313 134.141 137.22 134.281C137.131 134.421 137.087 134.592 137.087 134.792C137.087 134.988 137.136 135.17 137.234 135.338C137.332 135.502 137.481 135.632 137.682 135.73C137.883 135.828 138.139 135.877 138.452 135.877ZM147.032 137.074C146.327 137.074 145.718 136.899 145.205 136.549C144.696 136.199 144.302 135.723 144.022 135.121C143.746 134.515 143.609 133.833 143.609 133.077C143.609 132.317 143.749 131.638 144.029 131.04C144.309 130.438 144.705 129.965 145.219 129.619C145.737 129.269 146.35 129.094 147.06 129.094C147.774 129.094 148.373 129.269 148.859 129.619C149.349 129.965 149.717 130.438 149.965 131.04C150.217 131.642 150.343 132.321 150.343 133.077C150.343 133.833 150.217 134.512 149.965 135.114C149.713 135.716 149.342 136.195 148.852 136.549C148.362 136.899 147.755 137.074 147.032 137.074ZM147.235 135.751C147.715 135.751 148.107 135.637 148.411 135.408C148.714 135.18 148.936 134.865 149.076 134.463C149.216 134.062 149.286 133.6 149.286 133.077C149.286 132.555 149.213 132.093 149.069 131.691C148.929 131.29 148.709 130.977 148.411 130.753C148.117 130.529 147.741 130.417 147.284 130.417C146.798 130.417 146.399 130.536 146.087 130.774C145.774 131.012 145.541 131.332 145.387 131.733C145.237 132.135 145.163 132.583 145.163 133.077C145.163 133.577 145.237 134.029 145.387 134.435C145.541 134.837 145.769 135.156 146.073 135.394C146.381 135.632 146.768 135.751 147.235 135.751ZM149.286 136.864V131.425H149.118V126.784H150.588V136.864H149.286ZM155.549 137.074C154.845 137.074 154.236 136.899 153.722 136.549C153.214 136.199 152.819 135.723 152.539 135.121C152.264 134.515 152.126 133.833 152.126 133.077C152.126 132.317 152.266 131.638 152.546 131.04C152.826 130.438 153.223 129.965 153.736 129.619C154.254 129.269 154.868 129.094 155.577 129.094C156.291 129.094 156.891 129.269 157.376 129.619C157.866 129.965 158.235 130.438 158.482 131.04C158.734 131.642 158.86 132.321 158.86 133.077C158.86 133.833 158.734 134.512 158.482 135.114C158.23 135.716 157.859 136.195 157.369 136.549C156.879 136.899 156.273 137.074 155.549 137.074ZM155.752 135.751C156.233 135.751 156.625 135.637 156.928 135.408C157.232 135.18 157.453 134.865 157.593 134.463C157.733 134.062 157.803 133.6 157.803 133.077C157.803 132.555 157.731 132.093 157.586 131.691C157.446 131.29 157.227 130.977 156.928 130.753C156.634 130.529 156.259 130.417 155.801 130.417C155.316 130.417 154.917 130.536 154.604 130.774C154.292 131.012 154.058 131.332 153.904 131.733C153.755 132.135 153.68 132.583 153.68 133.077C153.68 133.577 153.755 134.029 153.904 134.435C154.058 134.837 154.287 135.156 154.59 135.394C154.898 135.632 155.286 135.751 155.752 135.751ZM157.803 136.864V131.425H157.635V126.784H159.105V136.864H157.803ZM164.417 137.074C163.666 137.074 163.005 136.911 162.436 136.584C161.871 136.253 161.43 135.793 161.113 135.205C160.8 134.613 160.644 133.927 160.644 133.147C160.644 132.321 160.798 131.605 161.106 130.998C161.419 130.392 161.853 129.923 162.408 129.591C162.963 129.26 163.61 129.094 164.347 129.094C165.117 129.094 165.773 129.274 166.314 129.633C166.855 129.988 167.259 130.494 167.525 131.152C167.796 131.81 167.903 132.592 167.847 133.497H166.384V132.965C166.375 132.088 166.207 131.439 165.88 131.019C165.558 130.599 165.066 130.389 164.403 130.389C163.67 130.389 163.12 130.62 162.751 131.082C162.382 131.544 162.198 132.212 162.198 133.084C162.198 133.915 162.382 134.559 162.751 135.016C163.12 135.469 163.652 135.695 164.347 135.695C164.804 135.695 165.199 135.593 165.53 135.387C165.866 135.177 166.127 134.879 166.314 134.491L167.749 134.946C167.455 135.623 167.009 136.148 166.412 136.521C165.815 136.89 165.15 137.074 164.417 137.074ZM161.722 133.497V132.356H167.119V133.497H161.722ZM172.421 137.074C171.716 137.074 171.107 136.899 170.594 136.549C170.085 136.199 169.691 135.723 169.411 135.121C169.135 134.515 168.998 133.833 168.998 133.077C168.998 132.317 169.138 131.638 169.418 131.04C169.698 130.438 170.094 129.965 170.608 129.619C171.126 129.269 171.739 129.094 172.449 129.094C173.163 129.094 173.762 129.269 174.248 129.619C174.738 129.965 175.106 130.438 175.354 131.04C175.606 131.642 175.732 132.321 175.732 133.077C175.732 133.833 175.606 134.512 175.354 135.114C175.102 135.716 174.731 136.195 174.241 136.549C173.751 136.899 173.144 137.074 172.421 137.074ZM172.624 135.751C173.104 135.751 173.496 135.637 173.8 135.408C174.103 135.18 174.325 134.865 174.465 134.463C174.605 134.062 174.675 133.6 174.675 133.077C174.675 132.555 174.602 132.093 174.458 131.691C174.318 131.29 174.098 130.977 173.8 130.753C173.506 130.529 173.13 130.417 172.673 130.417C172.187 130.417 171.788 130.536 171.476 130.774C171.163 131.012 170.93 131.332 170.776 131.733C170.626 132.135 170.552 132.583 170.552 133.077C170.552 133.577 170.626 134.029 170.776 134.435C170.93 134.837 171.158 135.156 171.462 135.394C171.77 135.632 172.157 135.751 172.624 135.751ZM174.675 136.864V131.425H174.507V126.784H175.977V136.864H174.675ZM181.76 140.224L183.223 136.241L183.244 137.417L179.947 129.304H181.473L183.937 135.569H183.489L185.841 129.304H187.325L183.153 140.224H181.76ZM191.501 137.074C190.75 137.074 190.089 136.911 189.52 136.584C188.955 136.253 188.514 135.793 188.197 135.205C187.884 134.613 187.728 133.927 187.728 133.147C187.728 132.321 187.882 131.605 188.19 130.998C188.503 130.392 188.937 129.923 189.492 129.591C190.047 129.26 190.694 129.094 191.431 129.094C192.201 129.094 192.857 129.274 193.398 129.633C193.939 129.988 194.343 130.494 194.609 131.152C194.88 131.81 194.987 132.592 194.931 133.497H193.468V132.965C193.459 132.088 193.291 131.439 192.964 131.019C192.642 130.599 192.15 130.389 191.487 130.389C190.754 130.389 190.204 130.62 189.835 131.082C189.466 131.544 189.282 132.212 189.282 133.084C189.282 133.915 189.466 134.559 189.835 135.016C190.204 135.469 190.736 135.695 191.431 135.695C191.888 135.695 192.283 135.593 192.614 135.387C192.95 135.177 193.211 134.879 193.398 134.491L194.833 134.946C194.539 135.623 194.093 136.148 193.496 136.521C192.899 136.89 192.234 137.074 191.501 137.074ZM188.806 133.497V132.356H194.203V133.497H188.806ZM200.827 136.864C200.351 136.958 199.885 136.997 199.427 136.983C198.97 136.969 198.562 136.881 198.202 136.717C197.843 136.554 197.572 136.297 197.39 135.947C197.227 135.635 197.138 135.317 197.124 134.995C197.115 134.669 197.11 134.3 197.11 133.889V127.204H198.58V133.819C198.58 134.123 198.583 134.386 198.587 134.61C198.597 134.834 198.646 135.023 198.734 135.177C198.902 135.467 199.168 135.632 199.532 135.674C199.901 135.712 200.333 135.695 200.827 135.625V136.864ZM195.661 130.48V129.304H200.827V130.48H195.661Z" fill="#17174A"/>
<path d="M17.8414 165.633V158.007H14.8954V156.993H21.8554V158.007H18.9094V165.633H17.8414ZM27.4247 165.633V162.387C27.4247 162.079 27.3967 161.783 27.3407 161.499C27.2887 161.215 27.1947 160.961 27.0587 160.737C26.9267 160.509 26.7467 160.329 26.5187 160.197C26.2947 160.065 26.0107 159.999 25.6667 159.999C25.3987 159.999 25.1547 160.045 24.9347 160.137C24.7187 160.225 24.5327 160.361 24.3767 160.545C24.2207 160.729 24.0987 160.961 24.0107 161.241C23.9267 161.517 23.8847 161.843 23.8847 162.219L23.1827 162.003C23.1827 161.375 23.2947 160.837 23.5187 160.389C23.7467 159.937 24.0647 159.591 24.4727 159.351C24.8847 159.107 25.3687 158.985 25.9247 158.985C26.3447 158.985 26.7027 159.051 26.9987 159.183C27.2947 159.315 27.5407 159.491 27.7367 159.711C27.9327 159.927 28.0867 160.171 28.1987 160.443C28.3107 160.711 28.3887 160.985 28.4327 161.265C28.4807 161.541 28.5047 161.803 28.5047 162.051V165.633H27.4247ZM22.8047 165.633V156.993H23.7647V161.763H23.8847V165.633H22.8047ZM32.8726 165.813C32.2366 165.813 31.6806 165.673 31.2046 165.393C30.7326 165.109 30.3646 164.715 30.1006 164.211C29.8366 163.703 29.7046 163.111 29.7046 162.435C29.7046 161.727 29.8346 161.115 30.0946 160.599C30.3546 160.079 30.7166 159.679 31.1806 159.399C31.6486 159.115 32.1966 158.973 32.8246 158.973C33.4766 158.973 34.0306 159.123 34.4866 159.423C34.9466 159.723 35.2906 160.151 35.5186 160.707C35.7506 161.263 35.8506 161.925 35.8186 162.693H34.7386V162.309C34.7266 161.513 34.5646 160.919 34.2526 160.527C33.9406 160.131 33.4766 159.933 32.8606 159.933C32.2006 159.933 31.6986 160.145 31.3546 160.569C31.0106 160.993 30.8386 161.601 30.8386 162.393C30.8386 163.157 31.0106 163.749 31.3546 164.169C31.6986 164.589 32.1886 164.799 32.8246 164.799C33.2526 164.799 33.6246 164.701 33.9406 164.505C34.2566 164.309 34.5046 164.027 34.6846 163.659L35.7106 164.013C35.4586 164.585 35.0786 165.029 34.5706 165.345C34.0666 165.657 33.5006 165.813 32.8726 165.813ZM30.4786 162.693V161.835H35.2666V162.693H30.4786ZM37.1545 165.633V159.153H38.1085V160.719L37.9525 160.515C38.0285 160.315 38.1265 160.131 38.2465 159.963C38.3705 159.795 38.5085 159.657 38.6605 159.549C38.8285 159.413 39.0185 159.309 39.2305 159.237C39.4425 159.165 39.6585 159.123 39.8785 159.111C40.0985 159.095 40.3045 159.109 40.4965 159.153V160.155C40.2725 160.095 40.0265 160.079 39.7585 160.107C39.4905 160.135 39.2425 160.233 39.0145 160.401C38.8065 160.549 38.6445 160.729 38.5285 160.941C38.4165 161.153 38.3385 161.383 38.2945 161.631C38.2505 161.875 38.2285 162.125 38.2285 162.381V165.633H37.1545ZM44.3218 165.813C43.6858 165.813 43.1298 165.673 42.6538 165.393C42.1818 165.109 41.8138 164.715 41.5498 164.211C41.2858 163.703 41.1538 163.111 41.1538 162.435C41.1538 161.727 41.2838 161.115 41.5438 160.599C41.8038 160.079 42.1658 159.679 42.6298 159.399C43.0978 159.115 43.6458 158.973 44.2738 158.973C44.9258 158.973 45.4798 159.123 45.9358 159.423C46.3958 159.723 46.7398 160.151 46.9678 160.707C47.1998 161.263 47.2998 161.925 47.2678 162.693H46.1878V162.309C46.1758 161.513 46.0138 160.919 45.7018 160.527C45.3898 160.131 44.9258 159.933 44.3098 159.933C43.6498 159.933 43.1478 160.145 42.8038 160.569C42.4598 160.993 42.2878 161.601 42.2878 162.393C42.2878 163.157 42.4598 163.749 42.8038 164.169C43.1478 164.589 43.6378 164.799 44.2738 164.799C44.7018 164.799 45.0738 164.701 45.3898 164.505C45.7058 164.309 45.9538 164.027 46.1338 163.659L47.1598 164.013C46.9078 164.585 46.5278 165.029 46.0198 165.345C45.5158 165.657 44.9498 165.813 44.3218 165.813ZM41.9278 162.693V161.835H46.7158V162.693H41.9278ZM51.126 158.007V156.903H52.194V158.007H51.126ZM51.126 165.633V159.153H52.194V165.633H51.126ZM56.4423 165.807C55.6703 165.807 55.0363 165.639 54.5403 165.303C54.0483 164.963 53.7463 164.489 53.6343 163.881L54.7263 163.707C54.8143 164.059 55.0163 164.339 55.3323 164.547C55.6483 164.751 56.0403 164.853 56.5083 164.853C56.9523 164.853 57.3003 164.761 57.5523 164.577C57.8043 164.393 57.9303 164.143 57.9303 163.827C57.9303 163.643 57.8883 163.495 57.8043 163.383C57.7203 163.267 57.5463 163.159 57.2823 163.059C57.0223 162.959 56.6283 162.839 56.1003 162.699C55.5283 162.547 55.0783 162.389 54.7503 162.225C54.4223 162.061 54.1883 161.871 54.0483 161.655C53.9083 161.439 53.8383 161.177 53.8383 160.869C53.8383 160.489 53.9423 160.157 54.1503 159.873C54.3583 159.585 54.6483 159.363 55.0203 159.207C55.3963 159.051 55.8323 158.973 56.3283 158.973C56.8203 158.973 57.2603 159.051 57.6483 159.207C58.0363 159.363 58.3483 159.585 58.5843 159.873C58.8243 160.157 58.9663 160.489 59.0103 160.869L57.9183 161.067C57.8663 160.719 57.6983 160.445 57.4143 160.245C57.1343 160.045 56.7723 159.939 56.3283 159.927C55.9083 159.911 55.5663 159.985 55.3023 160.149C55.0423 160.313 54.9123 160.535 54.9123 160.815C54.9123 160.971 54.9603 161.105 55.0563 161.217C55.1563 161.329 55.3383 161.435 55.6023 161.535C55.8703 161.635 56.2583 161.749 56.7663 161.877C57.3383 162.021 57.7883 162.179 58.1163 162.351C58.4483 162.519 58.6843 162.719 58.8243 162.951C58.9643 163.179 59.0343 163.461 59.0343 163.797C59.0343 164.421 58.8043 164.913 58.3443 165.273C57.8843 165.629 57.2503 165.807 56.4423 165.807ZM65.4899 165.813C64.8339 165.813 64.2759 165.667 63.8159 165.375C63.3599 165.079 63.0119 164.673 62.7719 164.157C62.5319 163.641 62.4079 163.053 62.3999 162.393C62.4079 161.717 62.5339 161.123 62.7779 160.611C63.0259 160.095 63.3799 159.693 63.8399 159.405C64.2999 159.117 64.8539 158.973 65.5019 158.973C66.1859 158.973 66.7739 159.141 67.2659 159.477C67.7619 159.813 68.0939 160.273 68.2619 160.857L67.2059 161.175C67.0699 160.799 66.8479 160.507 66.5399 160.299C66.2359 160.091 65.8859 159.987 65.4899 159.987C65.0459 159.987 64.6799 160.091 64.3919 160.299C64.1039 160.503 63.8899 160.787 63.7499 161.151C63.6099 161.511 63.5379 161.925 63.5339 162.393C63.5419 163.113 63.7079 163.695 64.0319 164.139C64.3599 164.579 64.8459 164.799 65.4899 164.799C65.9139 164.799 66.2659 164.703 66.5459 164.511C66.8259 164.315 67.0379 164.033 67.1819 163.665L68.2619 163.947C68.0379 164.551 67.6879 165.013 67.2119 165.333C66.7359 165.653 66.1619 165.813 65.4899 165.813ZM71.9465 165.801C71.5305 165.801 71.1725 165.735 70.8725 165.603C70.5765 165.471 70.3305 165.295 70.1345 165.075C69.9385 164.855 69.7845 164.611 69.6725 164.343C69.5605 164.075 69.4805 163.801 69.4325 163.521C69.3885 163.241 69.3665 162.979 69.3665 162.735V159.153H70.4465V162.399C70.4465 162.703 70.4745 162.997 70.5305 163.281C70.5865 163.565 70.6805 163.821 70.8125 164.049C70.9485 164.277 71.1285 164.457 71.3525 164.589C71.5805 164.721 71.8645 164.787 72.2045 164.787C72.4725 164.787 72.7165 164.741 72.9365 164.649C73.1565 164.557 73.3445 164.421 73.5005 164.241C73.6565 164.057 73.7765 163.825 73.8605 163.545C73.9445 163.265 73.9865 162.939 73.9865 162.567L74.6885 162.783C74.6885 163.407 74.5745 163.945 74.3465 164.397C74.1225 164.849 73.8045 165.197 73.3925 165.441C72.9845 165.681 72.5025 165.801 71.9465 165.801ZM74.1065 165.633V163.899H73.9865V159.153H75.0605V165.633H74.1065ZM76.7404 165.633V159.153H77.6944V160.719L77.5384 160.515C77.6144 160.315 77.7124 160.131 77.8324 159.963C77.9564 159.795 78.0944 159.657 78.2464 159.549C78.4144 159.413 78.6044 159.309 78.8164 159.237C79.0284 159.165 79.2444 159.123 79.4644 159.111C79.6844 159.095 79.8904 159.109 80.0824 159.153V160.155C79.8584 160.095 79.6124 160.079 79.3444 160.107C79.0764 160.135 78.8284 160.233 78.6004 160.401C78.3924 160.549 78.2304 160.729 78.1144 160.941C78.0024 161.153 77.9244 161.383 77.8804 161.631C77.8364 161.875 77.8144 162.125 77.8144 162.381V165.633H76.7404ZM81.217 165.633V159.153H82.171V160.719L82.015 160.515C82.091 160.315 82.189 160.131 82.309 159.963C82.433 159.795 82.571 159.657 82.723 159.549C82.891 159.413 83.081 159.309 83.293 159.237C83.505 159.165 83.721 159.123 83.941 159.111C84.161 159.095 84.367 159.109 84.559 159.153V160.155C84.335 160.095 84.089 160.079 83.821 160.107C83.553 160.135 83.305 160.233 83.077 160.401C82.869 160.549 82.707 160.729 82.591 160.941C82.479 161.153 82.401 161.383 82.357 161.631C82.313 161.875 82.291 162.125 82.291 162.381V165.633H81.217ZM88.3843 165.813C87.7483 165.813 87.1923 165.673 86.7163 165.393C86.2443 165.109 85.8763 164.715 85.6123 164.211C85.3483 163.703 85.2163 163.111 85.2163 162.435C85.2163 161.727 85.3463 161.115 85.6063 160.599C85.8663 160.079 86.2283 159.679 86.6923 159.399C87.1603 159.115 87.7083 158.973 88.3363 158.973C88.9883 158.973 89.5423 159.123 89.9983 159.423C90.4583 159.723 90.8023 160.151 91.0303 160.707C91.2623 161.263 91.3623 161.925 91.3303 162.693H90.2503V162.309C90.2383 161.513 90.0763 160.919 89.7643 160.527C89.4523 160.131 88.9883 159.933 88.3723 159.933C87.7123 159.933 87.2103 160.145 86.8663 160.569C86.5223 160.993 86.3503 161.601 86.3503 162.393C86.3503 163.157 86.5223 163.749 86.8663 164.169C87.2103 164.589 87.7003 164.799 88.3363 164.799C88.7643 164.799 89.1363 164.701 89.4523 164.505C89.7683 164.309 90.0163 164.027 90.1963 163.659L91.2223 164.013C90.9703 164.585 90.5903 165.029 90.0823 165.345C89.5783 165.657 89.0123 165.813 88.3843 165.813ZM85.9903 162.693V161.835H90.7783V162.693H85.9903ZM97.1044 165.633V162.387C97.1044 162.079 97.0764 161.783 97.0204 161.499C96.9684 161.215 96.8744 160.961 96.7384 160.737C96.6064 160.509 96.4264 160.329 96.1984 160.197C95.9744 160.065 95.6904 159.999 95.3464 159.999C95.0784 159.999 94.8344 160.045 94.6144 160.137C94.3984 160.225 94.2124 160.361 94.0564 160.545C93.9004 160.729 93.7784 160.961 93.6904 161.241C93.6064 161.517 93.5644 161.843 93.5644 162.219L92.8624 162.003C92.8624 161.375 92.9744 160.837 93.1984 160.389C93.4264 159.937 93.7444 159.591 94.1524 159.351C94.5644 159.107 95.0484 158.985 95.6044 158.985C96.0244 158.985 96.3824 159.051 96.6784 159.183C96.9744 159.315 97.2204 159.491 97.4164 159.711C97.6124 159.927 97.7664 160.171 97.8784 160.443C97.9904 160.711 98.0684 160.985 98.1124 161.265C98.1604 161.541 98.1844 161.803 98.1844 162.051V165.633H97.1044ZM92.4844 165.633V159.153H93.4444V160.887H93.5644V165.633H92.4844ZM103.362 165.633C102.978 165.709 102.598 165.739 102.222 165.723C101.85 165.711 101.518 165.637 101.226 165.501C100.934 165.361 100.712 165.145 100.56 164.853C100.432 164.597 100.362 164.339 100.35 164.079C100.342 163.815 100.338 163.517 100.338 163.185V157.353H101.406V163.137C101.406 163.401 101.408 163.627 101.412 163.815C101.42 164.003 101.462 164.165 101.538 164.301C101.682 164.557 101.91 164.707 102.222 164.751C102.538 164.795 102.918 164.783 103.362 164.715V165.633ZM99.0243 160.035V159.153H103.362V160.035H99.0243ZM104.798 165.633V156.813H105.866V165.633H104.798ZM108.566 168.513L109.82 165.105L109.838 166.113L107.006 159.153H108.128L110.348 164.751H109.964L112.046 159.153H113.132L109.604 168.513H108.566ZM121.14 165.633V162.387C121.14 162.079 121.112 161.783 121.056 161.499C121.004 161.215 120.91 160.961 120.774 160.737C120.642 160.509 120.462 160.329 120.234 160.197C120.01 160.065 119.726 159.999 119.382 159.999C119.114 159.999 118.87 160.045 118.65 160.137C118.434 160.225 118.248 160.361 118.092 160.545C117.936 160.729 117.814 160.961 117.726 161.241C117.642 161.517 117.6 161.843 117.6 162.219L116.898 162.003C116.898 161.375 117.01 160.837 117.234 160.389C117.462 159.937 117.78 159.591 118.188 159.351C118.6 159.107 119.084 158.985 119.64 158.985C120.06 158.985 120.418 159.051 120.714 159.183C121.01 159.315 121.256 159.491 121.452 159.711C121.648 159.927 121.802 160.171 121.914 160.443C122.026 160.711 122.104 160.985 122.148 161.265C122.196 161.541 122.22 161.803 122.22 162.051V165.633H121.14ZM116.52 165.633V159.153H117.48V160.887H117.6V165.633H116.52ZM126.481 165.813C125.837 165.813 125.281 165.667 124.813 165.375C124.349 165.083 123.991 164.679 123.739 164.163C123.487 163.647 123.361 163.055 123.361 162.387C123.361 161.707 123.489 161.111 123.745 160.599C124.001 160.087 124.363 159.689 124.831 159.405C125.299 159.117 125.849 158.973 126.481 158.973C127.129 158.973 127.687 159.119 128.155 159.411C128.623 159.699 128.981 160.101 129.229 160.617C129.481 161.129 129.607 161.719 129.607 162.387C129.607 163.063 129.481 163.659 129.229 164.175C128.977 164.687 128.617 165.089 128.149 165.381C127.681 165.669 127.125 165.813 126.481 165.813ZM126.481 164.799C127.153 164.799 127.653 164.575 127.981 164.127C128.309 163.679 128.473 163.099 128.473 162.387C128.473 161.655 128.307 161.073 127.975 160.641C127.643 160.205 127.145 159.987 126.481 159.987C126.029 159.987 125.657 160.089 125.365 160.293C125.073 160.497 124.855 160.779 124.711 161.139C124.567 161.499 124.495 161.915 124.495 162.387C124.495 163.115 124.663 163.699 124.999 164.139C125.335 164.579 125.829 164.799 126.481 164.799ZM133.33 165.633V159.153H134.284V160.719L134.128 160.515C134.204 160.315 134.302 160.131 134.422 159.963C134.546 159.795 134.684 159.657 134.836 159.549C135.004 159.413 135.194 159.309 135.406 159.237C135.618 159.165 135.834 159.123 136.054 159.111C136.274 159.095 136.48 159.109 136.672 159.153V160.155C136.448 160.095 136.202 160.079 135.934 160.107C135.666 160.135 135.418 160.233 135.19 160.401C134.982 160.549 134.82 160.729 134.704 160.941C134.592 161.153 134.514 161.383 134.47 161.631C134.426 161.875 134.404 162.125 134.404 162.381V165.633H133.33ZM140.498 165.813C139.862 165.813 139.306 165.673 138.83 165.393C138.358 165.109 137.99 164.715 137.726 164.211C137.462 163.703 137.33 163.111 137.33 162.435C137.33 161.727 137.46 161.115 137.72 160.599C137.98 160.079 138.342 159.679 138.806 159.399C139.274 159.115 139.822 158.973 140.45 158.973C141.102 158.973 141.656 159.123 142.112 159.423C142.572 159.723 142.916 160.151 143.144 160.707C143.376 161.263 143.476 161.925 143.444 162.693H142.364V162.309C142.352 161.513 142.19 160.919 141.878 160.527C141.566 160.131 141.102 159.933 140.486 159.933C139.826 159.933 139.324 160.145 138.98 160.569C138.636 160.993 138.464 161.601 138.464 162.393C138.464 163.157 138.636 163.749 138.98 164.169C139.324 164.589 139.814 164.799 140.45 164.799C140.878 164.799 141.25 164.701 141.566 164.505C141.882 164.309 142.13 164.027 142.31 163.659L143.336 164.013C143.084 164.585 142.704 165.029 142.196 165.345C141.692 165.657 141.126 165.813 140.498 165.813ZM138.104 162.693V161.835H142.892V162.693H138.104ZM147.509 165.813C146.853 165.813 146.295 165.667 145.835 165.375C145.379 165.079 145.031 164.673 144.791 164.157C144.551 163.641 144.427 163.053 144.419 162.393C144.427 161.717 144.553 161.123 144.797 160.611C145.045 160.095 145.399 159.693 145.859 159.405C146.319 159.117 146.873 158.973 147.521 158.973C148.205 158.973 148.793 159.141 149.285 159.477C149.781 159.813 150.113 160.273 150.281 160.857L149.225 161.175C149.089 160.799 148.867 160.507 148.559 160.299C148.255 160.091 147.905 159.987 147.509 159.987C147.065 159.987 146.699 160.091 146.411 160.299C146.123 160.503 145.909 160.787 145.769 161.151C145.629 161.511 145.557 161.925 145.553 162.393C145.561 163.113 145.727 163.695 146.051 164.139C146.379 164.579 146.865 164.799 147.509 164.799C147.933 164.799 148.285 164.703 148.565 164.511C148.845 164.315 149.057 164.033 149.201 163.665L150.281 163.947C150.057 164.551 149.707 165.013 149.231 165.333C148.755 165.653 148.181 165.813 147.509 165.813ZM151.45 158.007V156.903H152.518V158.007H151.45ZM151.45 165.633V159.153H152.518V165.633H151.45ZM157.295 165.813C156.687 165.813 156.175 165.663 155.759 165.363C155.343 165.059 155.027 164.649 154.811 164.133C154.599 163.613 154.493 163.031 154.493 162.387C154.493 161.735 154.599 161.151 154.811 160.635C155.027 160.119 155.343 159.713 155.759 159.417C156.179 159.121 156.693 158.973 157.301 158.973C157.901 158.973 158.417 159.123 158.849 159.423C159.285 159.719 159.619 160.125 159.851 160.641C160.083 161.157 160.199 161.739 160.199 162.387C160.199 163.035 160.083 163.617 159.851 164.133C159.619 164.649 159.285 165.059 158.849 165.363C158.417 165.663 157.899 165.813 157.295 165.813ZM154.313 168.513V159.153H155.267V163.923H155.387V168.513H154.313ZM157.163 164.835C157.591 164.835 157.945 164.727 158.225 164.511C158.505 164.295 158.715 164.003 158.855 163.635C158.995 163.263 159.065 162.847 159.065 162.387C159.065 161.931 158.995 161.519 158.855 161.151C158.719 160.783 158.507 160.491 158.219 160.275C157.935 160.059 157.573 159.951 157.133 159.951C156.713 159.951 156.365 160.055 156.089 160.263C155.813 160.467 155.607 160.753 155.471 161.121C155.335 161.485 155.267 161.907 155.267 162.387C155.267 162.859 155.333 163.281 155.465 163.653C155.601 164.021 155.809 164.311 156.089 164.523C156.369 164.731 156.727 164.835 157.163 164.835ZM161.634 158.007V156.903H162.702V158.007H161.634ZM161.634 165.633V159.153H162.702V165.633H161.634ZM167.31 165.813C166.674 165.813 166.118 165.673 165.642 165.393C165.17 165.109 164.802 164.715 164.538 164.211C164.274 163.703 164.142 163.111 164.142 162.435C164.142 161.727 164.272 161.115 164.532 160.599C164.792 160.079 165.154 159.679 165.618 159.399C166.086 159.115 166.634 158.973 167.262 158.973C167.914 158.973 168.468 159.123 168.924 159.423C169.384 159.723 169.728 160.151 169.956 160.707C170.188 161.263 170.288 161.925 170.256 162.693H169.176V162.309C169.164 161.513 169.002 160.919 168.69 160.527C168.378 160.131 167.914 159.933 167.298 159.933C166.638 159.933 166.136 160.145 165.792 160.569C165.448 160.993 165.276 161.601 165.276 162.393C165.276 163.157 165.448 163.749 165.792 164.169C166.136 164.589 166.626 164.799 167.262 164.799C167.69 164.799 168.062 164.701 168.378 164.505C168.694 164.309 168.942 164.027 169.122 163.659L170.148 164.013C169.896 164.585 169.516 165.029 169.008 165.345C168.504 165.657 167.938 165.813 167.31 165.813ZM164.916 162.693V161.835H169.704V162.693H164.916ZM176.03 165.633V162.387C176.03 162.079 176.002 161.783 175.946 161.499C175.894 161.215 175.8 160.961 175.664 160.737C175.532 160.509 175.352 160.329 175.124 160.197C174.9 160.065 174.616 159.999 174.272 159.999C174.004 159.999 173.76 160.045 173.54 160.137C173.324 160.225 173.138 160.361 172.982 160.545C172.826 160.729 172.704 160.961 172.616 161.241C172.532 161.517 172.49 161.843 172.49 162.219L171.788 162.003C171.788 161.375 171.9 160.837 172.124 160.389C172.352 159.937 172.67 159.591 173.078 159.351C173.49 159.107 173.974 158.985 174.53 158.985C174.95 158.985 175.308 159.051 175.604 159.183C175.9 159.315 176.146 159.491 176.342 159.711C176.538 159.927 176.692 160.171 176.804 160.443C176.916 160.711 176.994 160.985 177.038 161.265C177.086 161.541 177.11 161.803 177.11 162.051V165.633H176.03ZM171.41 165.633V159.153H172.37V160.887H172.49V165.633H171.41ZM182.288 165.633C181.904 165.709 181.524 165.739 181.148 165.723C180.776 165.711 180.444 165.637 180.152 165.501C179.86 165.361 179.638 165.145 179.486 164.853C179.358 164.597 179.288 164.339 179.276 164.079C179.268 163.815 179.264 163.517 179.264 163.185V157.353H180.332V163.137C180.332 163.401 180.334 163.627 180.338 163.815C180.346 164.003 180.388 164.165 180.464 164.301C180.608 164.557 180.836 164.707 181.148 164.751C181.464 164.795 181.844 164.783 182.288 164.715V165.633ZM177.95 160.035V159.153H182.288V160.035H177.95ZM186.052 165.807C185.28 165.807 184.646 165.639 184.15 165.303C183.658 164.963 183.356 164.489 183.244 163.881L184.336 163.707C184.424 164.059 184.626 164.339 184.942 164.547C185.258 164.751 185.65 164.853 186.118 164.853C186.562 164.853 186.91 164.761 187.162 164.577C187.414 164.393 187.54 164.143 187.54 163.827C187.54 163.643 187.498 163.495 187.414 163.383C187.33 163.267 187.156 163.159 186.892 163.059C186.632 162.959 186.238 162.839 185.71 162.699C185.138 162.547 184.688 162.389 184.36 162.225C184.032 162.061 183.798 161.871 183.658 161.655C183.518 161.439 183.448 161.177 183.448 160.869C183.448 160.489 183.552 160.157 183.76 159.873C183.968 159.585 184.258 159.363 184.63 159.207C185.006 159.051 185.442 158.973 185.938 158.973C186.43 158.973 186.87 159.051 187.258 159.207C187.646 159.363 187.958 159.585 188.194 159.873C188.434 160.157 188.576 160.489 188.62 160.869L187.528 161.067C187.476 160.719 187.308 160.445 187.024 160.245C186.744 160.045 186.382 159.939 185.938 159.927C185.518 159.911 185.176 159.985 184.912 160.149C184.652 160.313 184.522 160.535 184.522 160.815C184.522 160.971 184.57 161.105 184.666 161.217C184.766 161.329 184.948 161.435 185.212 161.535C185.48 161.635 185.868 161.749 186.376 161.877C186.948 162.021 187.398 162.179 187.726 162.351C188.058 162.519 188.294 162.719 188.434 162.951C188.574 163.179 188.644 163.461 188.644 163.797C188.644 164.421 188.414 164.913 187.954 165.273C187.494 165.629 186.86 165.807 186.052 165.807ZM194.211 165.813C193.727 165.813 193.321 165.725 192.993 165.549C192.669 165.369 192.423 165.133 192.255 164.841C192.091 164.549 192.009 164.229 192.009 163.881C192.009 163.541 192.073 163.247 192.201 162.999C192.333 162.747 192.517 162.539 192.753 162.375C192.989 162.207 193.271 162.075 193.599 161.979C193.907 161.895 194.251 161.823 194.631 161.763C195.015 161.699 195.403 161.641 195.795 161.589C196.187 161.537 196.553 161.487 196.893 161.439L196.509 161.661C196.521 161.085 196.405 160.659 196.161 160.383C195.921 160.107 195.505 159.969 194.913 159.969C194.521 159.969 194.177 160.059 193.881 160.239C193.589 160.415 193.383 160.703 193.263 161.103L192.249 160.797C192.405 160.229 192.707 159.783 193.155 159.459C193.603 159.135 194.193 158.973 194.925 158.973C195.513 158.973 196.017 159.079 196.437 159.291C196.861 159.499 197.165 159.815 197.349 160.239C197.441 160.439 197.499 160.657 197.523 160.893C197.547 161.125 197.559 161.369 197.559 161.625V165.633H196.611V164.079L196.833 164.223C196.589 164.747 196.247 165.143 195.807 165.411C195.371 165.679 194.839 165.813 194.211 165.813ZM194.373 164.919C194.757 164.919 195.089 164.851 195.369 164.715C195.653 164.575 195.881 164.393 196.053 164.169C196.225 163.941 196.337 163.693 196.389 163.425C196.449 163.225 196.481 163.003 196.485 162.759C196.493 162.511 196.497 162.321 196.497 162.189L196.869 162.351C196.521 162.399 196.179 162.445 195.843 162.489C195.507 162.533 195.189 162.581 194.889 162.633C194.589 162.681 194.319 162.739 194.079 162.807C193.903 162.863 193.737 162.935 193.581 163.023C193.429 163.111 193.305 163.225 193.209 163.365C193.117 163.501 193.071 163.671 193.071 163.875C193.071 164.051 193.115 164.219 193.203 164.379C193.295 164.539 193.435 164.669 193.623 164.769C193.815 164.869 194.065 164.919 194.373 164.919ZM201.663 165.813C201.059 165.813 200.541 165.663 200.109 165.363C199.677 165.059 199.343 164.649 199.107 164.133C198.875 163.617 198.759 163.035 198.759 162.387C198.759 161.739 198.875 161.157 199.107 160.641C199.343 160.125 199.677 159.719 200.109 159.423C200.541 159.123 201.057 158.973 201.657 158.973C202.269 158.973 202.783 159.121 203.199 159.417C203.615 159.713 203.929 160.119 204.141 160.635C204.357 161.151 204.465 161.735 204.465 162.387C204.465 163.031 204.357 163.613 204.141 164.133C203.929 164.649 203.615 165.059 203.199 165.363C202.783 165.663 202.271 165.813 201.663 165.813ZM201.795 164.835C202.231 164.835 202.589 164.731 202.869 164.523C203.149 164.311 203.355 164.021 203.487 163.653C203.623 163.281 203.691 162.859 203.691 162.387C203.691 161.907 203.623 161.485 203.487 161.121C203.355 160.753 203.151 160.467 202.875 160.263C202.599 160.055 202.249 159.951 201.825 159.951C201.385 159.951 201.021 160.059 200.733 160.275C200.449 160.491 200.237 160.783 200.097 161.151C199.961 161.519 199.893 161.931 199.893 162.387C199.893 162.847 199.963 163.263 200.103 163.635C200.243 164.003 200.453 164.295 200.733 164.511C201.017 164.727 201.371 164.835 201.795 164.835ZM203.691 165.633V160.863H203.571V156.993H204.645V165.633H203.691ZM208.87 165.813C208.266 165.813 207.748 165.663 207.316 165.363C206.884 165.059 206.55 164.649 206.314 164.133C206.082 163.617 205.966 163.035 205.966 162.387C205.966 161.739 206.082 161.157 206.314 160.641C206.55 160.125 206.884 159.719 207.316 159.423C207.748 159.123 208.264 158.973 208.864 158.973C209.476 158.973 209.99 159.121 210.406 159.417C210.822 159.713 211.136 160.119 211.348 160.635C211.564 161.151 211.672 161.735 211.672 162.387C211.672 163.031 211.564 163.613 211.348 164.133C211.136 164.649 210.822 165.059 210.406 165.363C209.99 165.663 209.478 165.813 208.87 165.813ZM209.002 164.835C209.438 164.835 209.796 164.731 210.076 164.523C210.356 164.311 210.562 164.021 210.694 163.653C210.83 163.281 210.898 162.859 210.898 162.387C210.898 161.907 210.83 161.485 210.694 161.121C210.562 160.753 210.358 160.467 210.082 160.263C209.806 160.055 209.456 159.951 209.032 159.951C208.592 159.951 208.228 160.059 207.94 160.275C207.656 160.491 207.444 160.783 207.304 161.151C207.168 161.519 207.1 161.931 207.1 162.387C207.1 162.847 207.17 163.263 207.31 163.635C207.45 164.003 207.66 164.295 207.94 164.511C208.224 164.727 208.578 164.835 209.002 164.835ZM210.898 165.633V160.863H210.778V156.993H211.852V165.633H210.898ZM216.341 165.813C215.705 165.813 215.149 165.673 214.673 165.393C214.201 165.109 213.833 164.715 213.569 164.211C213.305 163.703 213.173 163.111 213.173 162.435C213.173 161.727 213.303 161.115 213.563 160.599C213.823 160.079 214.185 159.679 214.649 159.399C215.117 159.115 215.665 158.973 216.293 158.973C216.945 158.973 217.499 159.123 217.955 159.423C218.415 159.723 218.759 160.151 218.987 160.707C219.219 161.263 219.319 161.925 219.287 162.693H218.207V162.309C218.195 161.513 218.033 160.919 217.721 160.527C217.409 160.131 216.945 159.933 216.329 159.933C215.669 159.933 215.167 160.145 214.823 160.569C214.479 160.993 214.307 161.601 214.307 162.393C214.307 163.157 214.479 163.749 214.823 164.169C215.167 164.589 215.657 164.799 216.293 164.799C216.721 164.799 217.093 164.701 217.409 164.505C217.725 164.309 217.973 164.027 218.153 163.659L219.179 164.013C218.927 164.585 218.547 165.029 218.039 165.345C217.535 165.657 216.969 165.813 216.341 165.813ZM213.947 162.693V161.835H218.735V162.693H213.947ZM223.167 165.813C222.563 165.813 222.045 165.663 221.613 165.363C221.181 165.059 220.847 164.649 220.611 164.133C220.379 163.617 220.263 163.035 220.263 162.387C220.263 161.739 220.379 161.157 220.611 160.641C220.847 160.125 221.181 159.719 221.613 159.423C222.045 159.123 222.561 158.973 223.161 158.973C223.773 158.973 224.287 159.121 224.703 159.417C225.119 159.713 225.433 160.119 225.645 160.635C225.861 161.151 225.969 161.735 225.969 162.387C225.969 163.031 225.861 163.613 225.645 164.133C225.433 164.649 225.119 165.059 224.703 165.363C224.287 165.663 223.775 165.813 223.167 165.813ZM223.299 164.835C223.735 164.835 224.093 164.731 224.373 164.523C224.653 164.311 224.859 164.021 224.991 163.653C225.127 163.281 225.195 162.859 225.195 162.387C225.195 161.907 225.127 161.485 224.991 161.121C224.859 160.753 224.655 160.467 224.379 160.263C224.103 160.055 223.753 159.951 223.329 159.951C222.889 159.951 222.525 160.059 222.237 160.275C221.953 160.491 221.741 160.783 221.601 161.151C221.465 161.519 221.397 161.931 221.397 162.387C221.397 162.847 221.467 163.263 221.607 163.635C221.747 164.003 221.957 164.295 222.237 164.511C222.521 164.727 222.875 164.835 223.299 164.835ZM225.195 165.633V160.863H225.075V156.993H226.149V165.633H225.195ZM228.022 165.633V164.457H229.198V165.633H228.022Z" fill="#929AB3"/>
</svg>
