<svg width="20" height="24" viewBox="0 0 20 24" fill="none" xmlns="http://www.w3.org/2000/svg">
<path d="M19.0073 16.003C17.5556 14.8318 16.7228 13.1184 16.7228 11.3046V8.75C16.7228 5.52432 14.2122 2.85388 10.9609 2.40707V1.41711C10.9609 0.909882 10.5301 0.5 10.0001 0.5C9.47015 0.5 9.03934 0.909882 9.03934 1.41711V2.40707C5.78666 2.85388 3.27744 5.52432 3.27744 8.75V11.306C3.27744 13.1197 2.44466 14.8318 0.98414 16.0114C0.611008 16.3165 0.396484 16.7607 0.396484 17.2296C0.396484 18.1138 1.14978 18.8342 2.07751 18.8342H17.9227C18.8491 18.8342 19.6038 18.1152 19.6038 17.2296C19.6038 16.7607 19.3892 16.3165 19.0073 16.003Z" fill="white"/>
<path d="M9.9998 23.5C11.7385 23.5 13.1934 22.3174 13.5275 20.75H6.4707C6.8062 22.3174 8.2611 23.5 9.9998 23.5Z" fill="white"/>
</svg>
