<svg xmlns="http://www.w3.org/2000/svg" width="50" height="50" viewBox="0 0 50 50">
    <g fill="none" fill-rule="evenodd">
        <g fill-rule="nonzero">
            <g>
                <g>
                    <path fill="#E3F8FB" d="M40.625 50H9.375C4.197 50 0 45.803 0 40.625V9.375C0 4.197 4.197 0 9.375 0h31.25C45.803 0 50 4.197 50 9.375v31.25C50 45.803 45.803 50 40.625 50z" transform="translate(-233 -9552) translate(0 6947) translate(233 2605)"/>
                    <g fill="#27C6DA">
                        <g>
                            <path d="M14.084 18.337c.136-.118.316-.147.477-.079.16.07.278.224.308.412l.591 3.595c.023.143-.005.29-.08.41-.074.118-.188.2-.316.225l-5.41 1.091c-.028.006-.057.009-.087.009-.03 0-.059-.003-.087-.009l-5.41-1.09c-.129-.027-.242-.108-.317-.226-.074-.12-.103-.267-.08-.41l.592-3.595c.03-.188.147-.343.308-.411.162-.07.342-.039.477.078l4.517 3.883zm1.704-12.86c.42.989.664 2.087.664 3.25l-.001-.006c0 1.703.819 5.382 1.72 6.584l.104.127c.192.214.192.559.001.772-1.087 1.207-4.788 1.736-5.206 1.793l-.06.003h-.002c-.977 1.04-2.172 1.636-3.44 1.636-1.27 0-2.465-.596-3.443-1.635-.02-.001-.04-.002-.06-.005-.418-.057-4.12-.586-5.206-1.793-.192-.212-.192-.558 0-.771.941-1.043 1.823-4.943 1.823-6.705v-.006c.001-1.16.244-2.257.664-3.244l.348 1.935c.137.762.746 1.315 1.447 1.315h1.027c-.894 1.057-1.959 1.677-2.42 1.914-.054.251-.082.528-.082.814 0 1.056.37 1.636.492 1.636.134-.093.314-.12.46-.056.146.067.27.192.308.362.687 3.08 2.553 5.148 4.641 5.148s3.954-2.068 4.641-5.148c.038-.17.147-.308.293-.374.147-.065.312-.049.445.044.173.037.522-.553.522-1.612 0-.235-.019-.463-.056-.677-1.892-.106-3.818-.984-5.387-2.05h3.968c.701 0 1.31-.554 1.446-1.316zM4.528 3.695c.27-.06.527.133.579.428l.516 2.861c.053.296-.119.583-.385.641-.033.008-.065.011-.097.011-.23 0-.436-.179-.482-.438l-.516-2.86c-.053-.296.12-.584.385-.643zm9.986-.011l.09.01c.266.06.438.347.385.642l-.514 2.862c-.046.26-.252.438-.482.438-.033 0-.064-.003-.097-.01-.267-.06-.44-.346-.386-.642l.515-2.861c.054-.296.307-.49.579-.428z" transform="translate(-233 -9552) translate(0 6947) translate(233 2605) translate(16 13)"/>
                            <path d="M15.163 1.132C15.061 1.085 12.641 0 9.567 0 6.494 0 4.073 1.085 3.971 1.132c-.218.1-.342.356-.295.612L4.659 7.2c.046.254.248.437.482.437h8.852c.234 0 .436-.183.482-.438l.983-5.455c.047-.256-.077-.512-.295-.61zm-3.84 3.755h-.855v.947c0 .522-.382.947-.853.947-.472 0-.854-.425-.854-.947v-.947h-.854c-.471 0-.854-.425-.854-.947 0-.523.383-.947.854-.947h.854v-.947c0-.523.383-.947.854-.947s.854.424.854.947v.947h.853c.471 0 .854.424.854.947 0 .522-.383.947-.854.947z" transform="translate(-233 -9552) translate(0 6947) translate(233 2605) translate(16 13)"/>
                        </g>
                    </g>
                </g>
            </g>
        </g>
    </g>
</svg>
