<svg width="18" height="18" viewBox="0 0 18 18" fill="none" xmlns="http://www.w3.org/2000/svg">
<path fill-rule="evenodd" clip-rule="evenodd" d="M1 9C1 13.4166 4.58139 17 9.00315 17C13.4209 17 17.0033 13.4176 17.0033 9C17.0033 4.58243 13.4219 1 9.00315 1C4.58239 1 1 4.58344 1 9Z" fill="#FF0083" fill-opacity="0.1" stroke="#FF0040"/>
<path d="M9.31547 4.34371C9.12021 4.14845 8.80362 4.14845 8.60836 4.34371L5.42638 7.52569C5.23112 7.72096 5.23112 8.03754 5.42638 8.2328C5.62164 8.42806 5.93822 8.42806 6.13349 8.2328L8.96191 5.40437L11.7903 8.2328C11.9856 8.42806 12.3022 8.42806 12.4974 8.2328C12.6927 8.03754 12.6927 7.72095 12.4974 7.52569L9.31547 4.34371ZM8.46191 4.69727L8.46191 13.6973L9.46191 13.6973L9.46191 4.69727L8.46191 4.69727Z" fill="#FF0040"/>
</svg>
