<?xml version="1.0" encoding="UTF-8"?>
<svg width="34px" height="34px" viewBox="0 0 34 34" version="1.1" xmlns="http://www.w3.org/2000/svg" xmlns:xlink="http://www.w3.org/1999/xlink">
    <!-- Generator: Sketch 60 (88103) - https://sketch.com -->
    <title>Pagination - Back Previous@1x</title>
    <desc>Created with Sketch.</desc>
    <g id="Page-1" stroke="none" stroke-width="1" fill="none" fill-rule="evenodd">
        <g id="Web-Styleguide" transform="translate(-338.000000, -9486.000000)">
            <g id="Icons" transform="translate(0.000000, 6947.000000)">
                <g id="Pagination---Back-Previous" transform="translate(338.000000, 2539.000000)">
                    <path d="M5.1277704,0.5 C3.5776195,0.5 2.94057806,0.623018378 2.28210802,0.975172007 C1.71739041,1.27718629 1.27718629,1.71739041 0.975172007,2.28210802 C0.623018378,2.94057806 0.5,3.5776195 0.5,5.1277704 L0.5,28.8722296 C0.5,30.4223805 0.623018378,31.0594219 0.975172007,31.717892 C1.27718629,32.2826096 1.71739041,32.7228137 2.28210802,33.024828 C2.94057806,33.3769816 3.5776195,33.5 5.1277704,33.5 L28.8722296,33.5 C30.4223805,33.5 31.0594219,33.3769816 31.717892,33.024828 C32.2826096,32.7228137 32.7228137,32.2826096 33.024828,31.717892 C33.3769816,31.0594219 33.5,30.4223805 33.5,28.8722296 L33.5,5.1277704 C33.5,3.5776195 33.3769816,2.94057806 33.024828,2.28210802 C32.7228137,1.71739041 32.2826096,1.27718629 31.717892,0.975172007 C31.0594219,0.623018378 30.4223805,0.5 28.8722296,0.5 L5.1277704,0.5 Z" id="Rectangle-13-Copy-12" stroke="#D4D3E2" fill="#FFFFFF"></path>
                    <polyline id="Path" stroke="#050D33" stroke-width="1.5" stroke-linecap="round" transform="translate(16.785714, 17.214286) scale(-1, 1) translate(-16.785714, -17.214286) " points="14.7857143 13.2142857 18.7857143 17.2142857 14.7857143 21.2142857"></polyline>
                </g>
            </g>
        </g>
    </g>
</svg>