<svg xmlns="http://www.w3.org/2000/svg" width="34" height="34" viewBox="0 0 34 34">
    <g fill="none" fill-rule="evenodd">
        <g>
            <g>
                <g>
                    <g>
                        <g>
                            <g>
                                <g>
                                    <path fill="#FFF" stroke="#D4D3E2" d="M5.128.5C3.578.5 2.94.623 2.282.975c-.565.302-1.005.742-1.307 1.307C.623 2.941.5 3.578.5 5.128v23.744c0 1.55.123 2.187.475 2.846.302.565.742 1.005 1.307 1.307.659.352 1.296.475 2.846.475h23.744c1.55 0 2.187-.123 2.846-.475.565-.302 1.005-.742 1.307-1.307.352-.659.475-1.296.475-2.846V5.128c0-1.55-.123-2.187-.475-2.846-.302-.565-.742-1.005-1.307-1.307C31.059.623 30.422.5 28.872.5H5.128z" transform="translate(-200 -6545) translate(40 6313) translate(0 138) translate(0 94) translate(160) matrix(-1 0 0 1 34 0)"/>
                                    <g stroke="#050D33" stroke-linecap="round" stroke-width="1.5">
                                        <path d="M0 0L4 4 0 8" transform="translate(-200 -6545) translate(40 6313) translate(0 138) translate(0 94) translate(160) translate(13 13)"/>
                                        <path stroke-linejoin="round" d="M7 0L7 8" transform="translate(-200 -6545) translate(40 6313) translate(0 138) translate(0 94) translate(160) translate(13 13) matrix(-1 0 0 1 14 0)"/>
                                    </g>
                                </g>
                            </g>
                        </g>
                    </g>
                </g>
            </g>
        </g>
    </g>
</svg>
