<svg xmlns="http://www.w3.org/2000/svg" xmlns:xlink="http://www.w3.org/1999/xlink" width="24" height="24" viewBox="0 0 24 24">
    <defs>
        <linearGradient id="fnusmvdxub" x1="0%" x2="100%" y1="0%" y2="100%">
            <stop offset="0%" stop-color="#FD3DA1"/>
            <stop offset="100%" stop-color="#FD207A"/>
        </linearGradient>
        <rect id="clcpbv8tba" width="24" height="24" x="0" y="0" rx="4.444"/>
    </defs>
    <g fill="none" fill-rule="evenodd">
        <g>
            <g>
                <g transform="translate(-198 -7752) translate(0 7554) translate(198 198)">
                    <mask id="ah8ibbbf8c" fill="#fff">
                        <use xlink:href="#clcpbv8tba"/>
                    </mask>
                    <use fill="url(#fnusmvdxub)" xlink:href="#clcpbv8tba"/>
                    <g mask="url(#ah8ibbbf8c)">
                        <g fill="#FFF" fill-rule="nonzero">
                            <g>
                                <path d="M2.037 7.13h-.204v.407h.204c.114 0 .203-.09.203-.203 0-.115-.089-.204-.203-.204zM4.176 7.13H3.87v1.222h.306c.057 0 .102-.045.102-.102V7.231c0-.057-.045-.101-.102-.101z" transform="translate(6.222 7.111) translate(1.778)"/>
                                <path d="M5.704 4.481c-1.125 0-2.037-.912-2.037-2.037 0-.806.476-1.523 1.185-1.85.114-.22.253-.42.42-.594H1.12C.501 0 0 .501 0 1.12v7.537c0 .62.501 1.12 1.12 1.12h5.908c.619 0 1.12-.5 1.12-1.12V4.483H5.704zM2.037 8.148h-.204v.509c0 .167-.138.306-.305.306-.167 0-.306-.14-.306-.306V6.824c0-.167.139-.306.306-.306h.509c.448 0 .814.367.814.815.001.448-.366.815-.814.815zm2.852.102c0 .391-.322.713-.713.713h-.611c-.167 0-.306-.139-.306-.305V6.824c0-.167.139-.305.306-.305h.61c.392 0 .714.322.714.713V8.25zm1.731-.713c.169 0 .306.137.306.305 0 .17-.137.306-.306.306h-.713v.509c0 .169-.137.306-.306.306-.168 0-.305-.137-.305-.306V7.231c0-.393.32-.713.713-.713h.611c.169 0 .306.137.306.306 0 .168-.137.305-.306.305h-.61c-.057 0-.103.046-.103.102v.306h.713z" transform="translate(6.222 7.111) translate(1.778)"/>
                            </g>
                            <path fill-opacity=".7" d="M10.13 3.667H7.482c-.674 0-1.222-.548-1.222-1.223 0-.594.425-1.09.987-1.2C7.46.522 8.134 0 8.907 0c.611 0 1.176.325 1.485.84.665.122 1.164.706 1.164 1.4 0 .787-.64 1.427-1.426 1.427z" transform="translate(6.222 7.111)"/>
                        </g>
                    </g>
                </g>
            </g>
        </g>
    </g>
</svg>
