<?xml version="1.0" encoding="UTF-8"?>
<svg width="33px" height="36px" viewBox="0 0 33 36" version="1.1" xmlns="http://www.w3.org/2000/svg" xmlns:xlink="http://www.w3.org/1999/xlink">
    <!-- Generator: sketchtool 60 (101010) - https://sketch.com -->
    <title>0CCBC5CB-038A-419B-94BD-A1A8D8340AF9@1x</title>
    <desc>Created with sketchtool.</desc>
    <g id="Page-1" stroke="none" stroke-width="1" fill="none" fill-rule="evenodd">
        <g id="7.5---Employee-details-payment-info-Copy" transform="translate(-1155.000000, -82.000000)" fill="#434966" fill-rule="nonzero">
            <g id="Popup-Copy-3" transform="translate(181.000000, 62.000000)">
                <g id="Popup-Copy">
                    <g id="file-(1)" transform="translate(974.000000, 20.000000)">
                        <path d="M24.5352172,15.5841064 L24.5352172,8.77120973 C24.5352172,8.57620237 24.4451294,8.39602659 24.317688,8.25347897 L16.6794434,0.232635516 C16.5368957,0.0826721016 16.334198,0 16.1317749,0 L4.02154537,0 C1.78582767,0 0,1.82318119 0,4.0591736 L0,26.9588012 C0,29.1947937 1.78582767,30.9880371 4.02154537,30.9880371 L13.5807495,30.9880371 C15.3888244,33.9892273 18.6753845,36 22.4192505,36 C28.1065979,36 32.7510805,31.3780518 32.7510805,25.6832886 C32.7587586,20.7086792 29.1871033,16.552002 24.5352172,15.5841064 Z M16.8821411,2.63369749 L22.0067139,8.02825931 L18.6828003,8.02825931 C17.6923828,8.02825931 16.8821411,7.21060179 16.8821411,6.22018434 L16.8821411,2.63369749 Z M4.02154538,29.4873047 C2.61859134,29.4873047 1.50073242,28.3617554 1.50073242,26.9588012 L1.50073242,4.0591736 C1.50073242,2.64852907 2.61859134,1.50073242 4.02154538,1.50073242 L15.3814087,1.50073242 L15.3814087,6.22018434 C15.3814087,8.04336546 16.8596191,9.52899173 18.6828003,9.52899173 L23.0344848,9.52899173 L23.0344848,15.3888244 C22.8095398,15.3814087 22.629364,15.3588867 22.4343567,15.3588867 C19.8157654,15.3588867 17.4072876,16.3644104 15.5915222,17.9401245 L6.0625305,17.9401245 C5.6497192,17.9401245 5.31216429,18.2776795 5.31216429,18.690216 C5.31216429,19.1030273 5.6497192,19.4405823 6.0625305,19.4405823 L14.1959839,19.4405823 C13.6631469,20.1909485 13.220398,20.9413147 12.8754273,21.7666626 L6.0625305,21.7666626 C5.6497192,21.7666626 5.31216429,22.1042175 5.31216429,22.5170288 C5.31216429,22.9295654 5.6497192,23.267395 6.0625305,23.267395 L12.3876343,23.267395 C12.2000427,24.0177613 12.1025391,24.8505249 12.1025391,25.6832886 C12.1025391,27.033783 12.3651123,28.3694458 12.8377991,29.4949951 L4.02154538,29.4949951 L4.02154538,29.4873047 Z M22.426941,34.506958 C17.5649414,34.506958 13.6106873,30.5527039 13.6106873,25.6907043 C13.6106873,20.8287049 17.557251,16.8744507 22.426941,16.8744507 C27.2963562,16.8744507 31.2429199,20.8287049 31.2429199,25.6907043 C31.2429199,30.5527039 27.2889404,34.506958 22.426941,34.506958 Z" id="Shape"></path>
                        <path d="M6.0625305,15.6816101 L13.6631469,15.6816101 C14.0759582,15.6816101 14.4135132,15.3437805 14.4135132,14.9312439 C14.4135132,14.5184326 14.0759582,14.1808777 13.6631469,14.1808777 L6.0625305,14.1808777 C5.6497192,14.1808777 5.31216429,14.5184326 5.31216429,14.9312439 C5.31216429,15.3437805 5.6497192,15.6816101 6.0625305,15.6816101 Z" id="Path"></path>
                        <path d="M26.2683105,25.5330506 L23.1847229,28.8569641 L23.1847229,20.6636352 C23.1847229,20.250824 22.8468933,19.9132691 22.4343567,19.9132691 C22.0215454,19.9132691 21.6839905,20.250824 21.6839905,20.6636352 L21.6839905,28.8569641 L18.5776062,25.5330506 C18.292511,25.2331238 17.8124084,25.2106018 17.512207,25.495697 C17.2120056,25.7807922 17.1894836,26.253479 17.4748535,26.5536804 L21.8641662,31.2731324 C22.0067139,31.4230957 22.2017212,31.5131836 22.4118347,31.5131836 C22.6219482,31.5131836 22.8169555,31.4230957 22.9595032,31.2731324 L27.3565063,26.5536804 C27.6416016,26.253479 27.6264953,25.7733765 27.3262939,25.495697 C27.0186768,25.2106018 26.5536804,25.2331238 26.2683105,25.5330506 Z" id="Path"></path>
                    </g>
                </g>
            </g>
        </g>
    </g>
</svg>