<svg xmlns="http://www.w3.org/2000/svg" width="50" height="50" viewBox="0 0 50 50">
    <g fill="none" fill-rule="evenodd">
        <g fill-rule="nonzero">
            <g>
                <g>
                    <path fill="#E3F8FB" d="M40.625 50H9.375C4.197 50 0 45.803 0 40.625V9.375C0 4.197 4.197 0 9.375 0h31.25C45.803 0 50 4.197 50 9.375v31.25C50 45.803 45.803 50 40.625 50z" transform="translate(-209 -8165) translate(0 6947) translate(209 1218)"/>
                    <g>
                        <path fill="#27C6DA" d="M5.2 4.688h8.35l1.802-1.443c.614-.489.842-1.284.582-2.026C15.677.479 15.002 0 14.22 0H4.53c-.783 0-1.458.48-1.717 1.22-.26.74-.031 1.536.583 2.025L5.2 4.687z" transform="translate(-209 -8165) translate(0 6947) translate(209 1218) translate(12.5 12.5)"/>
                        <path fill="#8CE1EB" d="M23.178 17.708h-.26v-1.563c0-1.436-1.168-2.604-2.605-2.604-1.438 0-2.605 1.168-2.605 2.604v1.563h-.261c-1.003 0-1.822.819-1.822 1.823v3.646c0 1.006.819 1.823 1.823 1.823h5.73C24.183 25 25 24.183 25 23.177V19.53c0-1.004-.817-1.823-1.822-1.823zm-3.906-1.563c0-.575.467-1.042 1.042-1.042s1.042.467 1.042 1.042v1.563h-2.083v-1.563h-.001z" transform="translate(-209 -8165) translate(0 6947) translate(209 1218) translate(12.5 12.5)"/>
                        <path fill="#27C6DA" d="M13.02 23.177V19.53c0-1.593.855-2.981 2.122-3.76.119-1.618.978-3.024 2.233-3.9-.914-2.162-2.21-4.174-3.683-5.621H5.058C2.213 9.044 0 13.942 0 17.969 0 21.469 1.852 25 5.99 25h7.032c.134 0 .262-.01.394-.019-.25-.553-.396-1.16-.396-1.804zm-4.04-8.333h.792c1.217 0 2.208.99 2.208 2.208 0 1.095-.79 1.995-1.824 2.18v.82c0 .43-.35.78-.781.78-.431 0-.781-.35-.781-.78v-.782H7.552c-.432 0-.782-.35-.782-.78 0-.432.35-.782.782-.782H9.77c.357 0 .646-.29.646-.645 0-.366-.291-.657-.646-.657h-.792c-1.217 0-2.208-.99-2.208-2.208 0-1.095.79-1.995 1.824-2.18v-.82c0-.43.35-.78.781-.78.431 0 .781.35.781.78v.782h1.042c.432 0 .782.35.782.78 0 .432-.35.782-.782.782H8.98c-.357 0-.646.29-.646.646-.001.365.29.656.646.656z" transform="translate(-209 -8165) translate(0 6947) translate(209 1218) translate(12.5 12.5)"/>
                    </g>
                </g>
            </g>
        </g>
    </g>
</svg>
