<svg width="20" height="21" viewBox="0 0 20 21" fill="none" xmlns="http://www.w3.org/2000/svg">
<path d="M17.4123 9.92876C17.3129 9.92876 17.2175 9.88925 17.1472 9.81892C17.0768 9.7486 17.0373 9.65321 17.0373 9.55376C17.0554 8.12007 16.5049 6.73758 15.5063 5.70874C14.5076 4.67989 13.1422 4.08843 11.7086 4.06376C11.6091 4.06376 11.5138 4.02425 11.4434 3.95392C11.3731 3.8836 11.3336 3.78821 11.3336 3.68876C11.3336 3.5893 11.3731 3.49392 11.4434 3.42359C11.5138 3.35327 11.6091 3.31376 11.7086 3.31376C13.3401 3.33649 14.8959 4.00544 16.0348 5.17385C17.1737 6.34227 17.8026 7.91473 17.7836 9.54626C17.7846 9.59582 17.7757 9.64508 17.7576 9.6912C17.7394 9.73732 17.7123 9.77938 17.6778 9.81495C17.6432 9.85052 17.602 9.8789 17.5564 9.89843C17.5109 9.91796 17.4619 9.92827 17.4123 9.92876ZM19.6248 17.8113C19.1461 18.7694 18.467 19.6135 17.6336 20.2863C17.3361 20.522 16.9926 20.6928 16.6251 20.7878C16.2576 20.8827 15.8743 20.8997 15.4998 20.8375C12.0986 20.26 8.74984 18.7675 5.40859 15.4825C2.21734 12.0588 0.721091 8.56376 0.158591 5.07251C0.0963363 4.68897 0.111723 4.29685 0.203837 3.91937C0.295952 3.54189 0.462919 3.18675 0.694841 2.87501C1.34343 2.01728 2.17311 1.31307 3.12484 0.812508C3.21625 0.716525 3.32621 0.640109 3.44804 0.587895C3.56987 0.535682 3.70104 0.508759 3.83359 0.508759C3.96614 0.508759 4.09731 0.535682 4.21914 0.587895C4.34097 0.640109 4.45093 0.716525 4.54234 0.812508L7.84609 4.24376C8.04722 4.45963 8.15905 4.74371 8.15904 5.03876C8.15905 5.3338 8.04722 5.61788 7.84609 5.83376L5.50609 8.37251C6.49984 10.5513 10.1711 14.3313 12.2786 15.3513L14.7498 12.94C14.8512 12.8384 14.9716 12.7578 15.1042 12.7028C15.2367 12.6478 15.3788 12.6195 15.5223 12.6195C15.6659 12.6195 15.808 12.6478 15.9405 12.7028C16.0731 12.7578 16.1935 12.8384 16.2948 12.94L19.6323 16.315C19.7306 16.4135 19.8084 16.5304 19.8613 16.6591C19.9141 16.7877 19.941 16.9256 19.9403 17.0647C19.9396 17.2038 19.9113 17.3414 19.8572 17.4695C19.8031 17.5976 19.7241 17.7138 19.6248 17.8113Z" fill="#FF0083"/>
</svg>
