<svg width="26" height="26" viewBox="0 0 26 26" fill="none" xmlns="http://www.w3.org/2000/svg">
<path d="M0.5 4C0.5 2.067 2.067 0.5 4 0.5H22C23.933 0.5 25.5 2.067 25.5 4V22C25.5 23.933 23.933 25.5 22 25.5H4C2.067 25.5 0.5 23.933 0.5 22V4Z" fill="white"/>
<path d="M0.5 4C0.5 2.067 2.067 0.5 4 0.5H22C23.933 0.5 25.5 2.067 25.5 4V22C25.5 23.933 23.933 25.5 22 25.5H4C2.067 25.5 0.5 23.933 0.5 22V4Z" stroke="#E4E4E7"/>
<path d="M12.9613 16.645V13.971H10.2873V12.942H12.9613V10.275H13.9903V12.942H16.6573V13.971H13.9903V16.645H12.9613Z" fill="#020826"/>
</svg>
