<?xml version="1.0" encoding="UTF-8"?>
<svg width="32px" height="32px" viewBox="0 0 32 32" version="1.1" xmlns="http://www.w3.org/2000/svg" xmlns:xlink="http://www.w3.org/1999/xlink">
    <!-- Generator: sketchtool 60 (101010) - https://sketch.com -->
    <title>9A402B57-3B17-406F-BB19-F218AAC705BF@1x</title>
    <desc>Created with sketchtool.</desc>
    <g id="Page-1" stroke="none" stroke-width="1" fill="none" fill-rule="evenodd">
        <g id="iPad-success-snackbar" transform="translate(-326.000000, -704.000000)">
            <g id="Group-22" transform="translate(310.000000, 692.000000)">
                <g id="POPUP-SUCCESS" transform="translate(16.000000, 12.000000)">
                    <circle id="Oval" fill="#FFFFFF" cx="16" cy="16" r="16"></circle>
                    <path d="M11.0209732,15.5508318 C10.7020922,15.2526762 10.2035747,15.2712944 9.90748966,15.5923524 C9.61140462,15.9134633 9.62989352,16.4154669 9.94872201,16.7136224 L11.0209732,15.5508318 Z M14.1616176,19.5702453 L13.625492,20.1516407 C13.931977,20.4382127 14.4074359,20.4337168 14.7085108,20.1413795 L14.1616176,19.5702453 Z M22.0620508,13.0008801 C22.3752591,12.6966948 22.384346,12.1944268 22.0823256,11.8790283 C21.7802527,11.5636298 21.2814725,11.5544793 20.9682643,11.8586117 L22.0620508,13.0008801 Z M9.94872201,16.7136224 L13.625492,20.1516407 L14.6977432,18.98885 L11.0209732,15.5508318 L9.94872201,16.7136224 Z M14.7085108,20.1413795 L22.0620508,13.0008801 L20.9682643,11.8586117 L13.6147243,18.9991112 L14.7085108,20.1413795 Z" id="Shape" fill="#00D498" fill-rule="nonzero"></path>
                </g>
            </g>
        </g>
    </g>
</svg>