<svg width="17" height="16" viewBox="0 0 17 16" fill="none" xmlns="http://www.w3.org/2000/svg">
<path d="M8.00315 15.5C3.85749 15.5 0.5 12.1404 0.5 8C0.5 3.85967 3.85845 0.5 8.00315 0.5C12.1457 0.5 15.5033 3.85854 15.5033 8C15.5033 12.1414 12.1448 15.5 8.00315 15.5Z" fill="#FFE3F2" stroke="#FF0083"/>
<path d="M7.4631 13V11.7269H8.61993V13H7.4631ZM7.4631 4.27856V3H8.61993V4.27856H7.4631ZM8.09963 12.0805C7.54613 12.0805 7.05166 11.9826 6.61624 11.7867C6.18081 11.5909 5.82288 11.3134 5.54244 10.9543C5.26568 10.5916 5.08487 10.1636 5 9.67029L6.14576 9.49075C6.25646 9.95502 6.49262 10.325 6.85424 10.6007C7.21587 10.8727 7.64945 11.0087 8.15498 11.0087C8.65683 11.0087 9.06458 10.8908 9.37823 10.6551C9.69557 10.4193 9.85424 10.1182 9.85424 9.7519C9.85424 9.49075 9.77306 9.27856 9.6107 9.11534C9.45203 8.95212 9.19188 8.81429 8.83026 8.70185L6.95941 8.13602C5.8524 7.79869 5.29889 7.14581 5.29889 6.17737C5.29889 5.72035 5.40959 5.32318 5.631 4.98585C5.85609 4.64853 6.17159 4.38738 6.57749 4.20239C6.98339 4.01741 7.45756 3.92492 8 3.92492C8.5203 3.93217 8.98155 4.02648 9.38376 4.20783C9.78967 4.38919 10.1255 4.65034 10.3911 4.9913C10.6605 5.33225 10.8469 5.74211 10.9502 6.22089L9.77122 6.42764C9.71956 6.14835 9.6107 5.9017 9.44465 5.6877C9.28229 5.4737 9.07565 5.30685 8.82472 5.18716C8.57749 5.06746 8.29889 5.0058 7.98893 5.00218C7.69742 4.99492 7.43542 5.04026 7.20295 5.13819C6.97417 5.2325 6.79151 5.3667 6.65498 5.54081C6.52214 5.71128 6.45572 5.90533 6.45572 6.12296C6.45572 6.36235 6.54982 6.56547 6.73801 6.73232C6.9262 6.89917 7.22325 7.04244 7.62915 7.16213L9.09594 7.58107C9.76753 7.77693 10.2528 8.0399 10.5517 8.36997C10.8506 8.70004 11 9.13892 11 9.68662C11 10.1654 10.8782 10.5843 10.6347 10.9434C10.3948 11.2989 10.0572 11.5782 9.62177 11.7813C9.18635 11.9808 8.67897 12.0805 8.09963 12.0805Z" fill="#FF0083"/>
</svg>
