<?xml version="1.0" encoding="UTF-8"?>
<svg width="7px" height="11px" viewBox="0 0 7 11" version="1.1" xmlns="http://www.w3.org/2000/svg" xmlns:xlink="http://www.w3.org/1999/xlink">
    <!-- Generator: sketchtool 60 (101010) - https://sketch.com -->
    <title>F679C0B8-95D0-43B5-97F7-B8861B3279BE</title>
    <desc>Created with sketchtool.</desc>
    <g id="Page-1" stroke="none" stroke-width="1" fill="none" fill-rule="evenodd">
        <g id="Employee-Schedule" transform="translate(-1384.000000, -96.000000)" fill="#A4B9D2">
            <g id="time-range-selector" transform="translate(1206.000000, 83.000000)">
                <g id="Right" transform="translate(180.000000, 18.000000) scale(-1, 1) translate(-180.000000, -18.000000) translate(162.000000, 0.000000)">
                    <path d="M15.7,15 C16.0865993,15 16.4,15.3189651 16.4,15.6967783 L16.4,20.599 L21.3032217,20.6 C21.6559734,20.6 21.947501,20.8610788 21.9936392,21.2044479 L22,21.3 C22,21.6865993 21.6810349,22 21.3032217,22 L15.714,21.999 L15.7,22 L15.624,21.994 L15.6022296,21.9936613 C15.2930496,21.951851 15.0483046,21.7077058 15.0063608,21.3955521 L15,21.3 L15,15.6967783 C15,15.3440266 15.2610788,15.052499 15.6044479,15.0063608 L15.7,15 Z" id="Arrow" transform="translate(18.500000, 18.500000) rotate(-315.000000) translate(-18.500000, -18.500000) "></path>
                </g>
            </g>
        </g>
    </g>
</svg>