<svg width="11" height="8" viewBox="0 0 11 8" fill="none" xmlns="http://www.w3.org/2000/svg">
<path fill-rule="evenodd" clip-rule="evenodd" d="M9.78739 0.256503C9.61149 0.244779 9.43545 0.31799 9.29748 0.460506C7.41753 2.3368 5.68922 4.20114 3.85928 6.05163L2.01807 3.82827C1.89268 3.6764 1.72072 3.59483 1.54034 3.60062C1.35997 3.6064 1.18586 3.69941 1.05609 3.85911C0.785826 4.1921 0.779143 4.71824 1.04069 5.03373L3.31251 7.7788C3.55451 8.071 3.94665 8.08394 4.22036 7.80769C6.26451 5.76719 8.12227 3.73892 10.1352 1.73031C10.3615 1.51285 10.4594 1.15298 10.3822 0.825604C10.305 0.498224 10.0681 0.271757 9.78739 0.256503Z" fill="white"/>
</svg>
