<svg xmlns="http://www.w3.org/2000/svg" width="50" height="50" viewBox="0 0 50 50">
    <g fill="none" fill-rule="evenodd">
        <g fill-rule="nonzero">
            <g>
                <g>
                    <path fill="#E3F8FB" d="M40.625 50H9.375C4.197 50 0 45.803 0 40.625V9.375C0 4.197 4.197 0 9.375 0h31.25C45.803 0 50 4.197 50 9.375v31.25C50 45.803 45.803 50 40.625 50z" transform="translate(-443 -9552) translate(0 6947) translate(443 2605)"/>
                    <g>
                        <path fill="#8CE1EB" d="M25.827 21.762l-.002-.001-.555-.49c.018-.149.028-.295.028-.438 0-.142-.01-.289-.028-.437l.557-.492c.184-.166.226-.43.101-.644l-.613-1.019c-.123-.21-.39-.31-.635-.237l-.721.219c-.245-.183-.509-.33-.786-.439l-.167-.711c-.055-.236-.277-.406-.528-.406H21.25c-.25 0-.472.17-.527.406l-.167.712c-.278.108-.541.255-.786.438l-.723-.218c-.243-.073-.51.026-.632.235l-.616 1.022c-.124.213-.082.476.104.644l.556.49c-.019.148-.029.295-.029.437 0 .143.01.29.03.437l-.558.492c-.184.167-.227.43-.102.644l.614 1.019c.123.21.389.31.634.237l.722-.219c.244.184.508.33.786.439l.167.711c.055.236.276.407.527.407h1.23c.25 0 .472-.17.527-.406l.167-.712c.277-.109.54-.255.786-.439l.722.219c.244.073.511-.027.633-.235l.616-1.023c.123-.211.08-.475-.103-.642zm-3.963.807c-.997 0-1.808-.778-1.808-1.736 0-.957.81-1.736 1.808-1.736.996 0 1.807.78 1.807 1.736 0 .958-.81 1.736-1.807 1.736z" transform="translate(-443 -9552) translate(0 6947) translate(443 2605) translate(12 13)"/>
                        <path fill="#FFF" d="M16.858 16.379c-.182.063-.335.196-.432.373l-1.124 2.065c-.096.177-.128.386-.09.586.1.577.335 1.118.683 1.572v.27c-.318.394-.542.866-.654 1.374H.521c-.152 0-.296-.07-.395-.193-.099-.123-.143-.285-.12-.446.272-2.306 1.219-4.462 2.704-6.158 1.758-1.872 4.269-2.784 7.47-2.724 3.392-.061 5.989.972 7.758 3.085-.367.01-.73.076-1.08.196z" transform="translate(-443 -9552) translate(0 6947) translate(443 2605) translate(12 13)"/>
                        <path fill="#26C6DA" d="M5.146 13.116C2.308 13.116 0 15.44 0 18.3v3.819c0 .446.369.818.813.818H15.43c.355-1.116.51-1.77.464-1.959-.31-.31-.535-.887-.677-1.732.557-1.178.905-2.194 1.585-2.83.204-.059.844-.23 1.135-.23.281-.83-2.397-2.946-4.17-3.07-.385-.046.896 0-8.622 0zm-1.6-7.659C3.545 2.45 5.974 0 8.961 0c2.986 0 5.416 2.447 5.416 5.456 0 3.008-2.43 5.457-5.416 5.457-2.987 0-5.417-2.447-5.417-5.456z" transform="translate(-443 -9552) translate(0 6947) translate(443 2605) translate(12 13)"/>
                    </g>
                </g>
            </g>
        </g>
    </g>
</svg>
