<svg width="40" height="40" viewBox="0 0 40 40" fill="none" xmlns="http://www.w3.org/2000/svg">
<rect x="0.5" y="0.5" width="39" height="39" rx="7.5" stroke="white"/>
<path d="M12.4997 29.5193C11.9444 29.5193 11.469 29.3216 11.0736 28.9262C10.6782 28.5308 10.4805 28.0554 10.4805 27.5001C10.4805 26.9449 10.6782 26.4695 11.0736 26.0741C11.469 25.6787 11.9444 25.481 12.4997 25.481C13.0549 25.481 13.5303 25.6787 13.9257 26.0741C14.3211 26.4695 14.5188 26.9449 14.5188 27.5001C14.5188 28.0554 14.3211 28.5308 13.9257 28.9262C13.5303 29.3216 13.0549 29.5193 12.4997 29.5193ZM19.9997 29.5193C19.4444 29.5193 18.969 29.3216 18.5736 28.9262C18.1782 28.5308 17.9805 28.0554 17.9805 27.5001C17.9805 26.9449 18.1782 26.4695 18.5736 26.0741C18.969 25.6787 19.4444 25.481 19.9997 25.481C20.5549 25.481 21.0303 25.6787 21.4257 26.0741C21.8211 26.4695 22.0188 26.9449 22.0188 27.5001C22.0188 28.0554 21.8211 28.5308 21.4257 28.9262C21.0303 29.3216 20.5549 29.5193 19.9997 29.5193ZM27.4997 29.5193C26.9444 29.5193 26.469 29.3216 26.0736 28.9262C25.6782 28.5308 25.4805 28.0554 25.4805 27.5001C25.4805 26.9449 25.6782 26.4695 26.0736 26.0741C26.469 25.6787 26.9444 25.481 27.4997 25.481C28.0549 25.481 28.5303 25.6787 28.9257 26.0741C29.3211 26.4695 29.5188 26.9449 29.5188 27.5001C29.5188 28.0554 29.3211 28.5308 28.9257 28.9262C28.5303 29.3216 28.0549 29.5193 27.4997 29.5193ZM12.4997 22.0193C11.9444 22.0193 11.469 21.8216 11.0736 21.4262C10.6782 21.0308 10.4805 20.5554 10.4805 20.0001C10.4805 19.4449 10.6782 18.9695 11.0736 18.5741C11.469 18.1787 11.9444 17.981 12.4997 17.981C13.0549 17.981 13.5303 18.1787 13.9257 18.5741C14.3211 18.9695 14.5188 19.4449 14.5188 20.0001C14.5188 20.5554 14.3211 21.0308 13.9257 21.4262C13.5303 21.8216 13.0549 22.0193 12.4997 22.0193ZM19.9997 22.0193C19.4444 22.0193 18.969 21.8216 18.5736 21.4262C18.1782 21.0308 17.9805 20.5554 17.9805 20.0001C17.9805 19.4449 18.1782 18.9695 18.5736 18.5741C18.969 18.1787 19.4444 17.981 19.9997 17.981C20.5549 17.981 21.0303 18.1787 21.4257 18.5741C21.8211 18.9695 22.0188 19.4449 22.0188 20.0001C22.0188 20.5554 21.8211 21.0308 21.4257 21.4262C21.0303 21.8216 20.5549 22.0193 19.9997 22.0193ZM27.4997 22.0193C26.9444 22.0193 26.469 21.8216 26.0736 21.4262C25.6782 21.0308 25.4805 20.5554 25.4805 20.0001C25.4805 19.4449 25.6782 18.9695 26.0736 18.5741C26.469 18.1787 26.9444 17.981 27.4997 17.981C28.0549 17.981 28.5303 18.1787 28.9257 18.5741C29.3211 18.9695 29.5188 19.4449 29.5188 20.0001C29.5188 20.5554 29.3211 21.0308 28.9257 21.4262C28.5303 21.8216 28.0549 22.0193 27.4997 22.0193ZM12.4997 14.5193C11.9444 14.5193 11.469 14.3216 11.0736 13.9262C10.6782 13.5308 10.4805 13.0554 10.4805 12.5001C10.4805 11.9449 10.6782 11.4695 11.0736 11.0741C11.469 10.6787 11.9444 10.481 12.4997 10.481C13.0549 10.481 13.5303 10.6787 13.9257 11.0741C14.3211 11.4695 14.5188 11.9449 14.5188 12.5001C14.5188 13.0554 14.3211 13.5308 13.9257 13.9262C13.5303 14.3216 13.0549 14.5193 12.4997 14.5193ZM19.9997 14.5193C19.4444 14.5193 18.969 14.3216 18.5736 13.9262C18.1782 13.5308 17.9805 13.0554 17.9805 12.5001C17.9805 11.9449 18.1782 11.4695 18.5736 11.0741C18.969 10.6787 19.4444 10.481 19.9997 10.481C20.5549 10.481 21.0303 10.6787 21.4257 11.0741C21.8211 11.4695 22.0188 11.9449 22.0188 12.5001C22.0188 13.0554 21.8211 13.5308 21.4257 13.9262C21.0303 14.3216 20.5549 14.5193 19.9997 14.5193ZM27.4997 14.5193C26.9444 14.5193 26.469 14.3216 26.0736 13.9262C25.6782 13.5308 25.4805 13.0554 25.4805 12.5001C25.4805 11.9449 25.6782 11.4695 26.0736 11.0741C26.469 10.6787 26.9444 10.481 27.4997 10.481C28.0549 10.481 28.5303 10.6787 28.9257 11.0741C29.3211 11.4695 29.5188 11.9449 29.5188 12.5001C29.5188 13.0554 29.3211 13.5308 28.9257 13.9262C28.5303 14.3216 28.0549 14.5193 27.4997 14.5193Z" fill="white"/>
</svg>
