<svg xmlns="http://www.w3.org/2000/svg" width="7" height="10" viewBox="0 0 7 10">
    <g fill="none" fill-rule="evenodd">
        <g>
            <g>
                <g>
                    <path fill="#050D33" d="M3.168 3.955c-.825 0-1.65.001-2.475-.002-.114 0-.23-.016-.34-.04-.297-.069-.428-.311-.31-.594.054-.129.13-.254.221-.36.742-.856 1.488-1.708 2.237-2.558.092-.105.204-.199.32-.279.231-.16.48-.166.707.002.156.116.298.254.43.398.338.373.668.754.999 1.133.384.442.768.883 1.147 1.328.12.141.227.296.236.493.01.208-.08.356-.28.415-.125.036-.258.06-.387.06-.835.006-1.67.004-2.505.004z" transform="translate(-850 -9494) translate(0 6947) matrix(1 0 0 -1 850 2557)"/>
                    <path fill="#CBCDD1" d="M3.176 6.01c.818 0 1.636-.002 2.455.003.139 0 .283.02.417.059.246.07.364.285.27.523-.064.166-.162.328-.279.463-.706.82-1.42 1.633-2.136 2.444-.113.128-.244.245-.383.344-.223.158-.464.158-.69.002-.124-.085-.243-.186-.342-.298-.74-.84-1.477-1.682-2.21-2.527-.082-.093-.153-.2-.209-.31-.17-.34-.008-.635.37-.68.117-.015.236-.022.353-.022.795-.002 1.59 0 2.384 0z" transform="translate(-850 -9494) translate(0 6947) matrix(1 0 0 -1 850 2557)"/>
                </g>
            </g>
        </g>
    </g>
</svg>
