<svg width="24" height="24" viewBox="0 0 24 24" fill="none" xmlns="http://www.w3.org/2000/svg">
<g clip-path="url(#clip0_12859_211716)">
<path fill-rule="evenodd" clip-rule="evenodd" d="M0 12C0 18.6248 5.37098 24 12.0023 24C18.6275 24 24 18.6263 24 12C24 5.37365 18.629 0 12.0023 0C5.37248 0 0 5.37516 0 12Z" fill="#F3F4F7"/>
<path fill-rule="evenodd" clip-rule="evenodd" d="M8.65711 11.6396L10.482 13.4944L16.0603 7.47891C16.562 6.92968 17.3805 6.91741 17.8851 7.44976L17.9739 7.54642C18.4786 8.07724 18.4786 8.95172 17.9784 9.49635L11.4248 16.529C10.9349 17.0644 10.1268 17.0797 9.62062 16.5643L9.58214 16.5244L9.52886 16.4707L6.74047 13.6371C6.22985 13.1155 6.22245 12.264 6.72715 11.7393L6.81891 11.6442C7.3236 11.1195 8.14946 11.118 8.65711 11.6396Z" fill="#82889C"/>
</g>
<defs>
<clipPath id="clip0_12859_211716">
<rect width="24" height="24" fill="white"/>
</clipPath>
</defs>
</svg>
