<svg xmlns="http://www.w3.org/2000/svg" width="50" height="50" viewBox="0 0 50 50">
    <g fill="none" fill-rule="evenodd">
        <g fill-rule="nonzero">
            <g>
                <g>
                    <path fill="#E3F8FB" d="M40.625 50H9.375C4.197 50 0 45.803 0 40.625V9.375C0 4.197 4.197 0 9.375 0h31.25C45.803 0 50 4.197 50 9.375v31.25C50 45.803 45.803 50 40.625 50z" transform="translate(-43 -9092) translate(0 6947) translate(43 2145)"/>
                    <g fill="#27C6DA">
                        <g>
                            <path d="M8.245 8.44c2.327 0 4.22-1.893 4.22-4.22S10.571 0 8.244 0s-4.22 1.893-4.22 4.22 1.893 4.22 4.22 4.22zM13.907 10.484l-.007-.002c-.55-.134-2.232-.37-2.232-.37-.19-.058-.393.043-.461.23l-2.533 6.949c-.146.4-.713.4-.859 0l-2.532-6.949c-.055-.151-.198-.246-.351-.246-.037 0-1.767.242-2.343.386-1.573.391-2.566 1.939-2.566 3.551v5.782c0 .867.702 1.569 1.569 1.569h13.304c.867 0 1.57-.702 1.57-1.569v-5.8c0-1.607-1.033-3.032-2.559-3.53z" transform="translate(-43 -9092) translate(0 6947) translate(43 2145) translate(17 13)"/>
                            <path d="M9.2 9.98c-.101-.11-.249-.165-.399-.165H7.687c-.15 0-.298.055-.399.165-.156.17-.179.417-.068.61l.596.898-.279 2.354.55 1.461c.053.147.261.147.315 0l.549-1.461-.279-2.354.596-.899c.111-.192.088-.438-.068-.609z" transform="translate(-43 -9092) translate(0 6947) translate(43 2145) translate(17 13)"/>
                        </g>
                    </g>
                </g>
            </g>
        </g>
    </g>
</svg>
