<svg xmlns="http://www.w3.org/2000/svg" width="50" height="50" viewBox="0 0 50 50">
    <g fill="none" fill-rule="evenodd">
        <g fill-rule="nonzero">
            <g>
                <g>
                    <path fill="#E3F8FB" d="M40.625 50H9.375C4.197 50 0 45.803 0 40.625V9.375C0 4.197 4.197 0 9.375 0h31.25C45.803 0 50 4.197 50 9.375v31.25C50 45.803 45.803 50 40.625 50z" transform="translate(-208 -7235) translate(0 6947) translate(208 288)"/>
                    <g>
                        <path fill="#8CE1EB" d="M23.177 16.667h-1.302v-.781c0-1.006-.817-1.823-1.823-1.823h-2.605c-1.005 0-1.822.817-1.822 1.823v.781h-1.302c-.512 0-.973.214-1.304.555l5.731 2.99 5.733-2.99c-.331-.34-.794-.555-1.306-.555zm-5.99 0v-.781c0-.144.118-.261.261-.261h2.605c.142 0 .26.117.26.26v.782h-3.125z" transform="translate(-208 -7235) translate(0 6947) translate(208 288) translate(12 13)"/>
                        <path fill="#8CE1EB" d="M19.11 21.786c-.226.119-.496.119-.72 0l-5.89-3.072v4.463c0 1.006.817 1.823 1.823 1.823h8.855C24.183 25 25 24.183 25 23.177v-4.463l-5.89 3.072z" transform="translate(-208 -7235) translate(0 6947) translate(208 288) translate(12 13)"/>
                        <g fill="#26C6DA">
                            <path d="M9.375 10.417c-2.872 0-5.208-2.336-5.208-5.208C4.167 2.338 6.503 0 9.375 0c2.872 0 5.208 2.336 5.208 5.208 0 2.872-2.336 5.21-5.208 5.21zM4.948 12.5C2.218 12.5 0 14.719 0 17.448v3.646c0 .426.355.781.781.781h9.636v-3.386c0-1.958 1.458-3.573 3.344-3.855.27-.792.781-1.457 1.437-1.937-1.042-.297-1.098-.197-10.25-.197z" transform="translate(-208 -7235) translate(0 6947) translate(208 288) translate(12 13)"/>
                        </g>
                    </g>
                </g>
            </g>
        </g>
    </g>
</svg>
