<?xml version="1.0" encoding="UTF-8"?>
<svg width="16px" height="16px" viewBox="0 0 16 16" version="1.1" xmlns="http://www.w3.org/2000/svg" xmlns:xlink="http://www.w3.org/1999/xlink">
    <!-- Generator: Sketch 60 (88103) - https://sketch.com -->
    <title>noun_Warning_936907 Copy@1x</title>
    <desc>Created with Sketch.</desc>
    <g id="Page-1" stroke="none" stroke-width="1" fill="none" fill-rule="evenodd">
        <g id="noun_Warning_936907-Copy">
            <path d="M7.94314894,0 C3.55608511,0 0,3.55608511 0,7.94314894 C0,12.3302128 3.55608511,15.8862979 7.94314894,15.8862979 C12.3302128,15.8862979 15.8862979,12.3302128 15.8862979,7.94314894 C15.8862979,3.55608511 12.3302128,0 7.94314894,0 Z" id="Path" fill="#FFF8E5"></path>
            <path d="M8,3.95114894 C8.85106383,3.95114894 9.05855319,4.59114894 9.00629787,4.95744681 L8.49565957,8.92885106 C8.4786383,9.28782979 8.19948936,9.42417021 8,9.42417021 C7.77651064,9.42417021 7.52391489,9.30655319 7.50434043,8.92885106 L6.99370213,4.95744681 C6.94144681,4.58042553 7.15421277,3.95114894 8,3.95114894 Z" id="Path" fill="#FFC107" fill-rule="nonzero"></path>
            <path d="M8.73565957,11.7422979 C8.54382979,11.9361702 8.27489362,12.0488511 8,12.0488511 C7.72476596,12.0488511 7.456,11.9361702 7.26212766,11.7422979 C7.06842553,11.5484255 6.95795745,11.2798298 6.95795745,11.0045957 C6.95795745,10.7315745 7.06842553,10.4626383 7.26212766,10.2689362 C7.456,10.0750638 7.72476596,9.96476596 8,9.96476596 C8.27489362,9.96476596 8.54382979,10.0750638 8.73565957,10.2689362 C8.93140426,10.4628085 9.04204255,10.7317447 9.04204255,11.0045957 C9.04204255,11.28 8.93157447,11.5485957 8.73565957,11.7422979 Z" id="Path" fill="#FFC107" fill-rule="nonzero"></path>
        </g>
    </g>
</svg>