<svg xmlns="http://www.w3.org/2000/svg" width="48" height="48" viewBox="0 0 48 48">
    <defs>
        <linearGradient id="tbyfem6tpa" x1="-.439%" x2="152.846%" y1=".317%" y2="135.24%">
            <stop offset="0%" stop-color="#D831B4"/>
            <stop offset="100%" stop-color="#6241E9"/>
        </linearGradient>
    </defs>
    <g fill="none" fill-rule="evenodd">
        <g>
            <g>
                <path fill="url(#tbyfem6tpa)" d="M10 0h28c5.523 0 10 4.477 10 10v27.848c0 5.522-4.477 10-10 10H10c-5.523 0-10-4.478-10-10V10C0 4.477 4.477 0 10 0z" transform="translate(-824 -9282) translate(824 9282)"/>
                <g fill-rule="nonzero">
                    <g>
                        <g>
                            <path fill="#FFF" d="M11.741 0l4.991 4.957v10.929l-.505.15c-.22-.161-.457-.29-.706-.386l-.15-.626c-.05-.207-.25-.357-.474-.357H13.79c-.225 0-.424.15-.474.357l-.15.627c-.25.095-.486.224-.707.386l-.649-.193c-.219-.064-.46.024-.569.207l-.554.9c-.111.187-.073.418.094.566l.5.432c-.017.13-.026.259-.026.384 0 .126.009.255.026.385l-.501.433c-.165.146-.203.379-.091.567l.551.896c.11.185.35.273.57.208l.65-.192c.186.137.385.25.593.34l-11.904.134c-.625 0-1.132-.504-1.132-1.124V1.124C.018.504.525 0 1.15 0H11.74z" transform="translate(-824 -9282) translate(824 9282) translate(16 12) translate(0 .635)"/>
                            <path fill="#FFF" d="M16.889 18.917h-.001l-.357-.309c.012-.093.018-.185.018-.275 0-.09-.006-.181-.018-.274l.358-.31c.118-.104.145-.27.065-.405l-.394-.64c-.079-.132-.25-.195-.408-.149l-.463.138c-.157-.116-.326-.208-.505-.276l-.107-.447c-.035-.148-.178-.256-.338-.256h-.79c-.161 0-.303.108-.338.256l-.108.447c-.178.068-.347.16-.505.276l-.463-.138c-.157-.045-.329.017-.407.148l-.395.643c-.08.133-.053.299.067.404l.356.309c-.011.093-.018.185-.018.274 0 .09.007.182.019.275l-.358.31c-.118.104-.145.27-.065.404l.394.64c.079.133.25.195.407.15l.463-.138c.157.115.327.207.505.276l.107.447c.036.148.178.255.34.255h.789c.16 0 .303-.107.338-.255l.107-.447c.179-.069.348-.16.505-.276l.464.137c.157.047.328-.016.406-.147l.396-.643c.08-.133.052-.3-.066-.404zm-2.545.507c-.64 0-1.161-.489-1.161-1.09 0-.602.52-1.092 1.16-1.092.64 0 1.161.49 1.161 1.091 0 .602-.52 1.091-1.16 1.091z" transform="translate(-824 -9282) translate(824 9282) translate(16 12) translate(0 .635)"/>
                            <path fill="#F5F5F5" d="M11.741 0l4.991 4.957h-4.136c-.472 0-.855-.38-.855-.849V0z" transform="translate(-824 -9282) translate(824 9282) translate(16 12) translate(0 .635)"/>
                            <path fill="#9839D1" d="M8.108 3.486H2.5c-.193 0-.35-.156-.35-.348 0-.192.157-.348.35-.348h5.607c.193 0 .35.156.35.348 0 .192-.157.348-.35.348zM8.108 5.305H2.5c-.193 0-.35-.155-.35-.348 0-.192.157-.347.35-.347h5.607c.193 0 .35.155.35.347 0 .193-.157.348-.35.348z" transform="translate(-824 -9282) translate(824 9282) translate(16 12) translate(0 .635)"/>
                        </g>
                        <g fill="#9839D1">
                            <path d="M11.85.719H.372C.178.719.021.563.021.37.02.18.178.023.37.023h11.48c.193 0 .35.156.35.348 0 .192-.157.348-.35.348zM11.85 3.332H.372c-.193 0-.35-.156-.35-.348 0-.192.157-.347.35-.347h11.48c.193 0 .35.155.35.347 0 .192-.157.348-.35.348zM10.46 5.945H.371c-.193 0-.35-.155-.35-.347 0-.192.157-.348.35-.348h10.09c.192 0 .35.156.35.348 0 .192-.158.347-.35.347zM6.713 8.559H.371c-.193 0-.35-.156-.35-.348 0-.192.157-.348.35-.348h6.342c.194 0 .35.156.35.348 0 .192-.156.348-.35.348z" transform="translate(-824 -9282) translate(824 9282) translate(16 12) translate(0 .635) translate(2.13 8.328)"/>
                        </g>
                    </g>
                </g>
            </g>
        </g>
    </g>
</svg>
