<svg xmlns="http://www.w3.org/2000/svg" width="48" height="48" viewBox="0 0 48 48">
    <defs>
        <linearGradient id="wlifci4a9a" x1="-.439%" x2="152.846%" y1=".317%" y2="135.24%">
            <stop offset="0%" stop-color="#D831B4"/>
            <stop offset="100%" stop-color="#6241E9"/>
        </linearGradient>
    </defs>
    <g fill="none" fill-rule="evenodd">
        <g>
            <g>
                <path fill="url(#wlifci4a9a)" d="M10 0h28c5.523 0 10 4.477 10 10v27.848c0 5.522-4.477 10-10 10H10c-5.523 0-10-4.478-10-10V10C0 4.477 4.477 0 10 0z" transform="translate(-530 -9282) translate(530 9282)"/>
                <g fill="#FFF" fill-rule="nonzero">
                    <g>
                        <path d="M21.367 13.733l-.7-.033c-.1-.367-.234-.7-.434-1l.467-.533c.133-.134.1-.334 0-.467l-1.033-1.033c-.134-.134-.334-.134-.467 0l-.533.466c-.2-.133-.434-.233-.634-.3-.1-.033-.233-.1-.366-.1v-.7c0-.166-.167-.333-.334-.333h-1.5c-.166 0-.333.133-.333.333l-.033.7c-.367.1-.7.234-1 .434l-.5-.5c-.134-.134-.334-.1-.467 0L12.467 11.7c-.134.133-.134.333 0 .467l.466.533c-.166.333-.333.667-.4 1l-.7.033c-.166 0-.333.167-.333.334v1.5c0 .166.133.333.333.333l.7.033c.067.267.167.534.3.767.034.067.067.167.134.233l-.467.534c-.133.133-.133.333 0 .466l1.033 1.034c.134.133.334.133.467 0l.533-.467c.3.167.634.333 1 .433l.034.7c0 .167.166.334.333.334h1.433c.167 0 .334-.134.334-.334l.033-.7c.367-.1.7-.233 1-.433l.533.467c.134.133.334.133.467 0l1.033-1.034c.134-.133.134-.333 0-.466l-.466-.534c.2-.3.333-.633.433-1l.7-.033c.167 0 .333-.167.333-.333v-1.5c-.033-.167-.2-.334-.366-.334zM16.567 17c-1.2 0-2.2-1-2.2-2.2 0-1.2 1-2.2 2.2-2.2 1.2 0 2.2 1 2.2 2.2 0 1.233-.967 2.2-2.2 2.2zM16.067 4.9c0-.167-.134-.333-.334-.333h-1.266v3.366h1.6V4.9zM.933 4.567h-.3C.467 4.567.3 4.7.3 4.9v10.3c.233-.6.433-1.167.633-1.667V4.567zM3.367 7.933h10.366V.4c0-.167-.133-.333-.333-.333H2c-.2 0-.333.133-.333.333v11.133c.066-.2 1-2.666 1.2-3.3.1-.166.3-.3.5-.3zm.266-6.4h8.1c.2 0 .367.167.367.367 0 .2-.167.367-.367.367h-8.1c-.2 0-.366-.167-.366-.367.033-.2.166-.367.366-.367zm0 2.2h8.1c.2 0 .367.167.367.367 0 .2-.167.367-.367.367h-8.1c-.2 0-.366-.167-.366-.367 0-.2.166-.367.366-.367zm0 2.167h8.1c.2 0 .367.167.367.367 0 .2-.167.366-.367.366h-8.1c-.2 0-.366-.166-.366-.366.033-.2.166-.367.366-.367z" transform="translate(-530 -9282) translate(530 9282) translate(13 13.594)"/>
                        <path d="M11.767 16.567c-.534-.034-.967-.467-.967-1V14.1c0-.533.433-.967.967-1H12c.033-.1.067-.167.1-.233l-.167-.167c-.366-.4-.333-1 .034-1.4L13 10.267c.2-.2.433-.3.7-.3.267 0 .5.1.667.266l.166.167c.067-.033.167-.067.234-.1v-.233c.033-.534.466-.967 1-.967h1.566c.534 0 .967.433 1 .967v.233c.1.033.167.067.267.1l.467-1.233c.066-.234-.067-.434-.3-.434H3.5C3.167 9.6 4.633 5.667.467 16.9h11.6l.033-.033c-.033-.067-.067-.167-.1-.234l-.233-.066z" transform="translate(-530 -9282) translate(530 9282) translate(13 13.594)"/>
                    </g>
                </g>
            </g>
        </g>
    </g>
</svg>
