<svg width="24" height="24" viewBox="0 0 24 24" fill="none" xmlns="http://www.w3.org/2000/svg">
<g clip-path="url(#clip0_33521_15830)">
<rect width="24" height="24" rx="4" fill="white"/>
<path d="M5.6006 17.7597V12.9105H8.65291V17.7597H5.6006ZM10.4744 17.7597V12.9105H13.5268V17.7597H10.4744ZM15.3483 17.7597V12.9105H18.4006V17.7597H15.3483ZM11.1144 17.1197H12.8868V13.5505H11.1144V17.1197ZM5.6006 11.089V6.23975H8.65291V11.089H5.6006ZM10.4744 11.089V6.23975H13.5268V11.089H10.4744ZM15.3483 11.089V6.23975H18.4006V11.089H15.3483ZM6.2406 10.449H8.01291V6.87975H6.2406V10.449ZM16.1114 10.449H17.7606V6.87975H16.1114V10.449Z" fill="#434966"/>
<path d="M10.4744 17.7597V12.9105H13.5268V17.7597H10.4744ZM11.1144 17.1197H12.8868V13.5505H11.1144V17.1197ZM5.60059 11.089V6.23975H8.65289V11.089H5.60059ZM15.3483 11.089V6.23975H18.4006V11.089H15.3483ZM6.24059 10.449H8.01289V6.87975H6.24059V10.449ZM16.1114 10.449H17.7606V6.87975H16.1114V10.449Z" fill="#434966"/>
</g>
<defs>
<clipPath id="clip0_33521_15830">
<rect width="24" height="24" rx="4" fill="white"/>
</clipPath>
</defs>
</svg>
