<svg xmlns="http://www.w3.org/2000/svg" width="48" height="48" viewBox="0 0 48 48">
    <defs>
        <linearGradient id="oauyis8rja" x1="-.439%" x2="152.846%" y1=".345%" y2="135.192%">
            <stop offset="0%" stop-color="#D831B4"/>
            <stop offset="100%" stop-color="#6241E9"/>
        </linearGradient>
    </defs>
    <g fill="none" fill-rule="evenodd">
        <g>
            <g>
                <path fill="url(#oauyis8rja)" d="M10 0h28c5.523 0 10 4.477 10 10v27.834c0 5.523-4.477 10-10 10H10c-5.523 0-10-4.477-10-10V10C0 4.477 4.477 0 10 0z" transform="translate(-138 -9282) translate(138 9282)"/>
                <g>
                    <g>
                        <path stroke="#FFF" stroke-linejoin="round" stroke-width="1.316" d="M10.547 15.06L10.547 2.467 0.608 2.467 0.608 15.06z" transform="translate(-138 -9282) translate(138 9282) translate(13 11.235) translate(7.57)"/>
                        <path fill="#FFF" fill-rule="nonzero" d="M8.024 1.601v1.334H2.847V1.6c0-.294.232-.532.518-.533h.802C4.29.447 4.82 0 5.435 0c.616 0 1.146.447 1.269 1.068h.802c.285 0 .517.24.518.533zm-2.589.267c.286 0 .518-.239.518-.533C5.953 1.04 5.72.8 5.435.8c-.286 0-.517.24-.517.534 0 .294.231.533.517.533zM6.988 5.333L6.988 6.4 5.953 6.4 5.953 7.467 4.918 7.467 4.918 6.4 3.882 6.4 3.882 5.333 4.918 5.333 4.918 4.267 5.953 4.267 5.953 5.333zM2.135 8.667L3.171 8.667 3.171 9.2 2.135 9.2zM4.724 8.667L8.606 8.667 8.606 9.2 4.724 9.2zM4.724 10.333L8.606 10.333 8.606 10.867 4.724 10.867zM4.724 12L8.606 12 8.606 12.533 4.724 12.533zM2.135 10.267L3.171 10.267 3.171 10.8 2.135 10.8zM2.135 11.867L3.171 11.867 3.171 12.4 2.135 12.4z" transform="translate(-138 -9282) translate(138 9282) translate(13 11.235) translate(7.57)"/>
                    </g>
                    <g fill="#FFF" fill-rule="nonzero">
                        <g>
                            <path d="M20.295 3.257c-1.293.737-3.07 1.42-4.842 1.71-1.576.257-4.538-.35-4.537-1.075 0-.275 2.598.67 4.172.235 1.206-.333 1.037-1.495.382-1.647C14.818 2.33 11 .896 9.37.85c-.77-.022-2.668.28-3.587.436-.314.054-.512.048-.532.359-.094 1.44-.28 4.388-.382 5.928-.002.032.041.47.392.161.385-.338.923-.712 1.42-.597.78.18 7.532 1.441 8.464 1.216 1.333-.322 5.11-2.633 5.836-3.35 1.123-1.112.254-2.282-.686-1.746z" transform="translate(-138 -9282) translate(138 9282) translate(13 11.235) translate(0 15) translate(0 .2) rotate(-4 13.19 4.614)"/>
                            <path d="M4.126 1.802l-3.107.065c-.273-.014-.552.199-.62.471L.355 9.294c-.068.273.1.505.374.516l3.255-.924c.273.01.514-.21.535-.491l.066-6.057c.021-.28-.185-.522-.459-.536zM2.474 8.074c-.54 0-.978-.451-.978-1.008 0-.556.438-1.008.978-1.008s.978.452.978 1.008c0 .557-.437 1.008-.978 1.008z" transform="translate(-138 -9282) translate(138 9282) translate(13 11.235) translate(0 15) translate(0 .2)"/>
                        </g>
                    </g>
                </g>
            </g>
        </g>
    </g>
</svg>
