<svg xmlns="http://www.w3.org/2000/svg" width="48" height="48" viewBox="0 0 48 48">
    <g fill="none" fill-rule="evenodd">
        <g>
            <g>
                <path fill="#2E2E55" d="M10 0h28c5.523 0 10 4.477 10 10v28c0 5.523-4.477 10-10 10H10C4.477 48 0 43.523 0 38V10C0 4.477 4.477 0 10 0z" transform="translate(-334 -9377) translate(334 9377)"/>
                <g fill="#9FA7D1" fill-rule="nonzero">
                    <g>
                        <g>
                            <path d="M20.295 3.257c-1.293.737-3.07 1.42-4.842 1.71-1.576.257-4.538-.35-4.537-1.075 0-.275 2.598.67 4.172.235 1.206-.333 1.037-1.495.382-1.647C14.818 2.33 11 .896 9.37.85c-.77-.022-2.668.28-3.587.436-.314.054-.512.048-.532.359-.094 1.44-.28 4.388-.382 5.928-.002.032.041.47.392.161.385-.338.923-.712 1.42-.597.78.18 7.532 1.441 8.464 1.216 1.333-.322 5.11-2.633 5.836-3.35 1.123-1.112.254-2.282-.686-1.746z" transform="translate(-334 -9377) translate(334 9377) translate(13 14) translate(0 11) rotate(-4 13.19 4.614)"/>
                            <path d="M4.126 1.802l-3.107.065c-.273-.014-.552.199-.62.471L.355 9.294c-.068.273.1.505.374.516l3.255-.924c.273.01.514-.21.535-.491l.066-6.057c.021-.28-.185-.522-.459-.536zM2.474 8.074c-.54 0-.978-.451-.978-1.008 0-.556.438-1.008.978-1.008s.978.452.978 1.008c0 .557-.437 1.008-.978 1.008z" transform="translate(-334 -9377) translate(334 9377) translate(13 14) translate(0 11)"/>
                        </g>
                        <g>
                            <path d="M4.14.8c1.82 0 3.3 1.52 3.3 3.34 0 1.82-1.48 3.3-3.3 3.3C2.32 7.44.8 5.96.8 4.14.8 2.32 2.32.8 4.14.8zm0 .6c-.166 0-.34.134-.34.3V2h-.3c-.496 0-.9.404-.9.9v.6c0 .496.404.94.9.94h.3v1.2h-.3c-.165 0-.3-.134-.3-.3 0-.166-.134-.3-.3-.3-.166 0-.3.134-.3.3 0 .496.404.9.9.9h.3v.3c0 .166.174.3.34.3.166 0 .3-.134.3-.3v-.3h.3c.496 0 .9-.404.9-.9v-.6c0-.496-.404-.94-.9-.94h-.3V2.6h.3c.165 0 .3.134.3.3 0 .166.134.3.3.3.166 0 .3-.134.3-.3 0-.496-.404-.9-.9-.9h-.3v-.3c0-.166-.134-.3-.3-.3zm.6 3.04c.165 0 .3.134.3.3v.6c0 .166-.135.3-.3.3h-.3v-1.2zM3.8 2.6v1.2h-.3c-.165 0-.3-.134-.3-.3v-.6c0-.166.135-.3.3-.3h.3z" transform="translate(-334 -9377) translate(334 9377) translate(13 14) translate(3)"/>
                        </g>
                        <path d="M21.893 6.386c.059 0 .107.045.107.1v3.4c0 .615-.539 1.114-1.203 1.114h-8.594C11.54 11 11 10.501 11 9.886v-3.4c0-.055.048-.1.107-.1zm-8.487 2.069h-.344c-.19 0-.343.142-.343.318v.318c0 .176.154.318.344.318h.343c.19 0 .344-.142.344-.318v-.318c0-.176-.154-.318-.344-.318zM20.796 4C21.462 4 22 4.499 22 5.114v.537c0 .054-.048.099-.107.099H11.107c-.059 0-.107-.045-.107-.1v-.536C11 4.499 11.539 4 12.203 4z" transform="translate(-334 -9377) translate(334 9377) translate(13 14)"/>
                    </g>
                </g>
            </g>
        </g>
    </g>
</svg>
