<svg xmlns="http://www.w3.org/2000/svg" width="48" height="48" viewBox="0 0 48 48">
    <defs>
        <linearGradient id="b51my415ga" x1="-.439%" x2="152.846%" y1=".317%" y2="135.24%">
            <stop offset="0%" stop-color="#D831B4"/>
            <stop offset="100%" stop-color="#6241E9"/>
        </linearGradient>
    </defs>
    <g fill="none" fill-rule="evenodd">
        <g>
            <g>
                <path fill="url(#b51my415ga)" d="M10 0h28c5.523 0 10 4.477 10 10v27.848c0 5.522-4.477 10-10 10H10c-5.523 0-10-4.478-10-10V10C0 4.477 4.477 0 10 0z" transform="translate(-334 -9282) translate(334 9282)"/>
                <g fill="#FFF" fill-rule="nonzero">
                    <g>
                        <g>
                            <path d="M20.294 3.248c-1.292.735-3.07 1.414-4.84 1.703-1.576.257-4.54-.35-4.538-1.072 0-.274 2.598.67 4.172.236 1.206-.333 1.037-1.49.381-1.642-.651-.15-4.47-1.58-6.1-1.627-.77-.022-2.668.28-3.586.435-.315.053-.512.047-.532.356-.094 1.437-.28 4.375-.381 5.91-.002.032.041.468.392.16.384-.336.923-.709 1.42-.594.78.18 7.532 1.438 8.464 1.214 1.333-.32 5.11-2.623 5.834-3.338 1.124-1.108.254-2.274-.686-1.74z" transform="translate(-334 -9282) translate(334 9282) translate(13 13.956) translate(0 10.965) rotate(-4 13.19 4.6)"/>
                            <path d="M4.126 1.797L1.02 1.86c-.273-.013-.552.198-.62.47L.355 9.265c-.068.272.1.503.374.514l3.255-.921c.273.01.514-.21.535-.49l.066-6.037c.021-.28-.185-.52-.459-.534zM2.474 8.048c-.54 0-.978-.45-.978-1.004 0-.555.438-1.005.978-1.005s.978.45.978 1.005c0 .555-.437 1.004-.978 1.004z" transform="translate(-334 -9282) translate(334 9282) translate(13 13.956) translate(0 10.965)"/>
                        </g>
                        <g>
                            <path d="M4.14.797c1.82 0 3.3 1.516 3.3 3.33s-1.48 3.29-3.3 3.29C2.32 7.416.8 5.94.8 4.126S2.32.797 4.14.797zm0 .599c-.166 0-.34.133-.34.299v.299h-.3c-.496 0-.9.402-.9.897v.598c0 .495.404.937.9.937h.3v1.196h-.3c-.165 0-.3-.134-.3-.299 0-.165-.134-.299-.3-.299-.166 0-.3.134-.3.299 0 .495.404.897.9.897h.3v.3c0 .165.174.298.34.298.166 0 .3-.133.3-.299V6.22h.3c.496 0 .9-.402.9-.897v-.598c0-.495-.404-.937-.9-.937h-.3V2.592h.3c.165 0 .3.134.3.299 0 .165.134.299.3.299.166 0 .3-.134.3-.3 0-.494-.404-.896-.9-.896h-.3v-.3c0-.165-.134-.298-.3-.298zm.6 3.03c.165 0 .3.134.3.299v.598c0 .165-.135.3-.3.3h-.3V4.425zM3.8 2.592v1.196h-.3c-.165 0-.3-.134-.3-.3v-.597c0-.165.135-.3.3-.3h.3z" transform="translate(-334 -9282) translate(334 9282) translate(13 13.956) translate(3)"/>
                        </g>
                        <path d="M21.893 6.366c.059 0 .107.044.107.1v3.389c0 .613-.539 1.11-1.203 1.11h-8.594c-.664 0-1.203-.497-1.203-1.11v-3.39c0-.055.048-.099.107-.099zm-8.487 2.062h-.344c-.19 0-.343.142-.343.317v.317c0 .175.154.317.344.317h.343c.19 0 .344-.142.344-.317v-.317c0-.175-.154-.317-.344-.317zm7.39-4.44c.665 0 1.204.496 1.204 1.11v.535c0 .054-.048.099-.107.099H11.107c-.059 0-.107-.045-.107-.1v-.535c0-.613.539-1.11 1.203-1.11z" transform="translate(-334 -9282) translate(334 9282) translate(13 13.956)"/>
                    </g>
                </g>
            </g>
        </g>
    </g>
</svg>
