<svg xmlns="http://www.w3.org/2000/svg" width="48" height="48" viewBox="0 0 48 48">
    <g fill="none" fill-rule="evenodd">
        <g>
            <g>
                <path fill="#2E2E55" d="M10 0h28c5.523 0 10 4.477 10 10v28c0 5.523-4.477 10-10 10H10C4.477 48 0 43.523 0 38V10C0 4.477 4.477 0 10 0z" transform="translate(-236 -9377) translate(236 9377)"/>
                <g fill="#9FA7D1" fill-rule="nonzero">
                    <g>
                        <path d="M12.602 16.137c.121-.104.282-.13.427-.07.143.061.248.197.275.362l.529 3.165c.02.125-.004.255-.071.36-.067.104-.17.176-.284.198l-4.84.96c-.025.005-.052.008-.078.008-.026 0-.053-.003-.078-.008l-4.84-.96c-.116-.023-.217-.094-.284-.198-.067-.106-.092-.235-.07-.36l.528-3.165c.027-.165.132-.301.275-.361.146-.061.307-.034.427.069l4.042 3.416zM14.126 4.82c.377.87.594 1.837.594 2.86v-.006c0 1.494.727 4.717 1.53 5.784l.102.122c.171.188.171.492 0 .68-.972 1.062-4.283 1.527-4.657 1.577l-.054.003h-.002c-.875.916-1.944 1.44-3.079 1.44-1.084 0-2.107-.478-2.959-1.317l-.121-.123c-.018 0-.035 0-.054-.004-.374-.05-3.685-.515-4.658-1.577-.171-.187-.171-.492 0-.679.843-.918 1.632-4.35 1.632-5.9v-.006c0-1.021.218-1.986.594-2.854l.312 1.702c.122.671.667 1.158 1.294 1.158h.919c-.8.93-1.753 1.476-2.166 1.684-.048.221-.073.465-.073.716 0 .93.33 1.44.44 1.44.12-.082.282-.106.412-.049.13.059.242.169.275.319.615 2.71 2.285 4.53 4.153 4.53 1.868 0 3.538-1.82 4.153-4.53.033-.15.13-.272.262-.33.131-.057.279-.043.398.039.155.033.467-.487.467-1.419 0-.206-.017-.408-.05-.596-1.693-.093-3.416-.865-4.82-1.804h3.55c.627 0 1.172-.487 1.294-1.158zM4.052 3.252c.24-.053.47.117.517.376l.462 2.518c.048.26-.106.513-.345.564-.029.007-.058.01-.086.01-.206 0-.39-.157-.431-.386l-.462-2.517c-.048-.26.107-.514.345-.565zm8.934-.01l.08.01c.239.051.393.304.345.564l-.46 2.518c-.041.229-.225.386-.431.386-.029 0-.057-.003-.087-.01-.239-.051-.393-.304-.345-.564l.461-2.518c.048-.26.275-.43.517-.376z" transform="translate(-236 -9377) translate(236 9377) translate(16 13)"/>
                        <path d="M13.567.996C13.476.956 11.31 0 8.56 0 5.81 0 3.644.955 3.553.996c-.195.088-.306.313-.264.539l.88 4.8c.041.224.222.385.431.385h7.92c.21 0 .39-.161.431-.386l.88-4.8c.042-.226-.07-.451-.264-.538zM10.13 4.3h-.764v.834c0 .46-.342.833-.763.833-.422 0-.764-.373-.764-.833V4.3h-.764c-.422 0-.764-.373-.764-.833 0-.46.342-.833.764-.833h.764V1.8c0-.46.342-.833.764-.833.421 0 .764.373.764.833v.834h.764c.421 0 .763.373.763.833 0 .46-.342.833-.764.833z" transform="translate(-236 -9377) translate(236 9377) translate(16 13)"/>
                    </g>
                </g>
            </g>
        </g>
    </g>
</svg>
