<?xml version="1.0" encoding="UTF-8"?>
<svg width="48px" height="48px" viewBox="0 0 48 48" version="1.1" xmlns="http://www.w3.org/2000/svg" xmlns:xlink="http://www.w3.org/1999/xlink">
    <!-- Generator: sketchtool 60 (101010) - https://sketch.com -->
    <title>A63284FC-A3CE-4A4B-B8CA-99959A6D4920@1.5x</title>
    <desc>Created with sketchtool.</desc>
    <defs>
        <linearGradient x1="-0.43891059%" y1="0.316956412%" x2="152.845982%" y2="135.240244%" id="linearGradient-1">
            <stop stop-color="#D831B4" offset="0%"></stop>
            <stop stop-color="#6241E9" offset="100%"></stop>
        </linearGradient>
    </defs>
    <g id="Page-1" stroke="none" stroke-width="1" fill="none" fill-rule="evenodd">
        <g id="21.0.0---Reimbursement" transform="translate(-30.000000, -367.000000)">
            <g id="Taxes-active">
                <g id="side-panel">
                    <g>
                        <g id="Settings-Copy-4" transform="translate(30.000000, 367.000000)">
                            <g id="Group-2-Copy">
                                <path d="M10,0 L38,0 C43.5228475,-1.01453063e-15 48,4.4771525 48,10 L48,37.847619 C48,43.3704665 43.5228475,47.847619 38,47.847619 L10,47.847619 C4.4771525,47.847619 2.45271059e-15,43.3704665 0,37.847619 L0,10 C-6.76353751e-16,4.4771525 4.4771525,2.79088747e-15 10,0 Z" id="Rectangle-Copy-2" fill="url(#linearGradient-1)"></path>
                                <g id="Reimbursement-Copy" transform="translate(13.000000, 11.000000)">
                                    <g id="file-(1)-2-copy">
                                        <path d="M17.1672335,6.74266174 L10.4276434,0.0740951837 L2.45724178,0.0740951837 C1.15184147,0.0740951837 0.0936054167,1.13233123 0.0936054167,2.43773155 L0.0936054167,19.9390139 C0.0936054167,21.2444143 1.15184147,22.3026503 2.45724178,22.3026503 L14.8035972,22.3026503 C16.1089974,22.3026503 17.1672335,21.2444143 17.1672335,19.9390139 L17.1672335,6.74266174 Z" id="Combined-Shape" fill="#FFFFFF" fill-rule="nonzero"></path>
                                        <path d="M3.93659145,4.72727259 L2.36083388,4.72727259 C2.14326716,4.72727259 1.96689448,4.55089992 1.96689448,4.3333332 L1.96689448,3.15151502 C1.96689448,2.93394829 2.14326716,2.75757562 2.36083388,2.75757562 L3.93659145,2.75757562 C4.15415817,2.75757562 4.33053085,2.93394829 4.33053085,3.15151502 L4.33053085,4.3333332 C4.33053085,4.55089992 4.15415817,4.72727259 3.93659145,4.72727259 Z" id="Fill-29" fill="#E6C3EE" fill-rule="nonzero"></path>
                                        <path d="M3.93659145,9.4545453 L2.36083388,9.4545453 C2.14326716,9.4545453 1.96689448,9.27817264 1.96689448,9.0606059 L1.96689448,7.87878774 C1.96689448,7.66122102 2.14326716,7.48484835 2.36083388,7.48484835 L3.93659145,7.48484835 C4.15415817,7.48484835 4.33053085,7.66122102 4.33053085,7.87878774 L4.33053085,9.0606059 C4.33053085,9.27817264 4.15415817,9.4545453 3.93659145,9.4545453 Z" id="Fill-29" fill="#E6C3EE" fill-rule="nonzero"></path>
                                        <path d="M3.93659145,14.181818 L2.36083388,14.181818 C2.14326716,14.181818 1.96689448,14.0054454 1.96689448,13.7878786 L1.96689448,12.6060604 C1.96689448,12.3884938 2.14326716,12.2121211 2.36083388,12.2121211 L3.93659145,12.2121211 C4.15415818,12.2121211 4.33053085,12.3884938 4.33053085,12.6060604 L4.33053085,13.7878786 C4.33053085,14.0054454 4.15415818,14.181818 3.93659145,14.181818 Z" id="Fill-29" fill="#E6C3EE" fill-rule="nonzero"></path>
                                        <line x1="6.86158681" y1="3.93939394" x2="13.1646171" y2="3.93939394" id="Path-84" stroke="#B935C2" stroke-width="1.57575758" stroke-linecap="round"></line>
                                        <g id="Group" stroke-linecap="round" stroke-linejoin="round" transform="translate(1.966894, 2.375795)" stroke="#B036C6" stroke-width="0.787878788">
                                            <polyline id="Path-85" points="0.662274616 0.975826965 1.18181818 1.56359928 2.36363636 -9.09494702e-13"></polyline>
                                        </g>
                                        <line x1="6.86158681" y1="8.66666667" x2="13.1646171" y2="8.66666667" id="Path-84" stroke="#B935C2" stroke-width="1.57575758" stroke-linecap="round"></line>
                                        <g id="Group" stroke-linecap="round" stroke-linejoin="round" transform="translate(2.754773, 6.315188)" stroke="#B036C6" stroke-width="0.787878788">
                                            <polyline id="Path-85" points="0.396741879 1.7515476 0.916285445 2.33931993 2.09810363 0.775720636"></polyline>
                                        </g>
                                        <line x1="6.86158681" y1="13.3939394" x2="11.030303" y2="13.3939394" id="Path-84" stroke="#B935C2" stroke-width="1.57575758" stroke-linecap="round"></line>
                                        <path d="M17.0378334,6.74266174 L12.7912799,6.74266174 C11.4858795,6.74266174 10.4276435,5.6844257 10.4276435,4.37902538 L10.4276435,0.202131661 C10.4276435,0.155007125 10.4856039,0.131000285 10.5193019,0.164787689 L17.0755751,6.65196921 C17.1092731,6.68531205 17.0854598,6.74266174 17.0378334,6.74266174 Z" id="Path" fill="#E5C3EE" fill-rule="nonzero"></path>
                                    </g>
                                    <g id="Group-173" transform="translate(12.606061, 14.575758)" fill-rule="nonzero">
                                        <ellipse id="Combined-Shape" stroke="#AB37C9" stroke-width="0.787878788" fill="#E6C3EE" cx="4.67994689" cy="4.63893127" rx="4.2860075" ry="4.24499188"></ellipse>
                                        <path d="M4.31888658,6.64416571 L4.31888658,6.3233415 C3.98435327,6.30994756 3.6534442,6.23100211 3.41849876,6.12810514 C3.33451088,6.09138999 3.29165028,5.99715968 3.31575937,5.90875968 L3.39738361,5.60983851 C3.427323,5.50016578 3.54645027,5.44343851 3.65139571,5.48740215 C3.88445024,5.58509912 4.17234114,5.66246882 4.48276536,5.66246882 C4.80500776,5.66246882 5.04531079,5.55311124 5.04531079,5.32919609 C5.04531079,5.12718397 4.85968655,5.00711128 4.4116987,4.88688098 C3.77272904,4.71212946 3.31402603,4.43353554 3.31402603,3.87103739 C3.31402603,3.36309196 3.68543208,2.97531381 4.32991689,2.87156593 L4.32991689,2.55061565 C4.32991689,2.44735626 4.41358961,2.36363627 4.51680172,2.36363627 L4.70541989,2.36363627 C4.80863201,2.36363627 4.89246231,2.44735626 4.89246231,2.55061565 L4.89246231,2.83877442 C5.20194106,2.85117563 5.42727439,2.90410533 5.60612288,2.96694653 C5.69783197,2.99913926 5.74778348,3.09782895 5.72241378,3.19157077 L5.64740772,3.46803741 C5.61857136,3.57465317 5.50464409,3.63303498 5.40127439,3.59397196 C5.23660772,3.53171377 5.00386837,3.46687135 4.70116535,3.46687135 C4.31888658,3.46687135 4.20968659,3.62525074 4.20968659,3.767258 C4.20968659,3.94202527 4.43911688,4.06217677 4.93611079,4.2151198 C5.64614712,4.42817796 5.94097132,4.72300219 5.94097132,5.25277185 C5.94097132,5.73889306 5.5805956,6.17585059 4.88143201,6.28505059 L4.88143201,6.64416571 C4.88143201,6.7475354 4.79775928,6.83120813 4.69454717,6.83120813 L4.50592899,6.83120813 C4.40271688,6.83120813 4.31888658,6.7475354 4.31888658,6.64416571" id="Fill-91" fill="#A738CA"></path>
                                    </g>
                                    <g id="Group-173-Copy" transform="translate(5.909091, 16.545455)" fill-rule="nonzero">
                                        <ellipse id="Combined-Shape" stroke="#AB37C9" stroke-width="0.787878788" fill="#E6C3EE" cx="3.11838702" cy="3.48361548" rx="3.11838702" ry="3.08967609"></ellipse>
                                        <path d="M2.86564481,4.88727956 L2.86564481,4.66270262 C2.6314715,4.65332686 2.39983515,4.59806504 2.23537334,4.52603716 C2.17658184,4.50033656 2.14657941,4.43437535 2.16345578,4.37249536 L2.22059274,4.16325053 C2.24155031,4.08647963 2.3249394,4.04677054 2.39840121,4.07754508 C2.56153938,4.14593296 2.763063,4.20009174 2.98035996,4.20009174 C3.20592963,4.20009174 3.37414174,4.12354144 3.37414174,3.96680085 C3.37414174,3.82539238 3.24420478,3.74134148 2.93061329,3.65718026 C2.48333454,3.53485422 2.16224244,3.33983847 2.16224244,2.94608977 C2.16224244,2.59052799 2.42222666,2.31908328 2.87336602,2.24645977 L2.87336602,2.02179457 C2.87336602,1.949513 2.93193693,1.89090901 3.0041854,1.89090901 L3.13621812,1.89090901 C3.2084666,1.89090901 3.26714781,1.949513 3.26714781,2.02179457 L3.26714781,2.22350571 C3.48378295,2.23218656 3.64151626,2.26923734 3.7667102,2.31322618 C3.83090655,2.33576109 3.86587261,2.40484388 3.84811382,2.47046315 L3.79560959,2.6639898 C3.77542414,2.73862082 3.69567505,2.77948808 3.62331626,2.75214397 C3.50804961,2.70856325 3.34513205,2.66317356 3.13323994,2.66317356 C2.86564481,2.66317356 2.78920482,2.77403912 2.78920482,2.87344421 C2.78920482,2.99578129 2.94980602,3.07988734 3.29770175,3.18694746 C3.79472717,3.33608817 4.00110412,3.54246512 4.00110412,3.91330388 C4.00110412,4.25358871 3.74884111,4.55945898 3.2594266,4.63589897 L3.2594266,4.88727956 C3.2594266,4.95963835 3.2008557,5.01820926 3.12860721,5.01820926 L2.9965745,5.01820926 C2.92432602,5.01820926 2.86564481,4.95963835 2.86564481,4.88727956" id="Fill-91" fill="#A738CA"></path>
                                    </g>
                                    <path d="M15.1264307,11.5556696 C16.9797065,10.714244 18.739528,10.8358336 20.7474264,11.8638451 C21.0264666,12.0067638 21.1985893,12.3010258 21.1952698,12.6185286 L21.1941223,12.7169122 C21.1881935,13.2860336 20.6364691,13.6923369 20.1062048,13.4854468 C18.202628,12.7428191 17.1742679,12.6026431 15.8087052,13.1386201 C15.8519436,13.2036204 15.8970372,13.2683311 15.9440019,13.3327571 L15.9873737,13.4087507 C16.1352542,13.7514919 15.8736746,14.1484451 15.4869377,14.1131519 L13.3624495,13.9188967 C12.9963539,13.8854573 12.8094624,13.4765794 12.9951531,13.1740498 L14.2065421,11.1949858 C14.4124203,10.8587034 14.9043105,10.8973808 15.059575,11.2565999 L15.0865073,11.3478933 C15.0981578,11.4175305 15.1114617,11.4867857 15.1264307,11.5556696 Z" id="Combined-Shape" stroke="#AB37C9" stroke-width="0.787878788" fill="#E6C3EE" fill-rule="nonzero"></path>
                                    <path d="M15.7378783,24.0045318 C17.6987543,22.9632344 19.4504036,23.0841102 21.4331772,24.0992583 C21.5771083,24.1729768 21.668447,24.328602 21.6666667,24.4989164 L21.6655381,24.5975965 C21.6623965,24.8991699 21.3803521,25.1068769 21.1147137,25.0032343 C19.3862949,24.3289397 18.0474078,23.9402165 16.1026488,24.8400636 C16.2150865,25.0450651 16.3442395,25.2482765 16.4910001,25.4496022 C16.5241612,25.5264596 16.4672637,25.6128573 16.3881423,25.6056368 L14.263617,25.4113783 C14.1962474,25.4052247 14.1594792,25.324782 14.1964802,25.2644995 L15.4078517,23.2854641 C15.4461325,23.2229361 15.5339805,23.2298465 15.5633019,23.2976843 C15.6030512,23.5352747 15.6608317,23.7709346 15.7378783,24.0045318 Z" id="Combined-Shape" fill="#E6C3EE" fill-rule="nonzero" transform="translate(17.924229, 24.424242) rotate(180.000000) translate(-17.924229, -24.424242) "></path>
                                </g>
                            </g>
                        </g>
                    </g>
                </g>
            </g>
        </g>
    </g>
</svg>