<svg xmlns="http://www.w3.org/2000/svg" width="48" height="48" viewBox="0 0 48 48">
    <defs>
        <linearGradient id="y39eff7k7a" x1="-.439%" x2="152.846%" y1=".317%" y2="135.24%">
            <stop offset="0%" stop-color="#D831B4"/>
            <stop offset="100%" stop-color="#6241E9"/>
        </linearGradient>
    </defs>
    <g fill="none" fill-rule="evenodd">
        <g>
            <g>
                <path fill="url(#y39eff7k7a)" d="M10 0h28c5.523 0 10 4.477 10 10v27.848c0 5.522-4.477 10-10 10H10c-5.523 0-10-4.478-10-10V10C0 4.477 4.477 0 10 0z" transform="translate(-432 -9282) translate(432 9282)"/>
                <g fill="#FFF" fill-rule="nonzero">
                    <g>
                        <path d="M18.647 0H7.504c-.826 0-1.5.677-1.5 1.505v9.63h.937v-9.63c0-.301.263-.565.563-.565h2.289l1.088 1.054h4.352L16.32.94h2.289c.3 0 .562.264.562.565v20.314c0 .301-.262.565-.562.565H9.905l-.3.3-.563-.3h-1.5l-.3.903c.074 0 .15.037.224.037H18.61c.825 0 1.5-.677 1.5-1.505V1.505C20.148.677 19.473 0 18.647 0z" transform="translate(-432 -9282) translate(432 9282) matrix(-1 0 0 1 36 11.378) translate(.16)"/>
                        <g transform="translate(-432 -9282) translate(432 9282) matrix(-1 0 0 1 36 11.378) translate(.16) translate(8.63 4.89)">
                            <ellipse cx="4.465" cy="15.537" rx="1.163" ry="1.166"/>
                            <path d="M.263.15H8.667V2.859H.263zM.263 4.74H8.667V7.449H.263zM1.876 10.308c.075.188.188.376.263.602l1.5.489v.64h4.99v-2.71H2.401l-.525.979z"/>
                        </g>
                        <path d="M11.894 18.283v-1.73l-1.426-.452c-.113-.3-.225-.602-.375-.903l.675-1.354L9.53 12.64l-1.35.677c-.3-.15-.601-.263-.901-.376l-.45-1.43H5.103l-.45 1.43c-.3.075-.6.226-.901.376l-1.35-.677-1.239 1.204.675 1.354c-.15.264-.262.565-.375.903l-1.35.452v1.73l1.425.452c.075.3.225.602.375.902l-.675 1.355 1.238 1.241 1.351-.677c.263.15.563.263.9.376l.45 1.43h1.727l.45-1.43c.3-.113.6-.225.9-.376l1.351.677 1.238-1.241-.675-1.355c.15-.3.262-.601.375-.902l1.35-.452zm-5.89 1.129c-1.089 0-1.99-.903-1.99-1.994s.901-1.994 1.99-1.994c1.087 0 1.988.903 1.988 1.994.037 1.09-.863 1.994-1.989 1.994z" transform="translate(-432 -9282) translate(432 9282) matrix(-1 0 0 1 36 11.378) translate(.16)"/>
                    </g>
                </g>
            </g>
        </g>
    </g>
</svg>
