<svg xmlns="http://www.w3.org/2000/svg" width="48" height="48" viewBox="0 0 48 48">
    <defs>
        <linearGradient id="5r7da16uua" x1="-.439%" x2="152.846%" y1="0%" y2="135.784%">
            <stop offset="0%" stop-color="#D831B4"/>
            <stop offset="100%" stop-color="#6241E9"/>
        </linearGradient>
    </defs>
    <g fill="none" fill-rule="evenodd">
        <g>
            <g>
                <path fill="url(#5r7da16uua)" d="M10 0h28c5.523 0 10 4.477 10 10v28c0 5.523-4.477 10-10 10H10C4.477 48 0 43.523 0 38V10C0 4.477 4.477 0 10 0z" transform="translate(-726 -9282) translate(726 9282)"/>
                <g fill="#FFF" fill-rule="nonzero">
                    <path d="M17.544 13.194c-.438 0-.766.11-1.094.11l-3.171-3.178 2.624-2.63 3.39-1.205 2.516-4.054c.11-.219.11-.548 0-.657L20.496.265c-.218-.22-.546-.22-.765-.11l-4.156 2.41-1.312 3.507-2.625 2.63-2.952-3.178c0-.328.109-.657.109-1.095 0-2.85-2.734-4.931-5.468-4.274L4.967 1.8c.875.876.875 2.191 0 3.068-.874.876-2.187.876-3.062 0L.155 3.333c-.874 3.177 2.078 6.245 5.36 5.26l3.17 3.177-1.312 1.315c-.765-.22-1.53 0-2.077.548L.812 18.125c-.875.877-.984 2.192-.219 3.068.875.986 2.297.986 3.172.11L8.358 16.7c.546-.548.765-1.425.546-2.082l1.313-1.315 3.171 3.178c-.11.328-.11.767-.11 1.095 0 2.85 2.735 4.931 5.469 4.274l-1.64-1.644c-.876-.877-.876-2.191 0-3.068.874-.877 2.187-.877 3.061 0l1.64 1.644c.766-2.85-1.42-5.589-4.264-5.589z" transform="translate(-726 -9282) translate(726 9282) translate(13 13)"/>
                </g>
            </g>
        </g>
    </g>
</svg>
