<svg xmlns="http://www.w3.org/2000/svg" width="48" height="48" viewBox="0 0 48 48">
    <g fill="none" fill-rule="evenodd">
        <g>
            <g>
                <path fill="#2E2E55" d="M10 0h28c5.523 0 10 4.477 10 10v27.848c0 5.522-4.477 10-10 10H10c-5.523 0-10-4.478-10-10V10C0 4.477 4.477 0 10 0z" transform="translate(-726 -9377) translate(726 9377)"/>
                <g fill="#9FA7D1" fill-rule="nonzero">
                    <path d="M17.544 13.152c-.438 0-.766.11-1.094.11l-3.171-3.168 2.624-2.621 3.39-1.202L21.81 2.23c.11-.218.11-.546 0-.655L20.496.264c-.218-.218-.546-.218-.765-.11l-4.156 2.404-1.312 3.495-2.625 2.621-2.952-3.167c0-.328.109-.656.109-1.092 0-2.84-2.734-4.916-5.468-4.26l1.64 1.638c.875.874.875 2.185 0 3.058-.874.874-2.187.874-3.062 0L.155 3.322c-.874 3.168 2.078 6.226 5.36 5.243l3.17 3.168-1.312 1.31c-.765-.218-1.53 0-2.077.546L.812 18.068c-.875.873-.984 2.184-.219 3.058.875.983 2.297.983 3.172.109l4.593-4.587c.546-.546.765-1.42.546-2.076l1.313-1.31 3.171 3.167c-.11.328-.11.765-.11 1.092 0 2.84 2.735 4.916 5.469 4.26l-1.64-1.638c-.876-.874-.876-2.185 0-3.058.874-.874 2.187-.874 3.061 0l1.64 1.638c.766-2.84-1.42-5.57-4.264-5.57z" transform="translate(-726 -9377) translate(726 9377) translate(13 12.959)"/>
                </g>
            </g>
        </g>
    </g>
</svg>
