<svg xmlns="http://www.w3.org/2000/svg" width="48" height="48" viewBox="0 0 48 48">
    <g fill="none" fill-rule="evenodd">
        <g>
            <g>
                <path fill="#2E2E55" d="M10 0h28c5.523 0 10 4.477 10 10v27.848c0 5.522-4.477 10-10 10H10c-5.523 0-10-4.478-10-10V10C0 4.477 4.477 0 10 0z" transform="translate(-922 -9377) translate(922 9377)"/>
                <g fill="#9FA7D1" fill-rule="nonzero">
                    <path d="M21.54 13.41l-.005-.004-1.478-1.29c.05-.39.077-.775.077-1.15 0-.376-.026-.762-.077-1.151L21.54 8.52c.489-.437.601-1.132.27-1.696l-1.632-2.68c-.327-.554-1.036-.816-1.688-.624l-1.918.576c-.65-.483-1.353-.87-2.091-1.155l-.443-1.872C13.891.45 13.301 0 12.635 0h-3.27c-.667 0-1.255.45-1.4 1.07L7.52 2.942c-.738.285-1.439.671-2.091 1.154L3.508 3.52c-.647-.19-1.36.07-1.683.618L.187 6.831c-.329.558-.216 1.252.277 1.693l1.478 1.291c-.049.39-.075.775-.075 1.15 0 .376.026.76.076 1.15L.461 13.41c-.489.438-.601 1.133-.27 1.694l1.631 2.681c.328.554 1.036.816 1.689.624l1.918-.576c.65.483 1.353.87 2.09 1.154l.444 1.873c.147.62.735 1.07 1.403 1.07h3.27c.667 0 1.255-.45 1.4-1.069l.445-1.874c.738-.285 1.44-.671 2.09-1.154l1.922.576c.649.193 1.36-.07 1.683-.618l1.638-2.692c.327-.556.215-1.251-.274-1.689zM11 15.533c-2.65 0-4.807-2.049-4.807-4.568 0-2.519 2.156-4.568 4.807-4.568 2.65 0 4.806 2.049 4.806 4.568 0 2.52-2.156 4.568-4.806 4.568z" transform="translate(-922 -9377) translate(922 9377) translate(13 12.959)"/>
                </g>
            </g>
        </g>
    </g>
</svg>
