<svg xmlns="http://www.w3.org/2000/svg" width="48" height="48" viewBox="0 0 48 48">
    <defs>
        <linearGradient id="n8c58n1n7a" x1="-.439%" x2="152.846%" y1="0%" y2="135.784%">
            <stop offset="0%" stop-color="#D831B4"/>
            <stop offset="100%" stop-color="#6241E9"/>
        </linearGradient>
    </defs>
    <g fill="none" fill-rule="evenodd">
        <g>
            <g>
                <path fill="url(#n8c58n1n7a)" d="M10 0h28c5.523 0 10 4.477 10 10v28c0 5.523-4.477 10-10 10H10C4.477 48 0 43.523 0 38V10C0 4.477 4.477 0 10 0z" transform="translate(-922 -9282) translate(922 9282)"/>
                <g fill="#FFF" fill-rule="nonzero">
                    <path d="M21.54 13.453l-.005-.004-1.478-1.295c.05-.391.077-.777.077-1.154 0-.377-.026-.763-.077-1.154l1.483-1.299c.489-.439.601-1.136.27-1.7l-1.632-2.69c-.327-.556-1.036-.819-1.688-.626l-1.918.578c-.65-.485-1.353-.872-2.091-1.158l-.443-1.878C13.891.45 13.301 0 12.635 0h-3.27c-.667 0-1.255.45-1.4 1.073l-.445 1.88c-.738.285-1.439.673-2.091 1.157l-1.921-.577c-.647-.192-1.36.07-1.683.62l-1.638 2.7c-.329.56-.216 1.255.277 1.698l1.478 1.295c-.049.391-.075.777-.075 1.154 0 .377.026.763.076 1.154L.461 13.453c-.489.439-.601 1.136-.27 1.7l1.631 2.69c.328.554 1.036.817 1.689.624l1.918-.577c.65.484 1.353.872 2.09 1.158l.444 1.878C8.11 21.55 8.698 22 9.366 22h3.27c.667 0 1.255-.45 1.4-1.073l.445-1.88c.738-.285 1.44-.673 2.09-1.157l1.922.577c.649.195 1.36-.07 1.683-.62l1.638-2.7c.327-.558.215-1.255-.274-1.694zM11 15.583c-2.65 0-4.807-2.056-4.807-4.583S8.35 6.417 11 6.417c2.65 0 4.806 2.056 4.806 4.583S13.65 15.583 11 15.583z" transform="translate(-922 -9282) translate(922 9282) translate(13 13)"/>
                </g>
            </g>
        </g>
    </g>
</svg>
