<svg xmlns="http://www.w3.org/2000/svg" width="48" height="48" viewBox="0 0 48 48">
    <defs>
        <linearGradient id="xcks0d426a" x1="-.439%" x2="152.846%" y1="0%" y2="135.784%">
            <stop offset="0%" stop-color="#D831B4"/>
            <stop offset="100%" stop-color="#6241E9"/>
        </linearGradient>
    </defs>
    <g fill="none" fill-rule="evenodd">
        <g>
            <g>
                <path fill="url(#xcks0d426a)" d="M10 0h28c5.523 0 10 4.477 10 10v28c0 5.523-4.477 10-10 10H10C4.477 48 0 43.523 0 38V10C0 4.477 4.477 0 10 0z" transform="translate(-628 -9282) translate(628 9282)"/>
                <g fill="#FFF" fill-rule="nonzero">
                    <path d="M21.854 18.28h-.002l-.47-.413c.016-.124.024-.247.024-.367s-.008-.243-.024-.367l.472-.413c.155-.14.191-.362.085-.542l-.519-.855c-.104-.177-.33-.26-.537-.2l-.61.184c-.207-.154-.43-.277-.665-.368l-.141-.598c-.047-.198-.235-.341-.447-.341h-1.04c-.212 0-.4.143-.446.341l-.141.598c-.235.091-.458.215-.666.369l-.61-.184c-.207-.06-.433.022-.536.197l-.522.86c-.104.178-.068.399.089.54l.47.412c-.016.124-.024.247-.024.367s.008.243.024.367l-.471.413c-.156.14-.192.362-.086.541l.519.856c.104.177.33.26.537.199l.61-.184c.207.154.43.278.666.369l.14.597c.047.199.235.342.447.342h1.04c.213 0 .4-.143.446-.341l.142-.598c.234-.091.458-.215.665-.369l.611.184c.207.062.433-.022.536-.197l.52-.86c.105-.177.07-.399-.086-.539zm-3.354.678c-.843 0-1.53-.654-1.53-1.458 0-.804.687-1.458 1.53-1.458s1.53.654 1.53 1.458c0 .804-.687 1.458-1.53 1.458zM14.265 13.758c-.154.054-.284.165-.366.314l-.951 1.735c-.082.148-.109.323-.077.492.085.485.284.939.579 1.32v.226c-.27.332-.46.728-.554 1.155H.44c-.128 0-.25-.06-.333-.162-.084-.103-.121-.24-.102-.375.23-1.937 1.031-3.748 2.288-5.172 1.487-1.573 3.612-2.34 6.32-2.289 2.87-.051 5.068.817 6.565 2.592-.31.008-.618.063-.913.164z" transform="translate(-628 -9282) translate(628 9282) translate(13 14)"/>
                    <path d="M4.355 11.017C1.952 11.017 0 12.97 0 15.372v3.208c0 .375.312.687.688.687h12.369c.3-.938.431-1.486.393-1.645-.262-.26-.453-.745-.574-1.455.472-.99.767-1.843 1.342-2.377.173-.05.714-.193.96-.193.238-.698-2.028-2.476-3.528-2.58-.326-.038.758 0-7.295 0zm3.228-1.85C5.056 9.167 3 7.112 3 4.584 3 2.057 5.056 0 7.583 0s4.583 2.056 4.583 4.583-2.056 4.584-4.583 4.584z" transform="translate(-628 -9282) translate(628 9282) translate(13 14)"/>
                </g>
            </g>
        </g>
    </g>
</svg>
