<svg xmlns="http://www.w3.org/2000/svg" width="48" height="48" viewBox="0 0 48 48">
    <g fill="none" fill-rule="evenodd">
        <g>
            <g>
                <path fill="#2E2E55" d="M10 0h28c5.523 0 10 4.477 10 10v27.848c0 5.522-4.477 10-10 10H10c-5.523 0-10-4.478-10-10V10C0 4.477 4.477 0 10 0z" transform="translate(-628 -9377) translate(628 9377)"/>
                <g fill-rule="nonzero">
                    <path fill="#7C82AB" d="M21.854 18.222h-.002l-.47-.412c.016-.124.024-.246.024-.366 0-.119-.008-.242-.024-.366l.472-.412c.155-.139.191-.36.085-.539l-.519-.853c-.104-.176-.33-.26-.537-.198l-.61.183c-.207-.154-.43-.277-.665-.368l-.141-.595c-.047-.197-.235-.34-.447-.34h-1.04c-.212 0-.4.143-.446.34l-.141.596c-.235.09-.458.214-.666.367l-.61-.183c-.207-.06-.433.022-.536.197l-.522.856c-.104.178-.068.398.089.539l.47.41c-.016.124-.024.247-.024.366 0 .12.008.242.024.366l-.471.412c-.156.14-.192.36-.086.54l.519.853c.104.176.33.259.537.198l.61-.183c.207.153.43.276.666.367l.14.596c.047.197.235.34.447.34h1.04c.213 0 .4-.143.446-.34l.142-.596c.234-.09.458-.214.665-.367l.611.183c.207.061.433-.022.536-.197l.52-.856c.105-.177.07-.398-.086-.538zm-3.354.676c-.843 0-1.53-.652-1.53-1.454 0-.801.687-1.453 1.53-1.453s1.53.652 1.53 1.453c0 .802-.687 1.454-1.53 1.454z" transform="translate(-628 -9377) translate(628 9377) translate(13 13.956)"/>
                    <path fill="#FFF" d="M14.265 13.715c-.154.053-.284.164-.366.312l-.951 1.73c-.082.148-.109.322-.077.49.085.483.284.936.579 1.316v.225c-.27.331-.46.726-.554 1.152H.44c-.128 0-.25-.06-.333-.162-.084-.103-.121-.239-.102-.373.23-1.932 1.031-3.736 2.288-5.157 1.487-1.567 3.612-2.33 6.32-2.28 2.87-.052 5.068.813 6.565 2.583-.31.008-.618.063-.913.164z" transform="translate(-628 -9377) translate(628 9377) translate(13 13.956)"/>
                    <path fill="#9FA7D1" d="M4.355 10.982C1.952 10.982 0 12.928 0 15.322v3.199c0 .374.312.685.688.685h12.369c.3-.935.431-1.482.393-1.64-.262-.26-.453-.743-.574-1.45.472-.987.767-1.838 1.342-2.37.173-.05.714-.193.96-.193.238-.695-2.028-2.467-3.528-2.57-.326-.04.758 0-7.295 0zm3.228-1.844C5.056 9.138 3 7.088 3 4.57 3 2.05 5.056 0 7.583 0s4.583 2.05 4.583 4.568c0 2.52-2.056 4.57-4.583 4.57z" transform="translate(-628 -9377) translate(628 9377) translate(13 13.956)"/>
                </g>
            </g>
        </g>
    </g>
</svg>
