<svg width="48" height="48" viewBox="0 0 48 48" fill="none" xmlns="http://www.w3.org/2000/svg">
<rect width="48" height="48" rx="8" fill="#FF0083"/>
<path d="M24.5169 30.7651H13.1821C13.1366 30.7651 13.0996 30.7281 13.0996 30.6825C13.0996 26.6316 16.3835 23.3477 20.4344 23.3477H20.517H24.2256" stroke="white" stroke-width="1.2" stroke-linecap="round" stroke-linejoin="round"/>
<path d="M20.5173 23.347C22.5655 23.347 24.226 21.6866 24.226 19.6384C24.226 17.5901 22.5655 15.9297 20.5173 15.9297C18.469 15.9297 16.8086 17.5901 16.8086 19.6384C16.8086 21.6866 18.469 23.347 20.5173 23.347Z" stroke="white" stroke-width="1.2" stroke-linecap="round" stroke-linejoin="round"/>
<mask id="path-4-inside-1_53448_23554" fill="white">
<path d="M25.894 22.4995L25.551 22.1357C25.4508 22.2302 25.394 22.3618 25.394 22.4995H25.894ZM27.6648 21.4219L28.0632 21.1198C27.9324 20.9473 27.7056 20.8786 27.5011 20.9495L27.6648 21.4219ZM30.7883 21.4219L30.952 20.9495C30.7475 20.8786 30.5207 20.9473 30.3899 21.1198L30.7883 21.4219ZM32.5591 22.4995L33.0277 22.6737C33.0977 22.4854 33.0482 22.2735 32.9021 22.1357L32.5591 22.4995ZM34.1213 25.3456L34.6118 25.2487C34.5712 25.0432 34.4068 24.8848 34.1999 24.8518L34.1213 25.3456ZM34.1213 27.4977L34.201 27.9913C34.4074 27.9579 34.5713 27.7997 34.6118 27.5946L34.1213 27.4977ZM32.5591 30.3443L32.902 30.7082C33.0482 30.5704 33.0977 30.3584 33.0277 30.17L32.5591 30.3443ZM30.7883 31.4214L30.39 31.7236C30.5208 31.8959 30.7475 31.9646 30.9519 31.8939L30.7883 31.4214ZM27.6648 31.4219L27.5012 31.8944C27.7056 31.9652 27.9324 31.8964 28.0632 31.724L27.6648 31.4219ZM25.894 30.3448L25.4254 30.1705C25.3553 30.3589 25.4049 30.5709 25.5511 30.7087L25.894 30.3448ZM24.3318 27.4987L23.8412 27.5957C23.8819 27.8012 24.0463 27.9596 24.2533 27.9925L24.3318 27.4987ZM24.3318 25.3461L24.2532 24.8524C24.0463 24.8853 23.8819 25.0437 23.8412 25.2492L24.3318 25.3461ZM25.894 22.4995H25.394C25.394 22.559 25.4046 22.6185 25.4254 22.6743L25.894 22.4995ZM26.237 22.8633C26.6999 22.427 27.2419 22.0976 27.8285 21.8944L27.5011 20.9495C26.7785 21.1998 26.1148 21.6042 25.551 22.1357L26.237 22.8633ZM27.2664 21.724C27.7366 22.344 28.4568 22.7129 29.227 22.7122V21.7122C28.7817 21.7126 28.3513 21.4997 28.0632 21.1198L27.2664 21.724ZM29.227 22.7122C29.9972 22.7129 30.7165 22.344 31.1867 21.724L30.3899 21.1198C30.1018 21.4997 29.6723 21.7126 29.227 21.7122V22.7122ZM30.6246 21.8944C31.2112 22.0976 31.7532 22.427 32.2161 22.8633L32.9021 22.1357C32.3383 21.6042 31.6746 21.1998 30.952 20.9495L30.6246 21.8944ZM32.0904 22.3253C31.8188 23.0558 31.8774 23.8762 32.2518 24.5577L33.1286 24.0769C32.895 23.6518 32.8567 23.1337 33.0277 22.6737L32.0904 22.3253ZM32.2518 24.5577C32.6262 25.2417 33.2822 25.7184 34.0427 25.8394L34.1999 24.8518C33.7584 24.7816 33.3611 24.5016 33.1286 24.0769L32.2518 24.5577ZM33.6308 25.4425C33.7584 26.0883 33.7584 26.755 33.6308 27.4007L34.6118 27.5946C34.7647 26.8208 34.7647 26.0224 34.6118 25.2487L33.6308 25.4425ZM34.0416 27.0041C33.3095 27.1223 32.6423 27.5746 32.2518 28.2856L33.1282 28.7672C33.3705 28.3259 33.7734 28.0604 34.201 27.9913L34.0416 27.0041ZM32.2518 28.2856C31.8771 28.9673 31.8187 29.7879 32.0904 30.5186L33.0277 30.17C32.8566 29.7099 32.8945 29.1924 33.1282 28.7672L32.2518 28.2856ZM32.2161 29.9804C31.7533 30.4166 31.2112 30.7458 30.6247 30.9489L30.9519 31.8939C31.6745 31.6437 32.3382 31.2395 32.902 30.7082L32.2161 29.9804ZM31.1866 31.1191C30.7163 30.4994 29.9961 30.1308 29.226 30.1316L29.2261 31.1316C29.6713 31.1311 30.1018 31.3439 30.39 31.7236L31.1866 31.1191ZM29.227 30.1316C28.4568 30.1309 27.7366 30.4998 27.2664 31.1198L28.0632 31.724C28.3513 31.3441 28.7808 31.1312 29.2261 31.1316L29.227 30.1316ZM27.8284 30.9494C27.2419 30.7464 26.6998 30.4171 26.2369 29.9809L25.5511 30.7087C26.1149 31.24 26.7786 31.6442 27.5012 31.8944L27.8284 30.9494ZM26.3627 30.5191C26.6344 29.7884 26.5759 28.9677 26.2012 28.286L25.3245 28.7671C25.5582 29.1923 25.5965 29.7105 25.4254 30.1705L26.3627 30.5191ZM26.2012 28.286C25.8267 27.6022 25.1707 27.1258 24.4103 27.0049L24.2533 27.9925C24.6947 28.0627 25.092 28.3425 25.3245 28.7671L26.2012 28.286ZM24.8223 27.4018C24.6946 26.7559 24.6946 26.089 24.8223 25.4431L23.8412 25.2492C23.6883 26.0231 23.6883 26.8217 23.8412 27.5957L24.8223 27.4018ZM24.4103 25.8399C25.1709 25.7189 25.8273 25.2415 26.2017 24.5575L25.3249 24.0767C25.0925 24.5014 24.6947 24.7821 24.2532 24.8524L24.4103 25.8399ZM26.2017 24.5575C26.5762 23.876 26.6343 23.0563 26.3627 22.3258L25.4254 22.6743C25.5963 23.1342 25.5584 23.6516 25.3249 24.0767L26.2017 24.5575ZM30.2974 28.304C30.9732 27.9197 31.3914 27.2028 31.3931 26.4253L30.3931 26.4231C30.3922 26.8417 30.167 27.2278 29.8031 27.4347L30.2974 28.304ZM31.3931 26.4253C31.3948 25.6479 30.9798 24.9291 30.3057 24.5419L29.8076 25.409C30.1706 25.6175 30.394 26.0045 30.3931 26.4231L31.3931 26.4253ZM30.3057 24.5419C29.6315 24.1547 28.8016 24.1584 28.1309 24.5515L28.6366 25.4142C28.9977 25.2025 29.4446 25.2005 29.8076 25.409L30.3057 24.5419ZM28.1309 24.5515C27.1035 25.1538 26.7548 26.4725 27.3503 27.5039L28.2163 27.0038C27.8957 26.4485 28.0834 25.7385 28.6366 25.4142L28.1309 24.5515ZM27.3503 27.5039C27.9458 28.5352 29.2621 28.8926 30.2974 28.304L29.8031 27.4347C29.2457 27.7516 28.537 27.5592 28.2163 27.0038L27.3503 27.5039Z"/>
</mask>
<path d="M25.894 22.4995L25.551 22.1357C25.4508 22.2302 25.394 22.3618 25.394 22.4995H25.894ZM27.6648 21.4219L28.0632 21.1198C27.9324 20.9473 27.7056 20.8786 27.5011 20.9495L27.6648 21.4219ZM30.7883 21.4219L30.952 20.9495C30.7475 20.8786 30.5207 20.9473 30.3899 21.1198L30.7883 21.4219ZM32.5591 22.4995L33.0277 22.6737C33.0977 22.4854 33.0482 22.2735 32.9021 22.1357L32.5591 22.4995ZM34.1213 25.3456L34.6118 25.2487C34.5712 25.0432 34.4068 24.8848 34.1999 24.8518L34.1213 25.3456ZM34.1213 27.4977L34.201 27.9913C34.4074 27.9579 34.5713 27.7997 34.6118 27.5946L34.1213 27.4977ZM32.5591 30.3443L32.902 30.7082C33.0482 30.5704 33.0977 30.3584 33.0277 30.17L32.5591 30.3443ZM30.7883 31.4214L30.39 31.7236C30.5208 31.8959 30.7475 31.9646 30.9519 31.8939L30.7883 31.4214ZM27.6648 31.4219L27.5012 31.8944C27.7056 31.9652 27.9324 31.8964 28.0632 31.724L27.6648 31.4219ZM25.894 30.3448L25.4254 30.1705C25.3553 30.3589 25.4049 30.5709 25.5511 30.7087L25.894 30.3448ZM24.3318 27.4987L23.8412 27.5957C23.8819 27.8012 24.0463 27.9596 24.2533 27.9925L24.3318 27.4987ZM24.3318 25.3461L24.2532 24.8524C24.0463 24.8853 23.8819 25.0437 23.8412 25.2492L24.3318 25.3461ZM25.894 22.4995H25.394C25.394 22.559 25.4046 22.6185 25.4254 22.6743L25.894 22.4995ZM26.237 22.8633C26.6999 22.427 27.2419 22.0976 27.8285 21.8944L27.5011 20.9495C26.7785 21.1998 26.1148 21.6042 25.551 22.1357L26.237 22.8633ZM27.2664 21.724C27.7366 22.344 28.4568 22.7129 29.227 22.7122V21.7122C28.7817 21.7126 28.3513 21.4997 28.0632 21.1198L27.2664 21.724ZM29.227 22.7122C29.9972 22.7129 30.7165 22.344 31.1867 21.724L30.3899 21.1198C30.1018 21.4997 29.6723 21.7126 29.227 21.7122V22.7122ZM30.6246 21.8944C31.2112 22.0976 31.7532 22.427 32.2161 22.8633L32.9021 22.1357C32.3383 21.6042 31.6746 21.1998 30.952 20.9495L30.6246 21.8944ZM32.0904 22.3253C31.8188 23.0558 31.8774 23.8762 32.2518 24.5577L33.1286 24.0769C32.895 23.6518 32.8567 23.1337 33.0277 22.6737L32.0904 22.3253ZM32.2518 24.5577C32.6262 25.2417 33.2822 25.7184 34.0427 25.8394L34.1999 24.8518C33.7584 24.7816 33.3611 24.5016 33.1286 24.0769L32.2518 24.5577ZM33.6308 25.4425C33.7584 26.0883 33.7584 26.755 33.6308 27.4007L34.6118 27.5946C34.7647 26.8208 34.7647 26.0224 34.6118 25.2487L33.6308 25.4425ZM34.0416 27.0041C33.3095 27.1223 32.6423 27.5746 32.2518 28.2856L33.1282 28.7672C33.3705 28.3259 33.7734 28.0604 34.201 27.9913L34.0416 27.0041ZM32.2518 28.2856C31.8771 28.9673 31.8187 29.7879 32.0904 30.5186L33.0277 30.17C32.8566 29.7099 32.8945 29.1924 33.1282 28.7672L32.2518 28.2856ZM32.2161 29.9804C31.7533 30.4166 31.2112 30.7458 30.6247 30.9489L30.9519 31.8939C31.6745 31.6437 32.3382 31.2395 32.902 30.7082L32.2161 29.9804ZM31.1866 31.1191C30.7163 30.4994 29.9961 30.1308 29.226 30.1316L29.2261 31.1316C29.6713 31.1311 30.1018 31.3439 30.39 31.7236L31.1866 31.1191ZM29.227 30.1316C28.4568 30.1309 27.7366 30.4998 27.2664 31.1198L28.0632 31.724C28.3513 31.3441 28.7808 31.1312 29.2261 31.1316L29.227 30.1316ZM27.8284 30.9494C27.2419 30.7464 26.6998 30.4171 26.2369 29.9809L25.5511 30.7087C26.1149 31.24 26.7786 31.6442 27.5012 31.8944L27.8284 30.9494ZM26.3627 30.5191C26.6344 29.7884 26.5759 28.9677 26.2012 28.286L25.3245 28.7671C25.5582 29.1923 25.5965 29.7105 25.4254 30.1705L26.3627 30.5191ZM26.2012 28.286C25.8267 27.6022 25.1707 27.1258 24.4103 27.0049L24.2533 27.9925C24.6947 28.0627 25.092 28.3425 25.3245 28.7671L26.2012 28.286ZM24.8223 27.4018C24.6946 26.7559 24.6946 26.089 24.8223 25.4431L23.8412 25.2492C23.6883 26.0231 23.6883 26.8217 23.8412 27.5957L24.8223 27.4018ZM24.4103 25.8399C25.1709 25.7189 25.8273 25.2415 26.2017 24.5575L25.3249 24.0767C25.0925 24.5014 24.6947 24.7821 24.2532 24.8524L24.4103 25.8399ZM26.2017 24.5575C26.5762 23.876 26.6343 23.0563 26.3627 22.3258L25.4254 22.6743C25.5963 23.1342 25.5584 23.6516 25.3249 24.0767L26.2017 24.5575ZM30.2974 28.304C30.9732 27.9197 31.3914 27.2028 31.3931 26.4253L30.3931 26.4231C30.3922 26.8417 30.167 27.2278 29.8031 27.4347L30.2974 28.304ZM31.3931 26.4253C31.3948 25.6479 30.9798 24.9291 30.3057 24.5419L29.8076 25.409C30.1706 25.6175 30.394 26.0045 30.3931 26.4231L31.3931 26.4253ZM30.3057 24.5419C29.6315 24.1547 28.8016 24.1584 28.1309 24.5515L28.6366 25.4142C28.9977 25.2025 29.4446 25.2005 29.8076 25.409L30.3057 24.5419ZM28.1309 24.5515C27.1035 25.1538 26.7548 26.4725 27.3503 27.5039L28.2163 27.0038C27.8957 26.4485 28.0834 25.7385 28.6366 25.4142L28.1309 24.5515ZM27.3503 27.5039C27.9458 28.5352 29.2621 28.8926 30.2974 28.304L29.8031 27.4347C29.2457 27.7516 28.537 27.5592 28.2163 27.0038L27.3503 27.5039Z" fill="white"/>
<path d="M25.394 22.4995V21.8995L25.3937 23.0995L25.394 22.4995ZM29.227 21.7122H29.827L28.627 21.7116L29.227 21.7122ZM33.1286 24.0769L33.4171 24.603L32.8406 23.5505L33.1286 24.0769ZM25.3245 28.7671L25.0359 28.2411L25.6127 29.2933L25.3245 28.7671ZM25.3249 24.0767L25.6134 23.5506L25.036 24.6025L25.3249 24.0767ZM28.1309 24.5515L28.6486 24.2481L27.6133 24.8549L28.1309 24.5515ZM25.394 23.0995H25.894V21.8995H25.394V23.0995ZM29.8265 22.2128L29.827 21.7128L28.627 21.7116L28.6265 22.2116L29.8265 22.2128ZM32.9781 24.8433L33.4167 24.6032L32.8406 23.5505L32.402 23.7905L32.9781 24.8433ZM32.4011 29.0522L32.8393 29.293L33.4172 28.2414L32.979 28.0006L32.4011 29.0522ZM28.6265 30.6311L28.6261 31.1311L29.8261 31.1321L29.8265 30.6321L28.6265 30.6311ZM25.4749 28.0006L25.0363 28.2408L25.6127 29.2933L26.0513 29.0531L25.4749 28.0006ZM26.0521 23.7917L25.6139 23.5509L25.036 24.6025L25.4742 24.8433L26.0521 23.7917ZM28.9014 24.6795L28.6486 24.2481L27.6133 24.8549L27.8661 25.2863L28.9014 24.6795ZM29.827 22.7122V21.7122H28.627V22.7122H29.827ZM32.5403 25.0838L33.4171 24.603L32.8402 23.5508L31.9634 24.0316L32.5403 25.0838ZM31.9629 28.8114L32.8393 29.293L33.4172 28.2414L32.5408 27.7598L31.9629 28.8114ZM25.9126 27.76L25.0359 28.2411L25.6132 29.2931L26.4899 28.812L25.9126 27.76ZM26.4902 24.0314L25.6134 23.5506L25.0365 24.6028L25.9133 25.0836L26.4902 24.0314ZM26.3943 21.9L25.3943 21.8995L25.3937 23.0995L26.3937 23.1L26.3943 21.9ZM31.3945 25.8253L30.3945 25.8231L30.3918 27.0231L31.3918 27.0253L31.3945 25.8253ZM29.2816 27.7313L29.7759 28.6006L30.819 28.0074L30.3247 27.1381L29.2816 27.7313ZM29.7855 24.243L29.2874 25.1101L30.3279 25.7079L30.826 24.8408L29.7855 24.243ZM27.6133 24.8549L28.119 25.7176L29.1543 25.1108L28.6486 24.2481L27.6133 24.8549ZM27.6504 28.0235L28.5164 27.5234L27.9163 26.4842L27.0503 26.9843L27.6504 28.0235ZM25.894 22.4995L26.3134 23.6238L28.0075 22.9919L26.7672 21.6763L25.894 22.4995ZM25.551 22.1357L24.7279 21.2625L24.7277 21.2627L25.551 22.1357ZM27.6648 21.4219L26.531 21.8148L27.0724 23.3773L28.39 22.378L27.6648 21.4219ZM28.0632 21.1198L29.0194 20.3947L29.0193 20.3945L28.0632 21.1198ZM27.5011 20.9495L27.1084 19.8156L27.1083 19.8156L27.5011 20.9495ZM29.227 21.7122L29.2281 20.5122L29.226 20.5122L29.227 21.7122ZM30.7883 21.4219L30.0632 22.378L31.3808 23.3773L31.9222 21.8148L30.7883 21.4219ZM30.952 20.9495L31.3449 19.8156L31.3448 19.8156L30.952 20.9495ZM30.3899 21.1198L29.4339 20.3945L29.4338 20.3947L30.3899 21.1198ZM32.5591 22.4995L31.686 21.6763L30.4441 22.9935L32.141 23.6243L32.5591 22.4995ZM32.9021 22.1357L33.7255 21.2627L33.7253 21.2625L32.9021 22.1357ZM33.1286 24.0769L34.1812 23.5007L34.1803 23.499L33.1286 24.0769ZM34.1213 25.3456L32.9363 25.157L32.6658 26.8563L34.3539 26.5228L34.1213 25.3456ZM34.1999 24.8518L34.3889 23.6668L34.3884 23.6667L34.1999 24.8518ZM34.1213 27.4977L34.3539 26.3205L32.6617 25.9862L32.9367 27.689L34.1213 27.4977ZM34.201 27.9913L34.3925 29.1759L34.3927 29.1759L34.201 27.9913ZM33.1282 28.7672L34.1799 29.3452L34.1801 29.3447L33.1282 28.7672ZM32.5591 30.3443L32.1408 29.2196L30.4449 29.8504L31.6858 31.1673L32.5591 30.3443ZM32.902 30.7082L33.725 31.5815L33.7251 31.5814L32.902 30.7082ZM33.0277 30.17L34.1526 29.7521L34.1525 29.7517L33.0277 30.17ZM30.7883 31.4214L31.9223 31.0288L31.381 29.4654L30.063 30.4654L30.7883 31.4214ZM30.39 31.7236L29.4342 32.4491L29.4342 32.4492L30.39 31.7236ZM30.9519 31.8939L31.3442 33.028L31.3446 33.0278L30.9519 31.8939ZM29.2261 31.1316L29.2251 32.3316L29.2275 32.3316L29.2261 31.1316ZM27.6648 31.4219L28.3899 30.4657L27.072 29.4664L26.5309 31.0293L27.6648 31.4219ZM28.0632 31.724L29.0192 32.4493L29.0194 32.4491L28.0632 31.724ZM25.894 30.3448L26.7674 31.1678L28.0083 29.8509L26.3124 29.2201L25.894 30.3448ZM25.5511 30.7087L24.7281 31.5819L24.7282 31.582L25.5511 30.7087ZM25.3245 28.7671L24.272 29.3434L24.2729 29.3451L25.3245 28.7671ZM24.3318 27.4987L25.517 27.6871L25.7871 25.9877L24.0991 26.3215L24.3318 27.4987ZM23.8412 27.5957L22.664 27.8283L22.6641 27.8288L23.8412 27.5957ZM24.3318 25.3461L24.0993 26.5234L25.7875 26.8568L25.5169 25.1574L24.3318 25.3461ZM23.8412 25.2492L22.6641 25.0161L22.664 25.0166L23.8412 25.2492ZM25.3249 24.0767L24.2732 23.499L24.2722 23.5007L25.3249 24.0767ZM28.1309 24.5515L27.5242 23.5162L27.5241 23.5163L28.1309 24.5515ZM26.237 22.8633L25.3639 23.6865L26.187 24.5595L27.0601 23.7365L26.237 22.8633ZM27.8285 21.8944L28.2214 23.0282L29.3553 22.6354L28.9624 21.5015L27.8285 21.8944ZM27.2664 21.724L26.5413 20.7679L25.5851 21.493L26.3103 22.4492L27.2664 21.724ZM29.227 22.7122L29.2281 21.5122L29.2259 21.5122L29.227 22.7122ZM31.1867 21.724L32.1429 22.4492L32.868 21.493L31.9118 20.7679L31.1867 21.724ZM30.6246 21.8944L29.4908 21.5015L29.0979 22.6354L30.2318 23.0282L30.6246 21.8944ZM32.2161 22.8633L31.3931 23.7365L32.2662 24.5595L33.0893 23.6865L32.2161 22.8633ZM32.0904 22.3253L32.5085 21.2005L31.3838 20.7824L30.9657 21.9071L32.0904 22.3253ZM32.2518 24.5577L33.3045 23.9815L33.3036 23.9799L32.2518 24.5577ZM34.0427 25.8394L33.8542 27.0245L35.0392 27.213L35.2278 26.028L34.0427 25.8394ZM33.6308 25.4425L33.3983 24.2653L32.221 24.4978L32.4536 25.6751L33.6308 25.4425ZM33.6308 27.4007L32.4536 27.1681L32.221 28.3452L33.3982 28.5779L33.6308 27.4007ZM34.0416 27.0041L35.2263 26.8128L35.035 25.6282L33.8504 25.8194L34.0416 27.0041ZM32.2518 28.2856L33.3034 28.8636L33.3036 28.8633L32.2518 28.2856ZM32.0904 30.5186L30.9657 30.9368L31.3839 32.0617L32.5087 31.6433L32.0904 30.5186ZM32.2161 29.9804L33.0894 29.1574L32.2664 28.284L31.3931 29.1071L32.2161 29.9804ZM30.6247 30.9489L30.2321 29.815L29.0982 30.2076L29.4908 31.3415L30.6247 30.9489ZM31.1866 31.1191L31.912 32.075L32.868 31.3496L32.1425 30.3937L31.1866 31.1191ZM29.226 30.1316L29.2248 28.9316L28.0259 28.9328L28.026 30.1317L29.226 30.1316ZM29.227 30.1316L30.427 30.1327L30.4281 28.9327L29.2281 28.9316L29.227 30.1316ZM27.2664 31.1198L26.3103 30.3947L25.5851 31.3509L26.5414 32.076L27.2664 31.1198ZM27.8284 30.9494L28.9624 31.342L29.3551 30.2079L28.2209 29.8154L27.8284 30.9494ZM26.2369 29.9809L27.0599 29.1076L26.1866 28.2846L25.3636 29.1579L26.2369 29.9809ZM26.3627 30.5191L25.9444 31.6438L27.0692 32.0622L27.4875 30.9373L26.3627 30.5191ZM26.2012 28.286L25.1487 28.8624L25.1496 28.864L26.2012 28.286ZM24.4103 27.0049L24.5988 25.8198L23.4136 25.6314L23.2252 26.8165L24.4103 27.0049ZM24.8223 27.4018L25.055 28.579L26.2323 28.3463L25.9996 27.1691L24.8223 27.4018ZM24.8223 25.4431L25.9996 25.6758L26.2323 24.4985L25.055 24.2659L24.8223 25.4431ZM24.4103 25.8399L23.2252 26.0284L23.4138 27.2135L24.5989 27.025L24.4103 25.8399ZM26.2017 24.5575L25.1501 23.9796L25.1491 23.9813L26.2017 24.5575ZM26.3627 22.3258L27.4875 21.9076L27.0693 20.7828L25.9445 21.201L26.3627 22.3258ZM30.2974 28.304L30.8905 29.3472L30.8906 29.3471L30.2974 28.304ZM31.3931 26.4253L30.1931 26.4227V26.4227L31.3931 26.4253ZM29.8031 27.4347L30.3962 28.4779L30.3962 28.4779L29.8031 27.4347ZM30.3057 24.5419L30.9034 23.5013L30.9034 23.5013L30.3057 24.5419ZM28.6366 25.4142L29.2435 26.4494L29.2435 26.4494L28.6366 25.4142ZM27.3503 27.5039L26.3111 28.1039L26.3111 28.104L27.3503 27.5039ZM28.2163 27.0038L27.1771 27.6038L27.1771 27.6039L28.2163 27.0038ZM26.7672 21.6763L26.4242 21.3125L24.6779 22.9589L25.0209 23.3227L26.7672 21.6763ZM24.7277 21.2627C24.3872 21.5838 24.194 22.0312 24.194 22.4995H26.594C26.594 22.6924 26.5145 22.8766 26.3744 23.0087L24.7277 21.2627ZM28.39 22.378L28.7884 22.0759L27.3381 20.1636L26.9397 20.4658L28.39 22.378ZM29.0193 20.3945C28.5747 19.8085 27.8036 19.5747 27.1084 19.8156L27.8939 22.0834C27.6077 22.1825 27.2902 22.0862 27.1072 21.845L29.0193 20.3945ZM26.3673 21.3423L26.531 21.8148L28.7987 21.029L28.635 20.5566L26.3673 21.3423ZM31.9222 21.8148L32.0859 21.3423L29.8182 20.5566L29.6545 21.029L31.9222 21.8148ZM31.3448 19.8156C30.6496 19.5747 29.8785 19.8085 29.4339 20.3945L31.346 21.845C31.163 22.0862 30.8455 22.1825 30.5592 22.0834L31.3448 19.8156ZM29.6648 22.0759L30.0632 22.378L31.5135 20.4658L31.1151 20.1636L29.6648 22.0759ZM32.141 23.6243L32.6096 23.7985L33.4459 21.5489L32.9773 21.3747L32.141 23.6243ZM34.1525 23.0918C34.3905 22.4516 34.2222 21.7312 33.7255 21.2627L32.0788 23.0087C31.8742 22.8157 31.8049 22.5192 31.9029 22.2556L34.1525 23.0918ZM32.029 21.3125L31.686 21.6763L33.4323 23.3227L33.7753 22.9589L32.029 21.3125ZM34.3539 26.5228L34.8444 26.4259L34.3793 24.0715L33.8888 24.1684L34.3539 26.5228ZM35.7891 25.0161C35.651 24.3173 35.092 23.7789 34.3889 23.6668L34.0109 26.0368C33.7217 25.9907 33.4915 25.7691 33.4346 25.4813L35.7891 25.0161ZM33.0149 24.6632L32.9363 25.157L35.3064 25.5342L35.385 25.0404L33.0149 24.6632ZM32.9367 27.689L33.0164 28.1826L35.3857 27.8L35.306 27.3064L32.9367 27.689ZM34.3927 29.1759C35.0939 29.0624 35.6513 28.5249 35.7891 27.8271L33.4346 27.3621C33.4914 27.0745 33.721 26.8534 34.0093 26.8067L34.3927 29.1759ZM34.8444 26.4174L34.3539 26.3205L33.8888 28.6749L34.3793 28.7718L34.8444 26.4174ZM31.6858 31.1673L32.0287 31.5312L33.7754 29.8852L33.4325 29.5213L31.6858 31.1673ZM33.7251 31.5814C34.2224 31.1127 34.3904 30.3921 34.1526 29.7521L31.9029 30.5879C31.8051 30.3247 31.8741 30.0281 32.079 29.835L33.7251 31.5814ZM32.6094 29.0453L32.1408 29.2196L32.9775 31.469L33.4461 31.2947L32.6094 29.0453ZM30.063 30.4654L29.6647 30.7676L31.1154 32.6796L31.5137 32.3774L30.063 30.4654ZM29.4342 32.4492C29.8788 33.0347 30.6493 33.2683 31.3442 33.028L30.5597 30.7598C30.8458 30.6609 31.1629 30.7571 31.3458 30.998L29.4342 32.4492ZM32.0859 31.5013L31.9223 31.0288L29.6544 31.814L29.818 32.2865L32.0859 31.5013ZM26.5309 31.0293L26.3673 31.5018L28.6352 32.287L28.7988 31.8145L26.5309 31.0293ZM27.1085 33.0283C27.804 33.2692 28.5749 33.0349 29.0192 32.4493L27.1072 30.9987C27.29 30.7579 27.6072 30.6612 27.894 30.7605L27.1085 33.0283ZM28.7883 30.7678L28.3899 30.4657L26.9398 32.3781L27.3382 32.6802L28.7883 30.7678ZM26.3124 29.2201L25.8438 29.0458L25.0071 31.2952L25.4757 31.4695L26.3124 29.2201ZM24.3008 29.752C24.0624 30.3928 24.2311 31.1135 24.7281 31.5819L26.3742 29.8355C26.5788 30.0283 26.6483 30.325 26.5501 30.589L24.3008 29.752ZM26.4245 31.5317L26.7674 31.1678L25.0207 29.5218L24.6778 29.8857L26.4245 31.5317ZM24.0991 26.3215L23.6085 26.4185L24.074 28.7729L24.5646 28.6759L24.0991 26.3215ZM22.6641 27.8288C22.8024 28.5272 23.3613 29.0658 24.065 29.1776L24.4417 26.8074C24.7314 26.8534 24.9615 27.0752 25.0184 27.3626L22.6641 27.8288ZM25.4385 28.1809L25.517 27.6871L23.1467 27.3103L23.0682 27.8041L25.4385 28.1809ZM25.5169 25.1574L25.4383 24.6637L23.0682 25.0411L23.1468 25.5348L25.5169 25.1574ZM24.0648 23.6673C23.3611 23.7792 22.8024 24.3178 22.6641 25.0161L25.0184 25.4823C24.9615 25.7696 24.7316 25.9914 24.4417 26.0375L24.0648 23.6673ZM23.6087 26.4265L24.0993 26.5234L24.5644 24.1688L24.0738 24.0719L23.6087 26.4265ZM24.194 22.4995C24.194 22.7004 24.2297 22.902 24.301 23.0934L26.5499 22.2552C26.5796 22.335 26.594 22.4176 26.594 22.4995H24.194ZM25.8448 23.7986L26.3134 23.6238L25.4746 21.3752L25.006 21.55L25.8448 23.7986ZM27.0601 23.7365C27.402 23.4143 27.7981 23.1749 28.2214 23.0282L27.4357 20.7605C26.6858 21.0203 25.9979 21.4397 25.414 21.9901L27.0601 23.7365ZM28.9624 21.5015L28.635 20.5566L26.3673 21.3423L26.6947 22.2872L28.9624 21.5015ZM27.1083 19.8156C26.2224 20.1225 25.4127 20.6169 24.7279 21.2625L26.3742 23.0089C26.8169 22.5915 27.3347 22.2771 27.894 22.0833L27.1083 19.8156ZM24.6779 22.9589L25.3639 23.6865L27.1102 22.0401L26.4242 21.3125L24.6779 22.9589ZM26.3103 22.4492C26.9988 23.357 28.0677 23.9133 29.2281 23.9122L29.2259 21.5122C28.8459 21.5125 28.4745 21.331 28.2226 20.9989L26.3103 22.4492ZM29.226 20.5122C29.1694 20.5123 29.0883 20.4855 29.0194 20.3947L27.1071 21.8449C27.6144 22.5138 28.3941 22.9129 29.2281 22.9122L29.226 20.5122ZM27.3381 20.1636L26.5413 20.7679L27.9916 22.6802L28.7884 22.0759L27.3381 20.1636ZM29.2259 23.9122C30.3868 23.9133 31.4547 23.3566 32.1429 22.4492L30.2306 20.9989C29.9784 21.3314 29.6077 21.5125 29.2281 21.5122L29.2259 23.9122ZM31.9118 20.7679L31.115 20.1636L29.6648 22.0759L30.4616 22.6802L31.9118 20.7679ZM29.4338 20.3947C29.3644 20.4862 29.2839 20.5123 29.2281 20.5122L29.226 22.9122C30.0608 22.9129 30.8393 22.5132 31.3461 21.8449L29.4338 20.3947ZM30.2318 23.0282C30.6551 23.1749 31.0512 23.4143 31.3931 23.7365L33.0392 21.9901C32.4553 21.4397 31.7674 21.0203 31.0175 20.7605L30.2318 23.0282ZM33.0893 23.6865L33.7753 22.9589L32.029 21.3125L31.343 22.0401L33.0893 23.6865ZM33.7253 21.2625C33.0404 20.6169 32.2308 20.1225 31.3449 19.8156L30.5592 22.0833C31.1185 22.2771 31.6362 22.5915 32.079 23.0089L33.7253 21.2625ZM29.8182 20.5566L29.4908 21.5015L31.7585 22.2872L32.0859 21.3423L29.8182 20.5566ZM30.9657 21.9071C30.5733 22.9624 30.6567 24.1464 31.2001 25.1355L33.3036 23.9799C33.0981 23.606 33.0644 23.1492 33.2152 22.7435L30.9657 21.9071ZM34.1803 23.499C34.1155 23.381 34.1025 23.2265 34.1525 23.0918L31.9029 22.2556C31.611 23.0409 31.6746 23.9226 32.077 24.6548L34.1803 23.499ZM33.4458 21.5489L32.5085 21.2005L31.6723 23.4501L32.6096 23.7985L33.4458 21.5489ZM31.1992 25.1339C31.7439 26.129 32.7109 26.8426 33.8542 27.0245L34.2313 24.6543C33.8536 24.5942 33.5085 24.3544 33.3045 23.9815L31.1992 25.1339ZM35.2278 26.028L35.385 25.0404L33.0149 24.6632L32.8577 25.6508L35.2278 26.028ZM34.3884 23.6667C34.3295 23.6573 34.2433 23.614 34.1812 23.5007L32.076 24.6531C32.479 25.3892 33.1874 25.9059 34.0115 26.0369L34.3884 23.6667ZM32.4536 25.6751C32.5509 26.1673 32.5508 26.676 32.4536 27.1681L34.8081 27.6333C34.966 26.834 34.966 26.0093 34.8081 25.2099L32.4536 25.6751ZM33.3982 28.5779L34.3792 28.7718L34.8445 26.4174L33.8635 26.2235L33.3982 28.5779ZM35.7891 27.8272C35.9723 26.8998 35.9723 25.9434 35.7891 25.0161L33.4346 25.4813C33.5571 26.1014 33.5572 26.7418 33.4346 27.362L35.7891 27.8272ZM34.3793 24.0715L33.3983 24.2653L33.8634 26.6197L34.8444 26.4259L34.3793 24.0715ZM33.8504 25.8194C32.7529 25.9966 31.7684 26.6731 31.2 27.7079L33.3036 28.8633C33.5163 28.4761 33.8662 28.248 34.2329 28.1888L33.8504 25.8194ZM34.1801 29.3447C34.2445 29.2274 34.3301 29.186 34.3925 29.1759L34.0096 26.8067C33.2168 26.9348 32.4965 27.4244 32.0764 28.1897L34.1801 29.3447ZM35.3857 27.8L35.2263 26.8128L32.857 27.1954L33.0164 28.1826L35.3857 27.8ZM31.2002 27.7076C30.6563 28.6972 30.5733 29.8816 30.9657 30.9368L33.2152 30.1004C33.0642 29.6942 33.098 29.2374 33.3034 28.8636L31.2002 27.7076ZM32.5087 31.6433L33.446 31.2947L32.6094 29.0453L31.6721 29.3939L32.5087 31.6433ZM34.1525 29.7517C34.1022 29.6164 34.1153 29.4627 34.1799 29.3452L32.0766 28.1892C31.6738 28.9221 31.6111 29.8034 31.903 30.5883L34.1525 29.7517ZM31.3931 29.1071C31.0515 29.4291 30.6554 29.6684 30.2321 29.815L31.0174 32.0828C31.7671 31.8232 32.4552 31.4041 33.0392 30.8537L31.3931 29.1071ZM29.4908 31.3415L29.818 32.2865L32.0859 31.5013L31.7587 30.5563L29.4908 31.3415ZM31.3446 33.0278C32.2304 32.7211 33.0401 32.2269 33.725 31.5815L32.0791 29.8349C31.6363 30.2521 31.1187 30.5663 30.5593 30.7599L31.3446 33.0278ZM33.7753 29.8852L33.0894 29.1574L31.3428 30.8034L32.0287 31.5312L33.7753 29.8852ZM32.1425 30.3937C31.4538 29.4862 30.3849 28.9304 29.2248 28.9316L29.2273 31.3316C29.6074 31.3312 29.9788 31.5126 30.2307 31.8445L32.1425 30.3937ZM28.026 30.1317L28.0261 31.1317L30.4261 31.1315L30.426 30.1315L28.026 30.1317ZM29.2275 32.3316C29.2841 32.3315 29.3653 32.3583 29.4342 32.4491L31.3459 30.9981C30.8384 30.3295 30.0586 29.9307 29.2248 29.9316L29.2275 32.3316ZM31.1154 32.6795L31.912 32.075L30.4612 30.1632L29.6646 30.7677L31.1154 32.6795ZM29.2281 28.9316C28.0677 28.9305 26.9988 29.4868 26.3103 30.3947L28.2226 31.8449C28.4745 31.5128 28.8459 31.3313 29.2259 31.3316L29.2281 28.9316ZM26.5414 32.076L27.3382 32.6802L28.7883 30.7678L27.9915 30.1636L26.5414 32.076ZM29.0194 32.4491C29.0887 32.3577 29.1692 32.3315 29.2251 32.3316L29.2272 29.9316C28.3925 29.9308 27.6139 30.3305 27.1071 30.9989L29.0194 32.4491ZM30.4261 31.1327L30.427 30.1327L28.027 30.1305L28.0261 31.1305L30.4261 31.1327ZM28.2209 29.8154C27.7978 29.669 27.4018 29.4297 27.0599 29.1076L25.414 30.8542C25.9979 31.4045 26.686 31.8238 27.4359 32.0834L28.2209 29.8154ZM25.3636 29.1579L24.6778 29.8857L26.4245 31.5317L27.1103 30.8039L25.3636 29.1579ZM24.7282 31.582C25.413 32.2274 26.2228 32.7216 27.1086 33.0283L27.8939 30.7604C27.3345 30.5668 26.8168 30.2526 26.3741 29.8354L24.7282 31.582ZM28.6352 32.287L28.9624 31.342L26.6945 30.5568L26.3673 31.5018L28.6352 32.287ZM27.4875 30.9373C27.8799 29.882 27.7967 28.6975 27.2529 27.708L25.1496 28.864C25.3551 29.2379 25.389 29.6948 25.238 30.1009L27.4875 30.9373ZM24.2729 29.3451C24.3378 29.4632 24.3508 29.6176 24.3007 29.7522L26.5502 30.5888C26.8423 29.8034 26.7787 28.9214 26.3762 28.1891L24.2729 29.3451ZM25.0071 31.2952L25.9444 31.6438L26.781 29.3944L25.8437 29.0458L25.0071 31.2952ZM27.2537 27.7096C26.7088 26.7146 25.7418 26.0015 24.5988 25.8198L24.2219 28.19C24.5997 28.2501 24.9447 28.4898 25.1487 28.8624L27.2537 27.7096ZM23.2252 26.8165L23.0682 27.8041L25.4385 28.1809L25.5955 27.1933L23.2252 26.8165ZM24.0649 29.1776C24.124 29.187 24.2101 29.2304 24.272 29.3434L26.3771 28.1908C25.974 27.4546 25.2655 26.9384 24.4418 26.8074L24.0649 29.1776ZM25.9996 27.1691C25.9022 26.6768 25.9022 26.1681 25.9996 25.6758L23.6451 25.2104C23.487 26.0099 23.487 26.835 23.6451 27.6345L25.9996 27.1691ZM25.055 24.2659L24.0739 24.072L23.6086 26.4264L24.5897 26.6203L25.055 24.2659ZM22.664 25.0166C22.4807 25.9441 22.4808 26.9007 22.664 27.8283L25.0185 27.3631C24.8959 26.7427 24.8959 26.1021 25.0185 25.4818L22.664 25.0166ZM24.0739 28.7729L25.055 28.579L24.5897 26.2246L23.6086 26.4185L24.0739 28.7729ZM24.5989 27.025C25.7427 26.843 26.7098 26.1285 27.2544 25.1337L25.1491 23.9813C24.9448 24.3545 24.5992 24.5948 24.2218 24.6548L24.5989 27.025ZM24.2722 23.5007C24.2101 23.6143 24.1231 23.658 24.0645 23.6673L24.4419 26.0375C25.2663 25.9062 25.975 25.3885 26.3776 24.6527L24.2722 23.5007ZM23.0681 25.0409L23.2252 26.0284L25.5954 25.6514L25.4383 24.6639L23.0681 25.0409ZM27.2534 25.1354C27.7972 24.1458 27.8797 22.9624 27.4875 21.9076L25.238 22.744C25.389 23.1502 25.3553 23.6061 25.1501 23.9796L27.2534 25.1354ZM25.9445 21.201L25.0072 21.5495L25.8436 23.7991L26.7809 23.4506L25.9445 21.201ZM24.3006 23.0923C24.3509 23.2276 24.3377 23.3814 24.2732 23.499L26.3767 24.6544C26.7791 23.9218 26.8418 23.0408 26.5503 22.2563L24.3006 23.0923ZM30.8906 29.3471C31.9406 28.75 32.5905 27.6361 32.5931 26.4279L30.1931 26.4227C30.1924 26.7695 30.0058 27.0894 29.7042 27.2609L30.8906 29.3471ZM29.1931 26.4205C29.1932 26.4084 29.1996 26.3974 29.21 26.3915L30.3962 28.4779C31.1345 28.0582 31.5913 27.275 31.5931 26.4257L29.1931 26.4205ZM32.5931 26.4279C32.5958 25.2199 31.9509 24.103 30.9034 23.5013L29.708 25.5825C30.0087 25.7552 30.1939 26.0759 30.1931 26.4227L32.5931 26.4279ZM29.21 26.4496C29.1995 26.4436 29.1931 26.4324 29.1931 26.4205L31.5931 26.4257C31.595 25.5766 31.1418 24.7914 30.4053 24.3684L29.21 26.4496ZM30.9034 23.5013C29.8558 22.8997 28.5663 22.9054 27.5242 23.5162L28.7377 25.5868C29.037 25.4114 29.4073 25.4097 29.7081 25.5825L30.9034 23.5013ZM29.2435 26.4494C29.2332 26.4555 29.2204 26.4555 29.21 26.4496L30.4053 24.3684C29.6689 23.9455 28.7623 23.9495 28.0297 24.379L29.2435 26.4494ZM27.5241 23.5163C25.9276 24.4522 25.3858 26.5012 26.3111 28.1039L28.3896 26.9039C28.1239 26.4438 28.2795 25.8554 28.7378 25.5867L27.5241 23.5163ZM29.2556 26.4038C29.2568 26.4059 29.2588 26.4109 29.2596 26.4169C29.2602 26.4221 29.2597 26.4261 29.2589 26.4291C29.2582 26.4321 29.2566 26.4358 29.2535 26.44C29.2498 26.4449 29.2456 26.4482 29.2435 26.4494L28.0298 24.379C26.9075 25.0369 26.5267 26.4772 27.1771 27.6038L29.2556 26.4038ZM26.3111 28.104C27.2365 29.7064 29.2818 30.2618 30.8905 29.3472L29.7044 27.2608C29.2425 27.5234 28.6552 27.364 28.3895 26.9038L26.3111 28.104ZM29.2101 26.3915C29.2122 26.3903 29.2171 26.3883 29.2232 26.3876C29.2284 26.387 29.2325 26.3875 29.2354 26.3883C29.2384 26.3891 29.2421 26.3907 29.2463 26.3938C29.2511 26.3975 29.2544 26.4017 29.2555 26.4037L27.1771 27.6039C27.8276 28.7304 29.2653 29.1208 30.3962 28.4779L29.2101 26.3915Z" fill="white" mask="url(#path-4-inside-1_53448_23554)"/>
</svg>