<?xml version="1.0" encoding="UTF-8"?>
<svg width="48px" height="48px" viewBox="0 0 48 48" version="1.1" xmlns="http://www.w3.org/2000/svg" xmlns:xlink="http://www.w3.org/1999/xlink">
    <!-- Generator: sketchtool 60 (101010) - https://sketch.com -->
    <title>025E850A-E85E-4702-A4F3-0579CF78974F@1.5x</title>
    <desc>Created with sketchtool.</desc>
    <g id="Page-1" stroke="none" stroke-width="1" fill="none" fill-rule="evenodd">
        <g id="24.2---device-list" transform="translate(-32.000000, -443.000000)">
            <g id="Shift-Management-Copy-2">
                <g id="Dashboard">
                    <g id="Settings-Copy-2" transform="translate(32.000000, 443.000000)">
                        <g id="Group-2-Copy">
                            <path d="M10,0 L38,0 C43.5228475,-1.01453063e-15 48,4.4771525 48,10 L48,37.847619 C48,43.3704665 43.5228475,47.847619 38,47.847619 L10,47.847619 C4.4771525,47.847619 2.45271059e-15,43.3704665 0,37.847619 L0,10 C-6.76353751e-16,4.4771525 4.4771525,2.79088747e-15 10,0 Z" id="Rectangle-Copy-2" fill="#2E2E55"></path>
                            <g id="noun_tax_1662413" transform="translate(15.000000, 12.000000)" fill-rule="nonzero">
                                <path d="M6.96721311,13.5245902 C6.96721311,14.2213115 7.5,14.7540984 8.19672131,14.7540984 L8.19672131,12.295082 C7.5,12.295082 6.96721311,12.8278689 6.96721311,13.5245902 Z" id="Path" fill="#9FA7D1"></path>
                                <path d="M9.01639344,18.0327869 C9.71311475,18.0327869 10.2459016,17.5 10.2459016,16.8032787 C10.2459016,16.1065574 9.71311475,15.5737705 9.01639344,15.5737705 L9.01639344,18.0327869 Z" id="Path" fill="#9FA7D1"></path>
                                <path d="M13.5245902,20.0819672 C12.6229508,20.0819672 11.8852459,19.3442623 11.8852459,18.442623 C11.8852459,17.5409836 12.6229508,16.8032787 13.5245902,16.8032787 C14.4262295,16.8032787 15.1639344,17.5409836 15.1639344,18.442623 C15.1639344,19.3442623 14.4262295,20.0819672 13.5245902,20.0819672 Z M13.5245902,17.6229508 C13.0737705,17.6229508 12.704918,17.9918033 12.704918,18.442623 C12.704918,18.8934426 13.0737705,19.2622951 13.5245902,19.2622951 C13.9754098,19.2622951 14.3442623,18.8934426 14.3442623,18.442623 C14.3442623,17.9918033 13.9754098,17.6229508 13.5245902,17.6229508 Z" id="Shape" fill="#7C82AB"></path>
                                <path d="M18.0327869,23.7704918 C17.1311475,23.7704918 16.3934426,23.0327869 16.3934426,22.1311475 C16.3934426,21.2295082 17.1311475,20.4918033 18.0327869,20.4918033 C18.9344262,20.4918033 19.6721311,21.2295082 19.6721311,22.1311475 C19.6721311,23.0327869 18.9344262,23.7704918 18.0327869,23.7704918 Z M18.0327869,21.3114754 C17.5819672,21.3114754 17.2131148,21.6803279 17.2131148,22.1311475 C17.2131148,22.5819672 17.5819672,22.9508197 18.0327869,22.9508197 C18.4836066,22.9508197 18.852459,22.5819672 18.852459,22.1311475 C18.852459,21.6803279 18.4836066,21.3114754 18.0327869,21.3114754 Z" id="Shape" fill="#7C82AB"></path>
                                <path d="M11.0655738,7.78688525 L6.14754098,7.78688525 C5.69672131,7.78688525 5.32786885,7.41803279 5.32786885,6.96721311 L5.32786885,6.96721311 C5.32786885,6.51639344 5.69672131,6.14754098 6.14754098,6.14754098 L11.0655738,6.14754098 C11.5163934,6.14754098 11.8852459,6.51639344 11.8852459,6.96721311 L11.8852459,6.96721311 C11.8852459,7.41803279 11.5163934,7.78688525 11.0655738,7.78688525 Z" id="Path" fill="#9FA7D1"></path>
                                <path d="M11.7213115,1.31147541 C11.2295082,1.80327869 10.6967213,2.45901639 10.2459016,3.27868852 L11.6803279,0 L5.53278689,0 C5.53278689,0 6.76229508,2.5 6.96721311,3.27868852 C6.96721311,3.27868852 6.35245902,2.29508197 5.53278689,1.31147541 L3.36065574,2.37704918 L3.85245902,2.78688525 C5,3.7295082 5.77868852,4.59016393 6.2295082,5.32786885 L11.0655738,5.32786885 C11.5163934,4.54918033 12.2540984,3.7295082 13.442623,2.78688525 L13.9344262,2.37704918 L11.7213115,1.31147541 Z" id="Path" fill="#9FA7D1"></path>
                                <path d="M12.3360656,22.9508197 L12.3360656,22.9508197 L13.7704918,20.9016393 C13.6885246,20.9016393 13.6065574,20.9016393 13.4836066,20.9016393 C12.1311475,20.9016393 11.0245902,19.795082 11.0245902,18.442623 C11.0245902,17.0901639 12.1311475,15.9836066 13.4836066,15.9836066 C14.3852459,15.9836066 15.1639344,16.4754098 15.6147541,17.2131148 L15.4098361,15.1229508 C15.204918,12.6639344 14.0163934,10.3688525 12.1311475,8.85245902 L11.8852459,8.60655738 L5.32786885,8.60655738 L5.04098361,8.81147541 C3.1557377,10.3688525 1.96721311,12.6639344 1.76229508,15.0819672 L1.2704918,20.4918033 C0.532786885,20.5737705 0,21.1885246 0,21.9262295 C0,22.704918 0.655737705,23.3606557 1.43442623,23.3606557 L12.0491803,23.3606557 L12.3360656,22.9508197 Z M9.01639344,18.852459 L9.01639344,19.6721311 L8.19672131,19.6721311 L8.19672131,18.852459 C7.04918033,18.852459 6.14754098,17.9508197 6.14754098,16.8032787 L6.96721311,16.8032787 C6.96721311,17.5 7.5,18.0327869 8.19672131,18.0327869 L8.19672131,15.5737705 C7.04918033,15.5737705 6.14754098,14.6721311 6.14754098,13.5245902 C6.14754098,12.3770492 7.04918033,11.4754098 8.19672131,11.4754098 L8.19672131,10.6557377 L9.01639344,10.6557377 L9.01639344,11.4754098 C10.1639344,11.4754098 11.0655738,12.3770492 11.0655738,13.5245902 L10.2459016,13.5245902 C10.2459016,12.8278689 9.71311475,12.295082 9.01639344,12.295082 L9.01639344,14.7540984 C10.1639344,14.7540984 11.0655738,15.6557377 11.0655738,16.8032787 C11.0655738,17.9508197 10.1639344,18.852459 9.01639344,18.852459 Z" id="Shape" fill="#9FA7D1"></path>
                                <polygon id="Rectangle" fill="#7C82AB" transform="translate(15.572582, 20.492828) rotate(-145.021122) translate(-15.572582, -20.492828) " points="15.1627276 15.4926047 15.9824363 15.4926047 15.9824363 25.493051 15.1627276 25.493051"></polygon>
                            </g>
                        </g>
                    </g>
                </g>
            </g>
        </g>
    </g>
</svg>